<?xml version="1.0" encoding="utf-8"?>
<!-- Generator: Adobe Illustrator 19.2.1, SVG Export Plug-In . SVG Version: 6.00 Build 0)  -->
<svg version="1.1" id="svgs" xmlns="http://www.w3.org/2000/svg" xmlns:xlink="http://www.w3.org/1999/xlink" x="0px" y="0px"
	 viewBox="0 0 946 247" style="enable-background:new 0 0 946 247;" xml:space="preserve">
<style type="text/css">
	.st0{fill:#F06368;stroke:#F06368;stroke-width:2;stroke-miterlimit:10;}
	.st1{fill:#CA2128;}
	.st2{fill:url(#SVGID_1_);}
	.st3{fill:#BE2227;}
	.st4{fill:url(#SVGID_2_);}
	.st5{fill:#621310;}
	.st6{fill:url(#SVGID_3_);}
	.st7{fill:#D32034;}
	.st8{fill:url(#SVGID_4_);}
	.st9{fill:url(#SVGID_5_);}
	.st10{fill:url(#SVGID_6_);}
	.st11{fill:url(#SVGID_7_);}
	.st12{fill:#EF4C53;}
	.st13{opacity:0.61;fill:url(#SVGID_8_);enable-background:new    ;}
	.st14{fill:url(#SVGID_9_);}
	.st15{fill:url(#SVGID_10_);}
	.st16{fill:#8FC733;stroke:#8FC733;stroke-width:2;stroke-miterlimit:10;}
	.st17{fill:#FFFFFF;}
	.st18{fill:#8FC733;}
	.st19{fill:#A1CCCC;stroke:#A1CCCC;stroke-width:2;stroke-miterlimit:10;}
	.st20{fill:#FFA3A9;}
	.st21{fill:none;stroke:#C4C9C9;stroke-width:2;stroke-miterlimit:10;}
	.st22{fill:#ABB0B0;}
	.st23{fill:#FFCC66;stroke:#FFCC66;stroke-width:2;stroke-miterlimit:10;}
	.st24{fill:#3672A7;}
	.st25{fill:#F1AA1D;}
	.st26{fill:#6FDBC2;stroke:#6FDBC2;stroke-width:2;stroke-miterlimit:10;}
	.st27{fill:#CCEBE4;}
	.st28{fill:#8AC2B5;}
	.st29{fill:#7FC4B4;}
	.st30{fill:#5FC9B1;}
	.st31{fill:#86E6D0;}
	.st32{fill:#A5C7D1;}
	.st33{fill:#68A1B2;}
	.st34{fill:#DFDFDF;stroke:#DFDFDF;stroke-width:2;stroke-miterlimit:10;}
	.st35{fill:#4A81AB;}
	.st36{fill:#5EA5DB;}
	.st37{fill:#AAC1D6;}
	.st38{fill:none;stroke:#5EA5DB;stroke-width:2;stroke-miterlimit:10;}
	.st39{fill:none;stroke:#5EA5DB;stroke-width:2;stroke-miterlimit:10;stroke-dasharray:3.5807,2.3871;}
	.st40{fill:none;stroke:#5EA5DB;stroke-width:2;stroke-miterlimit:10;stroke-dasharray:3.1191,2.0794;}
	.st41{fill:none;stroke:#5EA5DB;stroke-width:2;stroke-miterlimit:10;stroke-dasharray:3.1194,2.0796;}
	.st42{fill:none;stroke:#5EA5DB;stroke-width:2;stroke-miterlimit:10;stroke-dasharray:3.1197,2.0798;}
	.st43{fill:#B07C5C;stroke:#B07C5C;stroke-width:2;stroke-miterlimit:10;}
	.st44{fill:#DFDFDF;}
	.st45{clip-path:url(#SVGID_12_);fill:#D69F72;}
	.st46{clip-path:url(#SVGID_14_);fill:#B37E5D;}
	.st47{fill:none;stroke:#FFFFFF;stroke-width:3;stroke-miterlimit:10;}
	.st48{fill:none;stroke:#DFDFDF;stroke-linecap:round;stroke-miterlimit:10;}
	.st49{fill:none;stroke:#FFFFFF;stroke-width:2;stroke-miterlimit:10;}
	.st50{fill:#9CB3F0;stroke:#9CB3F0;stroke-width:2;stroke-miterlimit:10;}
	.st51{fill:#52638F;}
	.st52{fill:#374E78;}
	.st53{fill:#2D3652;}
	.st54{fill:#FF3030;stroke:#FF3030;stroke-width:2;stroke-miterlimit:10;}
	.st55{fill:#B32222;}
	.st56{fill:#FF0000;}
	.st57{fill:#5ECC81;stroke:#5ECC81;stroke-width:2;stroke-miterlimit:10;}
	.st58{fill:#1F8B35;}
	.st59{fill:#2BA240;}
	.st60{fill:none;stroke:#D6CBA6;stroke-miterlimit:10;}
	.st61{fill:#FFB03B;stroke:#FFB03B;stroke-width:2;stroke-miterlimit:10;}
	.st62{fill:none;stroke:#FFE7A6;stroke-linejoin:bevel;stroke-miterlimit:10;}
	.st63{fill:none;stroke:#FFE7A6;stroke-width:2.1;stroke-linejoin:bevel;stroke-miterlimit:10;}
	.st64{fill:#FFE7A6;}
	.st65{fill:#1A93DB;stroke:#1A93DB;stroke-width:2;stroke-miterlimit:10;}
	.st66{fill:#95C3ED;}
	.st67{fill:none;stroke:#107CBF;stroke-width:1.7761;stroke-linecap:round;stroke-miterlimit:10;}
	.st68{fill:#78B0E3;}
	.st69{fill:#7197EE;stroke:#7197EE;stroke-width:2;stroke-miterlimit:10;}
	.st70{fill:#4A67A8;}
	.st71{fill:#FFC88D;}
	.st72{fill:url(#path3352_1_);}
	.st73{fill:url(#path4028_1_);}
	.st74{fill:#002B64;}
	.st75{fill:#678AD9;}
	.st76{fill:#394E80;}
	.st77{fill:#C7FFFA;}
	.st78{fill:#D1DEE8;stroke:#D1DEE8;stroke-width:2;stroke-miterlimit:10;}
	.st79{fill:#3D8EC9;}
	.st80{fill:#2C668F;}
	.st81{fill:#DB2317;stroke:#DB2317;stroke-width:2;stroke-miterlimit:10;}
	.st82{fill:#AB1B12;}
	.st83{fill:#FF3226;}
	.st84{fill:#F25C5C;stroke:#F25C5C;stroke-width:2;stroke-miterlimit:10;}
	.st85{fill:#FCFCFC;}
	.st86{fill:#FF8754;}
	.st87{fill:#35C7F0;stroke:#35C7F0;stroke-width:2;stroke-miterlimit:10;}
	.st88{fill:#FFD56B;}
	.st89{fill:#FFEE9E;}
	.st90{fill:#FFFCE6;}
	.st91{fill:#0D96BD;stroke:#0D96BD;stroke-width:2;stroke-miterlimit:10;}
	.st92{fill:#0A7594;}
	.st93{fill:#FFF6FF;}
	.st94{fill:#FFD86E;}
	.st95{fill:#F5CC5B;}
	.st96{fill:#EBA83D;}
	.st97{fill:none;stroke:#B9DFF0;stroke-miterlimit:10;}
	.st98{fill:none;stroke:#218BB0;stroke-width:1.1126;stroke-linecap:round;stroke-linejoin:round;}
	.st99{fill:#218BB0;}
	.st100{fill:none;stroke:#46B4DB;stroke-width:0.8798;stroke-linecap:round;stroke-linejoin:round;}
	.st101{fill:#46B4DB;}
	.st102{fill:#005A7A;}
	.st103{fill:none;stroke:#DB4559;stroke-width:2;stroke-miterlimit:10;}
	.st104{fill:none;stroke:#717D85;stroke-width:2.5;stroke-miterlimit:10;}
	.st105{fill:none;stroke:#717D85;stroke-width:2;stroke-linejoin:bevel;stroke-miterlimit:10;}
	.st106{fill:none;stroke:#717D85;stroke-width:2;stroke-miterlimit:10;}
</style>
<g id="hex-ruby">
	<polygon id="_x3E_bg" class="st0" points="142.5,65.6 119.2,79 96,65.6 96,38.7 119.2,25.3 142.5,38.7 	"/>
	<path class="st1" d="M120,58.5"/>
	
		<linearGradient id="SVGID_1_" gradientUnits="userSpaceOnUse" x1="133.7477" y1="-1033.7045" x2="124.8962" y2="-1076.6969" gradientTransform="matrix(1 0 0 1 0 1128)">
		<stop  offset="0" style="stop-color:#EF4C53"/>
		<stop  offset="0.1648" style="stop-color:#EB4A51"/>
		<stop  offset="0.336" style="stop-color:#DE454B"/>
		<stop  offset="0.5103" style="stop-color:#CA3D41"/>
		<stop  offset="0.6867" style="stop-color:#AC3133"/>
		<stop  offset="0.8629" style="stop-color:#872221"/>
		<stop  offset="1" style="stop-color:#651410"/>
	</linearGradient>
	<polygon class="st2" points="132.9,58.5 125.6,49.9 120,59.2 	"/>
	<polygon class="st3" points="125.6,49.9 131.5,46 132.9,58.5 	"/>
	
		<linearGradient id="SVGID_2_" gradientUnits="userSpaceOnUse" x1="150.923" y1="-1067.6603" x2="129.1136" y2="-1079.355" gradientTransform="matrix(1 0 0 1 0 1128)">
		<stop  offset="0" style="stop-color:#EF4C53"/>
		<stop  offset="0.1648" style="stop-color:#EB4A51"/>
		<stop  offset="0.336" style="stop-color:#DE454B"/>
		<stop  offset="0.5103" style="stop-color:#CA3D41"/>
		<stop  offset="0.6867" style="stop-color:#AC3133"/>
		<stop  offset="0.8629" style="stop-color:#872221"/>
		<stop  offset="1" style="stop-color:#651410"/>
	</linearGradient>
	<polygon class="st4" points="132.9,58.5 139,49.9 131.5,42.1 131.5,46 	"/>
	<polygon class="st5" points="107.1,58.5 114.4,49.9 120,59.2 	"/>
	<polygon class="st3" points="114.4,49.9 108.4,46 107.1,58.5 	"/>
	<polygon class="st3" points="114.4,49.9 108.4,46 107.1,58.5 	"/>
	
		<linearGradient id="SVGID_3_" gradientUnits="userSpaceOnUse" x1="105.8709" y1="-1070.6615" x2="109.5607" y2="-1076.9269" gradientTransform="matrix(1 0 0 1 0 1128)">
		<stop  offset="0" style="stop-color:#FFFFFF"/>
		<stop  offset="1" style="stop-color:#FFFFFF;stop-opacity:0"/>
	</linearGradient>
	<polygon class="st6" points="114.4,49.9 108.4,46 107.1,58.5 	"/>
	<polygon class="st7" points="107.1,57.8 100.9,49.9 108.4,42.1 108.4,46 	"/>
	
		<linearGradient id="SVGID_4_" gradientUnits="userSpaceOnUse" x1="115.1506" y1="-1082.3671" x2="104.3357" y2="-1076.0583" gradientTransform="matrix(1 0 0 1 0 1128)">
		<stop  offset="0" style="stop-color:#FFFFFF"/>
		<stop  offset="1" style="stop-color:#FFFFFF;stop-opacity:0"/>
	</linearGradient>
	<polygon class="st8" points="107.1,57.8 100.9,49.9 108.4,42.1 108.4,46 	"/>
	
		<linearGradient id="SVGID_5_" gradientUnits="userSpaceOnUse" x1="100.879" y1="-1074.152" x2="118.3051" y2="-1084.0381" gradientTransform="matrix(1 0 0 1 0 1128)">
		<stop  offset="0" style="stop-color:#621310"/>
		<stop  offset="0.172" style="stop-color:#661312;stop-opacity:0.828"/>
		<stop  offset="0.3508" style="stop-color:#731418;stop-opacity:0.6492"/>
		<stop  offset="0.5327" style="stop-color:#871621;stop-opacity:0.4673"/>
		<stop  offset="0.7167" style="stop-color:#A5182E;stop-opacity:0.2833"/>
		<stop  offset="0.9007" style="stop-color:#CA1A3F;stop-opacity:9.930000e-02"/>
		<stop  offset="1" style="stop-color:#E11C4A;stop-opacity:0"/>
	</linearGradient>
	<polygon class="st9" points="107.1,57.8 100.9,49.9 108.4,42.1 108.4,46 	"/>
	
		<linearGradient id="SVGID_6_" gradientUnits="userSpaceOnUse" x1="115.4396" y1="-1078.3029" x2="121.8616" y2="-1074.0687" gradientTransform="matrix(1 0 0 1 0 1128)">
		<stop  offset="0" style="stop-color:#EE3A3F"/>
		<stop  offset="1" style="stop-color:#AC2125"/>
	</linearGradient>
	<polygon class="st10" points="120,49.9 114.4,49.9 114.4,49.9 120,59.2 125.6,49.9 125.6,49.9 	"/>
	
		<linearGradient id="SVGID_7_" gradientUnits="userSpaceOnUse" x1="112.9762" y1="-1069.1501" x2="122.3178" y2="-1078.6599" gradientTransform="matrix(1 0 0 1 0 1128)">
		<stop  offset="0" style="stop-color:#FFFFFF"/>
		<stop  offset="1" style="stop-color:#FFFFFF;stop-opacity:0.42"/>
	</linearGradient>
	<polygon class="st11" points="120,49.9 114.4,49.9 114.4,49.9 120,59.2 125.6,49.9 125.6,49.9 	"/>
	<polygon class="st12" points="126.4,39 120,39 113.5,39 108.4,42.1 108.4,46 114.4,49.9 120,49.9 125.6,49.9 131.5,46 131.5,42.1 	
		"/>
	
		<linearGradient id="SVGID_8_" gradientUnits="userSpaceOnUse" x1="135.5061" y1="-1102.5881" x2="118.3595" y2="-1082.0444" gradientTransform="matrix(1 0 0 1 0 1128)">
		<stop  offset="0" style="stop-color:#FFFFFF"/>
		<stop  offset="1" style="stop-color:#FFFFFF;stop-opacity:0"/>
	</linearGradient>
	<polygon class="st13" points="126.4,39 120,39 113.5,39 108.4,42.1 108.4,46 114.4,49.9 120,49.9 125.6,49.9 131.5,46 131.5,42.1 	
		"/>
	<polygon class="st1" points="120,59.2 120,68 132.9,58.5 	"/>
	
		<linearGradient id="SVGID_9_" gradientUnits="userSpaceOnUse" x1="142.8018" y1="-1052.1731" x2="109.1573" y2="-1070.2141" gradientTransform="matrix(1 0 0 1 0 1128)">
		<stop  offset="0" style="stop-color:#EF4C53"/>
		<stop  offset="0.1648" style="stop-color:#EB4A51"/>
		<stop  offset="0.336" style="stop-color:#DE454B"/>
		<stop  offset="0.5103" style="stop-color:#CA3D41"/>
		<stop  offset="0.6867" style="stop-color:#AC3133"/>
		<stop  offset="0.8629" style="stop-color:#872221"/>
		<stop  offset="1" style="stop-color:#651410"/>
	</linearGradient>
	<polygon class="st14" points="120,59.2 120,59.2 107.1,58.5 120,68 120,68 	"/>
	
		<linearGradient id="SVGID_10_" gradientUnits="userSpaceOnUse" x1="108.4" y1="-1082" x2="108.4" y2="-1082" gradientTransform="matrix(1 0 0 1 0 1128)">
		<stop  offset="0" style="stop-color:#EF4C53"/>
		<stop  offset="0.1648" style="stop-color:#EB4A51"/>
		<stop  offset="0.336" style="stop-color:#DE454B"/>
		<stop  offset="0.5103" style="stop-color:#CA3D41"/>
		<stop  offset="0.6867" style="stop-color:#AC3133"/>
		<stop  offset="0.8629" style="stop-color:#872221"/>
		<stop  offset="1" style="stop-color:#651410"/>
	</linearGradient>
	<path class="st15" d="M108.4,46"/>
</g>
<g id="hex-node">
	<polygon id="_x3E_bg_2_" class="st16" points="213.4,65.6 190.1,79 166.9,65.6 166.9,38.7 190.1,25.3 213.4,38.7 	"/>
	<polygon class="st17" points="190.2,35.1 205.7,44 205.7,61.8 190.2,70.6 174.7,61.8 174.7,44 	"/>
	<path class="st18" d="M200.3,47.3c0-0.4-0.2-0.8-0.5-0.9l-9-5.4c-0.2-0.1-0.3-0.4-0.5-0.4h-0.1c-0.2,0-0.3,0.3-0.5,0.4l-9,5.3
		c-0.3,0.2-0.5,0.6-0.5,1v14c0,0.2,0.1,0.4,0.3,0.5s0.4,0.1,0.5,0l5.4-3.1c0.3-0.2,0.6-0.6,0.6-0.9v-6.5c0-0.4,0.2-0.8,0.5-0.9
		l2.3-1.3c0.2-0.1,0.3-0.1,0.5-0.1s0.4,0,0.5,0.1l2.4,1.3c0.3,0.2,0.7,0.6,0.7,0.9v6.5c0,0.4,0,0.7,0.4,0.9l5.3,3.1
		c0.2,0.1,0.3,0.1,0.5,0s0.3-0.3,0.3-0.5L200.3,47.3z"/>
</g>
<g id="hex-memcached">
	<polygon id="_x3E_bg_3_" class="st19" points="283.8,65.6 260.5,79 237.3,65.6 237.3,38.7 260.5,25.3 283.8,38.7 	"/>
	<path class="st17" d="M260.4,70.6c11.8,0,15.9-8.5,15.9-14.1c0-5.7-1.4-14-9.1-21.6c0,5.3-0.1,12.1-6.3,12.1"/>
	<path class="st17" d="M261.4,70.6c-11.8,0-15.9-8.5-15.9-14.1c0-5.7,1.4-14,9.1-21.6c0,5.3,0.1,12.1,6.3,12.1"/>
	<g>
		<circle class="st17" cx="269.7" cy="56" r="3.5"/>
	</g>
	<g>
		<path class="st20" d="M269.7,52.8c1.7,0,3.1,1.4,3.1,3.1c0,1.7-1.4,3.1-3.1,3.1s-3.1-1.4-3.1-3.1S267.9,52.8,269.7,52.8
			 M269.7,51.8c-2.3,0-4.1,1.8-4.1,4.1s1.8,4.1,4.1,4.1c2.3,0,4.1-1.8,4.1-4.1C273.8,53.7,271.9,51.8,269.7,51.8L269.7,51.8z"/>
	</g>
	<g>
		<polyline class="st21" points="261,58.9 261,64.9 257.5,68.3 		"/>
		<line class="st21" x1="265" y1="68.2" x2="261.4" y2="64.5"/>
	</g>
	<g>
		<circle class="st17" cx="253.2" cy="56" r="3.5"/>
	</g>
	<polygon class="st22" points="263.4,58.1 261.4,60 259.5,58.1 	"/>
	<g>
		<path class="st20" d="M253.2,52.8c1.7,0,3.1,1.4,3.1,3.1c0,1.7-1.4,3.1-3.1,3.1c-1.7,0-3.1-1.4-3.1-3.1
			C250.1,54.2,251.5,52.8,253.2,52.8 M253.2,51.8c-2.3,0-4.1,1.8-4.1,4.1s1.8,4.1,4.1,4.1s4.1-1.8,4.1-4.1
			C257.3,53.7,255.5,51.8,253.2,51.8L253.2,51.8z"/>
	</g>
</g>
<g id="hex-python">
	<polygon id="_x3E_bg_4_" class="st23" points="354.4,65.6 331.1,79 307.9,65.6 307.9,38.7 331.1,25.3 354.4,38.7 	"/>
	<polygon class="st24" points="331.1,41.5 322.5,41.5 322.5,37.9 326.3,33.9 336.6,33.9 340.6,38.1 340.6,48.2 336.9,52 324.9,52 
		320.6,56.4 320.6,61.9 316.7,61.4 312.9,57.8 312.9,47.8 317.3,43.4 331.1,43.4 	"/>
	
		<rect x="326.9" y="36.6" transform="matrix(0.7073 -0.7069 0.7069 0.7073 69.3299 242.9451)" class="st17" width="2.3" height="2.3"/>
	<polygon class="st17" points="332,64.5 340.6,64.5 340.6,67.8 337,71.2 326.7,71.2 322.5,67.6 322.5,57.5 326.4,54 338.4,54 
		342.6,49.8 342.6,44.2 346.7,44.3 350.2,47.9 350.2,57.9 346,62.6 332,62.6 	"/>
	
		<rect x="334.6" y="66.8" transform="matrix(0.7075 -0.7067 0.7067 0.7075 50.1863 257.142)" class="st25" width="2.3" height="2.3"/>
</g>
<g id="hex-platform">
	<polygon id="_x3E_bg_15_" class="st26" points="566.3,141.6 543,155 519.8,141.6 519.8,114.7 543,101.3 566.3,114.7 	"/>
	<g id="logo-horizontal_1_">
		<g>
			<polygon class="st17" points="554.4,140.3 542.9,146.2 531.1,140.2 542.6,134.2 			"/>
			<polygon class="st27" points="549.5,137.8 542.7,141.3 535.8,137.7 542.6,134.2 			"/>
			<polygon class="st28" points="542.9,146.2 554.4,140.3 554.4,142 542.9,147.9 			"/>
			<polygon class="st29" points="542.9,146.2 531.1,140.2 531.1,141.9 542.9,147.9 			"/>
		</g>
		<g>
			<polygon class="st30" points="543,136.6 552.4,131.8 552.4,133.2 543,138 			"/>
			<polygon class="st31" points="543,136.6 533.6,131.8 533.6,133.2 543,138 			"/>
			<polygon class="st17" points="552.4,131.8 543,136.6 533.6,131.8 543,127 			"/>
			<polygon class="st27" points="549.9,130.5 543,134.1 536.1,130.5 543,127 			"/>
		</g>
		<g>
			<polygon class="st28" points="543,129.1 554.4,123.2 554.4,125 543,130.8 			"/>
			<polygon class="st29" points="543,129.1 531.6,123.2 531.6,125 543,130.8 			"/>
			<polygon class="st17" points="554.4,123.2 543,129.1 531.6,123.2 543,117.4 			"/>
			<polygon class="st27" points="551.4,121.7 543,126 534.6,121.7 543,117.4 			"/>
		</g>
		<g>
			<polygon class="st17" points="554.4,114.2 542.9,120.1 531.4,114.2 542.9,108.3 			"/>
			<polygon class="st30" points="542.9,120.1 554.4,114.2 554.4,116 542.9,121.9 			"/>
			<polygon class="st31" points="542.9,120.1 531.4,114.2 531.4,116 542.9,121.9 			"/>
		</g>
	</g>
</g>
<g id="hex-system">
	<polygon id="_x3E_bg_16_" class="st32" points="633.8,141.6 610.5,155 587.3,141.6 587.3,114.7 610.5,101.3 633.8,114.7 	"/>
	<polygon class="st33" points="616.7,117.5 622.9,128.2 616.7,138.8 604.4,138.8 598.2,128.2 604.4,117.5 	"/>
</g>
<g id="hex-storage">
	<polygon id="_x3E_bg_5_" class="st34" points="425,65.6 401.7,79 378.5,65.6 378.5,38.7 401.7,25.3 425,38.7 	"/>
	<polygon class="st35" points="412.6,61.4 412.6,57.6 401.6,65.7 401.6,69.8 	"/>
	<polyline class="st36" points="401.6,65.7 386.6,54.7 386.6,59 401.5,70 	"/>
	<polygon class="st17" points="398.1,47.4 387,54.7 401.9,65.8 412.6,57.6 	"/>
	<polygon class="st37" points="392.5,51.1 406.9,62 412.6,57.6 398.1,46.5 	"/>
	<polygon class="st35" points="415.6,50.3 415.6,46.5 405.6,54.3 405.6,58.4 	"/>
	<polyline class="st36" points="405.5,54.3 390.6,43.3 390.6,47.6 405.5,58.6 	"/>
	<polygon class="st17" points="401.3,36.3 390.7,43.3 405.6,54.4 415.8,46.5 	"/>
	<g>
		<g>
			<line class="st38" x1="412.4" y1="30.7" x2="411.1" y2="31.5"/>
			<line class="st39" x1="409.1" y1="32.8" x2="405.2" y2="35.5"/>
			<line class="st38" x1="404.2" y1="36.2" x2="403" y2="37"/>
		</g>
	</g>
	<g>
		<g>
			<line class="st38" x1="417.2" y1="33.8" x2="416" y2="34.6"/>
			<line class="st39" x1="414" y1="36" x2="410" y2="38.6"/>
			<line class="st38" x1="409" y1="39.3" x2="407.8" y2="40.1"/>
		</g>
	</g>
	<g>
		<g>
			<line class="st38" x1="422" y1="36.9" x2="420.8" y2="37.7"/>
			<line class="st39" x1="418.8" y1="39.1" x2="414.9" y2="41.8"/>
			<line class="st38" x1="413.9" y1="42.4" x2="412.6" y2="43.3"/>
		</g>
	</g>
	<g>
		<g>
			<line class="st38" x1="390.1" y1="61.4" x2="388.9" y2="62.3"/>
			<line class="st40" x1="387.2" y1="63.5" x2="383.8" y2="65.9"/>
			<line class="st38" x1="383" y1="66.6" x2="381.8" y2="67.4"/>
		</g>
	</g>
	<g>
		<g>
			<line class="st38" x1="394.9" y1="64.5" x2="393.7" y2="65.4"/>
			<line class="st41" x1="392" y1="66.6" x2="388.7" y2="69.1"/>
			<line class="st38" x1="387.8" y1="69.7" x2="386.6" y2="70.6"/>
		</g>
	</g>
	<g>
		<g>
			<line class="st38" x1="399.8" y1="67.6" x2="398.6" y2="68.5"/>
			<line class="st42" x1="396.9" y1="69.7" x2="393.5" y2="72.2"/>
			<line class="st38" x1="392.7" y1="72.8" x2="391.4" y2="73.7"/>
		</g>
	</g>
</g>
<g id="hex-java">
	<polygon id="_x3E_bg_6_" class="st43" points="495.6,65.6 472.3,79 449.1,65.6 449.1,38.7 472.3,25.3 495.6,38.7 	"/>
	<ellipse class="st17" cx="471.1" cy="65.3" rx="7.2" ry="4.8"/>
	<ellipse class="st44" cx="471.1" cy="50.9" rx="12.5" ry="6.7"/>
	<g>
		<g>
			<g>
				<g>
					<g>
						<g>
							<g>
								<g>
									<defs>
										<ellipse id="SVGID_11_" cx="471.1" cy="53.4" rx="10.4" ry="5.6"/>
									</defs>
									<clipPath id="SVGID_12_">
										<use xlink:href="#SVGID_11_"  style="overflow:visible;"/>
									</clipPath>
									<ellipse class="st45" cx="471.1" cy="53.4" rx="10.4" ry="5.6"/>
								</g>
							</g>
						</g>
					</g>
				</g>
			</g>
		</g>
		<g>
			<g>
				<g>
					<g>
						<g>
							<g>
								<g>
									<defs>
										<ellipse id="SVGID_13_" cx="471.1" cy="53.4" rx="10.4" ry="5.6"/>
									</defs>
									<clipPath id="SVGID_14_">
										<use xlink:href="#SVGID_13_"  style="overflow:visible;"/>
									</clipPath>
									<path class="st46" d="M487.1,45.9h-26v6.7c1.9-1.3,4.7-2.1,8-2.1c4.5,0,8.2,1.6,9.7,3.8C478.8,54.2,486.5,53.5,487.1,45.9z
										"/>
								</g>
							</g>
						</g>
					</g>
				</g>
			</g>
		</g>
	</g>
	<path class="st17" d="M478.1,65.9c-0.9,1.9-3.6,2.4-6.9,2.4s-6.1-0.9-6.9-2.2h-0.2c-6.4-8-5.8-15-5.8-15l0.2-0.5
		c0,3.7,5.5,6.9,12.4,6.9s12.6-3,12.6-6.7v0.1C483.6,51,484.5,58.3,478.1,65.9L478.1,65.9L478.1,65.9z"/>
	<g>
		<path class="st17" d="M471.1,46.2c6,0,10.5,2.5,10.5,4.7s-4.5,4.7-10.5,4.7s-10.5-2.5-10.5-4.7S465.1,46.2,471.1,46.2 M471.1,44.2
			c-6.9,0-12.5,3-12.5,6.7s5.6,6.7,12.5,6.7s12.5-3,12.5-6.7S478,44.2,471.1,44.2L471.1,44.2z"/>
	</g>
	<path class="st47" d="M483.4,51.6c3.3,0,6,2.7,6,6s-2.7,6-6,6s-5.1,0-5.1,0"/>
	<path class="st47" d="M483.4,51.6c3.3,0,6,2.7,6,6s-2.7,6-6,6s-5.1,0-5.1,0"/>
	<path class="st48" d="M483.5,52.2c2.1,0,4,1.3,4.8,3.1"/>
	<line class="st48" x1="479.3" y1="64.5" x2="485" y2="64.5"/>
	<path class="st48" d="M464.8,64.4c-2.7-3.6-3.7-6.9-4.2-8.9"/>
	<path class="st49" d="M480.4,34.9c-1.1,3.8-4.1,6.3-5.5,7.4"/>
	<path class="st49" d="M464.8,43.4c-0.6-4.5,2-6.7,4.1-8.4c0.6-0.5,1.1-1,1.5-1.4"/>
	<path class="st49" d="M475.8,29.8c1.2,4.5-2.1,7.3-3.9,8.8c-2.1,1.8-2.6,2.4-2.4,4.1"/>
</g>
<g id="hex-php">
	<polygon id="_x3E_bg_7_" class="st50" points="566.3,65.6 543,79 519.8,65.6 519.8,38.7 543,25.3 566.3,38.7 	"/>
	<polyline class="st51" points="550.1,57.7 543,80.2 567.2,66.1 567.3,40 556.4,38.4 	"/>
	<polygon class="st52" points="559.3,41.4 566.1,51.2 555.4,69.5 551.5,61 	"/>
	<polygon class="st51" points="537.3,39.6 543,34.5 548.7,35.4 555.8,34.5 564.2,51.1 555.6,63.1 546.8,59 548.1,51.3 546.8,57.6 
		543.7,57.4 541.1,60.2 539.3,59.9 539.1,57.9 537.3,58.9 535.2,67.6 530.9,68.6 522.4,63.1 525.2,61.8 530.4,64.5 532.4,63.1 
		530.7,52 	"/>
	<polygon class="st17" points="539.7,51.5 540.9,53.8 536.8,54.7 527.4,47.6 528.8,46.9 536.7,52 	"/>
	<polygon class="st17" points="529.5,53.2 526.7,53.2 522.1,49.3 521.1,50 526,54.8 530.1,55.2 	"/>
	<circle class="st53" cx="543" cy="45.3" r="1.8"/>
	<polygon class="st52" points="550.1,42.7 547,57.7 544.2,57.5 	"/>
</g>
<g id="hex-couch-db">
	<polygon id="_x3E_bg_8_" class="st54" points="634.2,65.6 610.9,79 587.7,65.6 587.7,38.7 610.9,25.3 634.2,38.7 	"/>
	<g>
		<polygon class="st55" points="591.1,63.2 630.8,63.2 630.8,47.9 628.4,47.9 628.4,40.5 593.9,40.5 593.9,47.9 591.1,47.9 		"/>
		<polygon class="st56" points="625.8,49.2 625.8,42.6 596.4,42.6 596.4,48.1 594,48.1 594,60.9 596.4,60.9 598,60.9 622.4,60.9 
			625.8,60.9 628.2,60.9 628.2,49.2 		"/>
		<polygon class="st55" points="598,56.6 598,62.4 623.9,62.4 623.9,56.2 605.7,58.3 		"/>
		<polygon class="st55" points="598,49 598,52.9 604.5,55.1 623.9,53.2 623.9,49.3 619.9,51.8 613.2,49 605.4,50.5 		"/>
		<polygon class="st17" points="595.1,46.6 598.3,45.3 597.1,44 597.1,39.4 601.6,39.4 601.6,44.2 607.3,39.5 614.7,41 614.9,42.6 
			612.6,42.6 611.4,42.6 608.6,42.6 605.5,45.9 607.4,48.5 614.1,46.2 620.1,51.1 623.5,51.9 623.9,53.2 618,53.8 617.7,53 
			617.4,52.8 613.7,50.5 607,54.7 608.1,65.1 604.8,65.2 602.3,54.4 601.2,54 597.9,49.5 596.4,49.5 596.4,50.6 595.6,50.2 
			595.6,51.9 594,51.3 594,47.9 		"/>
	</g>
</g>
<g id="hex-mongo-db">
	<polygon id="_x3E_bg_1_" class="st57" points="71.8,65.6 48.5,79 25.3,65.6 25.3,38.7 48.5,25.3 71.8,38.7 	"/>
	<path class="st58" d="M48.5,34.6v32c0,0,8.6-3.6,8.6-15.8S48.5,34.6,48.5,34.6z"/>
	<path class="st59" d="M48.5,34.6v32c0,0-8.6-3.6-8.6-15.8S48.5,34.6,48.5,34.6z"/>
	<line class="st60" x1="48.5" y1="66.6" x2="48.5" y2="70.8"/>
</g>
<g id="hex-arbiter">
	<polygon id="_x3E_bg_17_" class="st61" points="71.8,214.6 48.5,228 25.3,214.6 25.3,187.7 48.5,174.3 71.8,187.7 	"/>
	<line class="st62" x1="52.4" y1="223.7" x2="64.8" y2="216.6"/>
	<line class="st62" x1="44.6" y1="223.7" x2="32.3" y2="216.6"/>
	<line class="st62" x1="52.4" y1="179.6" x2="64.8" y2="186.7"/>
	<line class="st62" x1="68.7" y1="193.3" x2="68.7" y2="209.5"/>
	<line class="st62" x1="28.3" y1="193.3" x2="28.3" y2="209.5"/>
	<line class="st62" x1="44.6" y1="179.6" x2="32.3" y2="186.7"/>
	<polyline class="st63" points="57.7,198.9 57.7,205 51.1,210.7 51.1,187.1 52.9,185.2 56.7,185.2 58.6,187 	"/>
	<circle class="st64" cx="68.7" cy="190.3" r="1.7"/>
	<circle class="st64" cx="48.5" cy="179" r="1.7"/>
	<circle class="st64" cx="48.5" cy="223.8" r="1.7"/>
	<circle class="st64" cx="68.7" cy="213.3" r="1.7"/>
	<circle class="st64" cx="28.3" cy="190.3" r="1.7"/>
	<circle class="st64" cx="28.3" cy="213.3" r="1.7"/>
	<polyline class="st63" points="54.3,201.9 54.3,194.3 59,189.6 63,193.6 	"/>
	<polyline class="st63" points="59,194.8 63,198.9 63,204 	"/>
	<path class="st63" d="M57.4,210.5l3.9-3.9h3.1c0,0,0,4.1,0,4.2l-3.6,3.6H57l-3.5-3.5"/>
	<polyline class="st63" points="38.4,187 40.2,185.2 44,185.2 45.8,187.1 45.8,210.7 39.2,205 39.2,198.9 	"/>
	<polyline class="st63" points="42.6,201.9 42.6,194.3 37.9,189.6 33.9,193.6 	"/>
	<polyline class="st63" points="37.9,194.8 33.9,198.9 33.9,204 	"/>
	<path class="st63" d="M39.5,210.5l-3.9-3.9h-3.1c0,0,0,4.1,0,4.2l3.6,3.6h3.8l3.5-3.5"/>
	<polyline class="st63" points="43.9,214.4 46.5,216.9 48.1,216.9 	"/>
	<polyline class="st63" points="53,214.4 50.4,216.9 48.8,216.9 	"/>
</g>
<g id="hex-mysql-db">
	<polygon id="_x3E_bg_18_" class="st65" points="142.2,214.6 118.9,228 95.7,214.6 95.7,187.7 118.9,174.3 142.2,187.7 	"/>
	<path class="st17" d="M130.2,199c-2.5-3.5-4.2-7-9.9-8.2c-5.7-1.2-11.6,1.5-11.6,1.5s-0.8-1.5-2.8-2.1s-3.4-0.2-3.4-0.2
		s-0.9,0.6-0.7,2.3c0.2,1.7,2,4.1,2.7,4.7c0.7,0.6,2.6,2.9,3.3,3.6c0.7,0.7,2,3.6,2.2,5.2c1.9,2.3,7.6,7.8,15.2,4.8
		c5.6-2.2,7.2-5.5,7.6-8C131.9,201.3,130.9,200,130.2,199z"/>
	<path class="st66" d="M132.9,202.3c-0.8-1.3-1.7-2.6-2.4-3.5c-2.5-3.5-4.6-6.9-10.3-8.2c-5.7-1.2-10.7,1-10.7,1s-1.4-0.9-3.4-1.7
		c-2.5-1.1-3.7,0.3-3.7,0.3s-0.1,0.1-0.2,0.2c1.7,0.7,3.6,2.8,4.8,4.4c2.1,2.9,7.4,4.9,10.4,7.8c1.9,1.9,2.6,1.1,3.7,2.4
		c1.2,1.5,0.7,4.4,1.2,6.6c0.9-0.1,1.8-0.4,2.8-0.7C131.1,208.5,132.5,204.8,132.9,202.3z"/>
	<ellipse transform="matrix(0.9834 -0.1815 0.1815 0.9834 -34.7634 26.0969)" class="st17" cx="125.2" cy="203" rx="2" ry="2"/>
	<path class="st67" d="M131.8,204.7"/>
	<g>
		<path class="st67" d="M99.4,209.5c-0.6-1.5-1-3.2-1.1-4.9c-0.1-2.4,0.3-4.8,1.3-6.9"/>
		<path class="st67" d="M109.1,186.8c3.1-1.5,6.6-2.5,10.4-2.7c4-0.2,7.8,0.4,11.1,1.6"/>
		<path class="st67" d="M135.2,212.6c-3.2,3.1-8,5.2-13.3,5.5c-10.3,0.6-19-5.6-19.5-13.8c-0.1-2,0.3-4,1.1-5.9"/>
		<path class="st67" d="M120.9,187.7c10.3-0.2,18.8,6.3,18.9,14.6c0,2-0.4,3.9-1.3,5.6"/>
		<path class="st67" d="M133,196.2c1.8,1.7,2.9,3.9,3,6.2c0.4,6.3-6.1,11.7-14.4,12.2s-15.4-4.2-15.8-10.4"/>
	</g>
	<path class="st67" d="M110.9,193"/>
	<path class="st68" d="M109.5,191.5c0,0,5.7,2.7,7.7,4c-0.8-1.5-5.3-4.8-5.3-4.8S110.4,191,109.5,191.5z"/>
</g>
<g id="hex-maria-db">
	<polygon id="_x3E_bg_9_" class="st69" points="71.8,141.2 48.5,154.6 25.3,141.2 25.3,114.3 48.5,100.9 71.8,114.3 	"/>
	<circle class="st17" cx="46" cy="110.2" r="0.8"/>
	<circle class="st17" cx="50.4" cy="106.5" r="0.8"/>
	<circle class="st17" cx="34.5" cy="112.5" r="0.8"/>
	<circle class="st17" cx="69.4" cy="125.9" r="0.8"/>
	<polygon class="st70" points="48.4,155.7 30,144.9 67.3,145 	"/>
	<path id="path3352_5_" class="st71" d="M45.3,153.9c0,0,3.4-17.2,5.1-19.8c1.8-2.8,4.6-4.5,7.1-6.3c2.9-2,5.5-4.1,5.9-8
		c-3-0.3-3.7-1-4.2-2.5c-1.5,0.9-2.9,1-4.5,1.1c-1.4,0-2.9,0-4.7,0.2c-13.4,1.4-23.8,24.3-23.8,24.3L45.3,153.9z"/>
	
		<radialGradient id="path3352_1_" cx="1467.4584" cy="4453.5938" r="22.8235" gradientTransform="matrix(0.3794 -0.9252 -0.3629 -0.1488 1109.5151 2165.9316)" gradientUnits="userSpaceOnUse">
		<stop  offset="0" style="stop-color:#543824"/>
		<stop  offset="1" style="stop-color:#8B5E3C;stop-opacity:0"/>
	</radialGradient>
	<path id="path3352_2_" class="st72" d="M45.3,153.9c0,0,3.4-17.2,5.1-19.8c1.8-2.8,4.6-4.5,7.1-6.3c2.9-2,5.5-4.1,5.9-8
		c-3-0.3-3.7-1-4.2-2.5c-1.5,0.9-2.9,1-4.5,1.1c-1.4,0-2.9,0-4.7,0.2c-13.4,1.4-23.8,24.3-23.8,24.3L45.3,153.9z"/>
	
		<radialGradient id="path4028_1_" cx="406.2221" cy="813.4109" r="12.9538" gradientTransform="matrix(0.108 0.3929 -1.445 0.397 1181.0757 -364.8427)" gradientUnits="userSpaceOnUse">
		<stop  offset="0" style="stop-color:#FFFFFF"/>
		<stop  offset="1" style="stop-color:#FFFFFF;stop-opacity:0"/>
	</radialGradient>
	<path id="path4028_3_" class="st73" d="M59.2,117.3c-1.5,0.9-2.9,1-4.5,1.1c-1.4,0-2.9,0-4.7,0.2c-5.7,0.6-11,5.4-14.1,9l12.5,12.6
		c0.7-2.8,1.3-5,2-6.1c1.8-2.8,4.6-4.5,7.1-6.3c2.9-2,5.4-4.1,5.9-8C60.4,119.6,59.7,118.9,59.2,117.3z"/>
	<path id="path3880_6_" class="st74" d="M44.9,124.9c2.2,1.9,6.7,0.4,5.9-3.4C47.4,121.3,45.5,122.4,44.9,124.9z"/>
	<path id="path3880_5_" class="st17" d="M48,123.1c0.5,0.4,1.5,0.1,1.3-0.8C48.5,122.2,48.1,122.5,48,123.1z"/>
	<path id="path3882_3_" class="st75" d="M59.4,123.1c0,0.9-0.3,2.1,0.4,4c0.1,0.3,0,0.6-0.2,0.2c-0.7-1.8-0.6-2.8-0.5-4.1
		C59.1,122.6,59.4,122.7,59.4,123.1z"/>
	<path id="path3884_3_" class="st75" d="M58.4,123.1c-0.2,1.1-1,3.2-0.4,5.8c0.1,0.4-0.2,0.8-0.3,0.1c-0.6-2.5,0-4.3,0.3-5.9
		C58.2,122.5,58.4,122.7,58.4,123.1z"/>
	<path id="path3888_3_" class="st75" d="M57.3,123c-0.4,1.1-1.6,4.6-1.3,7.2c0,0.4-0.3,0.8-0.3,0.1c-0.2-2.5,0.8-5.8,1.3-7.3
		C57.2,122.3,57.4,122.5,57.3,123z"/>
	<path class="st76" d="M59.2,117.3c0,0,2.3-2.5,3.6-2.4c0.7,0.1,1.1,0.3,1.4,1.2c0.3,0.9-0.8,3.7-0.8,3.7s-2,0.2-3-0.4
		S59.2,117.3,59.2,117.3z"/>
	<polygon class="st17" points="71.6,142.5 61.8,148.1 60.4,149 61,141 65.6,134 68.2,137.7 70.2,140.9 	"/>
	<polygon class="st77" points="64,138.8 64.6,142.9 61.8,148.1 60.4,149 58.1,150.3 62.2,136.3 65.7,134 	"/>
</g>
<g id="hex-postgres-db">
	<polygon id="_x3E_bg_10_" class="st78" points="142.5,141.2 119.2,154.6 96,141.2 96,114.3 119.2,100.9 142.5,114.3 	"/>
	<path class="st79" d="M116.8,137.3v8.9c0,2.2,1.8,3.9,3.9,3.9s3.9-1.8,3.9-3.9v-8.7c0-1.9,1.4-3.4,3.2-3.6v-10.5
		c0-5.2-4.3-9.5-9.5-9.5s-9.5,4.3-9.5,9.5v8.5c0,1.4,1,2.5,2.3,2.6c0.6-0.4,1.3-0.7,2.1-0.7C115.1,133.9,116.7,135.4,116.8,137.3
		L116.8,137.3L116.8,137.3z"/>
	<circle class="st80" cx="124.5" cy="124.4" r="3.3"/>
	<path class="st80" d="M121.5,125.8c0,0,4.7,5.6,4.7,8.8c0,0,0.7-0.6,1.7-0.6v-9.5"/>
	<circle class="st80" cx="112.8" cy="124.8" r="3.9"/>
	<path class="st80" d="M116.6,124.8c0,3.5-3.1,5.3-3.1,9c0,0-2.1,0.3-2.4,0.8c0,0-0.7,0.1-1.5-0.8s-0.7-1.9-0.7-1.9v-6.8"/>
	<circle class="st79" cx="112.9" cy="124.4" r="1.3"/>
	<circle class="st80" cx="118.1" cy="137.2" r="1.3"/>
	<rect x="116.8" y="137.2" class="st80" width="2.6" height="9.3"/>
	<circle class="st80" cx="120.7" cy="148.8" r="1.3"/>
	<path class="st80" d="M119.4,146.5c0,0.9,0.3,1,1.3,1s0,2.6,0,2.6c-2.4,0-3.9-2.1-3.9-3.6"/>
	<path class="st79" d="M112.3,111.8c-7.3,0-13.1,5.9-13.1,13.1c0,5.1,2.9,9.5,7.1,11.6v-4.2c0-0.1,0-0.3,0-0.4v-8.5
		c0-5.3,3.4-9.7,8-11.4l0,0C113.6,111.8,113,111.8,112.3,111.8z"/>
	<path class="st79" d="M113.2,136c-1-0.1-2,0.6-2.1,1.6c-0.6,4.1,0.6,8.8,0.6,8.8s2.4-3.3,3.1-8.2l0,0l0,0
		C114.9,137.1,114.2,136.2,113.2,136z"/>
	<path class="st79" d="M129.9,137.3L129.9,137.3c-0.1-1-1.1-1.8-2.1-1.6s-1.8,1.1-1.6,2.1c0.5,4.2,2.9,8.3,2.9,8.3
		S130.5,142.2,129.9,137.3z"/>
	<path class="st80" d="M103,115.6c-2.4,2.4-3.8,5.7-3.8,9.3c0,3.6,1.5,6.9,3.8,9.3V115.6z"/>
	<circle class="st79" cx="124.5" cy="124.4" r="1.3"/>
	<circle class="st80" cx="112.9" cy="137.9" r="1.9"/>
	<circle class="st80" cx="128.1" cy="137.5" r="1.9"/>
	<g>
		<path class="st79" d="M124.8,111.5c-1,0-1.9,0.1-2.8,0.3c4.9,1.6,8.5,6.2,8.5,11.6v11.7c4.9-4.9,6.3-7.1,6.3-11.7
			C136.8,116.8,131.4,111.5,124.8,111.5z"/>
	</g>
	<path class="st80" d="M131.8,128.4c0,1.5,0.5,2.8,1.4,3.9c2.8-3.1,3.6-5.3,3.6-8.9c0-0.4,0-0.8-0.1-1.2
		C133.9,122.9,131.8,125.4,131.8,128.4z"/>
</g>
<g id="hex-redis">
	<polygon id="_x3E_bg_11_" class="st81" points="213.5,141.2 190.2,154.6 167,141.2 167,114.3 190.2,100.9 213.5,114.3 	"/>
	<polygon class="st82" points="190.1,145.4 173.3,136.2 173.3,132.2 190.1,141.4 	"/>
	<polygon class="st83" points="173.3,132.2 190.1,141.4 208.1,132.1 191.4,122.9 	"/>
	<polygon class="st82" points="190.1,145.4 208.1,136 208.1,132.1 190.1,141.4 	"/>
	<polygon class="st82" points="190.1,139 173.3,129.8 173.3,125.9 190.1,135.1 	"/>
	<polygon class="st83" points="173.3,125.9 190.1,135.1 208.1,125.7 191.4,116.5 	"/>
	<polygon class="st82" points="190.1,139 208.1,129.7 208.1,125.7 190.1,135.1 	"/>
	<polygon class="st82" points="190.1,132.7 173.3,123.5 173.3,119.5 190.1,128.7 	"/>
	<polygon class="st83" points="173.3,119.5 190.1,128.7 208.1,119.4 191.4,110.2 	"/>
	<polygon class="st82" points="190.1,132.7 208.1,123.3 208.1,119.4 190.1,128.7 	"/>
</g>
<g id="hex-percona-db">
	<polygon id="_x3E_bg_12_" class="st84" points="284.5,141.2 261.2,154.6 238,141.2 238,114.3 261.2,100.9 284.5,114.3 	"/>
	<circle class="st85" cx="261.6" cy="127" r="16.1"/>
	<circle class="st86" cx="261.6" cy="127" r="9.4"/>
	<polygon class="st85" points="252.3,150.7 245.7,146.9 245.7,127.4 252.3,127.4 	"/>
</g>
<g id="hex-default">
	<polygon id="_x3E_bg_13_" class="st87" points="354.8,141.2 331.5,154.6 308.3,141.2 308.3,114.3 331.5,100.9 354.8,114.3 	"/>
	<circle class="st88" cx="331.6" cy="126.8" r="11.7"/>
	<circle class="st17" cx="319.8" cy="111.3" r="1.3"/>
	<circle class="st17" cx="350.6" cy="114.9" r="1.3"/>
	<circle class="st17" cx="311.7" cy="117.5" r="0.9"/>
	<circle class="st17" cx="340.9" cy="140.4" r="0.9"/>
	<circle class="st17" cx="329.7" cy="141.2" r="0.9"/>
	<circle class="st17" cx="325.1" cy="146.4" r="0.9"/>
	<circle class="st17" cx="350.8" cy="141.2" r="0.9"/>
	<circle class="st17" cx="320.1" cy="141.2" r="2.5"/>
	<circle class="st17" cx="343.7" cy="112.8" r="2.5"/>
	<circle class="st17" cx="347.3" cy="119.9" r="1.8"/>
	<path class="st89" d="M343.3,126.8c0,6.4-23.3,6.4-23.3,0c0-6.4,5.2-11.7,11.7-11.7C338.1,115.1,343.3,120.4,343.3,126.8z"/>
	<path class="st90" d="M337.7,121.9c-2-2.3-6.6-3.8-8.9-3.6c2.3-1.3,3.9-1.3,5.7-0.7C336.3,118.2,337.4,119.8,337.7,121.9z"/>
</g>
<g id="hex-default-db">
	<polygon id="_x3E_bg_14_" class="st91" points="425,141.2 401.7,154.6 378.5,141.2 378.5,114.3 401.7,100.9 425,114.3 	"/>
	<polygon class="st92" points="414.6,138.9 408.5,143.5 390.2,149.2 377.5,141.7 377.5,132.5 390.6,128.8 394.9,131.4 	"/>
	<polygon class="st93" points="394.6,138.5 387.9,134.1 394.6,129.7 407.9,129.7 414.6,134.1 407.9,138.5 	"/>
	<polygon class="st94" points="414.6,134.1 414.6,138.9 407.9,143.3 407.9,138.5 	"/>
	<rect x="394.6" y="138.5" class="st95" width="13.3" height="4.7"/>
	<polygon class="st96" points="394.6,138.5 387.9,134.1 387.9,138.9 394.6,143.3 	"/>
	<polygon class="st93" points="394.6,130 387.9,125.6 394.6,121.2 407.9,121.2 414.6,125.6 407.9,130 	"/>
	<polygon class="st94" points="414.6,125.6 414.6,130.3 407.9,134.7 407.9,130 	"/>
	<rect x="394.6" y="130" class="st95" width="13.3" height="4.7"/>
	<polygon class="st96" points="394.6,130 387.9,125.6 387.9,130.3 394.6,134.7 	"/>
	<polygon class="st93" points="394.6,121.4 387.9,117 394.6,112.6 407.9,112.6 414.6,117 407.9,121.4 	"/>
	<polygon class="st94" points="414.6,117 414.6,121.8 407.9,126.2 407.9,121.4 	"/>
	<rect x="394.6" y="121.4" class="st95" width="13.3" height="4.7"/>
	<polygon class="st96" points="394.6,121.4 387.9,117 387.9,121.8 394.6,126.2 	"/>
</g>
<g id="hex-empty">
	<polygon class="st97" points="496,141.2 472.7,154.6 449.5,141.2 449.5,114.3 472.7,100.9 496,114.3 	"/>
</g>
<g id="docs">
	<path class="st98" d="M36.3,271.1L35.4,286c7-0.9,12.1,2.6,12.1,2.6c0.6,0.6,1.4,0.6,2,0c0,0,5-3.2,12-2.4L60.6,271"/>
	<path class="st98" d="M36.6,289.4c6.4-0.8,11.2,2.7,11.2,2.7c0.4,0.4,1.1,0.4,1.5,0c0,0,4.8-3.5,11.2-2.7"/>
	<path class="st99" d="M58.2,270.8c-5.2,0-7.8,1.2-8.9,2v13c1.5-0.9,5.2-2.6,9.7-2.1L58.2,270.8z"/>
	<path class="st99" d="M47.8,272.9c-1.1-0.8-3.8-2-8.9-2l-0.8,12.9c4.5-0.6,8.2,1.2,9.7,2.1C47.8,285.9,47.8,272.9,47.8,272.9z"/>
</g>
<g id="close-x">
	<path class="st17" d="M131.7,288.3c0.2,0.2,0.3,0.4,0.3,0.7c0,0.3-0.1,0.5-0.3,0.7s-0.5,0.3-0.8,0.3s-0.5-0.1-0.7-0.3l-7.1-7.1
		l-7.2,7.1c-0.2,0.2-0.4,0.3-0.7,0.3c-0.2,0-0.3,0-0.4-0.1s-0.2-0.1-0.3-0.2c-0.2-0.2-0.3-0.4-0.3-0.7c0-0.3,0.1-0.5,0.3-0.7
		l7.1-7.1l-7.1-7.1c-0.1-0.1-0.2-0.2-0.2-0.3c-0.1-0.1-0.1-0.3-0.1-0.4s0-0.3,0.1-0.4s0.1-0.2,0.2-0.4c0.2-0.2,0.4-0.3,0.7-0.3
		c0.3,0,0.5,0.1,0.7,0.3l7.2,7.2l7.1-7.2c0.2-0.2,0.4-0.3,0.7-0.3s0.5,0.1,0.7,0.3c0.1,0.1,0.2,0.2,0.2,0.4c0,0.1,0.1,0.3,0.1,0.4
		s0,0.3-0.1,0.4c0,0.1-0.1,0.2-0.2,0.3l-7.1,7.1L131.7,288.3z"/>
</g>
<g id="external-link">
	<line class="st100" x1="83.6" y1="285.3" x2="91.9" y2="277"/>
	<polyline class="st100" points="91.9,284.6 91.9,277 84.3,277 	"/>
</g>
<g id="new-btn">
	<polygon class="st17" points="241.2,289.6 254.7,297.4 268.3,289.6 268.3,273.9 254.7,266.1 241.2,273.9 	"/>
	<circle class="st101" cx="254.7" cy="282" r="8.9"/>
	<line class="st49" x1="254.7" y1="276.8" x2="254.7" y2="287.3"/>
	<line class="st49" x1="260" y1="282" x2="249.6" y2="282"/>
</g>
<g id="check-mark">
	<path class="st17" d="M169.2,278.1c0.3-0.3,0.4-0.6,0.4-1s-0.1-0.7-0.4-0.9c-0.3-0.3-0.6-0.4-1-0.4s-0.7,0.1-1,0.4l-5.3,5.3
		l-2.1-2.1c-0.3-0.3-0.6-0.4-1-0.4s-0.7,0.1-1,0.4s-0.4,0.6-0.4,1s0.1,0.7,0.4,1l3.1,3.1c0.2,0.3,0.6,0.4,1,0.4c0.1,0,0.3,0,0.5-0.1
		s0.3-0.2,0.5-0.3L169.2,278.1z"/>
</g>
<g id="gear">
	<path class="st102" d="M212.6,279.7c-0.1,0.3-0.2,0.6-0.3,0.8c-0.1,0.2-0.2,0.5-0.5,0.7l1.9,1.7l-1.9,1.7l-1.5-1.7
		c-0.6,0.4-1.1,0.6-1.7,0.6l0.2,2.5h-2.6l0.2-2.5c-0.4,0-0.7,0-0.9-0.1s-0.5-0.2-0.8-0.4l-1.7,1.7l-1.7-1.7l1.7-1.7
		c0-0.1-0.1-0.2-0.2-0.3c-0.1-0.1-0.1-0.2-0.2-0.4c-0.1-0.1-0.1-0.3-0.2-0.4c0-0.1-0.1-0.3-0.1-0.4h-2.5v-2.5h2.5
		c0-0.1,0-0.3,0.1-0.4s0.1-0.3,0.2-0.4c0.1-0.1,0.1-0.3,0.2-0.4c0.1-0.1,0.1-0.2,0.2-0.3l-1.7-1.7l1.7-1.7l1.7,1.7
		c0.1-0.1,0.3-0.2,0.4-0.3c0.1-0.1,0.3-0.1,0.4-0.2c0.1-0.1,0.3-0.1,0.4-0.2c0.1,0,0.3-0.1,0.5-0.1l-0.2-2.3h2.7l-0.2,2.3
		c0.3,0.1,0.6,0.2,0.8,0.3c0.3,0.1,0.6,0.2,0.8,0.5l1.5-1.7l1.9,1.7l-1.9,1.7c0.2,0.2,0.4,0.4,0.5,0.7c0.1,0.3,0.2,0.5,0.3,0.8h2.5
		v2.5h-2.5L212.6,279.7L212.6,279.7z M207.5,275.5c-0.4,0-0.7,0.1-1.1,0.2c-0.3,0.2-0.6,0.4-0.9,0.6s-0.5,0.6-0.6,0.9
		c-0.2,0.3-0.2,0.7-0.2,1.1s0.1,0.8,0.2,1.2c0.1,0.4,0.4,0.7,0.6,0.9s0.6,0.4,0.9,0.6s0.7,0.2,1.1,0.2s0.7-0.1,1.1-0.2
		s0.6-0.3,0.9-0.6c0.3-0.2,0.5-0.5,0.6-0.9c0.2-0.3,0.2-0.7,0.2-1.2c0-0.4-0.1-0.7-0.2-1.1c-0.2-0.3-0.4-0.6-0.6-0.9
		c-0.3-0.3-0.6-0.5-0.9-0.6C208.2,275.6,207.9,275.5,207.5,275.5z"/>
</g>
<g id="stack-trace">
	<line class="st103" x1="285" y1="275.7" x2="301.4" y2="275.7"/>
	<line class="st103" x1="285" y1="280.1" x2="299.2" y2="280.1"/>
	<line class="st103" x1="285" y1="284.5" x2="303.5" y2="284.5"/>
</g>
<g id="vertical-single">
	<polyline class="st104" points="706.8,54.6 725.1,54.6 736.2,45 736.2,42.4 	"/>
	<polyline class="st104" points="702.9,54.6 691.8,45 691.8,50.9 702.9,60.5 720.9,60.3 	"/>
	<polyline class="st104" points="725.1,61.1 736.2,51.6 736.2,57.2 725.1,66.1 702.9,66.1 690.3,55 	"/>
	<polyline class="st104" points="736.2,62.9 725.1,71.8 704.4,71.8 	"/>
	<polyline class="st104" points="702.3,71.8 691.3,62.2 691.3,68.1 702.3,77.6 724.5,77.6 736.3,68 	"/>
	<polyline class="st104" points="710.8,37.7 719.5,37.7 728.1,45.2 736.2,37.7 725.1,28.1 702.8,28.1 691.8,37.7 705.6,49.9 
		721,49.9 724.3,47.6 	"/>
	<polyline class="st104" points="701.2,36.5 710.4,44.3 719.8,44.3 	"/>
	<polyline class="st104" points="704.6,33 722.9,33 728.4,38.3 	"/>
</g>
<g id="monitor">
	<polyline class="st105" points="772.1,62.6 772.1,52.1 777.6,48.7 783.2,52.1 783.2,62.6 777.6,59.2 777.6,54.8 	"/>
	<line class="st105" x1="772.1" y1="62.6" x2="777.6" y2="59.2"/>
	<path class="st106" d="M777.6,59.2"/>
	<polyline class="st106" points="777.6,43.3 777.6,46 777.6,48.9 	"/>
	<polyline class="st105" points="788,49.3 777.6,55.5 767.3,49.3 	"/>
	<polygon class="st105" points="788,59.7 777.6,65.9 767.3,59.7 767.3,49.3 777.6,43.1 788,49.3 	"/>
</g>
</svg>
