<?xml version="1.0" encoding="iso-8859-1"?>
<!-- Generator: Adobe Illustrator 19.2.1, SVG Export Plug-In . SVG Version: 6.00 Build 0)  -->
<svg version="1.1" id="svgs" xmlns="http://www.w3.org/2000/svg" xmlns:xlink="http://www.w3.org/1999/xlink" x="0px" y="0px"
	 viewBox="0 0 661 480" style="enable-background:new 0 0 661 480;" xml:space="preserve">
<style type="text/css">
	.st0{fill:#F06368;stroke:#F06368;stroke-width:2;stroke-miterlimit:10;}
	.st1{fill:#CA2128;}
	.st2{fill:url(#SVGID_1_);}
	.st3{fill:#BE2227;}
	.st4{fill:url(#SVGID_2_);}
	.st5{fill:#621310;}
	.st6{fill:url(#SVGID_3_);}
	.st7{fill:#D32034;}
	.st8{fill:url(#SVGID_4_);}
	.st9{fill:url(#SVGID_5_);}
	.st10{fill:url(#SVGID_6_);}
	.st11{fill:url(#SVGID_7_);}
	.st12{fill:#EF4C53;}
	.st13{opacity:0.61;fill:url(#SVGID_8_);enable-background:new    ;}
	.st14{fill:url(#SVGID_9_);}
	.st15{fill:url(#SVGID_10_);}
	.st16{fill:#8FC733;stroke:#8FC733;stroke-width:2;stroke-miterlimit:10;}
	.st17{fill:#FFFFFF;}
	.st18{fill:#8FC733;}
	.st19{fill:#A1CCCC;stroke:#A1CCCC;stroke-width:2;stroke-miterlimit:10;}
	.st20{fill:#FFA3A9;}
	.st21{fill:none;stroke:#C4C9C9;stroke-width:2;stroke-miterlimit:10;}
	.st22{fill:#ABB0B0;}
	.st23{fill:#FFCC66;stroke:#FFCC66;stroke-width:2;stroke-miterlimit:10;}
	.st24{fill:#3672A7;}
	.st25{fill:#F1AA1D;}
	.st26{fill:#DFDFDF;stroke:#DFDFDF;stroke-width:2;stroke-miterlimit:10;}
	.st27{fill:#4A81AB;}
	.st28{fill:#5EA5DB;}
	.st29{fill:#AAC1D6;}
	.st30{fill:none;stroke:#5EA5DB;stroke-width:2;stroke-miterlimit:10;}
	.st31{fill:none;stroke:#5EA5DB;stroke-width:2;stroke-miterlimit:10;stroke-dasharray:3.5807,2.3871;}
	.st32{fill:none;stroke:#5EA5DB;stroke-width:2;stroke-miterlimit:10;stroke-dasharray:3.1191,2.0794;}
	.st33{fill:none;stroke:#5EA5DB;stroke-width:2;stroke-miterlimit:10;stroke-dasharray:3.1194,2.0796;}
	.st34{fill:none;stroke:#5EA5DB;stroke-width:2;stroke-miterlimit:10;stroke-dasharray:3.1197,2.0798;}
	.st35{fill:#B07C5C;stroke:#B07C5C;stroke-width:2;stroke-miterlimit:10;}
	.st36{fill:#DFDFDF;}
	.st37{clip-path:url(#SVGID_12_);fill:#D69F72;}
	.st38{clip-path:url(#SVGID_14_);fill:#B37E5D;}
	.st39{fill:none;stroke:#FFFFFF;stroke-width:3;stroke-miterlimit:10;}
	.st40{fill:none;stroke:#DFDFDF;stroke-linecap:round;stroke-miterlimit:10;}
	.st41{fill:none;stroke:#FFFFFF;stroke-width:2;stroke-miterlimit:10;}
	.st42{fill:#9CB3F0;stroke:#9CB3F0;stroke-width:2;stroke-miterlimit:10;}
	.st43{fill:#52638F;}
	.st44{fill:#374E78;}
	.st45{fill:#2D3652;}
	.st46{fill:#FF3030;stroke:#FF3030;stroke-width:2;stroke-miterlimit:10;}
	.st47{fill:#B32222;}
	.st48{fill:#FF0000;}
	.st49{fill:#5ECC81;stroke:#5ECC81;stroke-width:2;stroke-miterlimit:10;}
	.st50{fill:#1F8B35;}
	.st51{fill:#2BA240;}
	.st52{fill:none;stroke:#D6CBA6;stroke-miterlimit:10;}
	.st53{fill:#7197EE;stroke:#7197EE;stroke-width:2;stroke-miterlimit:10;}
	.st54{fill:#4A67A8;}
	.st55{fill:#FFC88D;}
	.st56{fill:url(#path3352_1_);}
	.st57{fill:url(#path4028_1_);}
	.st58{fill:#002B64;}
	.st59{fill:#678AD9;}
	.st60{fill:#394E80;}
	.st61{fill:#C7FFFA;}
	.st62{fill:#D1DEE8;stroke:#D1DEE8;stroke-width:2;stroke-miterlimit:10;}
	.st63{fill:#3D8EC9;}
	.st64{fill:#2C668F;}
	.st65{fill:#DB2317;stroke:#DB2317;stroke-width:2;stroke-miterlimit:10;}
	.st66{fill:#AB1B12;}
	.st67{fill:#FF3226;}
	.st68{fill:#F25C5C;stroke:#F25C5C;stroke-width:2;stroke-miterlimit:10;}
	.st69{fill:#FCFCFC;}
	.st70{fill:#FF8754;}
	.st71{fill:#35C7F0;stroke:#35C7F0;stroke-width:2;stroke-miterlimit:10;}
	.st72{fill:#FFD56B;}
	.st73{fill:#FFEE9E;}
	.st74{fill:#FFFCE6;}
	.st75{fill:#0D96BD;stroke:#0D96BD;stroke-width:2;stroke-miterlimit:10;}
	.st76{fill:#0A7594;}
	.st77{fill:#FFF6FF;}
	.st78{fill:#FFD86E;}
	.st79{fill:#F5CC5B;}
	.st80{fill:#EBA83D;}
	.st81{fill:none;stroke:#B9DFF0;stroke-miterlimit:10;}
</style>
<g id="hex-ruby">
	<polygon id="_x3E_bg" class="st0" points="142.5,65.6 119.2,79 96,65.6 96,38.7 119.2,25.3 142.5,38.7 	"/>
	<path class="st1" d="M120,58.5"/>
	
		<linearGradient id="SVGID_1_" gradientUnits="userSpaceOnUse" x1="133.7477" y1="-745.7044" x2="124.8962" y2="-788.6969" gradientTransform="matrix(1 0 0 1 0 840)">
		<stop  offset="0" style="stop-color:#EF4C53"/>
		<stop  offset="0.1648" style="stop-color:#EB4A51"/>
		<stop  offset="0.336" style="stop-color:#DE454B"/>
		<stop  offset="0.5103" style="stop-color:#CA3D41"/>
		<stop  offset="0.6867" style="stop-color:#AC3133"/>
		<stop  offset="0.8629" style="stop-color:#872221"/>
		<stop  offset="1" style="stop-color:#651410"/>
	</linearGradient>
	<polygon class="st2" points="132.9,58.5 125.6,49.9 120,59.2 	"/>
	<polygon class="st3" points="125.6,49.9 131.5,46 132.9,58.5 	"/>
	
		<linearGradient id="SVGID_2_" gradientUnits="userSpaceOnUse" x1="150.923" y1="-779.6602" x2="129.1136" y2="-791.355" gradientTransform="matrix(1 0 0 1 0 840)">
		<stop  offset="0" style="stop-color:#EF4C53"/>
		<stop  offset="0.1648" style="stop-color:#EB4A51"/>
		<stop  offset="0.336" style="stop-color:#DE454B"/>
		<stop  offset="0.5103" style="stop-color:#CA3D41"/>
		<stop  offset="0.6867" style="stop-color:#AC3133"/>
		<stop  offset="0.8629" style="stop-color:#872221"/>
		<stop  offset="1" style="stop-color:#651410"/>
	</linearGradient>
	<polygon class="st4" points="132.9,58.5 139,49.9 131.5,42.1 131.5,46 	"/>
	<polygon class="st5" points="107.1,58.5 114.4,49.9 120,59.2 	"/>
	<polygon class="st3" points="114.4,49.9 108.4,46 107.1,58.5 	"/>
	<polygon class="st3" points="114.4,49.9 108.4,46 107.1,58.5 	"/>
	
		<linearGradient id="SVGID_3_" gradientUnits="userSpaceOnUse" x1="105.8709" y1="-782.6615" x2="109.5607" y2="-788.9268" gradientTransform="matrix(1 0 0 1 0 840)">
		<stop  offset="0" style="stop-color:#FFFFFF"/>
		<stop  offset="1" style="stop-color:#FFFFFF;stop-opacity:0"/>
	</linearGradient>
	<polygon class="st6" points="114.4,49.9 108.4,46 107.1,58.5 	"/>
	<polygon class="st7" points="107.1,57.8 100.9,49.9 108.4,42.1 108.4,46 	"/>
	
		<linearGradient id="SVGID_4_" gradientUnits="userSpaceOnUse" x1="115.1506" y1="-794.367" x2="104.3357" y2="-788.0583" gradientTransform="matrix(1 0 0 1 0 840)">
		<stop  offset="0" style="stop-color:#FFFFFF"/>
		<stop  offset="1" style="stop-color:#FFFFFF;stop-opacity:0"/>
	</linearGradient>
	<polygon class="st8" points="107.1,57.8 100.9,49.9 108.4,42.1 108.4,46 	"/>
	
		<linearGradient id="SVGID_5_" gradientUnits="userSpaceOnUse" x1="100.879" y1="-786.1519" x2="118.3051" y2="-796.0381" gradientTransform="matrix(1 0 0 1 0 840)">
		<stop  offset="0" style="stop-color:#621310"/>
		<stop  offset="0.172" style="stop-color:#661312;stop-opacity:0.828"/>
		<stop  offset="0.3508" style="stop-color:#731418;stop-opacity:0.6492"/>
		<stop  offset="0.5327" style="stop-color:#871621;stop-opacity:0.4673"/>
		<stop  offset="0.7167" style="stop-color:#A5182E;stop-opacity:0.2833"/>
		<stop  offset="0.9007" style="stop-color:#CA1A3F;stop-opacity:0.0993"/>
		<stop  offset="1" style="stop-color:#E11C4A;stop-opacity:0"/>
	</linearGradient>
	<polygon class="st9" points="107.1,57.8 100.9,49.9 108.4,42.1 108.4,46 	"/>
	
		<linearGradient id="SVGID_6_" gradientUnits="userSpaceOnUse" x1="115.4396" y1="-790.3029" x2="121.8616" y2="-786.0687" gradientTransform="matrix(1 0 0 1 0 840)">
		<stop  offset="0" style="stop-color:#EE3A3F"/>
		<stop  offset="1" style="stop-color:#AC2125"/>
	</linearGradient>
	<polygon class="st10" points="120,49.9 114.4,49.9 114.4,49.9 120,59.2 125.6,49.9 125.6,49.9 	"/>
	
		<linearGradient id="SVGID_7_" gradientUnits="userSpaceOnUse" x1="112.9762" y1="-781.1501" x2="122.3178" y2="-790.6599" gradientTransform="matrix(1 0 0 1 0 840)">
		<stop  offset="0" style="stop-color:#FFFFFF"/>
		<stop  offset="1" style="stop-color:#FFFFFF;stop-opacity:0.42"/>
	</linearGradient>
	<polygon class="st11" points="120,49.9 114.4,49.9 114.4,49.9 120,59.2 125.6,49.9 125.6,49.9 	"/>
	<polygon class="st12" points="126.4,39 120,39 113.5,39 108.4,42.1 108.4,46 114.4,49.9 120,49.9 125.6,49.9 131.5,46 131.5,42.1 	
		"/>
	
		<linearGradient id="SVGID_8_" gradientUnits="userSpaceOnUse" x1="135.5061" y1="-814.5881" x2="118.3595" y2="-794.0444" gradientTransform="matrix(1 0 0 1 0 840)">
		<stop  offset="0" style="stop-color:#FFFFFF"/>
		<stop  offset="1" style="stop-color:#FFFFFF;stop-opacity:0"/>
	</linearGradient>
	<polygon class="st13" points="126.4,39 120,39 113.5,39 108.4,42.1 108.4,46 114.4,49.9 120,49.9 125.6,49.9 131.5,46 131.5,42.1 	
		"/>
	<polygon class="st1" points="120,59.2 120,68 132.9,58.5 	"/>
	
		<linearGradient id="SVGID_9_" gradientUnits="userSpaceOnUse" x1="142.8018" y1="-764.1731" x2="109.1573" y2="-782.2141" gradientTransform="matrix(1 0 0 1 0 840)">
		<stop  offset="0" style="stop-color:#EF4C53"/>
		<stop  offset="0.1648" style="stop-color:#EB4A51"/>
		<stop  offset="0.336" style="stop-color:#DE454B"/>
		<stop  offset="0.5103" style="stop-color:#CA3D41"/>
		<stop  offset="0.6867" style="stop-color:#AC3133"/>
		<stop  offset="0.8629" style="stop-color:#872221"/>
		<stop  offset="1" style="stop-color:#651410"/>
	</linearGradient>
	<polygon class="st14" points="120,59.2 120,59.2 107.1,58.5 120,68 120,68 	"/>
	
		<linearGradient id="SVGID_10_" gradientUnits="userSpaceOnUse" x1="108.4" y1="-794" x2="108.4" y2="-794" gradientTransform="matrix(1 0 0 1 0 840)">
		<stop  offset="0" style="stop-color:#EF4C53"/>
		<stop  offset="0.1648" style="stop-color:#EB4A51"/>
		<stop  offset="0.336" style="stop-color:#DE454B"/>
		<stop  offset="0.5103" style="stop-color:#CA3D41"/>
		<stop  offset="0.6867" style="stop-color:#AC3133"/>
		<stop  offset="0.8629" style="stop-color:#872221"/>
		<stop  offset="1" style="stop-color:#651410"/>
	</linearGradient>
	<path class="st15" d="M108.4,46"/>
</g>
<g id="hex-node">
	<polygon id="_x3E_bg_2_" class="st16" points="213.431,65.6 190.131,79 166.931,65.6 166.931,38.7 190.131,25.3 213.431,38.7 	"/>
	<polygon class="st17" points="190.182,35.114 205.681,43.995 205.681,61.759 190.182,70.641 174.681,61.759 174.681,43.995 	"/>
	<path class="st18" d="M200.318,47.332c0-0.394-0.207-0.756-0.546-0.949l-9.045-5.423c-0.153-0.091-0.325-0.361-0.499-0.361
		c-0.015,0-0.081,0-0.093,0c-0.173,0-0.344,0.271-0.499,0.361l-9.046,5.314c-0.337,0.193-0.547,0.609-0.547,1.004l0.02,14.044
		c0,0.193,0.101,0.389,0.272,0.485c0.168,0.101,0.376,0.107,0.543,0.007l5.417-3.075c0.34-0.201,0.589-0.556,0.589-0.945v-6.548
		c0-0.391,0.165-0.752,0.504-0.945l2.268-1.32c0.17-0.098,0.346-0.146,0.537-0.146c0.186,0,0.372,0.048,0.539,0.146l2.447,1.32
		c0.339,0.193,0.706,0.555,0.706,0.945v6.548c0,0.39,0.048,0.748,0.386,0.948l5.294,3.079c0.169,0.1,0.338,0.1,0.506,0
		c0.167-0.097,0.251-0.278,0.251-0.472L200.318,47.332z"/>
</g>
<g id="hex-memcached">
	<polygon id="_x3E_bg_3_" class="st19" points="283.758,65.6 260.458,79 237.258,65.6 237.258,38.7 260.458,25.3 283.758,38.7 	"/>
	<path class="st17" d="M260.447,70.56c11.756,0,15.858-8.455,15.858-14.135c0-5.679-1.444-13.963-9.117-21.636
		c0,5.336-0.058,12.069-6.252,12.069"/>
	<path class="st17" d="M261.427,70.56c-11.756,0-15.858-8.455-15.858-14.135c0-5.679,1.443-13.963,9.116-21.636
		c0,5.336,0.058,12.069,6.252,12.069"/>
	<g>
		<circle class="st17" cx="269.671" cy="55.951" r="3.524"/>
	</g>
	<g>
		<path class="st20" d="M269.671,52.835c1.721,0,3.118,1.394,3.118,3.116c0,1.723-1.397,3.118-3.118,3.118
			c-1.722,0-3.118-1.395-3.118-3.118C266.552,54.229,267.949,52.835,269.671,52.835 M269.671,51.835
			c-2.271,0-4.118,1.846-4.118,4.116c0,2.271,1.848,4.118,4.118,4.118c2.271,0,4.118-1.847,4.118-4.118
			C273.789,53.681,271.942,51.835,269.671,51.835L269.671,51.835z"/>
	</g>
	<g>
		<polyline class="st21" points="261.039,58.899 261.039,64.864 257.503,68.349 		"/>
		<line class="st21" x1="264.954" y1="68.186" x2="261.401" y2="64.519"/>
	</g>
	<g>
		<circle class="st17" cx="253.184" cy="55.951" r="3.524"/>
	</g>
	<polygon class="st22" points="263.396,58.051 261.427,60.023 259.455,58.051 	"/>
	<g>
		<path class="st20" d="M253.185,52.835c1.721,0,3.118,1.394,3.118,3.116c0,1.723-1.397,3.118-3.118,3.118
			c-1.722,0-3.119-1.395-3.119-3.118C250.066,54.229,251.463,52.835,253.185,52.835 M253.185,51.835
			c-2.271,0-4.119,1.846-4.119,4.116c0,2.271,1.848,4.118,4.119,4.118c2.27,0,4.118-1.847,4.118-4.118
			C257.302,53.681,255.455,51.835,253.185,51.835L253.185,51.835z"/>
	</g>
</g>
<g id="hex-python">
	<polygon id="_x3E_bg_4_" class="st23" points="354.387,65.6 331.087,79 307.887,65.6 307.887,38.7 331.087,25.3 354.387,38.7 	"/>
	<polygon class="st24" points="331.079,41.517 322.471,41.517 322.471,37.915 326.305,33.866 336.624,33.866 340.643,38.062 
		340.643,48.232 336.876,52.038 324.883,52.038 320.558,56.4 320.558,61.889 316.687,61.397 312.907,57.779 312.907,47.817 
		317.292,43.43 331.079,43.43 	"/>
	
		<rect x="326.887" y="36.598" transform="matrix(0.7073 -0.7069 0.7069 0.7073 69.3312 242.9374)" class="st17" width="2.295" height="2.294"/>
	<polygon class="st17" points="332.036,64.471 340.643,64.471 340.643,67.795 336.988,71.166 326.669,71.166 322.471,67.648 
		322.471,57.478 326.417,53.951 338.411,53.951 342.556,49.763 342.556,44.185 346.654,44.313 350.208,47.931 350.208,57.893 
		346.001,62.558 332.036,62.558 	"/>
	
		<rect x="334.586" y="66.765" transform="matrix(0.7075 -0.7067 0.7067 0.7075 50.2064 257.1291)" class="st25" width="2.295" height="2.294"/>
</g>
<g id="hex-storage">
	<polygon id="_x3E_bg_5_" class="st26" points="425.017,65.6 401.717,79 378.517,65.6 378.517,38.7 401.717,25.3 425.017,38.7 	"/>
	<polygon class="st27" points="412.569,61.442 412.569,57.602 401.569,65.696 401.569,69.834 	"/>
	<polyline class="st28" points="401.644,65.746 386.569,54.699 386.569,59.011 401.531,70.039 	"/>
	<polygon class="st17" points="398.054,47.404 387.018,54.699 401.869,65.839 412.578,57.602 	"/>
	<polygon class="st29" points="392.515,51.062 406.943,62.011 412.578,57.602 398.129,46.5 	"/>
	<polygon class="st27" points="415.569,50.339 415.569,46.5 405.569,54.293 405.569,58.432 	"/>
	<polyline class="st28" points="405.487,54.344 390.569,43.296 390.569,47.609 405.454,58.637 	"/>
	<polygon class="st17" points="401.32,36.301 390.703,43.296 405.554,54.436 415.843,46.5 	"/>
	<g>
		<g>
			<line class="st30" x1="412.368" y1="30.667" x2="411.126" y2="31.508"/>
			<line class="st31" x1="409.149" y1="32.846" x2="405.195" y2="35.521"/>
			<line class="st30" x1="404.207" y1="36.19" x2="402.964" y2="37.031"/>
		</g>
	</g>
	<g>
		<g>
			<line class="st30" x1="417.204" y1="33.786" x2="415.962" y2="34.626"/>
			<line class="st31" x1="413.985" y1="35.964" x2="410.031" y2="38.64"/>
			<line class="st30" x1="409.042" y1="39.309" x2="407.8" y2="40.149"/>
		</g>
	</g>
	<g>
		<g>
			<line class="st30" x1="422.04" y1="36.904" x2="420.797" y2="37.745"/>
			<line class="st31" x1="418.82" y1="39.082" x2="414.866" y2="41.758"/>
			<line class="st30" x1="413.878" y1="42.427" x2="412.635" y2="43.268"/>
		</g>
	</g>
	<g>
		<g>
			<line class="st30" x1="390.1" y1="61.406" x2="388.885" y2="62.286"/>
			<line class="st32" x1="387.202" y1="63.507" x2="383.835" y2="65.947"/>
			<line class="st30" x1="382.993" y1="66.558" x2="381.778" y2="67.438"/>
		</g>
	</g>
	<g>
		<g>
			<line class="st30" x1="394.936" y1="64.524" x2="393.722" y2="65.405"/>
			<line class="st33" x1="392.038" y1="66.625" x2="388.67" y2="69.066"/>
			<line class="st30" x1="387.828" y1="69.676" x2="386.614" y2="70.556"/>
		</g>
	</g>
	<g>
		<g>
			<line class="st30" x1="399.773" y1="67.643" x2="398.558" y2="68.523"/>
			<line class="st34" x1="396.874" y1="69.743" x2="393.506" y2="72.184"/>
			<line class="st30" x1="392.664" y1="72.794" x2="391.449" y2="73.674"/>
		</g>
	</g>
</g>
<g id="hex-java">
	<polygon id="_x3E_bg_6_" class="st35" points="495.646,65.6 472.346,79 449.146,65.6 449.146,38.7 472.346,25.3 495.646,38.7 	"/>
	<ellipse class="st17" cx="471.122" cy="65.346" rx="7.22" ry="4.779"/>
	<ellipse class="st36" cx="471.124" cy="50.919" rx="12.512" ry="6.73"/>
	<g>
		<g>
			<defs>
				<ellipse id="SVGID_11_" cx="471.122" cy="53.424" rx="10.351" ry="5.568"/>
			</defs>
			<clipPath id="SVGID_12_">
				<use xlink:href="#SVGID_11_"  style="overflow:visible;"/>
			</clipPath>
			<ellipse class="st37" cx="471.122" cy="53.424" rx="10.351" ry="5.568"/>
		</g>
		<g>
			<defs>
				<ellipse id="SVGID_13_" cx="471.122" cy="53.424" rx="10.351" ry="5.568"/>
			</defs>
			<clipPath id="SVGID_14_">
				<use xlink:href="#SVGID_13_"  style="overflow:visible;"/>
			</clipPath>
			<path class="st38" d="M487.087,45.854h-25.951v6.722c1.913-1.284,4.707-2.108,7.992-2.108c4.483,0,8.241,1.618,9.679,3.762
				C478.807,54.23,486.454,53.505,487.087,45.854z"/>
		</g>
	</g>
	<path class="st17" d="M478.055,65.937c-0.876,1.913-3.648,2.376-6.933,2.376s-6.061-0.876-6.933-2.169l-0.169,0.037
		c-6.427-8.03-5.752-15.024-5.752-15.024l0.248-0.45c0,3.717,5.527,6.942,12.436,6.942c6.911,0,12.599-3.013,12.599-6.73l0.04,0.099
		C483.591,51.018,484.482,58.286,478.055,65.937L478.055,65.937L478.055,65.937z"/>
	<g>
		<path class="st17" d="M471.123,46.189c6.017,0,10.513,2.498,10.513,4.731c0,2.233-4.496,4.73-10.513,4.73
			c-6.016,0-10.511-2.497-10.511-4.73C460.612,48.686,465.107,46.189,471.123,46.189 M471.123,44.189
			c-6.909,0-12.511,3.014-12.511,6.731s5.602,6.73,12.511,6.73c6.911,0,12.513-3.013,12.513-6.73S478.034,44.189,471.123,44.189
			L471.123,44.189z"/>
	</g>
	<path class="st39" d="M483.421,51.596c3.299,0,5.969,2.678,5.969,5.975c0,3.298-2.675,5.975-5.973,5.975s-5.067,0-5.067,0"/>
	<path class="st39" d="M483.421,51.596c3.299,0,5.969,2.678,5.969,5.975c0,3.298-2.675,5.975-5.973,5.975s-5.067,0-5.067,0"/>
	<path class="st40" d="M483.465,52.228c2.14,0,3.985,1.26,4.835,3.078"/>
	<line class="st40" x1="479.307" y1="64.502" x2="485.045" y2="64.502"/>
	<path class="st40" d="M464.759,64.437c-2.69-3.603-3.742-6.888-4.154-8.915"/>
	<path class="st41" d="M480.427,34.873c-1.13,3.81-4.087,6.277-5.478,7.438"/>
	<path class="st41" d="M464.759,43.363c-0.626-4.485,1.974-6.653,4.063-8.396c0.631-0.528,1.125-0.976,1.5-1.378"/>
	<path class="st41" d="M475.832,29.811c1.197,4.537-2.15,7.328-3.947,8.828c-2.146,1.79-2.624,2.38-2.389,4.063"/>
</g>
<g id="hex-php">
	<polygon id="_x3E_bg_7_" class="st42" points="566.275,65.6 542.975,79 519.775,65.6 519.775,38.7 542.975,25.3 566.275,38.7 	"/>
	<polyline class="st43" points="550.086,57.703 543.025,80.167 567.25,66.125 567.299,39.955 556.421,38.41 	"/>
	<polygon class="st44" points="559.322,41.405 566.057,51.21 555.392,69.541 551.542,60.951 	"/>
	<polygon class="st43" points="537.28,39.592 543.045,34.53 548.67,35.373 555.841,34.53 564.235,51.108 555.64,63.096 
		546.825,59.032 548.107,51.262 546.825,57.649 543.663,57.442 541.101,60.163 539.311,59.868 539.141,57.922 537.28,58.855 
		535.17,67.604 530.857,68.647 522.375,63.127 525.178,61.817 530.421,64.502 532.358,63.127 530.67,52.029 	"/>
	<polygon class="st17" points="539.658,51.51 540.936,53.793 536.761,54.743 527.427,47.571 528.808,46.868 536.741,52.036 	"/>
	<polygon class="st17" points="529.507,53.159 526.695,53.159 522.055,49.299 521.07,50.041 525.992,54.754 530.069,55.204 	"/>
	<circle class="st45" cx="543.008" cy="45.346" r="1.823"/>
	<polygon class="st44" points="550.086,42.69 547.044,57.703 544.224,57.521 	"/>
</g>
<g id="hex-couch-db">
	<polygon id="_x3E_bg_8_" class="st46" points="634.231,65.6 610.931,79 587.731,65.6 587.731,38.7 610.931,25.3 634.231,38.7 	"/>
	<g>
		<polygon class="st47" points="591.121,63.219 630.84,63.219 630.84,47.87 628.358,47.87 628.358,40.48 593.884,40.48 
			593.884,47.929 591.121,47.929 		"/>
		<polygon class="st48" points="625.831,49.227 625.831,42.618 596.447,42.618 596.447,48.106 593.964,48.106 593.964,60.909 
			596.447,60.909 598.005,60.909 622.368,60.909 625.831,60.909 628.198,60.909 628.198,49.227 		"/>
		<polygon class="st47" points="598.005,56.602 598.005,62.384 623.926,62.384 623.926,56.188 605.741,58.255 		"/>
		<polygon class="st47" points="598.005,49.05 598.005,52.944 604.493,55.12 623.926,53.239 623.926,49.286 619.886,51.764 
			613.189,49.05 605.396,50.466 		"/>
		<polygon class="st17" points="595.119,46.587 598.293,45.333 597.082,44.034 597.082,39.444 601.584,39.444 601.584,44.151 
			607.344,39.472 614.689,40.997 614.862,42.618 612.553,42.618 611.398,42.618 608.569,42.618 605.453,45.923 607.415,48.518 
			614.111,46.218 620.058,51.114 623.464,51.911 623.926,53.239 618.037,53.829 617.749,53.003 617.406,52.835 613.651,50.524 
			607,54.657 608.096,65.061 604.817,65.186 602.277,54.36 601.181,54.005 597.947,49.464 596.389,49.464 596.389,50.583 
			595.581,50.229 595.581,51.911 593.964,51.292 593.964,47.927 		"/>
	</g>
</g>
<g id="hex-mongo-db">
	<polygon id="_x3E_bg_1_" class="st49" points="71.8,65.6 48.5,79 25.3,65.6 25.3,38.7 48.5,25.3 71.8,38.7 	"/>
	<path class="st50" d="M48.5,34.6v32c0,0,8.6-3.6,8.6-15.8S48.5,34.6,48.5,34.6z"/>
	<path class="st51" d="M48.5,34.6v32c0,0-8.6-3.6-8.6-15.8S48.5,34.6,48.5,34.6z"/>
	<line class="st52" x1="48.5" y1="66.6" x2="48.5" y2="70.8"/>
</g>
<g id="hex-maria-db">
	<polygon id="_x3E_bg_9_" class="st53" points="71.8,141.222 48.5,154.622 25.3,141.222 25.3,114.322 48.5,100.922 71.8,114.322 	
		"/>
	<circle class="st17" cx="46.005" cy="110.15" r="0.752"/>
	<circle class="st17" cx="50.421" cy="106.523" r="0.752"/>
	<circle class="st17" cx="34.48" cy="112.469" r="0.752"/>
	<circle class="st17" cx="69.375" cy="125.863" r="0.752"/>
	<polygon class="st54" points="48.444,155.66 29.997,144.947 67.329,144.963 	"/>
	<path id="path3352_5_" class="st55" d="M45.281,153.938c0,0,3.449-17.216,5.119-19.816c1.786-2.778,4.565-4.491,7.102-6.271
		c2.883-2.023,5.455-4.132,5.898-7.986c-3.04-0.281-3.743-0.984-4.192-2.516c-1.522,0.857-2.922,1.041-4.504,1.088
		c-1.372,0.042-2.879-0.02-4.72,0.17c-13.446,1.381-23.784,24.26-23.784,24.26L45.281,153.938z"/>
	
		<radialGradient id="path3352_1_" cx="322.9514" cy="874.8035" r="22.8235" gradientTransform="matrix(0.3794 -0.9252 -0.3629 -0.1488 244.9981 574.5098)" gradientUnits="userSpaceOnUse">
		<stop  offset="0" style="stop-color:#543824"/>
		<stop  offset="1" style="stop-color:#8B5E3C;stop-opacity:0"/>
	</radialGradient>
	<path id="path3352_2_" class="st56" d="M45.281,153.938c0,0,3.449-17.216,5.119-19.816c1.786-2.778,4.565-4.491,7.102-6.271
		c2.883-2.023,5.455-4.132,5.898-7.986c-3.04-0.281-3.743-0.984-4.192-2.516c-1.522,0.857-2.922,1.041-4.504,1.088
		c-1.372,0.042-2.879-0.02-4.72,0.17c-13.446,1.381-23.784,24.26-23.784,24.26L45.281,153.938z"/>
	
		<radialGradient id="path4028_1_" cx="662.1321" cy="-42.7204" r="12.9538" gradientTransform="matrix(0.108 0.3929 -1.445 0.397 -83.6723 -125.5056)" gradientUnits="userSpaceOnUse">
		<stop  offset="0" style="stop-color:#FFFFFF"/>
		<stop  offset="1" style="stop-color:#FFFFFF;stop-opacity:0"/>
	</radialGradient>
	<path id="path4028_3_" class="st57" d="M59.214,117.343c-1.522,0.857-2.919,1.046-4.5,1.094c-1.372,0.041-2.891-0.021-4.731,0.168
		c-5.668,0.582-11.003,5.378-14.076,9.019l12.52,12.641c0.654-2.819,1.259-5.022,1.977-6.14c1.785-2.78,4.57-4.488,7.107-6.268
		c2.883-2.022,5.444-4.137,5.888-7.99C60.358,119.585,59.664,118.874,59.214,117.343z"/>
	<path id="path3880_6_" class="st58" d="M44.922,124.903c2.155,1.872,6.678,0.37,5.87-3.354
		C47.443,121.273,45.503,122.408,44.922,124.903z"/>
	<path id="path3880_5_" class="st17" d="M47.954,123.053c0.487,0.424,1.51,0.084,1.328-0.758
		C48.523,122.233,48.085,122.489,47.954,123.053z"/>
	<path id="path3882_3_" class="st59" d="M59.363,123.081c-0.05,0.878-0.337,2.105,0.44,3.963c0.13,0.319-0.024,0.64-0.232,0.151
		c-0.739-1.821-0.578-2.813-0.489-4.064C59.149,122.609,59.367,122.72,59.363,123.081z"/>
	<path id="path3884_3_" class="st59" d="M58.365,123.112c-0.232,1.108-0.975,3.245-0.351,5.755c0.104,0.432-0.15,0.811-0.322,0.148
		c-0.585-2.458-0.043-4.316,0.312-5.893C58.183,122.468,58.44,122.654,58.365,123.112z"/>
	<path id="path3888_3_" class="st59" d="M57.261,122.969c-0.385,1.073-1.617,4.608-1.349,7.184c0.043,0.443-0.262,0.79-0.337,0.107
		c-0.236-2.525,0.758-5.811,1.325-7.329C57.172,122.306,57.399,122.525,57.261,122.969z"/>
	<path class="st60" d="M59.214,117.343c0,0,2.307-2.483,3.569-2.386c0.685,0.053,1.056,0.275,1.372,1.193
		c0.316,0.918-0.757,3.716-0.757,3.716s-1.987,0.158-3.042-0.37S59.214,117.343,59.214,117.343z"/>
	<polygon class="st17" points="71.625,142.483 61.815,148.139 60.352,148.956 61.04,141.02 65.57,133.98 68.16,137.67 70.16,140.92 
			"/>
	<polygon class="st61" points="63.988,138.789 64.63,142.929 61.815,148.139 60.361,148.972 58.085,150.281 62.174,136.307 
		65.68,134.031 	"/>
</g>
<g id="hex-postgres-db">
	<polygon id="_x3E_bg_10_" class="st62" points="142.5,141.222 119.2,154.622 96,141.222 96,114.322 119.2,100.922 142.5,114.322 	
		"/>
	<path class="st63" d="M116.8,137.256v8.942c0,2.159,1.757,3.916,3.916,3.916s3.916-1.757,3.916-3.916v-8.732
		c0-1.853,1.42-3.38,3.229-3.552V123.4c0-5.243-4.265-9.509-9.509-9.509c-5.242,0-9.508,4.266-9.508,9.509v8.548
		c0,1.385,0.982,2.49,2.285,2.635c0.608-0.444,1.342-0.685,2.103-0.685c1.897,0,3.454,1.488,3.563,3.359L116.8,137.256
		L116.8,137.256z"/>
	<circle class="st64" cx="124.536" cy="124.374" r="3.325"/>
	<path class="st64" d="M121.541,125.755c0,0,4.65,5.623,4.65,8.76c0,0,0.713-0.584,1.67-0.602v-9.539"/>
	<circle class="st64" cx="112.766" cy="124.845" r="3.865"/>
	<path class="st64" d="M116.631,124.845c0,3.547-3.092,5.275-3.092,8.958c0,0-2.138,0.286-2.41,0.779c0,0-0.681,0.084-1.545-0.779
		s-0.74-1.856-0.74-1.856v-6.784"/>
	<circle class="st63" cx="112.903" cy="124.373" r="1.299"/>
	<circle class="st64" cx="118.097" cy="137.248" r="1.284"/>
	<rect x="116.813" y="137.248" class="st64" width="2.569" height="9.253"/>
	<circle class="st64" cx="120.716" cy="148.784" r="1.297"/>
	<path class="st64" d="M119.382,146.501c0,0.897,0.281,0.986,1.334,0.986s0,2.594,0,2.594c-2.448,0-3.903-2.113-3.903-3.58"/>
	<path class="st63" d="M112.299,111.76c-7.262,0-13.148,5.887-13.148,13.148c0,5.065,2.868,9.453,7.066,11.646v-4.197
		c-0.01-0.136-0.02-0.271-0.02-0.409V123.4c0-5.258,3.362-9.732,8.043-11.424c0.011-0.016,0.031-0.033,0.043-0.049
		C113.635,111.827,112.976,111.76,112.299,111.76z"/>
	<path class="st63" d="M113.168,136.032c-1.029-0.146-1.983,0.569-2.13,1.598c-0.639,4.137,0.603,8.751,0.603,8.751
		s2.418-3.34,3.124-8.221l0,0v-0.001C114.912,137.132,114.197,136.178,113.168,136.032z"/>
	<path class="st63" d="M129.866,137.281v-0.002c-0.127-1.031-1.065-1.765-2.097-1.638s-1.766,1.066-1.64,2.099
		c0.462,4.16,2.863,8.292,2.863,8.292S130.456,142.176,129.866,137.281z"/>
	<path class="st64" d="M102.989,115.626c-2.371,2.378-3.837,5.659-3.837,9.282c0,3.62,1.469,6.888,3.837,9.262V115.626z"/>
	<circle class="st63" cx="124.536" cy="124.373" r="1.299"/>
	<circle class="st64" cx="112.923" cy="137.861" r="1.871"/>
	<circle class="st64" cx="128.061" cy="137.473" r="1.871"/>
	<g>
		<path class="st63" d="M124.808,111.46c-0.97,0-1.908,0.127-2.812,0.344c4.926,1.553,8.509,6.163,8.509,11.594v11.744
			c4.924-4.924,6.318-7.093,6.318-11.667C136.824,116.84,131.444,111.46,124.808,111.46z"/>
	</g>
	<path class="st64" d="M131.808,128.434c0,1.476,0.515,2.83,1.37,3.898c2.773-3.139,3.645-5.254,3.645-8.857
		c0-0.389-0.022-0.773-0.059-1.153C133.934,122.918,131.808,125.427,131.808,128.434z"/>
</g>
<g id="hex-redis">
	<polygon id="_x3E_bg_11_" class="st65" points="213.474,141.222 190.174,154.622 166.974,141.222 166.974,114.322 190.174,100.922 
		213.474,114.322 	"/>
	<polygon class="st66" points="190.076,145.393 173.332,136.185 173.332,132.229 190.076,141.437 	"/>
	<polygon class="st67" points="173.332,132.229 190.076,141.437 208.134,132.065 191.39,122.857 	"/>
	<polygon class="st66" points="190.076,145.393 208.134,136.021 208.134,132.065 190.076,141.437 	"/>
	<polygon class="st66" points="190.076,139.04 173.332,129.831 173.332,125.876 190.076,135.084 	"/>
	<polygon class="st67" points="173.332,125.876 190.076,135.084 208.134,125.712 191.39,116.504 	"/>
	<polygon class="st66" points="190.076,139.04 208.134,129.667 208.134,125.712 190.076,135.084 	"/>
	<polygon class="st66" points="190.076,132.686 173.332,123.478 173.332,119.522 190.076,128.73 	"/>
	<polygon class="st67" points="173.332,119.522 190.076,128.73 208.134,119.358 191.39,110.15 	"/>
	<polygon class="st66" points="190.076,132.686 208.134,123.314 208.134,119.358 190.076,128.73 	"/>
</g>
<g id="hex-percona-db">
	<polygon id="_x3E_bg_12_" class="st68" points="284.474,141.222 261.174,154.622 237.974,141.222 237.974,114.322 261.174,100.922 
		284.474,114.322 	"/>
	<circle class="st69" cx="261.607" cy="127" r="16.125"/>
	<circle class="st70" cx="261.607" cy="127" r="9.393"/>
	<polygon class="st69" points="252.273,150.717 245.687,146.942 245.687,127.353 252.273,127.353 	"/>
</g>
<g id="hex-default">
	<polygon id="_x3E_bg_13_" class="st71" points="354.77,141.222 331.47,154.622 308.27,141.222 308.27,114.322 331.47,100.922 
		354.77,114.322 	"/>
	<circle class="st72" cx="331.62" cy="126.813" r="11.669"/>
	<circle class="st17" cx="319.841" cy="111.339" r="1.266"/>
	<circle class="st17" cx="350.639" cy="114.945" r="1.266"/>
	<circle class="st17" cx="311.74" cy="117.484" r="0.87"/>
	<circle class="st17" cx="340.894" cy="140.426" r="0.87"/>
	<circle class="st17" cx="329.727" cy="141.177" r="0.87"/>
	<circle class="st17" cx="325.142" cy="146.424" r="0.871"/>
	<circle class="st17" cx="350.768" cy="141.178" r="0.871"/>
	<circle class="st17" cx="320.06" cy="141.152" r="2.496"/>
	<circle class="st17" cx="343.695" cy="112.837" r="2.496"/>
	<circle class="st17" cx="347.305" cy="119.939" r="1.789"/>
	<path class="st73" d="M343.289,126.814c0,6.44-23.339,6.44-23.339,0c0-6.444,5.224-11.67,11.671-11.67
		C338.061,115.144,343.289,120.369,343.289,126.814z"/>
	<path class="st74" d="M337.707,121.907c-2.033-2.312-6.645-3.773-8.851-3.553c2.29-1.289,3.899-1.3,5.665-0.709
		C336.283,118.235,337.364,119.846,337.707,121.907z"/>
</g>
<g id="hex-default-db">
	<polygon id="_x3E_bg_14_" class="st75" points="424.961,141.222 401.661,154.622 378.461,141.222 378.461,114.322 401.661,100.922 
		424.961,114.322 	"/>
	<polygon class="st76" points="414.579,138.871 408.484,143.489 390.174,149.186 377.52,141.687 377.52,132.548 390.614,128.764 
		394.86,131.376 	"/>
	<polygon class="st77" points="394.578,138.526 387.91,134.127 394.578,129.728 407.912,129.728 414.579,134.127 407.912,138.526 	
		"/>
	<polygon class="st78" points="414.579,134.127 414.579,138.871 407.912,143.27 407.912,138.526 	"/>
	<rect x="394.578" y="138.526" class="st79" width="13.335" height="4.744"/>
	<polygon class="st80" points="394.578,138.526 387.91,134.127 387.91,138.871 394.578,143.27 	"/>
	<polygon class="st77" points="394.578,130.005 387.91,125.605 394.578,121.206 407.912,121.206 414.579,125.605 407.912,130.005 	
		"/>
	<polygon class="st78" points="414.579,125.605 414.579,130.349 407.912,134.749 407.912,130.005 	"/>
	<rect x="394.578" y="130.005" class="st79" width="13.335" height="4.744"/>
	<polygon class="st80" points="394.578,130.005 387.91,125.605 387.91,130.349 394.578,134.749 	"/>
	<polygon class="st77" points="394.578,121.433 387.91,117.034 394.578,112.635 407.912,112.635 414.579,117.034 407.912,121.433 	
		"/>
	<polygon class="st78" points="414.579,117.034 414.579,121.778 407.912,126.177 407.912,121.433 	"/>
	<rect x="394.578" y="121.433" class="st79" width="13.335" height="4.744"/>
	<polygon class="st80" points="394.578,121.433 387.91,117.034 387.91,121.778 394.578,126.177 	"/>
</g>
<g id="hex-empty">
	<polygon class="st81" points="495.961,141.222 472.661,154.622 449.461,141.222 449.461,114.322 472.661,100.922 495.961,114.322 	
		"/>
</g>
</svg>
