<?xml version="1.0" encoding="iso-8859-1"?>
<!-- Generator: Adobe Illustrator 19.2.1, SVG Export Plug-In . SVG Version: 6.00 Build 0)  -->
<svg version="1.1" id="svgs" xmlns="http://www.w3.org/2000/svg" xmlns:xlink="http://www.w3.org/1999/xlink" x="0px" y="0px"
	 viewBox="0 0 640 480" style="enable-background:new 0 0 640 480;" xml:space="preserve">
<style type="text/css">
	.st0{fill:#F06368;stroke:#F06368;stroke-width:2;stroke-miterlimit:10;}
	.st1{fill:#CA2128;}
	.st2{fill:url(#SVGID_1_);}
	.st3{fill:#BE2227;}
	.st4{fill:url(#SVGID_2_);}
	.st5{fill:#621310;}
	.st6{fill:url(#SVGID_3_);}
	.st7{fill:#D32034;}
	.st8{fill:url(#SVGID_4_);}
	.st9{fill:url(#SVGID_5_);}
	.st10{fill:url(#SVGID_6_);}
	.st11{fill:url(#SVGID_7_);}
	.st12{fill:#EF4C53;}
	.st13{opacity:0.61;fill:url(#SVGID_8_);enable-background:new    ;}
	.st14{fill:url(#SVGID_9_);}
	.st15{fill:url(#SVGID_10_);}
	.st16{fill:#65BC81;stroke:#65BC81;stroke-width:2;stroke-miterlimit:10;}
	.st17{fill:#1F8B35;}
	.st18{fill:#2BA240;}
	.st19{fill:none;stroke:#D6CBA6;stroke-miterlimit:10;}
</style>
<g id="hex-ruby">
	<polygon id="_x3E_bg" class="st0" points="142.5,65.6 119.2,79 96,65.6 96,38.7 119.2,25.3 142.5,38.7 	"/>
	<path class="st1" d="M120,58.5"/>
	
		<linearGradient id="SVGID_1_" gradientUnits="userSpaceOnUse" x1="133.7477" y1="-465.7044" x2="124.8962" y2="-508.6969" gradientTransform="matrix(1 0 0 1 0 560)">
		<stop  offset="0" style="stop-color:#EF4C53"/>
		<stop  offset="0.1648" style="stop-color:#EB4A51"/>
		<stop  offset="0.336" style="stop-color:#DE454B"/>
		<stop  offset="0.5103" style="stop-color:#CA3D41"/>
		<stop  offset="0.6867" style="stop-color:#AC3133"/>
		<stop  offset="0.8629" style="stop-color:#872221"/>
		<stop  offset="1" style="stop-color:#651410"/>
	</linearGradient>
	<polygon class="st2" points="132.9,58.5 125.6,49.9 120,59.2 	"/>
	<polygon class="st3" points="125.6,49.9 131.5,46 132.9,58.5 	"/>
	
		<linearGradient id="SVGID_2_" gradientUnits="userSpaceOnUse" x1="150.923" y1="-499.6602" x2="129.1136" y2="-511.355" gradientTransform="matrix(1 0 0 1 0 560)">
		<stop  offset="0" style="stop-color:#EF4C53"/>
		<stop  offset="0.1648" style="stop-color:#EB4A51"/>
		<stop  offset="0.336" style="stop-color:#DE454B"/>
		<stop  offset="0.5103" style="stop-color:#CA3D41"/>
		<stop  offset="0.6867" style="stop-color:#AC3133"/>
		<stop  offset="0.8629" style="stop-color:#872221"/>
		<stop  offset="1" style="stop-color:#651410"/>
	</linearGradient>
	<polygon class="st4" points="132.9,58.5 139,49.9 131.5,42.1 131.5,46 	"/>
	<polygon class="st5" points="107.1,58.5 114.4,49.9 120,59.2 	"/>
	<polygon class="st3" points="114.4,49.9 108.4,46 107.1,58.5 	"/>
	<polygon class="st3" points="114.4,49.9 108.4,46 107.1,58.5 	"/>
	
		<linearGradient id="SVGID_3_" gradientUnits="userSpaceOnUse" x1="105.8709" y1="-502.6615" x2="109.5607" y2="-508.9268" gradientTransform="matrix(1 0 0 1 0 560)">
		<stop  offset="0" style="stop-color:#FFFFFF"/>
		<stop  offset="1" style="stop-color:#FFFFFF;stop-opacity:0"/>
	</linearGradient>
	<polygon class="st6" points="114.4,49.9 108.4,46 107.1,58.5 	"/>
	<polygon class="st7" points="107.1,57.8 100.9,49.9 108.4,42.1 108.4,46 	"/>
	
		<linearGradient id="SVGID_4_" gradientUnits="userSpaceOnUse" x1="115.1506" y1="-514.367" x2="104.3357" y2="-508.0583" gradientTransform="matrix(1 0 0 1 0 560)">
		<stop  offset="0" style="stop-color:#FFFFFF"/>
		<stop  offset="1" style="stop-color:#FFFFFF;stop-opacity:0"/>
	</linearGradient>
	<polygon class="st8" points="107.1,57.8 100.9,49.9 108.4,42.1 108.4,46 	"/>
	
		<linearGradient id="SVGID_5_" gradientUnits="userSpaceOnUse" x1="100.879" y1="-506.1519" x2="118.3051" y2="-516.0381" gradientTransform="matrix(1 0 0 1 0 560)">
		<stop  offset="0" style="stop-color:#621310"/>
		<stop  offset="0.172" style="stop-color:#661312;stop-opacity:0.828"/>
		<stop  offset="0.3508" style="stop-color:#731418;stop-opacity:0.6492"/>
		<stop  offset="0.5327" style="stop-color:#871621;stop-opacity:0.4673"/>
		<stop  offset="0.7167" style="stop-color:#A5182E;stop-opacity:0.2833"/>
		<stop  offset="0.9007" style="stop-color:#CA1A3F;stop-opacity:0.0993"/>
		<stop  offset="1" style="stop-color:#E11C4A;stop-opacity:0"/>
	</linearGradient>
	<polygon class="st9" points="107.1,57.8 100.9,49.9 108.4,42.1 108.4,46 	"/>
	
		<linearGradient id="SVGID_6_" gradientUnits="userSpaceOnUse" x1="115.4396" y1="-510.3029" x2="121.8616" y2="-506.0687" gradientTransform="matrix(1 0 0 1 0 560)">
		<stop  offset="0" style="stop-color:#EE3A3F"/>
		<stop  offset="1" style="stop-color:#AC2125"/>
	</linearGradient>
	<polygon class="st10" points="120,49.9 114.4,49.9 114.4,49.9 120,59.2 125.6,49.9 125.6,49.9 	"/>
	
		<linearGradient id="SVGID_7_" gradientUnits="userSpaceOnUse" x1="112.9762" y1="-501.1501" x2="122.3178" y2="-510.6599" gradientTransform="matrix(1 0 0 1 0 560)">
		<stop  offset="0" style="stop-color:#FFFFFF"/>
		<stop  offset="1" style="stop-color:#FFFFFF;stop-opacity:0.42"/>
	</linearGradient>
	<polygon class="st11" points="120,49.9 114.4,49.9 114.4,49.9 120,59.2 125.6,49.9 125.6,49.9 	"/>
	<polygon class="st12" points="126.4,39 120,39 113.5,39 108.4,42.1 108.4,46 114.4,49.9 120,49.9 125.6,49.9 131.5,46 131.5,42.1 	
		"/>
	
		<linearGradient id="SVGID_8_" gradientUnits="userSpaceOnUse" x1="135.5061" y1="-534.5881" x2="118.3595" y2="-514.0444" gradientTransform="matrix(1 0 0 1 0 560)">
		<stop  offset="0" style="stop-color:#FFFFFF"/>
		<stop  offset="1" style="stop-color:#FFFFFF;stop-opacity:0"/>
	</linearGradient>
	<polygon class="st13" points="126.4,39 120,39 113.5,39 108.4,42.1 108.4,46 114.4,49.9 120,49.9 125.6,49.9 131.5,46 131.5,42.1 	
		"/>
	<polygon class="st1" points="120,59.2 120,68 132.9,58.5 	"/>
	
		<linearGradient id="SVGID_9_" gradientUnits="userSpaceOnUse" x1="142.8018" y1="-484.1731" x2="109.1573" y2="-502.2141" gradientTransform="matrix(1 0 0 1 0 560)">
		<stop  offset="0" style="stop-color:#EF4C53"/>
		<stop  offset="0.1648" style="stop-color:#EB4A51"/>
		<stop  offset="0.336" style="stop-color:#DE454B"/>
		<stop  offset="0.5103" style="stop-color:#CA3D41"/>
		<stop  offset="0.6867" style="stop-color:#AC3133"/>
		<stop  offset="0.8629" style="stop-color:#872221"/>
		<stop  offset="1" style="stop-color:#651410"/>
	</linearGradient>
	<polygon class="st14" points="120,59.2 120,59.2 107.1,58.5 120,68 120,68 	"/>
	
		<linearGradient id="SVGID_10_" gradientUnits="userSpaceOnUse" x1="108.4" y1="-514" x2="108.4" y2="-514" gradientTransform="matrix(1 0 0 1 0 560)">
		<stop  offset="0" style="stop-color:#EF4C53"/>
		<stop  offset="0.1648" style="stop-color:#EB4A51"/>
		<stop  offset="0.336" style="stop-color:#DE454B"/>
		<stop  offset="0.5103" style="stop-color:#CA3D41"/>
		<stop  offset="0.6867" style="stop-color:#AC3133"/>
		<stop  offset="0.8629" style="stop-color:#872221"/>
		<stop  offset="1" style="stop-color:#651410"/>
	</linearGradient>
	<path class="st15" d="M108.4,46"/>
</g>
<g id="hex-mongo-db">
	<polygon id="_x3E_bg_1_" class="st16" points="71.8,65.6 48.5,79 25.3,65.6 25.3,38.7 48.5,25.3 71.8,38.7 	"/>
	<path class="st17" d="M48.5,34.6v32c0,0,8.6-3.6,8.6-15.8S48.5,34.6,48.5,34.6z"/>
	<path class="st18" d="M48.5,34.6v32c0,0-8.6-3.6-8.6-15.8S48.5,34.6,48.5,34.6z"/>
	<line class="st19" x1="48.5" y1="66.6" x2="48.5" y2="70.8"/>
</g>
</svg>
