<?xml version="1.0" encoding="iso-8859-1"?>
<!-- Generator: Adobe Illustrator 21.0.0, SVG Export Plug-In . SVG Version: 6.00 Build 0)  -->
<svg version="1.1" id="Layer_1" xmlns="http://www.w3.org/2000/svg" xmlns:xlink="http://www.w3.org/1999/xlink" x="0px" y="0px"
	 viewBox="0 0 200 200" style="enable-background:new 0 0 200 200;" xml:space="preserve">
<style type="text/css">
	.st0{fill:#EF3942;}
	.st1{clip-path:url(#SVGID_2_);fill:#B52B32;}
	.st2{fill:#FFD6D9;}
	.st3{fill:#FFA7AD;}
	.st4{fill:#FFC0C4;}
	.st5{fill:#FF9399;}
	.st6{fill:#D3D3D3;}
	.st7{fill:#FFD9DB;}
	.st8{fill:#FFBDC0;}
	.st9{fill:#FFFFFF;}
	.st10{fill:#FF616B;}
	.st11{fill:#FF868D;}
	.st12{fill:#FFDEE0;}
	.st13{fill:#FF747C;}
	.st14{fill:#98CF70;}
	.st15{clip-path:url(#SVGID_4_);fill:#81B05F;}
	.st16{fill:#A1CCCC;}
	.st17{fill:#FFA3A9;}
	.st18{fill:none;stroke:#C4C9C9;stroke-width:2;stroke-miterlimit:10;}
	.st19{fill:#ABB0B0;}
	.st20{fill:#6FDBC2;}
	.st21{fill:#CCEBE4;}
	.st22{fill:#8AC2B5;}
	.st23{fill:#7FC4B4;}
	.st24{fill:#5FC9B1;}
	.st25{fill:#86E6D0;}
	.st26{fill:#A5C7D1;}
	.st27{fill:#68A1B2;}
	.st28{fill:#DFDFDF;}
	.st29{fill:#4A81AB;}
	.st30{fill:#5EA5DB;}
	.st31{fill:#AAC1D6;}
	.st32{fill:none;stroke:#5EA5DB;stroke-width:2;stroke-miterlimit:10;}
	.st33{fill:none;stroke:#5EA5DB;stroke-width:2;stroke-miterlimit:10;stroke-dasharray:3.5807,2.3871;}
	.st34{fill:none;stroke:#5EA5DB;stroke-width:2;stroke-miterlimit:10;stroke-dasharray:3.1191,2.0794;}
	.st35{fill:none;stroke:#5EA5DB;stroke-width:2;stroke-miterlimit:10;stroke-dasharray:3.1194,2.0796;}
	.st36{fill:none;stroke:#5EA5DB;stroke-width:2;stroke-miterlimit:10;stroke-dasharray:3.1197,2.0798;}
	.st37{fill:#B8B8B8;}
	.st38{clip-path:url(#SVGID_6_);fill:#EA0001;}
	.st39{clip-path:url(#SVGID_6_);fill:#8A0001;}
	.st40{fill:none;stroke:#FFFFFF;stroke-width:2.7573;stroke-miterlimit:10;}
	.st41{fill:none;stroke:#DFDFDF;stroke-width:0.9191;stroke-linecap:round;stroke-miterlimit:10;}
	.st42{fill:none;stroke:#FFFFFF;stroke-width:1.8382;stroke-miterlimit:10;}
	.st43{fill:#9CB3F0;}
	.st44{fill:#52638F;}
	.st45{fill:#374E78;}
	.st46{fill:#2D3652;}
	.st47{fill:#FF3030;}
	.st48{fill:#B32222;}
	.st49{fill:#FF0000;}
	.st50{fill:#5ECC81;}
	.st51{fill:#32B873;}
	.st52{fill:none;stroke:#FFE99E;stroke-miterlimit:10;}
	.st53{fill:#1F8B35;}
	.st54{fill:#2BA240;}
	.st55{fill:#FFB13B;}
	.st56{fill:#FF6759;}
	.st57{fill:#FFB03B;}
	.st58{fill:none;stroke:#FFE7A6;stroke-linejoin:bevel;stroke-miterlimit:10;}
	.st59{fill:none;stroke:#FFE7A6;stroke-width:2.1;stroke-linejoin:bevel;stroke-miterlimit:10;}
	.st60{fill:#FFE7A6;}
	.st61{fill:#1A93DB;}
	.st62{fill:#95C3ED;}
	.st63{fill:none;stroke:#107CBF;stroke-width:1.7761;stroke-linecap:round;stroke-miterlimit:10;}
	.st64{fill:#78B0E3;}
	.st65{fill:#7197EE;}
	.st66{fill:#4A67A8;}
	.st67{fill:#FFC88D;}
	.st68{fill:url(#path3352_1_);}
	.st69{fill:url(#path4028_1_);}
	.st70{fill:#002B64;}
	.st71{fill:#678AD9;}
	.st72{fill:#394E80;}
	.st73{fill:#C7FFFA;}
	.st74{fill:#7EB0D9;}
	.st75{fill:#2071B0;}
	.st76{fill:#144973;}
	.st77{fill:#D4EFFF;}
	.st78{fill:#DB2317;}
	.st79{fill:#AB1B12;}
	.st80{fill:#FF3226;}
	.st81{fill:#FFFEFD;}
	.st82{fill:#F25C5C;}
	.st83{fill:#FCFCFC;}
	.st84{fill:#FF8754;}
	.st85{fill:#35C7F0;}
	.st86{fill:#C2DFF2;}
	.st87{fill:#FFFCE6;}
	.st88{fill:#91BBD4;}
	.st89{fill:#6897B3;}
	.st90{fill:#A4C8DD;}
	.st91{fill:#90BAD3;}
	.st92{fill:#83A9BF;}
	.st93{fill:#5FD3E8;}
	.st94{fill:#18A9C4;}
	.st95{fill:#437680;}
	.st96{fill:#ACE8F2;}
	.st97{fill:#1CC0FF;}
	.st98{fill:none;}
	.st99{fill:#FFE570;}
	.st100{fill:#543729;}
	.st101{fill:#CECECE;}
	.st102{fill:#3672A4;}
	.st103{clip-path:url(#SVGID_8_);fill:#29577D;}
	.st104{fill:#29577D;}
	.st105{fill:#F3B711;}
	.st106{fill:#9F6229;enable-background:new    ;}
	.st107{fill:none;stroke:#B9DFF0;stroke-miterlimit:10;}
	.st108{fill:#DC322D;}
	.st109{fill:#C22C28;}
	.st110{fill:#F28885;}
	.st111{fill:#EF454E;}
	.st112{fill:#9E9E9E;}
	.st113{fill:#666666;}
	.st114{fill:#DBDBDB;}
	.st115{fill:#9C6B3D;}
	.st116{fill:#805832;}
	.st117{fill:none;stroke:#FFFFFF;stroke-width:6.505;stroke-miterlimit:10;}
	.st118{fill:#91DC47;}
	.st119{fill:#7BBA3C;}
	.st120{fill:none;stroke:#FFFFFF;stroke-width:4.1403;stroke-miterlimit:10;}
	.st121{fill:#897596;}
	.st122{fill:#7B6987;}
	.st123{opacity:0.4;fill:#CBADDE;}
	.st124{opacity:0.28;fill:#CBADDE;}
	.st125{fill:#75AFDE;}
	.st126{fill:#6699C2;}
	.st127{fill:#DBEFFF;}
	.st128{fill:#38B0FF;}
	.st129{fill:#2695DE;}
	.st130{fill:#1476B6;}
	.st131{fill:#004470;}
	.st132{fill:#00548A;}
	.st133{fill:#65CF69;}
	.st134{fill:#55B358;}
	.st135{fill:none;stroke:#FFFFFF;stroke-width:3.4258;stroke-linecap:round;stroke-miterlimit:10;}
	.st136{fill:#3D699C;}
	.st137{fill:#325680;}
	.st138{fill:none;stroke:#FFFFFF;stroke-width:1.1419;stroke-miterlimit:10;stroke-dasharray:4.5552,2.2776;}
	.st139{fill:#297686;}
	.st140{fill:#115261;}
	.st141{fill:#BAD6DA;}
	.st142{fill:none;stroke:#BAD6DA;stroke-miterlimit:10;}
	.st143{fill:#43909A;}
	.st144{fill:#2C7A85;}
</style>
<g id="hex-ruby_x60_49x56">
	<g>
		<polygon class="st0" points="48.5,42 24.3,56 0,42 0,14 24.3,0 48.5,14 		"/>
		<g>
			<g>
				<g>
					<g>
						<g>
							<defs>
								<polygon id="SVGID_1_" points="48.5,42 24.3,56 0,42 0,14 24.3,0 48.5,14 								"/>
							</defs>
							<clipPath id="SVGID_2_">
								<use xlink:href="#SVGID_1_"  style="overflow:visible;"/>
							</clipPath>
							<polyline class="st1" points="11.9,33.4 28.511,53.564 48.5,42 48.5,35.308 42,25.3 							"/>
						</g>
					</g>
				</g>
			</g>
		</g>
		<polygon class="st2" points="35.1,18.1 30.1,15.4 24.2,15.4 18.2,15.4 13.4,18.1 6.5,25.3 12.3,33.3 24.2,42.1 24.2,42.1 
			24.2,42.1 24.2,42.1 24.3,42 36.1,33.3 42,25.3 		"/>
		<polygon class="st3" points="36.1,33.3 29.4,25.3 24.2,34 		"/>
		<polygon class="st2" points="29.4,25.3 35,21.7 36.1,33.3 		"/>
		<polygon class="st4" points="36.1,33.3 42,25.3 35.1,18.1 35,21.7 		"/>
		<polygon class="st5" points="12.3,33.3 19,25.3 24.2,34 		"/>
		<polygon class="st6" points="19,25.3 13.5,21.7 12.3,33.3 		"/>
		<polygon class="st7" points="19,25.3 13.5,21.7 12.3,33.3 		"/>
		<polygon class="st8" points="12.3,33.3 6.5,25.3 13.4,18.1 13.5,21.7 		"/>
		<polygon class="st4" points="24.2,25.3 19,25.3 19,25.3 24.2,34 29.4,25.3 29.4,25.3 		"/>
		<polygon class="st9" points="30.1,15.4 24.2,15.4 18.2,15.4 13.4,18.1 13.5,21.7 19,25.3 24.2,25.3 29.4,25.3 35,21.7 35.1,18.1 
					"/>
		<polygon class="st10" points="24.2,34 24.3,42 36.1,33.3 		"/>
		<polygon class="st11" points="24.2,34 24.2,34 12.3,33.3 24.2,42.1 24.3,42 		"/>
		<polygon class="st12" points="35,21.7 42,25.3 35.1,18.1 		"/>
		<polyline class="st12" points="13.4,22 13.4,22 6.5,25.3 13.4,18.1 		"/>
		<polygon class="st13" points="18.2,33.6 24.2,42.1 24.2,34 		"/>
		<polygon class="st11" points="30.2,33.6 24.2,42.1 24.2,34 		"/>
	</g>
</g>
<g id="hex-node_x60_47x54">
	<g>
		<polygon class="st14" points="46.5,40.27 23.249,53.694 0,40.27 0,13.423 23.249,0 46.5,13.423 		"/>
		<g>
			<g>
				<g>
					<defs>
						<polygon id="SVGID_3_" points="46.5,40.27 23.249,53.694 0,40.27 0,13.423 23.249,0 46.5,13.423 						"/>
					</defs>
					<clipPath id="SVGID_4_">
						<use xlink:href="#SVGID_3_"  style="overflow:visible;"/>
					</clipPath>
					<polyline class="st15" points="12.163,36.337 12.313,36.485 27.225,51.398 46.5,40.27 46.473,32.771 34.129,20.426 
						23.25,19.509 15.685,21.492 					"/>
				</g>
			</g>
		</g>
		<path class="st9" d="M34.129,20.426c0-0.432-0.229-0.83-0.6-1.044l-9.943-5.959c-0.168-0.101-0.357-0.397-0.547-0.397
			c-0.017,0-0.089,0-0.104,0c-0.19,0-0.378,0.296-0.549,0.397l-9.943,5.841c-0.37,0.211-0.6,0.67-0.6,1.104l0.022,15.437
			c0,0.211,0.112,0.427,0.299,0.532c0.186,0.112,0.413,0.118,0.597,0.009l5.955-3.38c0.373-0.222,0.649-0.61,0.649-1.039v-7.196
			c0-0.429,0.182-0.826,0.555-1.039l2.492-1.451c0.187-0.107,0.381-0.16,0.589-0.16c0.206,0,0.41,0.053,0.592,0.16l2.69,1.451
			c0.372,0.213,0.776,0.61,0.776,1.039v7.196c0,0.429,0.052,0.823,0.424,1.043l5.818,3.384c0.185,0.109,0.371,0.109,0.556,0
			c0.182-0.106,0.277-0.305,0.277-0.517L34.129,20.426z"/>
	</g>
</g>
<g id="hex-memcached_x60_47x54">
	<polygon id="_x3E_bg_3_" class="st16" points="46.5,40.3 23.2,53.7 0,40.3 0,13.4 23.2,0 46.5,13.4 	"/>
	<path class="st9" d="M23.167,42.894c10.21,0,13.757-7.354,13.757-12.2c0-4.932-1.211-12.113-7.874-18.689
		c0,4.586-0.087,10.469-5.451,10.469"/>
	<path class="st9" d="M24.033,42.894c-10.21,0-13.757-7.354-13.757-12.2c0-4.932,1.211-12.113,7.874-18.689
		c0,4.586,0.087,10.469,5.451,10.469"/>
	<g>
		<circle class="st9" cx="31.214" cy="30.262" r="3.028"/>
	</g>
	<g>
		<path class="st17" d="M31.214,27.493c1.471,0,2.682,1.211,2.682,2.682s-1.211,2.682-2.682,2.682s-2.682-1.211-2.682-2.682
			C28.532,28.705,29.657,27.493,31.214,27.493 M31.214,26.628c-1.99,0-3.547,1.557-3.547,3.547s1.557,3.547,3.547,3.547
			s3.547-1.557,3.547-3.547C34.761,28.272,33.117,26.628,31.214,26.628L31.214,26.628z"/>
	</g>
	<g>
		<polyline class="st18" points="23.687,32.771 23.687,37.963 20.658,40.904 		"/>
		<line class="st18" x1="27.147" y1="40.818" x2="24.033" y2="37.616"/>
	</g>
	<g>
		<circle class="st9" cx="16.938" cy="30.262" r="3.028"/>
	</g>
	<polygon class="st19" points="25.763,32.079 24.033,33.723 22.389,32.079 	"/>
	<g>
		<path class="st17" d="M16.938,27.493c1.471,0,2.682,1.211,2.682,2.682s-1.211,2.682-2.682,2.682s-2.682-1.211-2.682-2.682
			C14.256,28.705,15.467,27.493,16.938,27.493 M16.938,26.628c-1.99,0-3.547,1.557-3.547,3.547s1.557,3.547,3.547,3.547
			s3.547-1.557,3.547-3.547C20.485,28.272,18.928,26.628,16.938,26.628L16.938,26.628z"/>
	</g>
</g>
<g id="hex-platform_x60_47x54">
	<polygon id="_x3E_bg_15_" class="st20" points="46.5,40.3 23.2,53.7 0,40.3 0,13.4 23.2,0 46.5,13.4 	"/>
	<g id="logo-horizontal_1_">
		<g>
			<polygon class="st9" points="34.6,39 23.1,44.9 11.3,38.9 22.8,32.9 			"/>
			<polygon class="st21" points="29.7,36.5 22.9,40 16,36.4 22.8,32.9 			"/>
			<polygon class="st22" points="23.1,44.9 34.6,39 34.6,40.7 23.1,46.6 			"/>
			<polygon class="st23" points="23.1,44.9 11.3,38.9 11.3,40.6 23.1,46.6 			"/>
		</g>
		<g>
			<polygon class="st24" points="23.2,35.3 32.6,30.5 32.6,31.9 23.2,36.7 			"/>
			<polygon class="st25" points="23.2,35.3 13.8,30.5 13.8,31.9 23.2,36.7 			"/>
			<polygon class="st9" points="32.6,30.5 23.2,35.3 13.8,30.5 23.2,25.7 			"/>
			<polygon class="st21" points="30.1,29.2 23.2,32.8 16.3,29.2 23.2,25.7 			"/>
		</g>
		<g>
			<polygon class="st22" points="23.2,27.8 34.6,21.9 34.6,23.7 23.2,29.5 			"/>
			<polygon class="st23" points="23.2,27.8 11.8,21.9 11.8,23.7 23.2,29.5 			"/>
			<polygon class="st9" points="34.6,21.9 23.2,27.8 11.8,21.9 23.2,16.1 			"/>
			<polygon class="st21" points="31.6,20.4 23.2,24.7 14.8,20.4 23.2,16.1 			"/>
		</g>
		<g>
			<polygon class="st9" points="34.6,12.9 23.1,18.8 11.6,12.9 23.1,7 			"/>
			<polygon class="st24" points="23.1,18.8 34.6,12.9 34.6,14.7 23.1,20.6 			"/>
			<polygon class="st25" points="23.1,18.8 11.6,12.9 11.6,14.7 23.1,20.6 			"/>
		</g>
	</g>
</g>
<g id="hex-system_x60_47x54">
	<polygon id="_x3E_bg_16_" class="st26" points="46.5,40.3 23.2,53.7 0,40.3 0,13.4 23.2,0 46.5,13.4 	"/>
	<polygon class="st27" points="29.4,16.2 35.6,26.9 29.4,37.5 17.1,37.5 10.9,26.9 17.1,16.2 	"/>
</g>
<g id="hex-storage_x60_47x54">
	<polygon id="_x3E_bg_5_" class="st28" points="46.5,40.3 23.2,53.7 0,40.3 0,13.4 23.2,0 46.5,13.4 	"/>
	<polygon class="st29" points="34.1,36.1 34.1,32.3 23.1,40.4 23.1,44.5 	"/>
	<polyline class="st30" points="23.1,40.4 8.1,29.4 8.1,33.7 23,44.7 	"/>
	<polygon class="st9" points="19.6,22.1 8.5,29.4 23.4,40.5 34.1,32.3 	"/>
	<polygon class="st31" points="14,25.8 28.4,36.7 34.1,32.3 19.6,21.2 	"/>
	<polygon class="st29" points="37.1,25 37.1,21.2 27.1,29 27.1,33.1 	"/>
	<polyline class="st30" points="27,29 12.1,18 12.1,22.3 27,33.3 	"/>
	<polygon class="st9" points="22.8,11 12.2,18 27.1,29.1 37.3,21.2 	"/>
	<g>
		<g>
			<line class="st32" x1="33.9" y1="5.4" x2="32.6" y2="6.2"/>
			<line class="st33" x1="30.6" y1="7.5" x2="26.7" y2="10.2"/>
			<line class="st32" x1="25.7" y1="10.9" x2="24.5" y2="11.7"/>
		</g>
	</g>
	<g>
		<g>
			<line class="st32" x1="38.7" y1="8.5" x2="37.5" y2="9.3"/>
			<line class="st33" x1="35.5" y1="10.7" x2="31.5" y2="13.3"/>
			<line class="st32" x1="30.5" y1="14" x2="29.3" y2="14.8"/>
		</g>
	</g>
	<g>
		<g>
			<line class="st32" x1="43.5" y1="11.6" x2="42.3" y2="12.4"/>
			<line class="st33" x1="40.3" y1="13.8" x2="36.4" y2="16.5"/>
			<line class="st32" x1="35.4" y1="17.1" x2="34.1" y2="18"/>
		</g>
	</g>
	<g>
		<g>
			<line class="st32" x1="11.6" y1="36.1" x2="10.4" y2="37"/>
			<line class="st34" x1="8.7" y1="38.2" x2="5.3" y2="40.6"/>
			<line class="st32" x1="4.5" y1="41.3" x2="3.3" y2="42.1"/>
		</g>
	</g>
	<g>
		<g>
			<line class="st32" x1="16.4" y1="39.2" x2="15.2" y2="40.1"/>
			<line class="st35" x1="13.5" y1="41.3" x2="10.2" y2="43.8"/>
			<line class="st32" x1="9.3" y1="44.4" x2="8.1" y2="45.3"/>
		</g>
	</g>
	<g>
		<g>
			<line class="st32" x1="21.3" y1="42.3" x2="20.1" y2="43.2"/>
			<line class="st36" x1="18.4" y1="44.4" x2="15" y2="46.9"/>
			<line class="st32" x1="14.2" y1="47.5" x2="13.411" y2="48.046"/>
		</g>
	</g>
</g>
<g id="hex-java_x60_47x54">
	<g>
		<polygon class="st37" points="46.547,40.312 23.274,53.749 0,40.312 0,13.437 23.274,0 46.547,13.437 		"/>
		<ellipse class="st9" cx="21.799" cy="38.949" rx="6.542" ry="4.331"/>
		<ellipse class="st28" cx="21.8" cy="25.877" rx="11.337" ry="6.098"/>
		<g>
			<defs>
				<ellipse id="SVGID_5_" cx="21.799" cy="28.147" rx="9.378" ry="5.044"/>
			</defs>
			<use xlink:href="#SVGID_5_"  style="overflow:visible;fill:#E80000;"/>
			<clipPath id="SVGID_6_">
				<use xlink:href="#SVGID_5_"  style="overflow:visible;"/>
			</clipPath>
			<ellipse class="st38" cx="21.799" cy="28.147" rx="9.378" ry="5.044"/>
			<path class="st39" d="M36.266,21.289H12.751v6.089c1.733-1.163,4.265-1.91,7.242-1.91c4.061,0,7.468,1.467,8.769,3.409
				C28.762,28.877,35.691,28.219,36.266,21.289z"/>
		</g>
		<path class="st9" d="M28.081,39.485c-0.794,1.732-3.305,2.152-6.281,2.152c-2.977,0-5.493-0.794-6.283-1.965l-0.153,0.034
			c-5.823-7.275-5.211-13.612-5.211-13.612v-0.217c0,3.368,5.232,5.285,11.493,5.285c6.261,0,11.414-1.917,11.414-5.285l0.037,0.09
			c0,0,0.806,6.584-5.017,13.518H28.081z"/>
		<path class="st40" d="M32.943,26.49c2.988,0,5.409,2.425,5.409,5.414c0,2.988-2.425,5.414-5.414,5.414c-2.986,0-4.59,0-4.59,0"/>
		<path class="st40" d="M32.943,26.49c2.988,0,5.409,2.425,5.409,5.414c0,2.988-2.425,5.414-5.414,5.414c-2.986,0-4.59,0-4.59,0"/>
		<path class="st41" d="M32.982,27.064c1.939,0,3.612,1.141,4.381,2.789"/>
		<line class="st41" x1="29.214" y1="38.183" x2="34.414" y2="38.183"/>
		<path class="st41" d="M16.035,38.124c-2.437-3.263-3.39-6.239-3.765-8.077"/>
		<path class="st42" d="M30.23,11.338c-1.025,3.454-3.702,5.688-4.964,6.739"/>
		<path class="st42" d="M16.035,19.031c-0.568-4.062,1.789-6.028,3.68-7.609c0.573-0.478,1.02-0.884,1.358-1.246"/>
		<path class="st42" d="M26.066,6.751c1.084,4.111-1.948,6.64-3.576,8.001c-1.944,1.62-2.378,2.157-2.165,3.681"/>
	</g>
</g>
<g id="hex-php_x60_47x54">
	<polygon id="_x3E_bg_7_" class="st43" points="46.5,40.3 23.2,53.7 0,40.3 0,13.4 23.2,0 46.5,13.4 	"/>
	<polyline class="st44" points="30.3,32.4 23.663,53.434 46.5,40.3 46.5,14.553 36.6,13.1 	"/>
	<polygon class="st45" points="39.5,16.1 46.3,25.9 35.6,44.2 31.7,35.7 	"/>
	<polygon class="st44" points="17.5,14.3 23.2,9.2 28.9,10.1 36,9.2 44.4,25.8 35.8,37.8 27,33.7 28.3,26 27,32.3 23.9,32.1 
		21.3,34.9 19.5,34.6 19.3,32.6 17.5,33.6 15.4,42.3 11.1,43.3 2.6,37.8 5.4,36.5 10.6,39.2 12.6,37.8 10.9,26.7 	"/>
	<polygon class="st9" points="19.9,26.2 21.1,28.5 17,29.4 7.6,22.3 9,21.6 16.9,26.7 	"/>
	<polygon class="st9" points="9.7,27.9 6.9,27.9 2.3,24 1.3,24.7 6.2,29.5 10.3,29.9 	"/>
	<circle class="st46" cx="23.2" cy="20" r="1.8"/>
	<polygon class="st45" points="30.3,17.4 27.2,32.4 24.4,32.2 	"/>
</g>
<g id="hex-couch_x60_47x54">
	<polygon id="_x3E_bg_8_" class="st47" points="46.5,40.3 23.2,53.7 0,40.3 0,13.4 23.2,0 46.5,13.4 	"/>
	<g>
		<polygon class="st48" points="3.4,37.9 43.1,37.9 43.1,22.6 40.7,22.6 40.7,15.2 6.2,15.2 6.2,22.6 3.4,22.6 		"/>
		<polygon class="st49" points="38.1,23.9 38.1,17.3 8.7,17.3 8.7,22.8 6.3,22.8 6.3,35.6 8.7,35.6 10.3,35.6 34.7,35.6 38.1,35.6 
			40.5,35.6 40.5,23.9 		"/>
		<polygon class="st48" points="10.3,31.3 10.3,37.1 36.2,37.1 36.2,30.9 18,33 		"/>
		<polygon class="st48" points="10.3,23.7 10.3,27.6 16.8,29.8 36.2,27.9 36.2,24 32.2,26.5 25.5,23.7 17.7,25.2 		"/>
		<polygon class="st9" points="7.4,21.3 10.6,20 9.4,18.7 9.4,14.1 13.9,14.1 13.9,18.9 19.6,14.2 27,15.7 27.2,17.3 24.9,17.3 
			23.7,17.3 20.9,17.3 17.8,20.6 19.7,23.2 26.4,20.9 32.4,25.8 35.8,26.6 36.2,27.9 30.3,28.5 30,27.7 29.7,27.5 26,25.2 
			19.3,29.4 20.4,39.8 17.1,39.9 14.6,29.1 13.5,28.7 10.2,24.2 8.7,24.2 8.7,25.3 7.9,24.9 7.9,26.6 6.3,26 6.3,22.6 		"/>
	</g>
</g>
<g id="hex-mongo_x60_47x54">
	<polygon id="_x3E_bg_1_" class="st50" points="46.5,40.3 23.2,53.7 0,40.3 0,13.4 23.2,0 46.5,13.4 	"/>
	<polyline class="st51" points="23.2,45.5 28.406,50.706 46.5,40.3 46.6,40.3 23.2,9.3 	"/>
	<line class="st52" x1="23.2" y1="38.749" x2="23.2" y2="45.5"/>
	<path class="st53" d="M23.2,9.3v32c0,0,8.6-3.6,8.6-15.8C31.8,17.967,23.2,9.3,23.2,9.3z"/>
	<path class="st54" d="M23.2,9.3v32c0,0-8.6-3.6-8.6-15.8C14.6,17.967,23.2,9.3,23.2,9.3z"/>
	<path class="st52" d="M23.2,45.5"/>
</g>
<g id="hex-javascript_x60_47x54">
	<polygon id="_x3E_bg_4_" class="st55" points="46.5,40.3 23.2,53.7 0,40.3 0,13.4 23.2,0 46.5,13.4 	"/>
	<polygon class="st56" points="17.771,15.49 25.255,25.405 25.715,16.887 36.598,17.927 46.5,30.574 46.5,40.3 24.313,52.981 
		5.499,34.215 14.629,33.191 	"/>
	<g>
		<path class="st9" d="M7.186,30.669c0.784,0.754,1.81,1.447,3.198,1.447c1.9,0,3.137-1.267,3.137-3.228V15.434h4.284v13.515
			c0,4.767-2.956,6.969-7.089,6.969c-2.021,0-3.952-0.543-5.4-1.961L7.186,30.669z"/>
		<path class="st9" d="M22.75,29.461c1.417,1.479,3.62,2.715,6.395,2.715c2.353,0,3.5-1.116,3.5-2.263
			c0-1.508-1.75-2.021-4.073-2.563c-3.288-0.755-7.511-1.659-7.511-6.154c0-3.349,2.896-6.063,7.632-6.063
			c3.198,0,5.853,0.966,7.844,2.806l-2.383,3.137c-1.629-1.508-3.801-2.202-5.762-2.202c-1.931,0-2.957,0.845-2.957,2.052
			c0,1.357,1.689,1.78,4.012,2.323c3.318,0.754,7.542,1.749,7.542,6.214c0,3.681-2.625,6.456-8.054,6.456
			c-3.861,0-6.637-1.298-8.507-3.198L22.75,29.461z"/>
	</g>
</g>
<g id="hex-arbiter_x60_47x54">
	<polygon id="_x3E_bg_17_" class="st57" points="46.5,40.3 23.2,53.7 0,40.3 0,13.4 23.2,0 46.5,13.4 	"/>
	<line class="st58" x1="27.1" y1="49.4" x2="39.5" y2="42.3"/>
	<line class="st58" x1="19.3" y1="49.4" x2="7" y2="42.3"/>
	<line class="st58" x1="27.1" y1="5.3" x2="39.5" y2="12.4"/>
	<line class="st58" x1="43.4" y1="19" x2="43.4" y2="35.2"/>
	<line class="st58" x1="3" y1="19" x2="3" y2="35.2"/>
	<line class="st58" x1="19.3" y1="5.3" x2="7" y2="12.4"/>
	<polyline class="st59" points="32.4,24.6 32.4,30.7 25.8,36.4 25.8,12.8 27.6,10.9 31.4,10.9 33.3,12.7 	"/>
	<circle class="st60" cx="43.4" cy="16" r="1.7"/>
	<circle class="st60" cx="23.2" cy="4.7" r="1.7"/>
	<circle class="st60" cx="23.2" cy="49.5" r="1.7"/>
	<circle class="st60" cx="43.4" cy="39" r="1.7"/>
	<circle class="st60" cx="3" cy="16" r="1.7"/>
	<circle class="st60" cx="3" cy="39" r="1.7"/>
	<polyline class="st59" points="29,27.6 29,20 33.7,15.3 37.7,19.3 	"/>
	<polyline class="st59" points="33.7,20.5 37.7,24.6 37.7,29.7 	"/>
	<path class="st59" d="M32.1,36.2l3.9-3.9h3.1c0,0,0,4.1,0,4.2l-3.6,3.6h-3.8l-3.5-3.5"/>
	<polyline class="st59" points="13.1,12.7 14.9,10.9 18.7,10.9 20.5,12.8 20.5,36.4 13.9,30.7 13.9,24.6 	"/>
	<polyline class="st59" points="17.3,27.6 17.3,20 12.6,15.3 8.6,19.3 	"/>
	<polyline class="st59" points="12.6,20.5 8.6,24.6 8.6,29.7 	"/>
	<path class="st59" d="M14.2,36.2l-3.9-3.9H7.2c0,0,0,4.1,0,4.2l3.6,3.6h3.8l3.5-3.5"/>
	<polyline class="st59" points="18.6,40.1 21.2,42.6 22.8,42.6 	"/>
	<polyline class="st59" points="27.7,40.1 25.1,42.6 23.5,42.6 	"/>
</g>
<g id="hex-mysql_x60_47x54">
	<polygon id="_x3E_bg_18_" class="st61" points="46.5,40.3 23.2,53.7 0,40.3 0,13.4 23.2,0 46.5,13.4 	"/>
	<path class="st9" d="M34.5,24.7c-2.5-3.5-4.2-7-9.9-8.2C18.9,15.3,13,18,13,18s-0.8-1.5-2.8-2.1s-3.4-0.2-3.4-0.2S5.9,16.3,6.1,18
		c0.2,1.7,2,4.1,2.7,4.7c0.7,0.6,2.6,2.9,3.3,3.6c0.7,0.7,2,3.6,2.2,5.2c1.9,2.3,7.6,7.8,15.2,4.8c5.6-2.2,7.2-5.5,7.6-8
		C36.2,27,35.2,25.7,34.5,24.7z"/>
	<path class="st62" d="M37.2,28c-0.8-1.3-1.7-2.6-2.4-3.5c-2.5-3.5-4.6-6.9-10.3-8.2c-5.7-1.2-10.7,1-10.7,1s-1.4-0.9-3.4-1.7
		c-2.5-1.1-3.7,0.3-3.7,0.3S6.6,16,6.5,16.1c1.7,0.7,3.6,2.8,4.8,4.4c2.1,2.9,7.4,4.9,10.4,7.8c1.9,1.9,2.6,1.1,3.7,2.4
		c1.2,1.5,0.7,4.4,1.2,6.6c0.9-0.1,1.8-0.4,2.8-0.7C35.4,34.2,36.8,30.5,37.2,28z"/>
	<ellipse transform="matrix(0.9834 -0.1815 0.1815 0.9834 -4.72 5.8316)" class="st9" cx="29.503" cy="28.706" rx="2" ry="2"/>
	<path class="st63" d="M36.1,30.4"/>
	<g>
		<path class="st63" d="M3.7,35.2c-0.6-1.5-1-3.2-1.1-4.9c-0.1-2.4,0.3-4.8,1.3-6.9"/>
		<path class="st63" d="M13.4,12.5C16.5,11,20,10,23.8,9.8c4-0.2,7.8,0.4,11.1,1.6"/>
		<path class="st63" d="M39.5,38.3c-3.2,3.1-8,5.2-13.3,5.5C15.9,44.4,7.2,38.2,6.7,30c-0.1-2,0.3-4,1.1-5.9"/>
		<path class="st63" d="M25.2,13.4C35.5,13.2,44,19.7,44.1,28c0,2-0.4,3.9-1.3,5.6"/>
		<path class="st63" d="M37.3,21.9c1.8,1.7,2.9,3.9,3,6.2c0.4,6.3-6.1,11.7-14.4,12.2s-15.4-4.2-15.8-10.4"/>
	</g>
	<path class="st63" d="M15.2,18.7"/>
	<path class="st64" d="M13.8,17.2c0,0,5.7,2.7,7.7,4c-0.8-1.5-5.3-4.8-5.3-4.8S14.7,16.7,13.8,17.2z"/>
</g>
<g id="hex-maria_x60_47x54">
	<polygon id="_x3E_bg_9_" class="st65" points="46.5,40.3 23.2,53.7 0,40.3 0,13.4 23.2,0 46.5,13.4 	"/>
	<circle class="st9" cx="20.7" cy="9.3" r="0.8"/>
	<circle class="st9" cx="25.1" cy="5.6" r="0.8"/>
	<circle class="st9" cx="9.2" cy="11.6" r="0.8"/>
	<circle class="st9" cx="44.1" cy="25" r="0.8"/>
	<polygon class="st66" points="23.2,53.7 6.414,44.005 39.819,44.094 	"/>
	<path id="path3352_5_" class="st67" d="M20.207,51.971c0,0,3.193-16.171,4.893-18.771c1.8-2.8,4.6-4.5,7.1-6.3c2.9-2,5.5-4.1,5.9-8
		c-3-0.3-3.7-1-4.2-2.5c-1.5,0.9-2.9,1-4.5,1.1c-1.4,0-2.9,0-4.7,0.2C11.3,19.1,1.343,41.075,1.343,41.075L20.207,51.971z"/>
	
		<radialGradient id="path3352_1_" cx="3615.4849" cy="-11666.8574" r="22.2561" gradientTransform="matrix(0.3794 -0.9252 0.3629 0.1488 2887.2488 5125.001)" gradientUnits="userSpaceOnUse">
		<stop  offset="0" style="stop-color:#543824"/>
		<stop  offset="1" style="stop-color:#8B5E3C;stop-opacity:0"/>
	</radialGradient>
	<path id="path3352_2_" class="st68" d="M20.207,51.971c0,0,3.193-16.171,4.893-18.771c1.8-2.8,4.6-4.5,7.1-6.3c2.9-2,5.5-4.1,5.9-8
		c-3-0.3-3.7-1-4.2-2.5c-1.5,0.9-2.9,1-4.5,1.1c-1.4,0-2.9,0-4.7,0.2C11.3,19.1,1.343,41.075,1.343,41.075L20.207,51.971z"/>
	
		<radialGradient id="path4028_1_" cx="655.7087" cy="-2486.21" r="12.9538" gradientTransform="matrix(0.108 0.3929 1.445 -0.397 3546.0259 -1227.8672)" gradientUnits="userSpaceOnUse">
		<stop  offset="0" style="stop-color:#FFFFFF"/>
		<stop  offset="1" style="stop-color:#FFFFFF;stop-opacity:0"/>
	</radialGradient>
	<path id="path4028_3_" class="st69" d="M33.9,16.4c-1.5,0.9-2.9,1-4.5,1.1c-1.4,0-2.9,0-4.7,0.2c-5.7,0.6-11,5.4-14.1,9l12.5,12.6
		c0.7-2.8,1.3-5,2-6.1c1.8-2.8,4.6-4.5,7.1-6.3c2.9-2,5.4-4.1,5.9-8C35.1,18.7,34.4,18,33.9,16.4z"/>
	<path id="path3880_6_" class="st70" d="M19.6,24c2.2,1.9,6.7,0.4,5.9-3.4C22.1,20.4,20.2,21.5,19.6,24z"/>
	<path id="path3880_5_" class="st9" d="M22.7,22.2c0.5,0.4,1.5,0.1,1.3-0.8C23.2,21.3,22.8,21.6,22.7,22.2z"/>
	<path id="path3882_3_" class="st71" d="M34.1,22.2c0,0.9-0.3,2.1,0.4,4c0.1,0.3,0,0.6-0.2,0.2c-0.7-1.8-0.6-2.8-0.5-4.1
		C33.8,21.7,34.1,21.8,34.1,22.2z"/>
	<path id="path3884_3_" class="st71" d="M33.1,22.2c-0.2,1.1-1,3.2-0.4,5.8c0.1,0.4-0.2,0.8-0.3,0.1c-0.6-2.5,0-4.3,0.3-5.9
		C32.9,21.6,33.1,21.8,33.1,22.2z"/>
	<path id="path3888_3_" class="st71" d="M32,22.1c-0.4,1.1-1.6,4.6-1.3,7.2c0,0.4-0.3,0.8-0.3,0.1c-0.2-2.5,0.8-5.8,1.3-7.3
		C31.9,21.4,32.1,21.6,32,22.1z"/>
	<path class="st72" d="M33.9,16.4c0,0,2.3-2.5,3.6-2.4c0.7,0.1,1.1,0.3,1.4,1.2c0.3,0.9-0.8,3.7-0.8,3.7s-2,0.2-3-0.4
		S33.9,16.4,33.9,16.4z"/>
	<polygon class="st9" points="45.52,40.837 35.72,46.437 36.029,46.348 35.7,40.1 40.3,33.1 42.9,36.8 44.9,40 	"/>
	<polygon class="st73" points="38.7,37.9 39.3,42 37.429,45.448 36.029,46.348 33.729,47.648 36.9,35.4 40.4,33.1 	"/>
</g>
<g id="hex-postgres_x60_47x54">
	<polygon id="_x3E_bg_10_" class="st74" points="46.5,40.3 23.2,53.7 0,40.3 0,13.4 23.2,0 46.5,13.4 	"/>
	<path class="st75" d="M20.8,36.4v8.9c0,2.2,1.8,3.9,3.9,3.9s3.9-1.8,3.9-3.9v-8.7c0-1.9,1.4-3.4,3.2-3.6V22.5
		c0-5.2-4.3-9.5-9.5-9.5s-9.5,4.3-9.5,9.5V31c0,1.4,1,2.5,2.3,2.6c0.6-0.4,1.3-0.7,2.1-0.7C19.1,33,20.7,34.5,20.8,36.4L20.8,36.4
		L20.8,36.4z"/>
	<circle class="st76" cx="28.5" cy="23.5" r="3.3"/>
	<path class="st76" d="M25.5,24.9c0,0,4.7,5.6,4.7,8.8c0,0,0.7-0.6,1.7-0.6v-9.5"/>
	<circle class="st76" cx="16.8" cy="23.9" r="3.9"/>
	<path class="st76" d="M20.6,23.9c0,3.5-3.1,5.3-3.1,9c0,0-2.1,0.3-2.4,0.8c0,0-0.7,0.1-1.5-0.8S12.9,31,12.9,31v-6.8"/>
	<circle class="st76" cx="22.1" cy="36.3" r="1.3"/>
	<rect x="20.8" y="36.3" class="st76" width="2.6" height="9.3"/>
	<circle class="st76" cx="24.7" cy="47.9" r="1.3"/>
	<path class="st76" d="M23.4,45.6c0,0.9,0.3,1,1.3,1s0,2.6,0,2.6c-2.4,0-3.9-2.1-3.9-3.6"/>
	<path class="st75" d="M16.3,10.9C9,10.9,3.2,16.8,3.2,24c0,5.1,2.9,9.5,7.1,11.6v-4.2c0-0.1,0-0.3,0-0.4v-8.5c0-5.3,3.4-9.7,8-11.4
		l0,0C17.6,10.9,17,10.9,16.3,10.9z"/>
	<path class="st75" d="M17.2,35.1c-1-0.1-2,0.6-2.1,1.6c-0.6,4.1,0.6,8.8,0.6,8.8s2.4-3.3,3.1-8.2l0,0l0,0
		C18.9,36.2,18.2,35.3,17.2,35.1z"/>
	<path class="st75" d="M33.9,36.4L33.9,36.4c-0.1-1-1.1-1.8-2.1-1.6s-1.8,1.1-1.6,2.1c0.5,4.2,2.9,8.3,2.9,8.3S34.5,41.3,33.9,36.4z
		"/>
	<path class="st76" d="M7,14.7c-2.4,2.4-3.8,5.7-3.8,9.3s1.5,6.9,3.8,9.3V14.7z"/>
	<circle class="st76" cx="16.9" cy="37" r="1.9"/>
	<circle class="st76" cx="32.1" cy="36.6" r="1.9"/>
	<g>
		<path class="st75" d="M28.8,10.6c-1,0-1.9,0.1-2.8,0.3c4.9,1.6,8.5,6.2,8.5,11.6v11.7c4.9-4.9,6.3-7.1,6.3-11.7
			C40.8,15.9,35.4,10.6,28.8,10.6z"/>
	</g>
	<path class="st76" d="M35.8,27.5c0,1.5,0.5,2.8,1.4,3.9c2.8-3.1,3.6-5.3,3.6-8.9c0-0.4,0-0.8-0.1-1.2C37.9,22,35.8,24.5,35.8,27.5z
		"/>
	<circle class="st77" cx="16.9" cy="23.5" r="1.3"/>
	<circle class="st77" cx="28.5" cy="23.5" r="1.3"/>
</g>
<g id="hex-redis_x60_47x54">
	<polygon id="_x3E_bg_11_" class="st78" points="46.5,40.3 23.2,53.7 0,40.3 0,13.4 23.2,0 46.5,13.4 	"/>
	<polygon class="st79" points="23.1,44.5 6.3,35.3 6.3,31.3 23.1,40.5 	"/>
	<polygon class="st80" points="6.3,31.3 23.1,40.5 41.1,31.2 24.4,22 	"/>
	<polygon class="st79" points="23.1,44.5 41.1,35.1 41.1,31.2 23.1,40.5 	"/>
	<polygon class="st79" points="23.1,38.1 6.3,28.9 6.3,25 23.1,34.2 	"/>
	<polygon class="st80" points="6.3,25 23.1,34.2 41.1,24.8 24.4,15.6 	"/>
	<polygon class="st79" points="23.1,38.1 41.1,28.8 41.1,24.8 23.1,34.2 	"/>
	<polygon class="st79" points="23.1,31.8 6.3,22.6 6.3,18.6 23.1,27.8 	"/>
	<polygon class="st80" points="6.3,18.6 23.1,27.8 41.1,18.5 24.4,9.3 	"/>
	<path class="st81" d="M18.011,19.709c-1.419,0.752-3.118,0.752-4.536,0c-1.254-0.729-1.254-1.969,0-2.72
		c1.419-0.752,3.118-0.752,4.536,0C19.266,17.739,19.266,18.957,18.011,19.709z"/>
	<polygon class="st81" points="26.296,12.59 24.976,14.136 27.026,15.369 24.262,15.034 23,16.558 22.57,14.822 19.718,14.545 
		22.205,13.808 21.658,12.145 23.707,13.378 	"/>
	<polygon class="st81" points="26.027,21.269 19.718,22.283 24.335,25.055 	"/>
	<polygon class="st79" points="23.1,31.8 41.1,22.4 41.1,18.5 23.1,27.8 	"/>
	<polygon class="st79" points="30.415,20.418 26.177,18.345 30.415,16.271 34.66,18.345 	"/>
</g>
<g id="hex-percona_x60_47x54">
	<polygon id="_x3E_bg_12_" class="st82" points="46.5,40.3 23.2,53.7 0,40.3 0,13.4 23.2,0 46.5,13.4 	"/>
	<circle class="st83" cx="23.6" cy="26.1" r="16.1"/>
	<circle class="st84" cx="23.6" cy="26.1" r="9.4"/>
	<polygon class="st83" points="14.3,49.8 7.7,46 7.7,26.5 14.3,26.5 	"/>
</g>
<g id="hex-default_x60_47x54">
	<polygon id="_x3E_bg_13_" class="st85" points="46.5,40.3 23.2,53.7 0,40.3 0,13.4 23.2,0 46.5,13.4 	"/>
	<circle class="st86" cx="23.3" cy="25.9" r="11.7"/>
	<circle class="st9" cx="11.5" cy="10.4" r="1.3"/>
	<circle class="st9" cx="42.3" cy="14" r="1.3"/>
	<circle class="st9" cx="3.4" cy="16.6" r="0.9"/>
	<circle class="st9" cx="32.6" cy="39.5" r="0.9"/>
	<circle class="st9" cx="21.4" cy="40.3" r="0.9"/>
	<circle class="st9" cx="16.8" cy="45.5" r="0.9"/>
	<circle class="st9" cx="42.5" cy="40.3" r="0.9"/>
	<circle class="st9" cx="11.8" cy="40.3" r="2.5"/>
	<circle class="st9" cx="35.4" cy="11.9" r="2.5"/>
	<circle class="st9" cx="39" cy="19" r="1.8"/>
	<path class="st9" d="M35,25.9c0,6.4-23.3,6.4-23.3,0s5.2-11.7,11.7-11.7C29.8,14.2,35,19.5,35,25.9z"/>
	<path class="st87" d="M29.4,21c-2-2.3-6.6-3.8-8.9-3.6c2.3-1.3,3.9-1.3,5.7-0.7C28,17.3,29.1,18.9,29.4,21z"/>
</g>
<g id="hex-db_x60_47x54">
	<polygon id="_x3E_bg_14_" class="st88" points="46.5,40.3 23.2,53.7 0,40.3 0,13.4 23.2,0 46.5,13.4 	"/>
	<polyline class="st89" points="36.1,16.1 46.5,26.5 46.5,40.3 24.268,53.086 9.374,38.192 	"/>
	<polygon class="st9" points="16.1,37.6 9.4,33.2 16.1,28.8 29.4,28.8 36.1,33.2 29.4,37.6 	"/>
	<polygon class="st90" points="36.1,33.2 36.1,38 29.4,42.4 29.4,37.6 	"/>
	<rect x="16.1" y="37.6" class="st91" width="13.3" height="4.7"/>
	<polygon class="st92" points="16.1,37.6 9.4,33.2 9.4,38 16.1,42.4 	"/>
	<polygon class="st9" points="16.1,29.1 9.4,24.7 16.1,20.3 29.4,20.3 36.1,24.7 29.4,29.1 	"/>
	<polygon class="st90" points="36.1,24.7 36.1,29.4 29.4,33.8 29.4,29.1 	"/>
	<rect x="16.1" y="29.1" class="st91" width="13.3" height="4.7"/>
	<polygon class="st92" points="16.1,29.1 9.4,24.7 9.4,29.4 16.1,33.8 	"/>
	<polygon class="st9" points="16.1,20.5 9.4,16.1 16.1,11.7 29.4,11.7 36.1,16.1 29.4,20.5 	"/>
	<polygon class="st90" points="36.1,16.1 36.1,20.9 29.4,25.3 29.4,20.5 	"/>
	<rect x="16.1" y="20.5" class="st91" width="13.3" height="4.7"/>
	<polygon class="st92" points="16.1,20.5 9.4,16.1 9.4,20.9 16.1,25.3 	"/>
</g>
<g id="hex-golang_x60_47x54">
	<polygon class="st93" points="46.697,40.441 23.348,53.922 0,40.441 0,13.481 23.348,0 46.697,13.481 	"/>
	<circle class="st94" cx="33.515" cy="19.173" r="2.983"/>
	<circle class="st95" cx="33.515" cy="19.174" r="1.252"/>
	<circle class="st94" cx="13.268" cy="19.173" r="2.982"/>
	<circle class="st95" cx="13.267" cy="19.174" r="1.252"/>
	<g>
		<path class="st94" d="M35.356,26.434c0,6.604-5.403,12.008-12.008,12.008S11.34,33.038,11.34,26.434s5.403-12.008,12.008-12.008
			S35.356,19.83,35.356,26.434z"/>
	</g>
	<polygon class="st94" points="11.34,46.989 23.348,53.922 35.356,47.01 35.356,26.435 11.34,26.435 	"/>
	<circle class="st9" cx="17.618" cy="23.32" r="4.146"/>
	<circle class="st9" cx="29.369" cy="23.32" r="4.146"/>
	<circle class="st9" cx="22.596" cy="32.937" r="0.755"/>
	<rect x="21.84" y="30.542" class="st9" width="1.511" height="2.395"/>
	<circle class="st9" cx="24.473" cy="32.937" r="0.755"/>
	<rect x="23.718" y="30.542" class="st9" width="1.51" height="2.395"/>
	<circle class="st95" cx="27.754" cy="23.527" r="1.252"/>
	<circle class="st95" cx="15.679" cy="23.527" r="1.252"/>
	<circle class="st94" cx="36.928" cy="33.568" r="1.238"/>
	<rect x="34.14" y="32.33" class="st94" width="2.788" height="2.476"/>
	<circle class="st94" cx="9.768" cy="33.568" r="1.238"/>
	<rect x="9.768" y="32.33" class="st94" width="2.789" height="2.476"/>
	<ellipse class="st96" cx="25.891" cy="29.959" rx="1.242" ry="1.233"/>
	<ellipse class="st96" cx="21.235" cy="29.959" rx="1.242" ry="1.233"/>
	<path class="st96" d="M21.766,31.073c0.86-0.531,2.216-0.883,3.366-0.14c1.148,0.743,1.549-1.92,1.549-1.92
		c-1.348-0.843-3.943-1.232-6.132-0.082L21.766,31.073z"/>
	<ellipse class="st95" cx="23.588" cy="28.214" rx="1.846" ry="1.097"/>
</g>
<g id="hex-tolmar_x60_47x54">
	<polygon class="st97" points="46.604,40.36 23.301,51.814 0,40.36 0,13.455 23.301,0 46.604,13.455 	"/>
	<polyline class="st98" points="23.301,51.814 0,40.36 0,13.455 23.301,0 46.604,13.455 	"/>
	<g>
		<g id="leaf">
			<path class="st9" d="M40.309,18.015c-7.742,0-13.515,8.182-10.846,14.059C40.42,32.074,35.96,21.96,40.309,18.015z"/>
		</g>
		<path class="st99" d="M23.301,53.814L46.604,40.36c-2.715-1.24-2.715-1.24-3.726-1.5c-5.335-1.372-12.467-2.654-19.374-3.057
			c-4.394-0.257-16.198,1.589-23.442,4.593L23.301,53.814z"/>
		<path class="st56" d="M0,40.36l11.518,6.65c6.914-1.074,12.533-8.735,12.533-18.151c0-10.422-6.878-12.519-10.693-12.519
			c-4.789,0-9.583,1.813-13.358,5.005V40.36z"/>
		<path id="eye_rim" class="st99" d="M8.198,27.492c0,2.812,2.279,5.091,5.091,5.091c2.812,0,5.091-2.28,5.091-5.091
			c0-2.812-2.279-5.091-5.091-5.091C10.477,22.401,8.198,24.68,8.198,27.492z"/>
		<path id="eye" class="st100" d="M10.241,27.492c0,1.683,1.365,3.048,3.048,3.048s3.048-1.365,3.048-3.048
			c0-1.683-1.365-3.048-3.048-3.048C11.606,24.444,10.241,25.809,10.241,27.492z"/>
		<ellipse id="pupil_highlight" class="st9" cx="13.289" cy="26.14" rx="1.776" ry="1.104"/>
		<path id="beak" class="st101" d="M23.733,24.884c-2.314,1.348-2.238,5.711-1.209,7.84c1.991-0.738,4.766-2.202,5.197-2.464
			c0.431-0.262-0.238-1.254,1.434-1.254c2.319,0,4.416,0.725,5.017,0.986C33.79,29.207,29.024,24.884,23.733,24.884z"/>
		<g>
			<path class="st100" d="M0,22.142c3.574-3.348,8.256-5.341,13.358-5.341c6.316,0,9.169,4.971,9.755,6.854
				c-3.81,3.862-2.306,8.747-0.918,10.955c-1.974,3.283-5.853,5.529-10.36,6.551c5.06,0,8.036-1.302,9.767-2.578
				c1.105-0.814,1.704-1.617,2.01-2.065c7.502,0.485,19.38,2.902,20.539,3.685c0.326,0.22,0.652,0.632,0.846,1.085l1.608-0.929
				v-1.885c-4.8-2.352-17.143-3.83-21.36-4.296c0.23-0.543,0.425-1.104,0.587-1.681c0.647-0.283,1.344-0.547,2.066-0.767
				c0.088,0.259,0.502,1.253,0.738,1.725c9.537,0.263,10.027-7.087,10.415-9.101c0.379-1.969,0.36-3.872,3.631-7.35
				c-4.874-1.42-11.882,2.201-14.23,7.591c-0.882-0.331-1.766-0.575-2.641-0.726c-0.626-2.528-3.89-9.571-12.453-9.571
				C8.642,14.3,3.901,15.969,0,18.919V22.142z M29.623,31.85c-0.322-0.698-0.648-1.857-0.608-2.539
				c0.543-0.013,1.583,0.191,1.75,0.23c-0.064,0.32-0.098,1.021-0.099,1.112c0.103-0.178,0.389-0.79,0.506-1.031
				c1.042,0.199,2.411,0.532,3.214,0.906C33.444,31.139,31.841,31.803,29.623,31.85z M39.906,18.307
				c-2.92,2.648-1.824,7.934-4.284,11.066l-0.731-0.682c-0.75-0.703-1.533-1.339-2.336-1.904c1.197-2.374,2.7-4.967,4.6-6.571
				c-2.09,0.843-4.155,3.361-5.375,6.053c-0.622-0.395-1.253-0.748-1.89-1.056C31.591,21.579,35.546,18.544,39.906,18.307z
				 M33.555,29.596c-1.463-0.575-3.32-0.938-4.621-0.938c-1.845,0-2.969,1.046-4.705,1.046c-0.365,0-1.234,0.002-1.932-0.247
				c0.459,0.481,1.03,0.743,2.137,0.743c0.661,0,1.971-0.338,3.031-0.657c0.015,0.223,0.038,0.445,0.07,0.665
				c-1.986,0.475-4.071,1.739-4.674,2.067c-1.342-2.963-0.188-5.765,0.879-7.058C28.519,25.228,32.378,28.509,33.555,29.596z"/>
		</g>
	</g>
</g>
<g id="hex-python_x60_47x54">
	<polygon class="st102" points="46.572,40.332 23.286,53.778 0,40.332 0,13.444 23.286,0 46.572,13.444 	"/>
	<polygon class="st102" points="23.286,53.778 0,40.332 0,13.444 23.286,0 	"/>
	<g>
		<g>
			<g>
				<defs>
					<polygon id="SVGID_7_" points="46.572,40.332 23.286,53.778 0,40.332 0,13.444 23.286,0 46.572,13.444 					"/>
				</defs>
				<clipPath id="SVGID_8_">
					<use xlink:href="#SVGID_7_"  style="overflow:visible;"/>
				</clipPath>
				<polyline class="st103" points="17.164,38.036 30.716,49.487 46.572,40.332 46.572,33.117 29.552,16.097 28.716,23.726 
					23.286,26.46 23.286,29.211 17.164,38.036 				"/>
			</g>
		</g>
	</g>
	<polygon class="st104" points="12.98,33.502 17.667,38.189 23.286,30.055 23.286,24.213 12.98,29.462 	"/>
	<path class="st9" d="M23.388,19.127h-6.224v-2.605l2.771-2.928h7.462l2.906,3.034v7.354l-2.724,2.753h-8.673l-3.128,3.154v3.969
		l-2.799-0.357l-2.732-2.615v-7.204l3.169-3.171h9.971L23.388,19.127L23.388,19.127z"/>
	
		<rect x="20.048" y="15.269" transform="matrix(0.7071 -0.7071 0.7071 0.7071 -5.3948 19.7842)" class="st104" width="2.272" height="2.271"/>
	<path class="st9" d="M24.079,35.727h6.224v2.402l-2.642,2.439h-7.462l-3.036-2.544V30.67l2.853-2.552h8.672l2.998-3.028v-4.035
		l2.963,0.095l2.57,2.616v7.205l-3.042,3.373H24.078L24.079,35.727L24.079,35.727z M24.473,39.744l1.533-1.533l-1.532-1.533
		l-1.533,1.533L24.473,39.744z"/>
</g>
<g id="hex-middleman_x60_47x54">
	<polygon id="_x3E_bg_2_" class="st105" points="46.5,40.3 23.2,53.7 0,40.3 0,13.4 23.2,0 46.5,13.4 	"/>
	<path class="st106" d="M8.886,20.71v12.738l3.11,0.529v-8.062l3.043,5.735h0.067l3.207-5.757v8.666l3.669,0.544V18.942l-3.93,0.552
		l-3.005,5.824l-2.856-5.131L8.886,20.71z M8.819,17.041l14.542-2.871v2.133L8.819,18.711V17.041z"/>
	<path class="st106" d="M8.819,36.796l14.542,2.864v-2.125L8.819,35.118V36.796z"/>
	<path class="st9" d="M37.681,20.732v12.835l-3.11,0.403v-8.136l-3.043,5.735h-0.067l-3.207-5.757v8.875l-3.662,0.328V18.965
		l3.923,0.552l3.005,5.713l2.856-4.915L37.681,20.732z M37.606,17.041l-14.244-2.871v2.028l14.244,2.416V17.041z"/>
	<path class="st9" d="M37.606,36.796L23.362,39.66v-2.125l14.244-2.312V36.796z"/>
</g>
<g id="hex-empty_x60_48x55">
	<polygon class="st107" points="47,40.877 23.7,54.277 0.5,40.877 0.5,13.977 23.7,0.577 47,13.977 	"/>
</g>
<g id="hex-scala_x60_47x55">
	<polygon class="st108" points="46.956,40.666 23.478,54.222 0,40.666 0,13.555 23.478,0 46.956,13.555 	"/>
	<polyline class="st109" points="15.009,39.439 27.48,51.911 46.956,40.666 46.956,27.182 31.181,11.406 	"/>
	<path class="st110" d="M15.009,22.188c0,0,16.173,1.617,16.173,4.313v-6.469c0,0,0-2.696-16.173-4.313v2.501V22.188z"/>
	<path class="st110" d="M15.009,30.813c0,0,16.173,1.618,16.173,4.314v-6.469c0,0,0-2.696-16.173-4.314V30.813z"/>
	<path class="st9" d="M31.181,11.406v6.47c0,0,0,2.696-16.173,4.313v-6.469C15.009,15.719,31.181,14.101,31.181,11.406z"/>
	<path class="st9" d="M15.009,24.344c0,0,16.173-1.617,16.173-4.313v6.469c0,0,0,2.696-16.173,4.313V24.344z"/>
	<path class="st9" d="M15.009,39.439v-6.47c0,0,16.173-1.617,16.173-4.311v6.469C31.181,35.127,31.181,37.821,15.009,39.439z"/>
</g>
<g id="hex-erlang_x60_47x55">
	<polygon class="st111" points="46.956,40.666 23.478,54.221 0,40.666 0,13.555 23.478,0 46.956,13.555 	"/>
	<path class="st9" d="M9.526,26.947c0,4.836,2.031,7.946,4.811,9.831h17.62c2.835-2,3.7-4.484,3.7-4.484l-4.262-2.161
		c0,0-2.675,4.77-6.63,4.77c-3.956,0-6.05-4.42-6.05-7.794c0-0.305,0.002-0.593,0.004-0.868h16.306V24.93l-0.023-0.036
		c-0.009-4.769-1.769-7.429-4.396-8.88H15.21C11.95,17.798,9.526,21.196,9.526,26.947z M22.543,18.321
		c4.286,0,3.883,3.683,3.883,3.683H18.92C19.022,21.565,19.861,18.321,22.543,18.321z"/>
</g>
<g id="hex-rust_x60_47x55">
	<polygon class="st112" points="46.956,40.665 23.477,54.222 0,40.665 0,13.556 23.477,0 46.956,13.556 	"/>
	<polygon class="st113" points="23.066,12.577 23.718,11.722 25.727,13.73 26.664,11.914 28.701,13.949 29.598,12.852 31.645,14.9 
		32.193,14.205 34.542,16.554 34.598,16.169 46.942,28.513 46.956,40.665 26.058,52.669 11.993,38.604 12.261,38.364 10.211,36.315 
		10.599,35.54 8.753,33.694 9.506,32.491 7.803,30.79 9.01,29.265 7.383,27.639 14.225,17.121 	"/>
	<path id="path3_1_" class="st114" d="M39.048,27.046l-1.338-0.829c-0.011-0.131-0.025-0.259-0.039-0.389l1.151-1.073
		c0.115-0.109,0.169-0.27,0.137-0.427c-0.031-0.157-0.141-0.286-0.291-0.342l-1.47-0.549c-0.037-0.127-0.075-0.253-0.114-0.38
		l0.917-1.273c0.094-0.131,0.113-0.298,0.051-0.447c-0.06-0.147-0.193-0.251-0.352-0.277l-1.549-0.254
		c-0.06-0.117-0.122-0.232-0.187-0.347l0.652-1.429c0.066-0.146,0.053-0.315-0.035-0.448c-0.089-0.132-0.24-0.21-0.399-0.204
		l-1.573,0.055c-0.082-0.102-0.164-0.201-0.248-0.302l0.36-1.531c0.037-0.156-0.008-0.319-0.122-0.432
		c-0.112-0.112-0.275-0.159-0.432-0.124l-1.532,0.363c-0.098-0.085-0.199-0.168-0.303-0.248l0.056-1.575
		c0.006-0.158-0.071-0.31-0.204-0.399c-0.133-0.089-0.301-0.102-0.447-0.036l-1.428,0.652c-0.117-0.064-0.232-0.126-0.349-0.188
		l-0.254-1.55c-0.025-0.157-0.13-0.291-0.278-0.352c-0.146-0.06-0.315-0.04-0.444,0.052l-1.275,0.917
		c-0.126-0.041-0.252-0.079-0.38-0.115l-0.549-1.47c-0.056-0.151-0.185-0.26-0.343-0.291c-0.155-0.031-0.316,0.021-0.425,0.137
		l-1.073,1.151c-0.13-0.015-0.259-0.028-0.389-0.039l-0.828-1.338c-0.084-0.135-0.233-0.218-0.392-0.218
		c-0.159,0-0.308,0.083-0.39,0.218l-0.828,1.338c-0.13,0.011-0.261,0.025-0.391,0.039l-1.074-1.151
		c-0.108-0.116-0.269-0.169-0.424-0.137c-0.157,0.031-0.287,0.141-0.342,0.291l-0.551,1.47c-0.127,0.036-0.253,0.075-0.378,0.115
		l-1.275-0.917c-0.128-0.094-0.297-0.114-0.444-0.052c-0.149,0.061-0.254,0.195-0.278,0.352l-0.254,1.55
		c-0.117,0.061-0.233,0.123-0.349,0.188l-1.429-0.652c-0.145-0.066-0.314-0.054-0.445,0.036c-0.133,0.088-0.211,0.24-0.204,0.399
		l0.054,1.575c-0.102,0.08-0.203,0.163-0.301,0.248l-1.533-0.363c-0.156-0.035-0.318,0.012-0.431,0.124
		c-0.114,0.113-0.16,0.276-0.122,0.432l0.358,1.531c-0.082,0.101-0.166,0.2-0.246,0.302l-1.573-0.055
		c-0.16-0.004-0.31,0.073-0.399,0.204c-0.089,0.133-0.103,0.302-0.037,0.448l0.652,1.429c-0.063,0.115-0.126,0.23-0.186,0.347
		l-1.55,0.254c-0.157,0.025-0.291,0.13-0.352,0.277c-0.06,0.149-0.041,0.316,0.052,0.447l0.917,1.273
		c-0.04,0.126-0.079,0.252-0.115,0.38l-1.47,0.549c-0.15,0.056-0.259,0.184-0.29,0.342c-0.031,0.156,0.021,0.317,0.138,0.427
		l1.15,1.073c-0.013,0.129-0.027,0.258-0.037,0.389l-1.338,0.829c-0.136,0.084-0.218,0.231-0.218,0.392
		c0,0.16,0.082,0.307,0.218,0.391l1.338,0.829c0.011,0.131,0.025,0.26,0.037,0.39L7.84,30.12c-0.117,0.108-0.169,0.27-0.138,0.425
		c0.031,0.156,0.141,0.286,0.29,0.342l1.47,0.55c0.037,0.126,0.075,0.253,0.115,0.379l-0.917,1.273
		c-0.093,0.131-0.112,0.299-0.052,0.447c0.061,0.146,0.195,0.252,0.352,0.277l1.55,0.252c0.06,0.118,0.122,0.233,0.186,0.349
		l-0.652,1.429c-0.066,0.144-0.052,0.314,0.037,0.447c0.089,0.133,0.239,0.211,0.399,0.203l1.572-0.055
		c0.082,0.103,0.165,0.203,0.247,0.303l-0.358,1.532c-0.038,0.155,0.007,0.318,0.122,0.431c0.113,0.113,0.275,0.159,0.431,0.122
		l1.533-0.361c0.098,0.085,0.199,0.168,0.301,0.248l-0.054,1.573c-0.006,0.16,0.071,0.31,0.204,0.399
		c0.131,0.089,0.301,0.102,0.445,0.036l1.429-0.652c0.116,0.065,0.232,0.126,0.349,0.188l0.254,1.549
		c0.025,0.157,0.13,0.291,0.278,0.352c0.146,0.061,0.315,0.041,0.444-0.052l1.275-0.917c0.126,0.04,0.252,0.078,0.378,0.116
		l0.55,1.468c0.056,0.149,0.185,0.26,0.343,0.29c0.155,0.032,0.316-0.021,0.424-0.137l1.074-1.15
		c0.129,0.015,0.258,0.028,0.391,0.039l0.828,1.338c0.082,0.135,0.231,0.218,0.39,0.218c0.159,0,0.309-0.083,0.392-0.218
		l0.828-1.338c0.13-0.011,0.26-0.025,0.389-0.039l1.073,1.15c0.109,0.116,0.27,0.17,0.425,0.137c0.157-0.031,0.287-0.142,0.343-0.29
		l0.549-1.468c0.128-0.038,0.254-0.076,0.38-0.116l1.275,0.917c0.128,0.094,0.297,0.113,0.444,0.052
		c0.149-0.06,0.254-0.194,0.278-0.352l0.254-1.549c0.117-0.061,0.232-0.124,0.348-0.188l1.429,0.652
		c0.146,0.066,0.315,0.052,0.447-0.036c0.133-0.089,0.211-0.24,0.204-0.399l-0.056-1.573c0.103-0.082,0.203-0.163,0.303-0.248
		l1.532,0.361c0.156,0.037,0.318-0.009,0.432-0.122c0.114-0.113,0.159-0.276,0.122-0.431l-0.36-1.532
		c0.084-0.099,0.166-0.2,0.248-0.303l1.572,0.055c0.159,0.008,0.312-0.07,0.399-0.203c0.089-0.133,0.103-0.303,0.037-0.447
		l-0.652-1.429c0.064-0.116,0.126-0.231,0.187-0.349l1.549-0.252c0.159-0.025,0.291-0.131,0.352-0.277
		c0.06-0.147,0.041-0.316-0.052-0.447l-0.916-1.273c0.04-0.126,0.078-0.252,0.115-0.379l1.47-0.55
		c0.149-0.056,0.26-0.185,0.29-0.342c0.031-0.156-0.021-0.317-0.138-0.425l-1.148-1.073c0.014-0.13,0.027-0.26,0.037-0.39
		l1.337-0.829c0.137-0.084,0.219-0.231,0.219-0.391C39.265,27.278,39.183,27.129,39.048,27.046L39.048,27.046z M30.093,38.144
		c-0.51-0.109-0.836-0.613-0.726-1.126c0.109-0.513,0.613-0.837,1.123-0.728c0.51,0.109,0.838,0.614,0.726,1.126
		C31.107,37.927,30.603,38.255,30.093,38.144z M29.638,35.07c-0.467-0.099-0.925,0.198-1.025,0.663l-0.476,2.218
		c-1.466,0.664-3.093,1.035-4.808,1.035c-1.754,0-3.416-0.389-4.908-1.083l-0.475-2.216c-0.1-0.468-0.56-0.764-1.025-0.663
		l-1.956,0.42c-0.365-0.374-0.702-0.773-1.012-1.194h9.521c0.108,0,0.18-0.019,0.18-0.117v-3.368c0-0.098-0.071-0.117-0.18-0.117
		h-2.783v-2.135h3.011c0.275,0,1.471,0.078,1.853,1.606c0.119,0.47,0.381,1.998,0.561,2.488c0.18,0.548,0.908,1.644,1.686,1.644
		h4.744c0.053,0,0.113-0.004,0.172-0.017c-0.329,0.448-0.691,0.87-1.079,1.266L29.638,35.07L29.638,35.07z M16.468,38.098
		c-0.51,0.111-1.014-0.216-1.123-0.727c-0.109-0.514,0.216-1.016,0.726-1.127c0.51-0.109,1.014,0.217,1.123,0.729
		C17.304,37.484,16.979,37.989,16.468,38.098z M12.856,23.451c0.212,0.479-0.004,1.038-0.481,1.251
		c-0.479,0.211-1.037-0.004-1.25-0.482c-0.212-0.479,0.005-1.039,0.482-1.251C12.085,22.756,12.645,22.972,12.856,23.451z
		 M11.746,26.083l2.039-0.907c0.435-0.193,0.632-0.702,0.439-1.14l-0.42-0.949h1.65v7.443h-3.33
		c-0.289-1.015-0.444-2.087-0.444-3.195C11.68,26.912,11.702,26.493,11.746,26.083z M20.692,25.359v-2.193h3.932
		c0.203,0,1.434,0.235,1.434,1.155c0,0.764-0.944,1.038-1.72,1.038H20.692L20.692,25.359z M34.983,27.335
		c0,0.29-0.011,0.578-0.031,0.864h-1.196c-0.121,0-0.168,0.078-0.168,0.195v0.55c0,1.291-0.729,1.573-1.367,1.644
		c-0.609,0.068-1.283-0.253-1.366-0.625c-0.36-2.019-0.957-2.449-1.901-3.195c1.171-0.743,2.39-1.84,2.39-3.31
		c0-1.586-1.088-2.585-1.828-3.075c-1.041-0.684-2.191-0.822-2.502-0.822H14.652c1.676-1.872,3.948-3.197,6.518-3.679l1.458,1.53
		c0.329,0.344,0.874,0.357,1.219,0.027l1.632-1.559c3.416,0.636,6.309,2.763,7.976,5.68l-1.117,2.521
		c-0.193,0.437,0.004,0.947,0.439,1.14l2.149,0.955C34.963,26.558,34.983,26.944,34.983,27.335z M22.628,14.582
		c0.377-0.363,0.977-0.347,1.338,0.03c0.362,0.381,0.348,0.978-0.032,1.341c-0.377,0.361-0.975,0.347-1.337-0.031
		C22.236,15.544,22.248,14.944,22.628,14.582z M33.705,23.497c0.212-0.479,0.771-0.695,1.249-0.482
		c0.476,0.212,0.693,0.773,0.481,1.251c-0.212,0.478-0.77,0.695-1.249,0.482C33.709,24.536,33.493,23.976,33.705,23.497z"/>
</g>
<g id="hex-c_x60_48x55">
	<polygon class="st115" points="47.065,40.759 23.533,54.345 0,40.759 0,13.586 23.533,0 47.065,13.586 	"/>
	<polygon class="st116" points="12.169,37.345 27.107,52.282 47.065,40.759 47.065,28.835 33.531,15.3 23.533,14.398 12.169,21.336 
			"/>
	<path class="st117" d="M35.235,22.056c-1.975-4.506-6.469-7.658-11.702-7.658c-7.056,0-12.774,5.719-12.774,12.775
		c0,7.056,5.718,12.776,12.774,12.776c5.234,0,9.727-3.152,11.702-7.658"/>
</g>
<g id="hex-clojure_x60_47x54">
	<polygon class="st118" points="46.639,40.39 23.319,53.854 0,40.39 0,13.463 23.319,0 46.639,13.463 	"/>
	<path class="st119" d="M34.594,20.162c-2.354-3.836-6.574-6.403-11.404-6.403c-3.394,0-6.483,1.274-8.842,3.356l-14.32-3.636
		l0.062,3.296c0,0,9.382,9.23,9.717,10.368c0.903,3.062,1.338,3.701,3.271,10.35L27.145,51.56l19.494-11.17v-8.184L34.594,20.162z"
		/>
	<circle class="st120" cx="23.319" cy="27.414" r="12.254"/>
	<path class="st9" d="M46.639,36.373c-1.652,0.511-3.406,0.788-5.223,0.788c-6.818,0-12.917-3.808-15.891-9.885l-1.327-2.914
		C20.5,16.801,12.979,12.103,4.567,12.103c-0.831,0-1.65,0.051-2.457,0.142L0,13.463v3.399c1.46-0.391,2.986-0.619,4.567-0.619
		c6.818,0,12.915,3.808,15.887,9.885l1.327,2.915c3.699,7.561,11.223,12.258,19.635,12.258c1.516,0,2.997-0.156,4.427-0.451
		l0.796-0.46V36.373z"/>
	<line class="st120" x1="23.319" y1="26.206" x2="17.328" y2="38.102"/>
</g>
<g id="hex-elixir_x60_47x54">
	<polygon class="st121" points="46.485,40.257 23.243,53.676 0,40.257 0,13.419 23.243,0 46.485,13.419 	"/>
	<polygon class="st122" points="28.13,50.855 46.485,40.257 46.485,30.084 24.353,7.954 14.625,37.35 	"/>
	<path class="st9" d="M24.353,7.954c0,12.021,10,13.841,10,21.773c0,6.38-4.138,11.617-10.864,11.617
		c-5.178,0-11.205-3.168-11.205-11.445C12.285,20.933,21.423,7.954,24.353,7.954z"/>
	<path class="st123" d="M34,27.269c-0.334,2.231-4.999,3.998-10.722,3.998c-5.835,0-10.572-1.837-10.738-4.129
		c-0.163,0.948-0.255,1.874-0.255,2.76c0,1.068,0.103,2.048,0.289,2.952c1.369,2.362,5.619,4.086,10.656,4.086
		c5.301,0,9.727-1.908,10.845-4.458c0.178-0.885,0.279-1.803,0.279-2.751C34.354,28.838,34.224,28.028,34,27.269z"/>
	<path class="st123" d="M32.673,36.24c-2.636-0.14-6.77-3.424-10.315-8.465c-3.238-4.605-5.089-9.409-5.009-12.425l-1.09,1.775
		c-2.017,1.788-0.323,7.969,3.78,13.808c4.107,5.839,9.07,9.123,11.085,7.337L32.673,36.24z"/>
	<path class="st123" d="M24.779,11.992c-5.313,1.947-9.545,6.394-11.473,12.039c-0.633,2.027-1.021,4.032-1.021,5.868
		c0,5.07,2.264,8.213,5.206,9.897c-0.638-1.891-0.997-3.925-0.997-6.052c0-7.514,4.339-13.933,10.472-16.54
		C26.029,15.726,25.236,14.041,24.779,11.992z"/>
	<path class="st124" d="M16.871,39.416c1.91,1.277,4.175,1.867,6.321,1.916c4.744-3.994,7.86-10.719,7.86-18.343
		c0-0.223-0.019-0.441-0.026-0.662c-0.771-0.916-1.599-1.841-2.405-2.838C28.324,28.66,23.523,36.398,16.871,39.416z"/>
</g>
<g id="hex-perl_x60_47x55">
	<polygon class="st125" points="46.766,40.5 23.382,54.002 0,40.5 0,13.501 23.382,0 46.766,13.501 	"/>
	<polygon class="st126" points="14.57,32.591 31.37,49.39 46.766,40.5 46.766,37.865 29.411,20.511 	"/>
	<circle class="st9" cx="22.357" cy="27.001" r="9.587"/>
	<path class="st127" d="M29.527,20.652c0.155,0.705,0.242,1.435,0.242,2.185c0,5.62-4.557,10.177-10.179,10.177
		c-2.187,0-4.208-0.696-5.869-1.872c1.549,3.218,4.827,5.445,8.636,5.445c5.295,0,9.587-4.292,9.587-9.587
		C31.944,24.564,31.026,22.345,29.527,20.652z"/>
</g>
<g id="hex-net_x60_47x55">
	<polygon class="st128" points="46.766,40.5 23.382,54.002 0,40.5 0,13.501 23.382,0 46.766,13.501 	"/>
	<polygon class="st129" points="4.126,33.686 23.911,53.472 46.838,40.5 46.838,25.756 38.903,17.82 26.648,31.955 14.578,18.82 	
		"/>
	<path class="st130" d="M2.094,34.486"/>
	<path class="st130" d="M2.094,34.486"/>
	<path class="st130" d="M12.856,17.067"/>
	<path class="st130" d="M12.856,17.067"/>
	<path class="st9" d="M12.614,18.17h7.136c6.422,0,3.497,14.973,9.146,14.973h-8.28C14.968,33.143,19.036,18.17,12.614,18.17"/>
	<path class="st131" d="M28.793,33.219c9.209,0,10.11-15.398,10.11-15.398h-5.466c-7.751,0-2.841,15.323-12.819,15.323"/>
	<path class="st132" d="M12.614,18.17c-6.422,0-8.489,15.516-8.489,15.516s3.945-0.004,4.075-0.004
		c9.76,0,3.169-15.497,11.887-15.497"/>
</g>
<g id="hex-lisp_x60_47x55">
	<polygon class="st133" points="46.892,40.611 23.446,54.149 0,40.611 0,13.538 23.446,0 46.892,13.538 	"/>
	<polygon class="st134" points="26.186,52.567 46.892,40.611 46.892,31.822 34.2,19.128 31.058,19.71 26.487,15.139 23.446,14.378 
		15.198,18.683 12.029,25.903 10.944,34.572 15.894,39.523 15.739,42.121 	"/>
	<circle class="st9" cx="23.446" cy="19.128" r="6.774"/>
	<path class="st135" d="M29.601,19.128c3.037,0,5.499,2.461,5.499,5.499V38"/>
	<path class="st135" d="M17.946,19.128c-3.037,0-5.499,2.461-5.499,5.499v9.225"/>
	<path class="st135" d="M30.512,35.518V24.627c0-0.502-0.409-0.91-0.911-0.91l-1.864-1.561"/>
	<path class="st135" d="M17.036,40.982V24.627c0-0.502,0.409-0.91,0.91-0.91l1.863-1.561"/>
	<line class="st135" x1="21.548" y1="23.776" x2="21.548" y2="35.518"/>
	<line class="st135" x1="26" y1="23.776" x2="26" y2="39.433"/>
	<circle class="st133" cx="23.287" cy="21.5" r="1.399"/>
	<circle class="st133" cx="23.287" cy="15.837" r="1.399"/>
	<circle class="st133" cx="20.455" cy="18.668" r="1.399"/>
	<circle class="st133" cx="26.119" cy="18.668" r="1.399"/>
</g>
<g id="hex-lua_x60_47x55">
	<polygon class="st136" points="46.894,40.611 23.448,54.148 0,40.611 0,13.537 23.448,0 46.894,13.537 	"/>
	<g>
		<polygon class="st137" points="31.579,49.453 46.893,40.611 46.893,36.054 30.721,19.883 15.553,33.428 		"/>
		<polygon class="st137" points="46.893,26.367 36.226,15.698 31.948,19.349 46.893,34.293 		"/>
	</g>
	<circle class="st9" cx="23.448" cy="27.074" r="10.135"/>
	<g>
		<circle class="st138" cx="23.447" cy="27.074" r="14.141"/>
	</g>
	<circle class="st9" cx="33.624" cy="16.981" r="2.902"/>
	<circle class="st136" cx="26.641" cy="23.964" r="2.903"/>
</g>
<g id="hex-rethink_x60_47x55">
	<polygon class="st139" points="46.894,40.611 23.448,54.148 0,40.611 0,13.537 23.448,0 46.894,13.537 	"/>
	<polygon class="st140" points="29.011,15.698 46.962,33.649 46.894,40.611 34.952,47.324 	"/>
	<path class="st9" d="M32.166,19.883c4.756,8.836,8.937,17.189,10.112,23.393l-18.83,10.931L4.618,43.335
		c1.175-6.203,5.46-14.56,10.112-23.452C19.334,11.082,27.434,11.091,32.166,19.883z"/>
	<path class="st141" d="M42.278,43.276c-1.175-6.203-5.356-14.556-10.112-23.393c-2.692-5.002-6.474-7.161-10.082-6.472
		c7.706,0.965,13.142,17.779,16.589,31.946L42.278,43.276z"/>
	<path class="st142" d="M25.912,23.879c0.504-1.214,1.234-1.672,2.227-1.672c0.993,0,1.653,0.528,2.186,1.672"/>
	<path class="st142" d="M20.984,23.879c-0.504-1.214-1.234-1.672-2.227-1.672c-0.993,0-1.653,0.528-2.186,1.672"/>
	<path class="st143" d="M33.645,48.26c-4.244-15.436,2.933-19.114,3.25-19.242l0.011,0.023c0,0,0.436,0.876,0.636,1.299
		c0.201,0.425,0.637,1.383,0.637,1.383c-0.052,0.023-5.197,2.537-1.843,14.982L33.645,48.26z"/>
	<path class="st144" d="M36.893,29.019c-0.126,0.051-1.215,0.606-2.301,2.097c0.432,1.253,0.847,2.532,1.246,3.828
		c0.859-2.479,2.289-3.196,2.339-3.219C37.769,30.837,37.34,29.935,36.893,29.019z"/>
	<path class="st143" d="M13.251,48.26c4.244-15.436-3.02-19.156-3.338-19.284l-1.121,2.783l0.561-1.392l-0.591,1.379
		c0.052,0.023,5.151,2.514,1.797,14.959L13.251,48.26z"/>
</g>
</svg>
