<?xml version="1.0" encoding="iso-8859-1"?>
<!-- Generator: Adobe Illustrator 21.1.0, SVG Export Plug-In . SVG Version: 6.00 Build 0)  -->
<svg version="1.1" id="Layer_1" xmlns="http://www.w3.org/2000/svg" xmlns:xlink="http://www.w3.org/1999/xlink" x="0px" y="0px"
	 viewBox="0 0 200 200" style="enable-background:new 0 0 200 200;" xml:space="preserve">
<style type="text/css">
	.st0{fill:#21759B;}
	.st1{fill:#08597C;}
	.st2{fill:#FFFFFF;}
	.st3{fill:#DC332E;}
	.st4{fill:#A5241F;}
	.st5{fill:#F04C5C;}
	.st6{fill:#C4314A;}
	.st7{fill:#92D13D;}
	.st8{fill:#7CB334;}
	.st9{fill:#49691F;}
	.st10{fill:#FD4F00;}
	.st11{fill:#EE4323;}
	.st12{fill:#C2371C;}
	.st13{fill:#FEF6F5;}
	.st14{fill:#EB5D42;}
	.st15{fill:#C23E26;}
	.st16{fill:#595959;}
	.st17{fill:#939393;}
	.st18{fill:#BFBFBF;}
	.st19{fill:#3EB88A;}
	.st20{fill:#28A47D;}
	.st21{fill:#444444;}
	.st22{fill:#333333;}
	.st23{fill:#F2AB00;}
	.st24{fill:#F8CC00;}
	.st25{fill:#EFEFEF;}
	.st26{fill:#41BFA6;}
	.st27{fill:#20A88E;}
	.st28{fill:#FCF2F3;}
	.st29{fill:#FB503B;}
	.st30{fill:#FD9689;}
	.st31{fill:#4AABE0;}
	.st32{fill:#388DBA;}
	.st33{fill:#FB42B9;}
	.st34{fill:#CA127F;}
	.st35{fill:#D43D44;}
	.st36{fill:#B03238;}
	.st37{fill:#70A04A;}
	.st38{fill:#567A39;}
	.st39{fill:none;stroke:#DEDEDE;stroke-width:0.6668;stroke-miterlimit:10;}
	.st40{fill:none;stroke:#FFFFFF;stroke-miterlimit:10;}
	.st41{fill:url(#SVGID_1_);}
	.st42{fill:#FFCDAB;}
	.st43{fill:#E0564E;}
	.st44{fill:#E86B64;}
	.st45{fill:#4AB77E;}
	.st46{fill:#354960;}
	.st47{fill:#338C66;}
	.st48{fill:#206487;}
	.st49{fill:#C5E4D3;}
	.st50{fill:#76C39B;}
	.st51{fill:#163333;}
	.st52{fill:#73B08F;}
	.st53{fill:#494949;}
	.st54{fill:#00D8FF;}
	.st55{fill:#FFFFFF;stroke:#E7EBEE;stroke-miterlimit:10;}
	.st56{fill:none;}
	.st57{fill:#012943;}
	.st58{fill:#016FBA;}
	.st59{fill:#40A1DD;}
	.st60{fill:#0980AA;}
	.st61{fill:#2E373F;}
	.st62{fill:#80B1BC;}
	.st63{fill:#394751;}
	.st64{fill:#5E8B99;}
	.st65{fill:#3484D2;}
	.st66{fill:#1469AF;}
	.st67{fill:#F7FAFC;}
	.st68{fill:#68B604;}
	.st69{fill:#499914;}
	.st70{fill:url(#SVGID_2_);}
	.st71{fill:none;stroke:#E7EBEE;stroke-miterlimit:10;}
	.st72{fill-rule:evenodd;clip-rule:evenodd;fill:url(#SVGID_3_);}
	.st73{fill-rule:evenodd;clip-rule:evenodd;fill:url(#SVGID_4_);}
	.st74{fill-rule:evenodd;clip-rule:evenodd;fill:url(#SVGID_5_);}
	.st75{fill-rule:evenodd;clip-rule:evenodd;fill:url(#SVGID_6_);}
	.st76{fill:#353535;}
	.st77{fill:#191919;}
	.st78{fill:none;stroke:#E2E2E2;stroke-width:1.5;stroke-miterlimit:10;}
	.st79{fill:#363B48;}
	.st80{fill:#363B48;stroke:#488DA0;stroke-width:3;stroke-miterlimit:10;}
	.st81{fill:none;stroke:#FC5959;stroke-width:2;stroke-miterlimit:10;}
	.st82{fill:none;stroke:#B7B320;stroke-width:2;stroke-miterlimit:10;}
	.st83{fill:#6D6D6D;}
	.st84{fill:#474747;}
	.st85{fill:#0FAF93;}
	.st86{fill:#79E2D1;}
	.st87{fill:#4EC4AE;}
	.st88{fill:#0A8DA0;}
	.st89{fill:#383838;}
	.st90{fill:#212E4C;}
	.st91{fill:#E86161;}
	.st92{fill:#345D78;}
	.st93{fill:#99987D;stroke:#99987D;stroke-width:0.094;}
	.st94{fill:#7F7C66;}
	.st95{fill:none;stroke:#FFFFFF;stroke-width:1.2103;stroke-linecap:round;stroke-linejoin:round;stroke-miterlimit:10;}
	.st96{fill:none;stroke:#FFFFFF;stroke-width:1.2103;stroke-miterlimit:10;}
	.st97{fill:#F6941E;stroke:#F6941E;stroke-width:0.0613;}
	.st98{fill:none;stroke:#FFFFFF;stroke-width:1.2103;stroke-linecap:round;stroke-miterlimit:10;}
	.st99{fill:#67A977;}
	.st100{fill:#439154;}
	.st101{fill:none;stroke:#FFFFFF;stroke-width:2;stroke-linecap:round;stroke-linejoin:round;stroke-miterlimit:10;}
	.st102{fill:#404347;}
	.st103{fill:#2F3235;}
	.st104{fill:#7C5491;}
	.st105{fill:#5E416D;}
	.st106{fill:#6CB11F;}
	.st107{fill:#9ED93F;}
	.st108{fill:none;stroke:#6CB11F;stroke-linecap:round;stroke-miterlimit:10;}
	.st109{fill:#2BB1F6;}
	.st110{fill:#058FCC;}
	.st111{fill:none;stroke:#3A3A3A;stroke-linecap:round;stroke-miterlimit:10;}
	.st112{fill:#3A3A3A;}
	.st113{fill:none;stroke:#FFFFFF;stroke-linecap:round;stroke-miterlimit:10;}
	.st114{fill:#379EDE;}
	.st115{fill:#0F7ABC;}
	.st116{fill:#565656;}
	.st117{fill:#3B81A8;}
	.st118{fill:none;stroke:#3A3A3A;stroke-width:0.65;stroke-miterlimit:10;}
	.st119{fill:url(#SVGID_7_);}
	.st120{fill:#FEFDEB;}
	.st121{fill:#A5DCE4;}
	.st122{fill:#5DB3C6;}
	.st123{fill:#D8354C;}
	.st124{fill:#B22244;}
	.st125{fill:#5E5E5E;}
	.st126{fill:#EFEAE6;}
	.st127{fill:#EF3942;}
	.st128{fill:#C12E35;}
	.st129{fill:#C4BCB5;}
	.st130{fill:#A08350;}
	.st131{fill:#56BECC;}
	.st132{fill:#437680;}
	.st133{fill:#5B5B5F;}
	.st134{fill:#ACE8F2;}
	.st135{fill:#605B51;}
	.st136{fill:#493626;}
	.st137{fill:#6E5221;}
	.st138{fill:#726956;}
	.st139{fill:#844BA1;}
	.st140{fill:#5F3875;}
	.st141{fill:#F4EFF6;}
	.st142{fill:url(#SVGID_8_);}
	.st143{fill:url(#SVGID_9_);}
	.st144{fill:#2B2B2B;}
	.st145{fill:#F2E88F;}
	.st146{fill:#00AEEF;}
	.st147{fill:#00953A;}
	.st148{fill:#E63C2F;}
	.st149{fill:#D13239;}
	.st150{fill:#17AED4;}
	.st151{fill:#1084B2;}
	.st152{fill:#AAAAAA;}
	.st153{fill:#C6C6C6;}
	.st154{fill:#52E0FF;}
	.st155{fill:#FAAF3F;}
	.st156{fill:#DB3440;}
</style>
<g id="hex-wordpress_x60_46x54">
	<polygon class="st0" points="45.944,39.791 22.969,53.054 0,39.791 0,13.264 22.969,0 45.944,13.264 	"/>
	<path class="st1" d="M45.944,39.823v-8.684L33.682,16.257c-5.628-5.976-15.034-6.258-21.01-0.63
		c-5.42,5.104-6.227,13.432-1.888,19.482c0.829,1.163,14.94,16.353,14.94,16.353L45.944,39.823z"/>
	<path class="st2" d="M22.982,12.332c-7.84-0.004-14.198,6.349-14.201,14.188s6.349,14.198,14.188,14.201
		c7.84,0.004,14.198-6.349,14.201-14.188l0,0C37.167,18.697,30.818,12.343,22.982,12.332z M10.219,26.527
		c-0.001-1.788,0.376-3.557,1.105-5.19l6.089,16.7C13.004,35.899,10.209,31.427,10.219,26.527z M22.982,39.29
		c-1.224,0.001-2.442-0.174-3.616-0.52l3.854-11.125l3.905,10.765c0.025,0.06,0.055,0.118,0.09,0.173
		C25.854,39.056,24.422,39.295,22.982,39.29z M24.742,20.554c0.771-0.039,1.458-0.122,1.458-0.122
		c0.291-0.023,0.508-0.278,0.485-0.568c-0.023-0.291-0.278-0.508-0.568-0.485c0,0-2.068,0.161-3.398,0.161s-3.353-0.161-3.353-0.161
		c-0.291-0.009-0.534,0.22-0.542,0.511c-0.008,0.266,0.183,0.496,0.446,0.536c0,0,0.642,0.083,1.336,0.122l1.965,5.447l-2.794,8.35
		l-4.612-13.79c0.771-0.039,1.458-0.122,1.458-0.122c0.291-0.023,0.508-0.278,0.485-0.568c-0.023-0.291-0.278-0.508-0.568-0.485
		c0,0-2.068,0.161-3.398,0.161h-0.822c3.871-5.886,11.781-7.52,17.667-3.649c0.566,0.372,1.102,0.789,1.602,1.247h-0.167
		c-1.218,0.035-2.178,1.049-2.145,2.267c0,1.053,0.604,1.927,1.285,2.993c0.651,1.05,1,2.259,1.008,3.494
		c0,1.092-0.417,2.357-0.97,4.124l-1.285,4.252L24.742,20.554z M29.398,37.562l3.899-11.266c0.617-1.449,0.945-3.005,0.963-4.58
		c0-0.43-0.028-0.859-0.083-1.285c3.298,6.061,1.182,13.646-4.779,17.124V37.562z"/>
</g>
<g id="hex-angular_x60_46x54">
	<polyline class="st3" points="22.951,53.027 0,39.765 0,13.252 22.951,0 	"/>
	<polyline class="st4" points="22.951,0 45.913,13.252 45.913,39.765 22.951,53.027 	"/>
	<path class="st2" d="M22.962,7.593L22.962,7.593L8.824,38.992h5.191l2.982-7.125h11.929l2.982,7.125h5.191L22.962,7.593z
		 M18.789,27.643l4.173-9.903l4.173,9.903C20.539,27.664,22.331,27.664,18.789,27.643z"/>
</g>
<g id="hex-beego_x60_46x53">
	<polygon class="st5" points="45.854,39.713 22.924,52.951 0,39.713 0,13.238 22.924,0 45.854,13.238 	"/>
	<polygon class="st6" points="37.95,18.09 34.405,20.135 23.661,9.257 21.956,13.994 25.866,17.956 17.552,17.873 12.424,27.084 
		15.866,33.258 15.328,38.425 27.245,50.483 45.854,39.713 45.854,26.232 	"/>
	<path class="st2" d="M16.187,38.688c-0.641,0.002-1.174-0.495-1.218-1.135l-0.276-3.898l-3.526-6.09
		c-0.218-0.377-0.218-0.841,0-1.218l5.308-9.206c0.21-0.39,0.615-0.636,1.058-0.641h10.603c0.443,0.005,0.848,0.251,1.058,0.641
		l5.302,9.186c0.218,0.377,0.218,0.841,0,1.218l-5.302,9.186c-0.21,0.39-0.615,0.636-1.058,0.641h-7.885l-3.667,1.282
		C16.454,38.688,16.32,38.699,16.187,38.688z M13.629,26.924l3.314,5.769c0.093,0.161,0.148,0.341,0.16,0.526l0.179,2.564
		l2.359-0.821c0.128-0.045,0.262-0.069,0.397-0.071h7.391l4.622-7.968l-4.622-7.955h-9.199L13.629,26.924z"/>
	<path class="st2" d="M22.527,9.135h0.609c0.531,0,0.962,0.431,0.962,0.962v3.148c0,0.531-0.431,0.962-0.962,0.962h-0.609
		c-0.531,0-0.962-0.431-0.962-0.962v-3.148C21.565,9.566,21.996,9.135,22.527,9.135z"/>
	<path class="st2" d="M38.136,18.322l0.305,0.527c0.266,0.46,0.108,1.048-0.352,1.314l-2.726,1.574
		c-0.46,0.266-1.048,0.108-1.314-0.352l-0.305-0.527c-0.266-0.46-0.108-1.048,0.352-1.314l2.726-1.574
		C37.283,17.705,37.871,17.862,38.136,18.322z"/>
</g>
<g id="hex-play_x60_46x53">
	<polygon class="st7" points="45.854,39.713 22.924,52.951 0,39.713 0,13.238 22.924,0 45.854,13.238 	"/>
	<polygon class="st8" points="22.283,8.616 45.854,24.139 45.854,39.713 28.863,49.516 16.723,39.722 30.127,24.503 	"/>
	<path class="st2" d="M16.695,9.302l0.868-0.868c1.331-1.316,3.501-1.232,4.72,0.182L34.3,22.621c1.05,1.218,1.036,3.025-0.028,4.23
		L22.297,40.422c-1.232,1.387-3.375,1.457-4.692,0.14l-0.868-0.868c-1.176-1.176-1.26-3.053-0.196-4.342l7.171-8.599
		c0.98-1.176,0.994-2.871,0.042-4.076l-7.283-9.103C15.435,12.313,15.533,10.465,16.695,9.302z"/>
	<path class="st9" d="M23.698,26.781l-7.171,8.599c-1.064,1.274-0.98,3.165,0.196,4.342l0.868,0.868
		c1.316,1.317,3.459,1.246,4.692-0.14l2.591-2.941c0.98-1.933,1.527-4.118,1.527-6.428c0-2.857-0.84-5.504-2.269-7.731
		C24.664,24.442,24.524,25.8,23.698,26.781z"/>
</g>
<g id="hex-phoenix_x60_46x53">
	<polygon class="st10" points="45.854,39.713 22.924,52.951 0,39.713 0,13.238 22.924,0 45.854,13.238 	"/>
	<path class="st2" d="M31.358,32.102c-1.21,0.368-2.445,0.492-3.706,0.43c-1.908-0.094-3.727-0.485-5.354-1.511
		c-1.485-0.937-2.58-2.193-3.1-3.87c-0.42-1.355,0.44-2.303,1.873-2.107c0.566,0.077,1.043,0.327,1.471,0.682
		c0.349,0.288,0.683,0.594,1.038,0.874c1.672,1.317,4.009,1.39,6.131-0.04c-3.49-0.016-5.864-1.897-7.949-4.281
		c-0.816-0.933-1.613-1.883-2.446-2.801c-1.612-1.777-3.4-3.342-5.848-3.877c-3.127-0.682-6.147-0.236-9.045,1.064
		c-0.578,0.259-1.133,0.561-1.729,1.047c0.295,0,0.456,0.003,0.616,0c1.461-0.037,2.556,0.599,3.346,1.771
		c0.575,0.852,0.846,1.816,1.052,2.808c0.306,1.472,0.148,2.973,0.325,4.451c0.455,3.801,2.437,6.454,6.129,7.812
		c1.354,0.498,2.742,0.664,4.283,0.324c-0.185-0.033-0.257-0.045-0.33-0.058c-2.341-0.427-3.821-1.815-4.522-3.997
		c-0.437-1.36,0.357-2.362,1.813-2.428c1.192-0.054,2.008,0.617,2.73,1.399c0.93,1.007,1.783,2.083,2.696,3.105
		c1.315,1.472,2.865,2.42,4.986,2.127c1.901-0.262,3.558-1.01,5-2.241c0.217-0.185,0.455-0.346,0.683-0.518
		C31.454,32.213,31.406,32.157,31.358,32.102z M10.613,18.461c-1.276,0.315-2.295-0.189-3.346-1.231
		c1.799-0.439,3.386-0.61,5.091-0.675C12.219,17.639,11.566,18.225,10.613,18.461z"/>
	<path class="st2" d="M29.91,42.463L29.91,42.463c-1.11-2.025-2.975-2.481-5.13-2.346c0.637,0.173,1.232,0.439,1.778,0.813
		c0.502,0.343,0.924,0.768,1.34,1.203c0.824,0.862,2.111,1.391,2.963,1.212C30.47,43.104,30.122,42.849,29.91,42.463"/>
	<path class="st2" d="M28.231,39.737L28.231,39.737c-0.051-0.366-0.37-0.527-0.621-0.719c-1.11-0.846-2.407-1.146-3.783-1.171
		c-0.821-0.015-1.634-0.075-2.408-0.357c-0.355-0.129-0.752-0.295-0.743-0.745c0.009-0.456,0.414-0.585,0.782-0.693
		c0.302-0.088,0.613-0.145,0.956-0.223c-0.872-0.548-1.724-0.624-2.86-0.176c-1.787,0.704-3.55,0.621-5.331-0.01
		c-1.006-0.356-1.899-0.914-2.828-1.409c0,0,0,0-0.001,0.001c-0.023-0.069-0.065-0.07-0.118-0.032
		c0.024,0.021,0.049,0.042,0.073,0.063c0.771,1.238,1.812,2.234,2.989,3.086c2.266,1.639,4.74,2.617,7.636,2.183
		c0.935-0.14,1.877-0.249,2.821-0.323C25.977,39.118,27.104,39.444,28.231,39.737"/>
	<path class="st2" d="M42.488,33.063L42.488,33.063c-1.263-1.228-2.958-1.386-4.526-0.314c1.038,0.046,1.817,0.37,2.449,1.012
		c0.224,0.227,0.455,0.45,0.706,0.647c0.956,0.755,2.575,0.792,3.522,0.091C43.527,34.073,43.527,34.073,42.488,33.063"/>
	<path class="st2" d="M38.949,31.004L38.949,31.004c0.423,0.035,0.846,0.072,1.269,0.109c-0.956-0.823-2.12-0.888-3.298-0.822
		c-1.794,0.1-3.087,1.114-4.265,2.325c-1.038,1.068-1.976,2.266-3.526,2.695c0.026,0.046,0.033,0.068,0.04,0.068
		c0.208,0.003,0.417,0.013,0.625,0.003c2.25-0.1,4.37-0.565,6.057-2.166c0.531-0.504,1.006-1.064,1.519-1.587
		C37.797,31.194,38.315,30.952,38.949,31.004"/>
	<path class="st2" d="M27.719,22.684L27.719,22.684c0.881,0.03,1.758-0.083,2.68-0.62c-0.27,0.023-0.384,0.023-0.494,0.044
		c-1.269,0.248-2.409-0.023-3.424-0.81c-0.372-0.289-0.751-0.57-1.128-0.852c-1.495-1.121-3.21-1.496-5.085-1.464
		c0.03,0.09,0.032,0.152,0.065,0.184C22.372,21.19,24.734,22.584,27.719,22.684"/>
	<path class="st2" d="M22.772,21.976L22.772,21.976c-0.063-0.044-0.123-0.156-0.251-0.041c1.042,1.381,2.38,2.399,3.991,3.04
		c2.601,1.034,5.24,1.211,7.94,0.298c2.096-0.708,3.603-0.016,4.386,1.978c0.113-2.315-1.276-4.001-3.49-4.332
		c-1.245-0.186-2.395,0.219-3.561,0.55C28.541,24.392,25.525,23.937,22.772,21.976"/>
	<path class="st2" d="M33.721,28.271L33.721,28.271c-1.679,0.144-3.138,0.825-4.508,1.722c-1.055,0.691-2.183,1.018-3.45,0.802
		c-0.223-0.038-0.448-0.066-0.671-0.099c-0.003,0.031-0.005,0.061-0.008,0.092c0.081,0.041,0.158,0.088,0.242,0.121
		c0.211,0.082,0.419,0.18,0.639,0.232c2.439,0.568,4.774,0.277,6.879-1.055c1.327-0.84,2.7-0.999,4.189-0.782
		c0.15,0.022,0.3,0.049,0.451,0.063c0.14,0.013,0.286,0.149,0.475,0.002C36.657,28.445,35.255,28.14,33.721,28.271"/>
</g>
<g id="hex-codeigniter_x60_47x54">
	<polygon class="st11" points="46.037,39.871 23.015,53.161 0,39.871 0,13.29 23.015,0 46.037,13.29 	"/>
	<polygon class="st12" points="45.985,35.025 24.495,12.743 12.911,34.626 27.926,50.188 46.062,39.935 	"/>
	<path class="st13" d="M19.012,38.127c-1.615-0.702-3.128-2.471-3.134-4.293c0-1.982,1.249-3.662,2.813-4.769
		c-0.274,0.653-0.209,1.399,0.174,1.995c0.444,0.602,1.201,0.885,1.931,0.721c1.673-0.367,1.744-2.201,0.759-3.269
		c-0.985-1.068-1.931-2.259-1.551-3.791c0.212-0.786,0.662-1.487,1.287-2.008c-0.463,1.21,0.85,2.401,1.712,2.999
		c1.493,1.03,3.134,1.809,4.505,3.018c1.371,1.21,2.516,2.986,2.298,4.981c-0.232,2.162-1.931,3.662-3.862,4.422
		c4.068-0.901,8.27-4.055,8.367-8.566c0.071-3.714-2.478-6.571-5.632-8.206l-0.251-0.097c0.074,0.173,0.112,0.359,0.109,0.547
		c0.029-0.12,0.046-0.243,0.051-0.367c-0.001,0.148-0.02,0.295-0.058,0.438v-0.064c-0.047,0.196-0.125,0.383-0.232,0.553
		l0.045-0.051c-0.602,0.915-1.831,1.168-2.746,0.567c-0.16-0.105-0.304-0.233-0.427-0.38c-1.352-1.738,0-3.611,0.219-5.451
		c0.245-2.304-1.204-4.544-2.999-5.889c0.991,1.596-0.315,3.714-1.358,4.898c-1.043,1.184-2.208,2.105-3.321,3.115
		c-1.215,1.103-2.331,2.311-3.334,3.611c-1.969,2.626-3.173,5.934-2.291,9.21s3.72,5.361,6.925,6.095l0,0V38.127z"/>
</g>
<g id="hex-ember_x60_47x54">
	<polygon class="st14" points="46.358,40.15 23.176,53.533 0,40.15 0,13.383 23.176,0 46.358,13.383 	"/>
	<polygon class="st15" points="8.438,30.091 28.737,50.318 46.358,40.15 46.358,32.029 30.545,16.008 21.238,18.361 18.957,30.299 	
		"/>
	<path class="st2" d="M34.058,30.843c-0.57-0.81-1.147-0.084-2.003,0.454c-1.944,1.218-4.537,2.515-7.174,2.554
		c-3.798,0.052-3.415-2.411-3.415-2.411s13.928-4.77,10.13-14.18c-1.705-2.424-3.688-3.182-6.481-3.13s-6.209,1.769-8.464,6.831
		c-0.859,2.054-1.401,4.226-1.607,6.442l0,0c0,0-2.521,0.499-3.843-0.603c-1.322-1.102-2.042,0-2.042,0s-2.288,2.852,0,3.733
		c1.855,0.609,3.769,1.019,5.71,1.225l0,0c0.534,2.511,1.959,4.745,4.012,6.287c2.314,1.756,5.833,1.491,8.425,0.862
		c2.395-0.686,4.59-1.939,6.397-3.655C34.349,34.518,34.621,31.653,34.058,30.843z M20.804,27.22
		c0.162-6.585,4.472-9.443,5.943-8.01c1.471,1.432,0.933,4.537-1.873,6.442C22.068,27.557,20.804,27.22,20.804,27.22z"/>
</g>
<g id="hex-flask_x60_47x54">
	<polygon class="st16" points="46.441,40.221 23.217,53.629 0,40.221 0,13.407 23.217,0 46.441,13.407 	"/>
	<path class="st2" d="M17.231,14.336c0,0,5.48,0.902,7.142,1.136c1.662,0.234,1.201,1.753-0.318,1.299
		c-1.519-0.454-7.343-1.948-7.343-1.948L17.231,14.336z"/>
	<polygon class="st17" points="12.888,19.147 12.498,17.205 21.419,15.309 21.938,17.16 	"/>
	<path class="st2" d="M22.601,19.679c0,0,0.136,9.518,4.116,12.654c2.294,1.866,5.001,3.157,7.895,3.766
		c3.389,0.812,3.246,2.766-0.578,2.922c-4.402,0.175-9.531-0.208-13.453-3.097c-6.2-4.571-7.499-12.42-7.856-14.232
		c-1.506-0.117-1.448-2.305,0.688-3.019c2.887-0.93,5.868-1.537,8.888-1.811C23.685,16.861,23.919,19.218,22.601,19.679z"/>
	<path class="st18" d="M12.725,21.692c0.357,1.811,1.656,9.661,7.85,14.238c3.896,2.889,9.051,3.246,13.453,3.097
		c2.123-0.084,3.11-0.734,2.974-1.428l-0.039-0.071c0,0-9.856,0.708-14.68-3.428s-5.954-7.927-6.207-9.999
		c-0.253-2.071,1.552-4.194,1.552-4.194s-1.299,0.403-3.103,0.805c-1.805,0.403-1.578-1.208-1.104-2.013
		C11.278,19.387,11.226,21.575,12.725,21.692z"/>
	<polygon class="st17" points="14.764,17.238 14.485,15.634 18.893,14.758 19.27,16.29 	"/>
	<circle class="st17" cx="16.42" cy="14.232" r="1.143"/>
</g>
<g id="hex-django_x60_47x54">
	<polygon class="st19" points="46.441,40.221 23.217,53.629 0,40.221 0,13.407 23.217,0 46.441,13.407 	"/>
	<polygon class="st20" points="11.076,35.016 27.357,51.239 46.441,40.221 46.441,25.146 33.752,12.29 28.503,17.692 28.554,15.25 
		25.402,12.28 20.153,21.625 12.466,26.814 	"/>
	<path class="st2" d="M33.751,20.385v12.167c0,4.192-0.307,6.203-1.227,7.941c-0.852,1.67-1.977,2.726-4.294,3.885l-4.874-2.318
		c2.318-1.09,3.442-2.044,4.158-3.51c0.75-1.499,0.989-3.238,0.989-7.804v-10.36H33.751z"/>
	<rect x="28.503" y="12.308" class="st2" width="5.248" height="5.385"/>
	<path class="st2" d="M20.153,12.28h5.248v24.293c-2.692,0.511-4.669,0.716-6.816,0.716c-6.407,0-9.747-2.897-9.747-8.452
		c0-5.351,3.545-8.827,9.031-8.827c0.852,0,1.499,0.068,2.283,0.272L20.153,12.28z M20.153,24.508
		c-0.613-0.204-1.125-0.272-1.772-0.272c-2.658,0-4.192,1.636-4.192,4.499c0,2.795,1.466,4.328,4.158,4.328
		c0.579,0,1.056-0.034,1.806-0.136V24.508z"/>
</g>
<g id="hex-pyramid_x60_47x54">
	<polygon class="st21" points="46.442,40.222 23.218,53.629 0,40.222 0,13.407 23.218,0 46.442,13.407 	"/>
	<polygon class="st22" points="8.038,33.547 25.951,52.025 46.442,40.222 46.507,34.606 23.055,13.583 	"/>
	<polygon class="st23" points="23.159,28.99 23.159,13.531 37.768,32.833 	"/>
	<polygon class="st24" points="23.159,28.99 8.557,32.833 23.159,13.531 	"/>
	<polygon class="st25" points="23.159,30.275 10.362,33.645 23.159,36.534 35.956,33.645 	"/>
</g>
<g id="hex-bottle_x60_46x54">
	<polygon class="st26" points="45.953,39.799 22.973,53.065 0,39.799 0,13.266 22.973,0 45.953,13.266 	"/>
	<polygon class="st27" points="14.863,38.259 27.747,50.309 45.953,39.799 45.953,26.095 32.88,14.153 	"/>
	<path class="st28" d="M12.746,21.127"/>
	<path class="st2" d="M34.74,16.001c0,0-0.672-1.184-3.303-2.764s-4.075-1.643-4.075-1.643l-5.263,8.81
		c-0.256-0.019-0.513-0.032-0.774-0.032c-5.585,0-10.112,4.527-10.112,10.112c0,5.585,4.527,10.112,10.112,10.112
		c5.585,0,10.112-4.527,10.112-10.112c0-2.176-0.69-4.19-1.86-5.84L34.74,16.001z"/>
	<path class="st26" d="M29.65,30.511c0,4.624-3.748,8.372-8.372,8.372s-8.372-3.748-8.372-8.372c0-0.551,0.053-1.09,0.155-1.612
		c5.891,2.112,10.183-3.18,16.487,0.305C29.615,29.63,29.65,30.067,29.65,30.511z"/>
	<circle class="st26" cx="22.509" cy="29.062" r="2.655"/>
	<circle class="st26" cx="19.188" cy="29.934" r="2.089"/>
	<circle class="st26" cx="25.816" cy="24.775" r="1.532"/>
	<circle class="st26" cx="22.002" cy="23.538" r="0.975"/>
</g>
<g id="hex-laravel_x60_46x54">
	<polygon class="st29" points="45.936,39.784 22.965,53.045 0,39.784 0,13.261 22.965,0 45.936,13.261 	"/>
	<path class="st2" d="M39.27,26.876L39.27,26.876c-0.109-0.122-1.047-1.284-1.875-2.318c-0.828-1.034-1.58-1.965-1.824-2.261
		c-0.255-0.455-0.773-0.693-1.284-0.591H34.21c-0.334,0.051-4.155,0.694-4.495,0.751c-0.314,0.019-0.598,0.189-0.764,0.456
		c-0.079,0.22-0.033,0.466,0.122,0.642l2.993,4.238l-9.228,2.209L15.13,17.159l-0.051-0.077c-0.231-0.483-0.76-0.747-1.284-0.642
		c-0.726,0.032-6.287,0.494-6.518,0.514C6.979,16.95,6.7,17.095,6.531,17.339c-0.161,0.372-0.137,0.798,0.064,1.15
		c0.27,0.642,3.211,7.064,5.202,11.29l1.509,3.269c0.319,0.792,1.199,1.2,2.01,0.931c0.957-0.231,4.059-1.034,6.582-1.695
		c1.445,2.614,3.211,5.741,3.564,6.255c0.224,0.412,0.649,0.676,1.117,0.694c0.327-0.021,0.649-0.088,0.957-0.199
		c0.7-0.212,10.211-3.641,10.564-3.783c0.3-0.068,0.553-0.269,0.687-0.546c0.048-0.226-0.009-0.462-0.154-0.642
		c-0.186-0.276-2.087-2.826-3.757-5.06l3.988-1.06c0.254-0.041,0.468-0.215,0.559-0.456C39.483,27.269,39.424,27.038,39.27,26.876z
		 M33.182,29.316l1.355,1.862l1.843,2.53l-3.307,1.124c-4.123,1.394-5.979,2.023-6.075,2.068h-0.051
		c-0.047-0.041-0.088-0.088-0.122-0.141c-0.167-0.238-2.029-3.449-2.948-5.041L33.182,29.316z M31.082,23.812
		c0.835-0.148,3.211-0.572,3.378-0.642c0.017,0.004,0.035,0.004,0.051,0c0.028,0.021,0.052,0.047,0.071,0.077
		c0.128,0.173,1.22,1.561,2.383,3.038l0.206,0.257l-3.468,0.854L31.082,23.812z M36.701,33.632 M20.858,30.472l-5.658,1.361l0,0
		c-0.642-1.284-5.902-12.202-6.531-13.486l2.511-0.218l2.505-0.218C13.916,18.373,20.19,29.316,20.858,30.472z"/>
	<polygon class="st30" points="20.897,30.472 19.33,30.864 20.313,32.675 21.918,32.257 	"/>
	<polygon class="st30" points="33.195,29.316 33.998,30.408 35.661,29.977 34.91,28.976 	"/>
</g>
<g id="hex-symfony_x60_46x54">
	<polygon class="st31" points="45.936,39.784 22.965,53.045 0,39.784 0,13.261 22.965,0 45.936,13.261 	"/>
	<polygon class="st32" points="45.834,24.535 34.565,13.265 32.61,12.789 29.242,12.789 27.149,15.695 24.738,23.243 18.498,18.075 
		13.635,18.962 12.547,24.399 16.468,26.522 16.104,29.895 12.948,30.866 9.041,29.182 17.831,37.972 15.451,40.352 12.547,39.303 
		25.073,51.828 45.936,39.784 	"/>
	<path class="st2" d="M31.455,12.294c-2.107,0.072-3.947,1.236-5.317,2.841c-1.517,1.763-2.524,3.851-3.252,5.985
		c-1.3-1.066-2.302-2.446-4.389-3.046c-1.612-0.464-3.306-0.273-4.863,0.887c-0.737,0.551-1.246,1.383-1.487,2.167
		c-0.626,2.034,0.658,3.846,1.241,4.495l1.275,1.365c0.262,0.268,0.896,0.967,0.586,1.968c-0.333,1.09-1.646,1.794-2.993,1.38
		c-0.602-0.185-1.466-0.633-1.272-1.263c0.08-0.259,0.264-0.453,0.364-0.674c0.09-0.193,0.134-0.336,0.162-0.422
		c0.246-0.802-0.091-1.847-0.951-2.113c-0.803-0.246-1.624-0.051-1.943,0.982c-0.361,1.174,0.201,3.305,3.211,4.232
		c3.527,1.086,6.509-0.836,6.933-3.339c0.267-1.568-0.442-2.734-1.739-4.232l-1.058-1.17c-0.64-0.64-0.86-1.73-0.197-2.568
		c0.559-0.707,1.355-1.008,2.66-0.654c1.905,0.516,2.753,1.838,4.169,2.904c-0.584,1.919-0.967,3.844-1.312,5.571l-0.212,1.288
		c-1.012,5.309-1.785,8.225-3.794,9.899c-0.405,0.288-0.983,0.719-1.855,0.75c-0.458,0.014-0.606-0.301-0.612-0.439
		c-0.01-0.32,0.26-0.468,0.439-0.611c0.269-0.146,0.675-0.39,0.647-1.167c-0.029-0.919-0.791-1.716-1.891-1.68
		c-0.825,0.028-2.081,0.803-2.033,2.224c0.048,1.467,1.416,2.566,3.478,2.497c1.102-0.038,3.563-0.485,5.988-3.368
		c2.823-3.305,3.613-7.093,4.207-9.866l0.663-3.661c0.367,0.044,0.762,0.074,1.19,0.084c3.516,0.074,5.273-1.746,5.3-3.071
		c0.018-0.802-0.525-1.591-1.287-1.573c-0.544,0.015-1.228,0.378-1.392,1.131c-0.161,0.738,1.118,1.405,0.118,2.054
		c-0.71,0.459-1.983,0.783-3.776,0.52l0.326-1.802c0.665-3.417,1.486-7.62,4.6-7.723c0.227-0.011,1.057,0.01,1.076,0.559
		c0.005,0.182-0.04,0.23-0.255,0.65c-0.219,0.327-0.301,0.607-0.29,0.926c0.03,0.872,0.693,1.446,1.654,1.412
		c1.285-0.043,1.653-1.293,1.632-1.936C35.152,13.179,33.56,12.225,31.455,12.294z"/>
</g>
<g id="hex-hugo_x60_46x54">
	<polygon class="st33" points="45.944,39.79 22.969,53.054 0,39.79 0,13.263 22.969,0 45.944,13.263 	"/>
	<path class="st34" d="M38.981,37.186l-14.773,8.536c-0.757,0.437-1.69,0.437-2.447,0L6.988,37.186
		c-0.756-0.438-1.221-1.246-1.22-2.12V17.988c-0.001-0.874,0.464-1.682,1.22-2.12l14.773-8.536c0.757-0.437,1.69-0.437,2.447,0
		l14.773,8.536c0.756,0.438,1.221,1.246,1.22,2.12v17.079C40.202,35.94,39.737,36.748,38.981,37.186z"/>
	<polygon class="st2" points="25.875,16.444 25.875,23.51 20.094,23.51 20.094,16.444 15.598,16.444 15.598,35.713 20.094,35.713 
		20.094,27.364 25.875,27.364 25.875,35.713 30.371,35.713 30.371,16.444 	"/>
</g>
<g id="hex-cakephp_x60_46x54">
	<polygon class="st35" points="45.936,39.784 22.965,53.045 0,39.784 0,13.261 22.965,0 45.936,13.261 	"/>
	<polygon class="st36" points="36.631,17.984 45.936,27.29 45.908,39.784 26.147,51.182 8.802,33.838 7.98,30.05 7.98,20.55 	"/>
	<path class="st2" d="M22.42,23.323l11.299,2.806c1.966-0.768,3.148-1.746,3.148-2.806v-4.512c0-2.488-6.468-4.508-14.447-4.508
		c-7.975,0-14.44,2.02-14.44,4.508v4.512c0,2.488,6.465,4.507,14.44,4.507L22.42,23.323L22.42,23.323z"/>
	<path class="st2" d="M33.719,30.637L22.421,27.83v4.508l11.299,2.807c1.966-0.771,3.148-1.745,3.148-2.807c0-0.958,0-3.552,0-4.508
		C36.867,28.892,35.685,29.866,33.719,30.637z"/>
	<path class="st2" d="M7.98,27.83c0,0.957,0,3.55,0,4.508c0,2.489,6.465,4.506,14.44,4.506v-4.506
		C14.445,32.338,7.98,30.317,7.98,27.83z"/>
</g>
<g id="hex-slim_x60_46x54">
	<polygon class="st37" points="45.936,39.784 22.965,53.045 0,39.784 0,13.261 22.965,0 45.936,13.261 	"/>
	<polygon class="st38" points="34.131,12.974 45.985,24.87 45.936,39.784 27.631,50.338 16.145,38.852 15.787,35.668 7.453,27.334 
		8.688,26.55 11.995,25.85 13.83,18.674 22.079,19.73 	"/>
	<path class="st2" d="M35.063,15.196v7.259c0,1.72-1.407,3.127-3.127,3.127h-0.782c0,0.81,0,1.619,0,2.234v9.493
		c0,1.229-1.005,2.234-2.234,2.234h-1.452c-1.229,0-2.234-1.005-2.234-2.234v-1.564c0-1.229-0.854-2.234-1.899-2.234
		c-1.044,0-1.899,1.005-1.899,2.234v1.564c0,1.229-1.005,2.234-2.234,2.234h-1.452c-1.229,0-2.234-1.005-2.234-2.234V20.748h-0.944
		c-0.698,0-1.061,0.373-1.061,1.006v4.833H13.51c-0.028,0.603-0.511,1.086-1.114,1.114v0.003H8.152v-0.013
		c-0.55-0.079-0.976-0.538-1.002-1.104H7.147v-2.122v-1.787H7.15c0.027-0.295,0.261-0.529,0.556-0.556V22.12h1.117v0.003
		c0.018-0.002,0.037-0.003,0.056-0.003c0.32,0,0.583,0.245,0.611,0.558h0.003v1.787v0.112c0,0.432,0.35,0.782,0.782,0.782
		c0.432,0,0.782-0.35,0.782-0.782v-5.249h0.003c-0.001-0.019-0.003-0.037-0.003-0.056c0-0.833,0.675-1.508,1.508-1.508
		c0.019,0,0.037,0.002,0.056,0.003v-0.003h2.797c0.204-4.29,3.746-7.706,8.087-7.706c2.045,0,3.912,0.76,5.337,2.01h3.095
		C33.655,12.069,35.063,13.476,35.063,15.196z M20.762,15.675c-0.722,0-1.308,0.586-1.308,1.308s0.586,1.308,1.308,1.308
		s1.308-0.586,1.308-1.308S21.484,15.675,20.762,15.675z"/>
	<path class="st39" d="M25.12,17.065c0-2.297,1.621-4.216,3.782-4.675"/>
	<path class="st39" d="M25.073,21.339c0,2.639,2.14,4.779,4.779,4.779"/>
	<path class="st40" d="M33.409,30.119v-0.778c0-1.322-0.961-2.419-2.223-2.63l-0.542-0.161"/>
	<path class="st2" d="M34.187,30.612c0-0.43-0.348-0.778-0.778-0.778s-0.778,0.348-0.778,0.778c0,0.15,0.412,1.528,0.412,1.556
		c0,0.202,0.164,0.366,0.366,0.366s0.366-0.164,0.366-0.366c0-0.026,0.412-1.428,0.412-1.428S34.187,30.655,34.187,30.612z"/>
</g>
<g id="hex-lumen_x60_46x54">
	<linearGradient id="SVGID_1_" gradientUnits="userSpaceOnUse" x1="0" y1="26.5225" x2="45.9359" y2="26.5225">
		<stop  offset="0" style="stop-color:#ED5955"/>
		<stop  offset="1" style="stop-color:#F1C195"/>
	</linearGradient>
	<polygon class="st41" points="45.936,39.784 22.965,53.045 0,39.784 0,13.261 22.965,0 45.936,13.261 	"/>
	<polyline class="st42" points="25.089,12.575 45.936,33.422 45.936,39.784 32.013,47.821 18.557,34.366 	"/>
	<circle class="st2" cx="22.968" cy="30.3" r="6"/>
	<circle class="st2" cx="22.968" cy="22.3" r="3.01"/>
	<path class="st2" d="M25.978,22.3c0,1.354,2.99,5.213,2.99,8h-3.857l-1.499-8H25.978z"/>
	<path class="st2" d="M19.958,22.3c0,1.354-2.99,5.213-2.99,8h3.857l1.499-8H19.958z"/>
	<path class="st43" d="M22.968,17.581c-2.024,0-3.665,1.641-3.665,3.665h7.329C26.633,19.222,24.992,17.581,22.968,17.581z"/>
	<path class="st43" d="M22.968,15.647c-2.024,0-3.665,1.641-3.665,3.665h7.329C26.633,17.288,24.992,15.647,22.968,15.647z"/>
	<path class="st43" d="M22.968,11.895c-2.024,0-3.665,1.641-3.665,3.665h7.329C26.633,13.536,24.992,11.895,22.968,11.895z"/>
	<polygon class="st43" points="23.287,13.728 22.647,13.728 22.647,0.184 22.965,0 23.287,0.186 	"/>
	<polyline class="st43" points="26.633,15.56 26.633,18.661 19.347,18.661 19.347,15.56 	"/>
	<path class="st44" d="M18.564,34.366"/>
</g>
<g id="hex-vue_x60_47x54">
	<polygon class="st45" points="46.313,40.11 23.153,53.481 0,40.11 0,13.37 23.153,0 46.313,13.37 	"/>
	<polygon class="st2" points="8.741,17.028 14.51,17.028 23.179,31.914 31.881,17.028 37.572,17.028 23.179,41.897 	"/>
	<polygon class="st46" points="14.536,17.028 19.91,17.028 23.173,22.817 26.591,17.028 31.881,17.028 23.173,31.901 	"/>
	<polyline class="st47" points="23.179,41.891 29.168,49.725 46.313,40.11 46.164,27.55 37.572,17.028 	"/>
</g>
<g id="hex-phalcon_x60_46x54">
	<polygon class="st48" points="45.936,39.784 22.965,53.045 0,39.784 0,13.261 22.965,0 45.936,13.261 	"/>
	<polygon class="st49" points="29.108,21.227 33.283,25.928 31.853,19.885 17.966,8.423 19.408,12.261 	"/>
	<polygon class="st50" points="20.017,13.8 16.815,10.994 17.331,13.784 19.409,16.016 26.917,20.05 	"/>
	<polygon class="st51" points="38.456,32.611 40.008,31.359 40.051,32.983 39.085,33.852 38.28,33.82 38.795,33.047 	"/>
	<path class="st49" d="M38.69,29.025l-5.532-1.841l-0.074,2.927l0.601,1.37l2.713,0.121l1.61,0.582l1.805-1.388L38.69,29.025z
		 M37.322,30.637l0.558-0.741l1.359,0.822L37.322,30.637z"/>
	<polygon class="st51" points="33.191,26.697 28.644,21.577 8.979,11.15 13.943,17.857 27.202,25.709 	"/>
	<polygon class="st50" points="32.552,27.156 32.469,30.16 33.105,31.57 28.203,30.862 25.653,29.631 29.883,29.631 26.534,27.84 
		27.087,26.364 	"/>
	<polygon class="st52" points="25.084,30.077 19.41,33.873 17.365,36.794 16.656,39.423 18.784,36.544 27.349,31.333 	"/>
	<polygon class="st50" points="19.198,37.098 22.545,35.118 19.867,41.435 19.91,44.221 18.492,39.715 	"/>
	<polygon class="st49" points="28.28,31.595 31.968,32.038 29.096,34.652 27.128,34.332 23.791,37.211 23.624,44.346 21.12,40.174 
		23.623,34.448 	"/>
	<polygon class="st50" points="26.534,35.642 27.349,35.031 29.006,35.292 29.256,35.793 29.634,36.093 29.561,37.709 27.504,38.63 
			"/>
	<polygon class="st50" points="24.409,37.592 26.044,36.21 26.252,39.172 27.625,40.649 27.625,42.556 26.669,43.094 24.321,40.445 
			"/>
	<polygon class="st51" points="18.566,34.158 16.452,36.977 16.235,35.73 	"/>
	<polygon class="st52" points="18.035,40.281 18.786,43.035 17.826,42.493 	"/>
	<polygon class="st51" points="28.297,40.382 28.714,39.589 30.591,40.883 29.173,40.34 29.006,40.799 30.216,41.175 30.716,42.51 
		29.882,41.592 29.131,41.55 29.465,43.929 28.255,42.593 	"/>
	<polygon class="st51" points="30.216,37.587 30.216,36.252 30.758,34.875 32.385,36.043 31.134,35.584 31.05,35.96 32.135,36.502 
		32.719,37.67 31.801,36.794 31.083,36.678 31.467,39.214 	"/>
	<polygon class="st50" points="26.503,26.197 10.398,16.434 14.946,22.775 25.952,27.578 	"/>
	<polygon class="st49" points="27.786,29.092 13.694,22.901 19.952,27.782 24.554,29.063 	"/>
	<polygon class="st50" points="19.076,28.742 22.038,30.077 21.079,30.828 22.982,30.606 24.5,29.701 	"/>
</g>
<g id="hex-react_x60_47x54">
	<polygon class="st53" points="46.313,40.11 23.153,53.48 0,40.11 0,13.37 23.153,0 46.313,13.37 	"/>
	<circle class="st54" cx="23.153" cy="26.714" r="2.668"/>
	<path class="st54" d="M36.549,24.053c-1.131-0.88-2.409-1.553-3.775-1.988c-0.311-0.121-0.628-0.222-0.952-0.304
		c0.056-0.22,0.106-0.436,0.149-0.647c0.738-3.593,0.214-6.397-1.373-7.31c-0.972-0.456-2.097-0.456-3.069,0
		c-1.33,0.531-2.555,1.294-3.619,2.253c-0.246,0.216-0.494,0.442-0.745,0.68l-0.492-0.46c-2.745-2.434-5.432-3.38-7.018-2.46
		c-0.879,0.616-1.439,1.591-1.528,2.661c-0.196,1.419-0.139,2.861,0.168,4.26c0.065,0.324,0.138,0.654,0.22,0.991
		c-0.38,0.108-0.749,0.224-1.107,0.35c-3.237,1.133-5.18,2.855-5.18,4.623c0.097,1.105,0.675,2.111,1.58,2.752
		c1.156,0.928,2.473,1.635,3.885,2.085c0.259,0.091,0.529,0.175,0.809,0.253c-0.108,0.367-0.188,0.734-0.24,1.101
		c-0.647,3.373-0.11,5.911,1.418,6.792c0.436,0.24,0.927,0.361,1.424,0.35c0.591-0.012,1.175-0.124,1.729-0.33
		c1.385-0.541,2.659-1.333,3.755-2.337c0.207-0.181,0.423-0.373,0.647-0.576c0.268,0.259,0.537,0.505,0.809,0.738
		c1.942,1.645,3.742,2.519,5.18,2.519c0.491,0.011,0.976-0.11,1.405-0.35c0.904-0.632,1.486-1.628,1.593-2.726
		c0.224-1.471,0.173-2.97-0.149-4.422c-0.052-0.259-0.112-0.524-0.181-0.796l0.557-0.175c3.483-1.152,5.646-3.011,5.646-4.843
		C38.009,25.653,37.441,24.669,36.549,24.053z M27.938,14.995c0.622-0.31,1.345-0.346,1.994-0.097
		c0.573,0.467,0.923,1.153,0.965,1.891c0.174,1.355,0.104,2.73-0.207,4.06c-0.039,0.194-0.084,0.393-0.136,0.596
		c-1.316-0.304-2.65-0.52-3.995-0.647c-0.765-1.099-1.602-2.146-2.506-3.134c0.229-0.22,0.458-0.436,0.686-0.647
		C25.679,16.16,26.762,15.476,27.938,14.995z M27.291,29.142c-0.432,0.816-0.898,1.586-1.399,2.311
		c-0.887,0.065-1.8,0.097-2.739,0.097s-1.832,0-2.7-0.084c-0.511-0.745-1.004-1.522-1.463-2.318l0,0
		c-0.46-0.796-0.887-1.599-1.295-2.402c0.388-0.809,0.809-1.619,1.295-2.409l0,0c0.46-0.796,0.945-1.567,1.444-2.305
		c0.893-0.071,1.806-0.104,2.719-0.104c0.913,0,1.832,0.032,2.726,0.104c0.492,0.732,0.978,1.496,1.437,2.298
		c0.46,0.803,0.9,1.612,1.295,2.396C28.216,27.524,27.789,28.359,27.291,29.142z M29.233,28.197c0.38,0.858,0.715,1.735,1.004,2.629
		c-0.919,0.206-1.848,0.363-2.784,0.473c0.306-0.488,0.611-0.995,0.913-1.522c0.302-0.527,0.611-1.053,0.926-1.58H29.233z
		 M23.147,34.944c-0.602-0.647-1.204-1.373-1.793-2.15c0.57,0.022,1.15,0.032,1.742,0.032c0.591,0,1.193-0.013,1.806-0.039
		c-0.528,0.745-1.095,1.462-1.696,2.15L23.147,34.944z M18.77,31.331c-0.924-0.099-1.843-0.246-2.752-0.44
		c0.265-0.855,0.589-1.735,0.965-2.635c0.268,0.514,0.548,1.027,0.842,1.541l0,0c0.345,0.518,0.68,1.027,1.004,1.528L18.77,31.331z
		 M16.983,25.251c-0.369-0.881-0.686-1.742-0.945-2.59c0.855-0.188,1.761-0.343,2.706-0.466c-0.315,0.488-0.619,0.988-0.913,1.502
		l0,0c-0.259,0.518-0.522,1.034-0.79,1.547L16.983,25.251z M23.108,18.582c0.62,0.678,1.206,1.387,1.755,2.124
		c-0.54-0.035-1.109-0.052-1.709-0.052s-1.185,0.013-1.755,0.039c0.576-0.751,1.172-1.47,1.774-2.117L23.108,18.582z M28.359,23.697
		c-0.294-0.509-0.596-1.008-0.906-1.496c0.952,0.123,1.865,0.278,2.726,0.479c-0.276,0.879-0.595,1.743-0.958,2.59
		c-0.229-0.531-0.494-1.058-0.796-1.58L28.359,23.697z M15.546,20.512c-0.278-1.25-0.332-2.538-0.162-3.807
		c0.041-0.689,0.367-1.329,0.9-1.768c0.692-0.264,1.463-0.224,2.124,0.11c1.26,0.524,2.415,1.27,3.412,2.201l0.447,0.414
		c-0.917,0.992-1.767,2.043-2.545,3.147c-1.342,0.128-2.674,0.345-3.988,0.647C15.669,21.129,15.606,20.814,15.546,20.512z
		 M14.102,30.34c-1.265-0.398-2.446-1.025-3.483-1.852c-0.6-0.413-1.003-1.055-1.114-1.774c0-1.295,2.169-2.668,4.325-3.419
		c0.33-0.117,0.647-0.22,1.029-0.324c0.391,1.286,0.867,2.545,1.424,3.768c-0.577,1.241-1.07,2.52-1.476,3.827
		C14.574,30.493,14.339,30.418,14.102,30.34z M16.284,38.55c-1.14-0.647-1.224-3.237-0.796-5.452c0.06-0.319,0.134-0.65,0.22-0.991
		c1.325,0.286,2.669,0.48,4.021,0.583c0.792,1.112,1.657,2.169,2.59,3.166c-0.19,0.181-0.38,0.356-0.57,0.524
		C19.236,38.576,17.171,39.048,16.284,38.55z M30.774,32.775c0.647,3.276,0,5.296-0.835,5.795c-1.14,0.647-3.393-0.544-5.121-2.033
		c-0.246-0.212-0.496-0.44-0.751-0.686c0.906-1.002,1.744-2.064,2.506-3.179c1.36-0.123,2.71-0.34,4.04-0.647
		c0.082,0.263,0.147,0.514,0.194,0.751H30.774z M31.998,30.347l-0.499,0.155c-0.418-1.294-0.924-2.557-1.515-3.781
		c0.565-1.207,1.05-2.451,1.45-3.723c0.306,0.086,0.602,0.179,0.887,0.278c1.224,0.383,2.37,0.979,3.386,1.761
		c0.577,0.384,0.967,0.992,1.075,1.677c0.026,0.997-1.47,2.545-4.752,3.632H31.998z"/>
</g>
<g id="hex-backbone_x60_47x55">
	<polygon class="st55" points="46.453,40.376 23.473,53.642 0.5,40.376 0.5,13.844 23.473,0.577 46.453,13.844 	"/>
	<path class="st28" d="M13.246,21.704"/>
	<polygon class="st56" points="17.116,27.11 23.477,30.781 29.838,27.11 23.477,23.438 	"/>
	<polygon class="st56" points="32.02,35.712 32.02,30.64 27.626,33.176 	"/>
	<polygon class="st56" points="14.933,35.712 19.327,33.176 14.933,30.64 	"/>
	<polygon class="st56" points="14.933,18.507 14.933,23.58 19.327,21.044 	"/>
	<polygon class="st56" points="32.02,18.507 27.626,21.044 32.02,23.58 	"/>
	<polygon class="st57" points="14.933,28.369 14.933,30.64 19.327,33.176 23.477,30.781 17.116,27.11 	"/>
	<polygon class="st57" points="10.785,25.974 14.933,23.58 14.933,18.507 19.327,21.044 23.477,18.649 10.785,11.324 	"/>
	<polygon class="st57" points="23.477,18.649 23.477,23.438 32.02,28.369 32.02,35.712 23.477,30.781 23.477,35.571 36.168,42.896 
		36.168,25.974 	"/>
	<polygon class="st58" points="10.785,25.974 10.785,42.896 23.477,35.571 23.477,30.781 14.933,35.712 14.933,28.369 
		23.477,23.438 23.477,18.649 	"/>
	<polygon class="st58" points="32.02,30.64 32.02,28.369 29.838,27.11 23.477,30.781 27.626,33.176 	"/>
	<polygon class="st58" points="23.477,18.649 27.626,21.044 32.02,18.507 32.02,23.58 36.168,25.974 36.168,11.324 	"/>
</g>
<g id="hex-silex_x60_46x54">
	<polygon class="st59" points="45.936,39.784 22.965,53.045 0,39.784 0,13.261 22.965,0 45.936,13.261 	"/>
	<polygon class="st60" points="8.71,37.568 21.192,52.018 22.958,52.901 45.936,39.776 45.936,33.876 26.611,10.957 21.835,32.11 	
		"/>
	<polygon class="st61" points="21.883,39.11 20.915,37.174 18.979,35.843 18.374,31.487 20.31,27.978 20.673,26.284 22.246,25.074 
		22.367,23.622 24.908,21.807 26.481,19.387 31.563,27.131 32.289,29.914 34.346,32.334 35.193,32.818 31.926,36.448 30.111,36.69 
		29.143,38.142 27.449,38.505 26.844,39.11 	"/>
	<polygon class="st62" points="21.218,22.594 22.512,23.518 24.908,21.807 26.481,19.387 26.485,19.394 26.783,18.117 
		26.178,16.423 25.815,11.22 24.121,12.793 22.065,14.245 20.613,15.576 20.25,17.27 18.798,20.295 20.855,20.9 	"/>
	<polygon class="st63" points="25.815,11.22 26.178,16.423 26.783,18.117 26.485,19.394 31.563,27.131 32.289,29.914 34.346,32.334 
		35.193,32.818 34.709,24.59 32.894,20.839 31.563,19.145 30.111,15.394 27.812,13.579 26.602,10.917 25.755,11.159 25.708,11.32 	
		"/>
	<polygon class="st64" points="20.31,27.978 20.673,26.284 22.246,25.074 22.367,23.622 23.762,22.626 23.762,22.626 22.512,23.518 
		21.218,22.594 20.855,20.9 18.961,20.343 18.858,20.355 18.011,21.928 18.132,23.501 16.196,26.768 16.196,32.576 17.89,35.117 
		18.979,35.843 18.374,31.487 	"/>
	<polygon class="st61" points="12.367,34.282 14.882,32.605 17.397,34.953 18.739,36.965 20.416,37.636 18.236,38.977 
		17.397,38.977 15.888,39.816 12.199,39.816 11.025,39.145 10.187,38.642 9.516,37.133 10.69,35.456 	"/>
	<polygon class="st62" points="10.69,35.456 12.367,34.282 14.882,32.605 14.379,31.599 14.547,30.593 12.367,31.096 11.193,31.096 
		9.516,33.276 9.516,34.282 	"/>
	<polygon class="st64" points="10.69,35.456 9.516,34.282 8.174,35.624 8.342,37.301 10.187,38.642 9.516,37.133 	"/>
	<polygon class="st63" points="14.882,32.605 17.397,34.953 18.739,36.965 20.416,37.636 20.248,34.953 18.907,33.276 
		17.901,32.941 17.901,32.27 16.224,31.767 15.385,30.593 14.547,30.593 14.379,31.599 	"/>
	<circle class="st2" cx="24.758" cy="24.621" r="0.757"/>
	<circle class="st2" cx="27.358" cy="24.621" r="0.757"/>
	<circle class="st2" cx="13.01" cy="35.54" r="0.587"/>
	<circle class="st2" cx="14.966" cy="35.54" r="0.587"/>
</g>
<g id="hex-nette_x60_46x54">
	<polygon class="st65" points="45.936,39.784 22.965,53.045 0,39.784 0,13.261 22.965,0 45.936,13.261 	"/>
	<polygon class="st66" points="45.936,28.987 34.565,17.718 29.009,21.237 22.769,16.07 11.865,36.006 26.384,50.987 45.936,39.784 
			"/>
	<path class="st67" d="M37.406,32.28L37.406,32.28c-1.44,1.026-2.353,1.649-2.739,1.869c-2.064,1.23-3.949,1.846-5.656,1.846
		c-0.953,0-1.885-0.218-2.798-0.655c-0.913-0.437-1.598-1.002-2.054-1.697c-0.456-0.695-0.685-1.478-0.685-2.352
		c0-1.23,0.417-2.798,1.25-4.704c1.191-2.778,1.826-4.267,1.905-4.465c-0.04-0.159-0.06-0.338-0.06-0.536
		c-0.556,0.238-0.933,0.417-1.131,0.536c-1.111,0.715-2.203,1.528-3.275,2.441c-0.834,0.754-1.806,1.707-2.917,2.858
		c-0.238,1.429-0.357,2.838-0.357,4.227c0,1.072,0.059,2.143,0.179,3.215l-7.204,1.131c-0.556-2.223-0.834-4.346-0.834-6.371
		c0-1.23,0.119-2.481,0.357-3.751c0.238-1.27,0.675-2.699,1.31-4.287c0.437-1.111,1.052-2.5,1.846-4.167l8.276-1.369
		c-0.516,1.27-0.893,2.223-1.131,2.858c-0.437,1.072-0.794,2.044-1.072,2.917C22.6,20,24.585,18.59,26.569,17.598
		c1.588-0.794,3.017-1.191,4.287-1.191c0.715,0,1.449,0.139,2.203,0.417c0.754,0.278,1.3,0.714,1.637,1.31
		c0.337,0.595,0.506,1.31,0.506,2.143c0,1.191-0.337,2.659-1.012,4.406c-0.794,1.985-1.568,3.969-2.322,5.954
		c0,0.278,0.099,0.446,0.298,0.506c0.199,0.06,0.397,0.089,0.596,0.089c0.796,0,1.981-0.416,3.554-1.248L37.406,32.28z"/>
</g>
<g id="hex-zf_x60_46x54">
	<polygon class="st68" points="45.936,39.784 22.965,53.045 0,39.784 0,13.261 22.965,0 45.936,13.261 	"/>
	<polygon class="st69" points="40.63,18.571 28.051,22.55 22.977,18.34 7.802,21.924 12.509,26.717 6.49,34.756 23.9,52.505 
		45.936,39.784 45.936,23.806 	"/>
	<path class="st67" d="M22.548,23.081c0,0,0-4.521,4.522-4.521h13.564c0,0,0,4.521-4.521,4.521H22.548z"/>
	<path class="st67" d="M22.548,28.859c0,0,0-4.521,4.522-4.521h6.782c0,0,0,4.521-4.521,4.521H22.548z"/>
	<path class="st67" d="M22.548,34.636c0,0,0-4.521,4.522-4.521h2.261c0,0,0,4.521-4.521,4.521H22.548z"/>
	<polygon class="st67" points="21.03,31.108 21.03,34.714 6.49,34.714 15.857,21.938 7.816,21.938 7.816,18.331 22.985,18.331 
		13.661,31.108 	"/>
</g>
<g id="hex-yii_x60_47x54">
	<linearGradient id="SVGID_2_" gradientUnits="userSpaceOnUse" x1="0" y1="26.7752" x2="46.3735" y2="26.7752">
		<stop  offset="0" style="stop-color:#FFFFFF"/>
		<stop  offset="1" style="stop-color:#FFFFFF"/>
	</linearGradient>
	<polygon class="st70" points="46.374,40.163 23.184,53.55 0,40.163 0,13.388 23.184,0 46.374,13.388 	"/>
	<polygon class="st71" points="45.676,39.76 23.184,52.745 0.698,39.76 0.698,13.79 23.184,0.806 45.676,13.79 	"/>
	<radialGradient id="SVGID_3_" cx="27.0174" cy="27.636" r="13.1546" gradientUnits="userSpaceOnUse">
		<stop  offset="0" style="stop-color:#D5EC5E"/>
		<stop  offset="1" style="stop-color:#7CBC27"/>
	</radialGradient>
	<path class="st72" d="M26.595,21.911c-1.41-3.972,2.712-8.231,6.103-8.358c2.031,1.035,3.776,3.751,3.689,7.438
		c-0.266,4.542-3.559,8.457-7.142,12.063C29.045,28.655,28.089,25.852,26.595,21.911L26.595,21.911z"/>
	<radialGradient id="SVGID_4_" cx="26.2871" cy="28.4252" r="13.0032" gradientUnits="userSpaceOnUse">
		<stop  offset="0" style="stop-color:#8BC4EB"/>
		<stop  offset="1" style="stop-color:#0073BB"/>
	</radialGradient>
	<path class="st73" d="M18.602,43.422c-0.567-4.435,1.278-8.218,3.108-10.524c3.979-4.95,3.731-7.923,3.339-10.47
		c2.093,3.262,3.398,7.174,3.688,10.635C28.884,35.918,26.802,42.518,18.602,43.422L18.602,43.422z"/>
	<radialGradient id="SVGID_5_" cx="26.8111" cy="29.5527" r="23.1349" gradientUnits="userSpaceOnUse">
		<stop  offset="0" style="stop-color:#FFF383"/>
		<stop  offset="1" style="stop-color:#DE3A26"/>
	</radialGradient>
	<path class="st74" d="M15.745,26.58c-6.017-1.642-7.501-6.801-7.232-10.271c5.843-2.312,12.131,0.056,15.761,4.991
		c2.545,3.459,4.139,7.893,4.463,11.763c-1.747-2.249-3.952-3.552-6.761-4.573C20.053,27.792,18.279,27.33,15.745,26.58
		L15.745,26.58z"/>
	<linearGradient id="SVGID_6_" gradientUnits="userSpaceOnUse" x1="25.1897" y1="26.7132" x2="26.9503" y2="31.8746">
		<stop  offset="0" style="stop-color:#E1D082"/>
		<stop  offset="1" style="stop-color:#C1E0C1"/>
	</linearGradient>
	<path class="st75" d="M28.479,31.195c-0.057-0.321-0.117-0.643-0.19-0.968c-0.042-0.187-0.092-0.375-0.139-0.562
		c-0.074-0.296-0.151-0.592-0.237-0.889c-0.058-0.199-0.122-0.397-0.186-0.596c-0.092-0.288-0.188-0.575-0.291-0.862
		c-0.072-0.201-0.148-0.401-0.226-0.601c-0.11-0.283-0.227-0.565-0.348-0.846c-0.085-0.197-0.171-0.394-0.261-0.59
		c-0.13-0.282-0.269-0.56-0.41-0.837c-0.095-0.187-0.188-0.374-0.288-0.558c-0.156-0.288-0.323-0.57-0.491-0.851
		c-0.098-0.163-0.191-0.33-0.293-0.491c-0.021-0.034-0.046-0.065-0.067-0.099c0.287,1.869,0.485,3.972-1.002,6.914
		c1.852,0.897,3.396,2.041,4.688,3.704c-0.038-0.46-0.098-0.929-0.171-1.402C28.541,31.507,28.507,31.35,28.479,31.195z"/>
</g>
<g id="hex-revel_x60_46x53">
	<polygon class="st76" points="45.854,39.713 22.924,52.951 0,39.713 0,13.238 22.924,0 45.854,13.238 	"/>
	<polygon class="st77" points="20.715,11.716 17.861,12.279 16.236,38.154 27.695,50.195 45.854,39.713 45.854,36.862 	"/>
	<path class="st78" d="M26.216,38.509c-4.104,1.132-7.206,0.306-8.674-0.278c-0.564-0.224-0.921-0.776-0.891-1.382l1.201-23.635
		c0.069-1.352,1.822-1.836,2.574-0.71l13.149,19.676c0.337,0.505,0.313,1.162-0.056,1.643C32.559,35.077,30.32,37.377,26.216,38.509
		z"/>
	<path class="st78" d="M16.909,31.786c2.588,3.327,6.323,5.577,10.445,6.351"/>
	<path class="st78" d="M17.299,24.116c3.429,5.437,9.695,8.57,16.2,7.948"/>
	<path class="st78" d="M17.658,17.053c2.5,3.557,6.247,6.028,10.448,6.941"/>
</g>
<g id="hex-iris_x60_46x53">
	<polygon class="st79" points="45.854,39.713 22.924,52.951 0,39.713 0,13.238 22.924,0 45.854,13.238 	"/>
	<path class="st80" d="M30.799,35.309H8.427V24.27c0-3.661,2.968-6.628,6.628-6.628h22.372v11.038
		C37.427,32.341,34.46,35.309,30.799,35.309z"/>
	<circle class="st81" cx="22.927" cy="26.475" r="5.008"/>
	<circle class="st82" cx="22.927" cy="26.475" r="2"/>
</g>
<g id="hex-gin_x60_46x53">
	<polygon class="st83" points="45.854,39.713 22.924,52.951 0,39.713 0,13.238 22.924,0 45.854,13.238 	"/>
	<polygon class="st84" points="33.327,16.127 16.828,19.243 14.419,38.044 26.59,50.834 45.854,39.713 45.854,28.736 	"/>
	<path class="st2" d="M30.581,38.574l-15.31,0c-0.541,0-0.976-0.436-0.981-0.977c-0.087-10.485-1.53-18.717-1.861-21.013
		c-0.036-0.246,0.156-0.458,0.404-0.458h20.19c0.247,0,0.439,0.21,0.405,0.455c-0.324,2.346-1.773,11.033-1.864,21.017
		C31.559,38.14,31.123,38.574,30.581,38.574z"/>
	<path class="st85" d="M14.732,20.451c0.399,4.131,0.807,10.42,0.849,15.89c0.004,0.5,0.374,0.904,0.834,0.904h13.024
		c0.461,0,0.832-0.402,0.836-0.903c0.044-5.28,0.466-11.664,0.871-15.891H14.732z"/>
	<path class="st86" d="M22.544,23.684l-2.834,1.485c-0.868,0.455-1.941,0.12-2.396-0.749l-1.485-2.834
		c-0.455-0.868-0.12-1.941,0.749-2.396l2.834-1.485c0.868-0.455,1.941-0.12,2.396,0.749l1.485,2.834
		C23.747,22.156,23.412,23.229,22.544,23.684z"/>
	<path class="st86" d="M26.463,25.747l-3.167-0.454c-0.971-0.139-1.645-1.039-1.506-2.009l0.454-3.167
		c0.139-0.971,1.039-1.645,2.009-1.506l3.167,0.454c0.971,0.139,1.645,1.039,1.506,2.009l-0.454,3.167
		C28.333,25.212,27.434,25.886,26.463,25.747z"/>
	<path class="st87" d="M28.899,20.451h-6.045h-0.657h-6.536c-0.067,0.375-0.023,0.772,0.168,1.135l1.485,2.834
		c0.455,0.868,1.528,1.204,2.396,0.749l2.143-1.123c0.193,0.641,0.738,1.146,1.444,1.247l3.167,0.454
		c0.971,0.139,1.87-0.535,2.009-1.506l0.454-3.167C28.957,20.86,28.942,20.651,28.899,20.451z"/>
</g>
<g id="hex-sails_x60_47x54">
	<polygon class="st88" points="46.014,39.851 23.004,53.135 0,39.851 0,13.284 23.004,0 46.014,13.284 	"/>
	<path class="st2" d="M11.948,39.553c0,0-11.126-17.708,11.769-29.108v29.108H11.948z"/>
	<path class="st2" d="M27.256,39.553V21.507c0,0,3.656,5.963,11.078,18.046H27.256z"/>
</g>
<g id="hex-express_x60_47x54">
	<polygon class="st2" points="46.374,40.163 23.184,53.55 0,40.163 0,13.388 23.184,0 46.374,13.388 	"/>
	<polygon class="st71" points="45.676,39.76 23.184,52.745 0.698,39.76 0.698,13.79 23.184,0.806 45.676,13.79 	"/>
	<path class="st89" d="M11.248,27.313v0.169c-0.004,0.818,0.109,1.632,0.337,2.418c0.206,0.73,0.544,1.415,0.998,2.023
		c0.445,0.584,1.02,1.057,1.679,1.381c0.725,0.35,1.523,0.524,2.327,0.506c1.25,0.068,2.48-0.34,3.443-1.141
		c0.897-0.848,1.508-1.953,1.75-3.164h1.07c-0.214,1.498-0.946,2.874-2.068,3.89c-1.191,0.943-2.684,1.422-4.201,1.348
		c-0.965,0.022-1.923-0.175-2.801-0.577c-0.776-0.368-1.459-0.906-1.997-1.575c-0.551-0.699-0.957-1.502-1.193-2.36
		c-0.27-0.955-0.403-1.944-0.395-2.937c-0.004-0.985,0.134-1.965,0.408-2.911c0.251-0.885,0.667-1.714,1.225-2.444
		c0.546-0.705,1.241-1.28,2.036-1.686c0.895-0.446,1.885-0.668,2.885-0.648c0.926-0.017,1.844,0.175,2.684,0.564
		c0.754,0.359,1.418,0.882,1.945,1.53c0.535,0.668,0.94,1.431,1.193,2.25c0.277,0.888,0.415,1.813,0.408,2.742
		c0,0.091,0,0.201,0,0.324s0,0.22,0,0.298h-11.67H11.248z M21.88,26.386c-0.033-0.76-0.166-1.512-0.395-2.237
		c-0.211-0.676-0.55-1.306-0.998-1.854c-0.44-0.54-0.987-0.981-1.608-1.297c-0.671-0.329-1.411-0.493-2.159-0.48
		c-0.789-0.016-1.57,0.153-2.282,0.493c-0.638,0.313-1.206,0.755-1.666,1.297c-0.461,0.552-0.815,1.185-1.044,1.867
		c-0.244,0.708-0.397,1.444-0.454,2.191H21.88V26.386z"/>
	<path class="st89" d="M29.051,26.808l-5.29-6.866h1.524l4.538,6.049l4.538-6.049h1.381l-5.271,6.866l5.712,7.592H34.73
		l-4.947-6.775l-5.063,6.775h-1.381L29.051,26.808z"/>
</g>
<g id="hex-meteor_x60_47x54">
	<polygon class="st90" points="46.014,39.851 23.004,53.135 0,39.851 0,13.284 23.004,0 46.014,13.284 	"/>
	<g>
		<path class="st91" d="M11.185,15.32l20.14,21.333c0,0,0.686,0.484,1.211-0.081s0.121-1.129,0.121-1.129L11.185,15.32L11.185,15.32
			z"/>
		<path class="st91" d="M17.562,17.336L32.9,33.871c0,0,0.686,0.484,1.211-0.081c0.525-0.565,0.121-1.129,0.121-1.129L17.562,17.336
			L17.562,17.336z"/>
		<path class="st91" d="M13.082,21.651L28.42,38.186c0,0,0.686,0.484,1.211-0.081c0.525-0.565,0.121-1.129,0.121-1.129
			L13.082,21.651L13.082,21.651z"/>
		<path class="st91" d="M22.953,19.07l10.715,11.552c0,0,0.479,0.338,0.846-0.056c0.367-0.394,0.085-0.789,0.085-0.789L22.953,19.07
			L22.953,19.07z"/>
		<path class="st91" d="M14.558,26.652l10.715,11.552c0,0,0.479,0.338,0.846-0.056c0.367-0.394,0.085-0.789,0.085-0.789
			L14.558,26.652L14.558,26.652z"/>
		<path class="st91" d="M28.46,21.571l4.857,5.251c0,0,0.237,0.158,0.418-0.026c0.181-0.185,0.042-0.37,0.042-0.37L28.46,21.571
			L28.46,21.571z"/>
		<path class="st91" d="M17.24,31.975l4.857,5.251c0,0,0.237,0.158,0.418-0.026c0.181-0.185,0.042-0.37,0.042-0.37L17.24,31.975
			L17.24,31.975z"/>
	</g>
	<circle class="st92" cx="29.83" cy="11.865" r="1.4"/>
	<circle class="st92" cx="14.386" cy="40.649" r="1.616"/>
	<circle class="st92" cx="26.727" cy="46.325" r="0.904"/>
	<circle class="st92" cx="40.148" cy="36.75" r="0.904"/>
	<circle class="st92" cx="6.726" cy="30.418" r="1.4"/>
	<circle class="st92" cx="39.398" cy="23.534" r="0.988"/>
	<circle class="st92" cx="3.225" cy="25.984" r="0.988"/>
	<circle class="st92" cx="25.992" cy="14.78" r="0.988"/>
	<circle class="st92" cx="19.406" cy="5.597" r="0.988"/>
	<circle class="st92" cx="4.392" cy="35.381" r="0.988"/>
</g>
<g id="hex-hapi_x60_47x54">
	<polygon class="st93" points="46.061,39.906 23.051,53.189 0.047,39.906 0.047,13.338 23.051,0.054 46.061,13.338 	"/>
	<polygon class="st94" points="2.778,32.386 24.158,52.55 46.061,39.906 46.061,29.043 23.394,9.389 22.339,10.569 22.322,14.262 
		23.928,14.426 19.762,17.369 25.431,16.708 22.322,18.887 22.113,20.939 23.581,22.087 11.649,27.544 7.976,31.765 	"/>
	<path class="st2" d="M29.204,22.338c-2.092-0.477-2.793-0.905-6.333-0.905s-4.241,0.427-6.333,0.905
		c-2.379,0.543-4.065,2.654-4.065,5.095v7.293c0,1.839,1.094,3.462,2.729,4.184v-5.603c0-1.91,0.623-3.562,2.486-3.988
		c1.637-0.374,2.413-0.708,5.184-0.708s3.546,0.334,5.184,0.708c1.862,0.425,2.486,2.077,2.486,3.988v5.603
		c1.635-0.723,2.729-2.345,2.729-4.184v-7.293C33.269,24.992,31.583,22.881,29.204,22.338z"/>
	<path class="st2" d="M9.629,28.402c-1.359,0.517-2.33,1.822-2.33,3.363c0,1.541,0.971,2.846,2.33,3.363
		c0.046,0.018,2.02,0.783,2.02,0.783v-8.367C11.649,27.544,9.781,28.344,9.629,28.402z"/>
	<path class="st2" d="M36.113,35.053c1.359-0.517,2.33-1.822,2.33-3.363c0-1.541-0.971-2.846-2.33-3.363
		c-0.046-0.018-0.096-0.029-0.143-0.044l-1.877-0.738v8.367C34.093,35.911,35.961,35.111,36.113,35.053z"/>
	<polyline class="st95" points="22.322,20.364 22.322,18.887 25.431,16.708 19.762,17.369 24.335,14.467 22.322,14.262 
		22.322,11.82 	"/>
	<circle class="st2" cx="22.339" cy="10.569" r="1.589"/>
	<circle class="st2" cx="4.014" cy="31.765" r="1.236"/>
	<line class="st96" x1="7.299" y1="31.765" x2="4.014" y2="31.765"/>
	<circle class="st2" cx="41.728" cy="31.765" r="1.236"/>
	<line class="st96" x1="38.443" y1="31.765" x2="41.728" y2="31.765"/>
	<path class="st97" d="M22.602,27.322c-2.253,0-5.551,0.781-5.551-1.11s4.205-2.98,5.551-2.98s5.551,1.028,5.551,2.98
		S24.856,27.322,22.602,27.322z"/>
	<polyline class="st98" points="18.746,25.872 19.984,25.226 20.485,25.968 21.499,24.605 22.34,26.111 23.528,24.509 
		24.398,26.111 25.065,25.31 26.311,26.111 	"/>
</g>
<g id="hex-trails_x60_47x54">
	<polygon class="st99" points="46.014,39.851 23.004,53.135 0,39.851 0,13.284 23.004,0 46.014,13.284 	"/>
	<path class="st100" d="M9.622,37.293L24.77,52.115l21.244-12.264l-0.039-10.622l-21.95-19.032c0,0-0.834,10.166-0.834,16.412
		C20.216,31.672,9.622,37.293,9.622,37.293z"/>
	<path class="st101" d="M10.481,36.494V22.372c9.18-4.943,12.71-11.377,12.71-11.377v15.613
		C23.191,26.609,17.542,35.082,10.481,36.494z"/>
	<path class="st101" d="M35.901,36.494V22.372c-9.18-4.943-12.71-11.377-12.71-11.377v15.613
		C23.191,26.609,28.84,35.082,35.901,36.494z"/>
	<path class="st101" d="M23.191,26.609c0,0-5.649,8.474-12.71,9.886h25.421C28.84,35.082,23.191,26.609,23.191,26.609z"/>
	<path class="st2" d="M23.191,32.415c0,0-2.04,3.206-4.739,4.08h9.479C25.231,35.62,23.191,32.415,23.191,32.415z"/>
</g>
<g id="hex-ghost_x60_46x54">
	<polygon class="st102" points="45.98,39.822 22.987,53.096 0,39.822 0,13.274 22.987,0 45.98,13.274 	"/>
	<polygon class="st103" points="32.101,17.494 28.522,21.06 24.778,17.462 13.897,21.056 17.534,24.766 13.897,28.343 
		17.477,32.062 13.885,35.641 27.935,50.239 45.98,39.822 45.98,31.923 	"/>
	<rect x="28.512" y="17.45" class="st2" width="3.563" height="3.601"/>
	<rect x="13.891" y="17.45" class="st2" width="10.906" height="3.601"/>
	<rect x="13.891" y="24.744" class="st2" width="18.185" height="3.601"/>
	<rect x="24.867" y="32.038" class="st2" width="7.208" height="3.601"/>
	<rect x="13.891" y="32.038" class="st2" width="7.264" height="3.601"/>
</g>
<g id="hex-denali_x60_46x54">
	<polygon class="st2" points="0.211,39.677 0.211,13.388 22.973,0.244 45.742,13.388 45.742,39.677 22.973,52.821 	"/>
	<path class="st21" d="M22.973,0L0,13.266v26.532l22.973,13.266l22.98-13.266V13.266L22.973,0z M22.974,6.928l16.979,9.802v7.486
		l-7.539-4.304l-11.006,6.251l-5.119-3.019L6,29.178V16.73L22.974,6.928z M22.974,46.136L6,36.335v-0.202l10.281-6.027l10.824,6.385
		l3.049-5.168l-2.786-1.643l5.039-2.862l7.547,4.308v5.209L22.974,46.136z"/>
</g>
<g id="hex-adonis_x60_46x54">
	<polygon class="st104" points="45.936,39.784 22.965,53.045 0,39.784 0,13.261 22.965,0 45.936,13.261 	"/>
	<polygon class="st105" points="7.833,37.069 17.709,50.034 23.005,53.045 45.936,39.784 45.936,39.034 22.968,10.909 	"/>
	<g>
		<polygon class="st2" points="23.016,12.378 18.877,19.548 27.156,19.548 		"/>
	</g>
	<g>
		<polygon class="st2" points="23.016,27.773 27.156,20.604 18.877,20.604 		"/>
	</g>
	<g>
		<polygon class="st2" points="22.144,28.209 18.004,21.039 13.865,28.209 		"/>
	</g>
	<g>
		<polygon class="st2" points="22.136,29.213 13.857,29.213 17.997,36.383 		"/>
	</g>
	<g>
		<polygon class="st2" points="32.156,29.213 23.877,29.213 28.017,36.383 		"/>
	</g>
	<g>
		<polygon class="st2" points="12.991,29.707 8.852,36.877 17.131,36.877 		"/>
	</g>
	<g>
		<polygon class="st2" points="33.015,29.707 28.875,36.877 37.154,36.877 		"/>
	</g>
	<g>
		<polygon class="st2" points="23.897,28.201 32.176,28.201 28.036,21.032 		"/>
	</g>
</g>
<g id="hex-totaljs_x60_46x54">
	<path class="st106" d="M22.965,0L0,13.261v26.523l22.965,13.261l22.971-13.261V13.261L22.965,0z M32.097,31.793l-9.13,5.271
		l-9.127-5.271V21.252l9.127-5.271l9.13,5.271V31.793z"/>
	<polygon class="st107" points="11.854,46.629 0,39.784 0,13.261 11.802,6.446 21.012,26.523 	"/>
	<polyline class="st108" points="17.258,18.725 9.39,18.725 12.968,26.525 9.466,34.214 17.133,34.214 	"/>
</g>
<g id="hex-nodal_x60_46x54">
	<polygon class="st109" points="45.936,39.784 22.965,53.045 0,39.784 0,13.261 22.965,0 45.936,13.261 	"/>
	<polygon class="st110" points="9.357,35.543 23.005,53.045 45.936,39.784 45.936,28.764 36.579,17.243 29.747,13.306 
		23.211,17.947 16.695,13.847 	"/>
	<g>
		<polygon class="st2" points="9.357,35.543 9.357,17.243 16.138,12.722 36.579,35.543 29.7,40.128 16.526,31.305 16.526,40.323 		
			"/>
	</g>
	<g>
		<path class="st2" d="M16.507,31.085l5.996,3.58l-5.996,4.444l-0.001,0V31.085 M15.507,29.324v10.321l1.031,0.687l7.766-5.756
			L15.507,29.324L15.507,29.324z"/>
	</g>
	<g>
		<path class="st2" d="M29.862,14.005l5.718,3.776v17.227l-0.113,0.076L17.152,14.637l11.142,7.693l1.568,1.083v-1.906V14.005
			 M29.734,12.722l-0.872,0.585v8.201l-12.724-8.785l-1.28,0.853l20.441,22.821l1.28-0.853v-18.3L29.734,12.722L29.734,12.722z"/>
	</g>
	<g>
		<polygon class="st2" points="22.564,17.526 29.701,22.158 29.734,12.722 		"/>
	</g>
</g>
<g id="hex-feathers_x60_47x54">
	<polygon class="st2" points="46.374,40.163 23.184,53.55 0,40.163 0,13.388 23.184,0 46.374,13.388 	"/>
	<polygon class="st71" points="45.676,39.76 23.184,52.745 0.698,39.76 0.698,13.79 23.184,0.806 45.676,13.79 	"/>
	<path class="st111" d="M22.37,32.331c0,0,0,2.201,0,5.234c0,3.033,0.819,6.726,0.819,6.726"/>
	<path class="st112" d="M25.128,29.17l3.674-0.915c-0.003-2.459-0.045-5.489-0.45-8.095l-3.202,0.051l2.889-1.663
		c-0.119-0.487-0.255-0.949-0.414-1.372c-1.533-4.075-4.412-5.584-4.412-5.584s-2.755,1.801-4.244,5.707
		c-0.871,2.285-1.197,5.39-1.321,8.289l2.58,1.736l-2.628-0.369c-0.024,1.003-0.029,1.963-0.029,2.823
		c0,0.452,0.032,0.875,0.077,1.283l2.362,0.534l-2.189,0.526c0.754,3.348,3.115,4.92,5.339,4.92c2.607,0,5.449-1.754,5.625-7.076
		L25.128,29.17z"/>
	<line class="st113" x1="23.381" y1="21.669" x2="23.381" y2="37"/>
</g>
<g id="hex-keystonejs_x60_46x54">
	<polygon class="st114" points="45.936,39.784 22.965,53.045 0,39.784 0,13.261 22.965,0 45.936,13.261 	"/>
	<polygon class="st115" points="14.712,37.863 25.277,51.731 45.936,39.784 45.936,30.473 33.49,15.232 23.745,20.333 
		19.571,15.222 	"/>
	<path class="st2" d="M21.338,28.776l-1.762,2.101v6.946h-4.812V15.222h4.812V25.32l7.997-10.098h5.93l-8.979,10.606l9.589,11.995
		h-5.93L21.338,28.776z"/>
	<path class="st115" d="M33.503,15.222"/>
</g>
<g id="hex-donejs_x60_46x54">
	<polygon class="st116" points="45.936,39.784 22.965,53.045 0,39.784 0,13.261 22.965,0 45.936,13.261 	"/>
	<polygon class="st112" points="9.021,37.491 19.638,51.047 23.005,53.045 45.936,39.784 45.936,27.378 36.915,16.154 
		14.691,16.132 	"/>
	<g>
		<polygon class="st2" points="9.021,37.511 13.479,20.7 35.704,20.7 32.409,33.123 12.947,33.123 10.152,37.511 		"/>
	</g>
	<polygon class="st112" points="17.895,26.933 12.957,26.933 11.667,31.798 16.604,31.798 	"/>
	<g>
		<polygon class="st2" points="19.185,22.068 14.248,22.068 12.957,26.933 17.895,26.933 		"/>
	</g>
	<g>
		<polygon class="st2" points="22.832,26.933 17.895,26.933 16.604,31.798 21.542,31.798 		"/>
	</g>
	<polygon class="st112" points="24.122,22.068 19.185,22.068 17.895,26.933 22.832,26.933 	"/>
	<g>
		<polygon class="st2" points="32.707,26.933 27.769,26.933 26.479,31.798 31.416,31.798 		"/>
	</g>
	<polygon class="st112" points="33.997,22.068 29.06,22.068 27.769,26.933 32.707,26.933 	"/>
	<polygon class="st112" points="27.769,26.933 22.832,26.933 21.542,31.798 26.479,31.798 	"/>
	<g>
		<polygon class="st2" points="29.06,22.068 24.122,22.068 22.832,26.933 27.769,26.933 		"/>
	</g>
	<polygon class="st117" points="35.341,22.068 13.117,22.068 14.691,16.132 36.915,16.132 	"/>
	<polygon class="st2" points="34.085,20.358 19.638,20.358 20.306,17.841 34.753,17.841 	"/>
	<path class="st112" d="M18.411,19.1c-0.184,0.695-0.897,1.259-1.593,1.259c-0.695,0-1.109-0.564-0.925-1.259
		c0.184-0.695,0.897-1.259,1.593-1.259C18.181,17.841,18.595,18.404,18.411,19.1z"/>
</g>
<g id="hex-koa_x60_47x54">
	<polygon class="st2" points="46.374,40.163 23.184,53.55 0,40.163 0,13.388 23.184,0 46.374,13.388 	"/>
	<polygon class="st71" points="45.676,39.76 23.184,52.745 0.698,39.76 0.698,13.79 23.184,0.806 45.676,13.79 	"/>
	<rect x="18.209" y="13.426" class="st112" width="2.646" height="25.687"/>
	<polygon class="st112" points="30.899,39.113 28.253,39.113 21.676,29.226 23.188,27.52 	"/>
	<line class="st118" x1="20.348" y1="30.725" x2="28.794" y2="21.191"/>
</g>
<g id="hex-horizon_x60_46x54">
	<linearGradient id="SVGID_7_" gradientUnits="userSpaceOnUse" x1="22.968" y1="0.2418" x2="22.968" y2="26.4331">
		<stop  offset="0" style="stop-color:#EB4B7A"/>
		<stop  offset="1" style="stop-color:#F9B581"/>
	</linearGradient>
	<polygon class="st119" points="45.936,39.784 22.965,53.045 0,39.784 0,13.261 22.965,0 45.936,13.261 	"/>
	<path class="st120" d="M33.402,26.522H12.534c0-5.762,4.671-10.434,10.434-10.434S33.402,20.76,33.402,26.522z"/>
	<polygon class="st121" points="45.936,39.784 22.965,53.045 0,39.784 0,26.522 45.936,26.522 	"/>
	<path class="st122" d="M0,26.522h45.936v2.067c0,0-2.239,3.839-8.957,4.651c-6.718,0.812-12.874,0.703-12.874,2.031
		c0,1.586,6.968,1.586,6.968,3.21c0,3.937-22.774,6.094-22.774,6.094L0,39.784V26.522z"/>
</g>
<g id="hex-hanami_x60_46x54">
	<polygon class="st123" points="45.953,39.799 22.973,53.065 0,39.799 0,13.266 22.973,0 45.953,13.266 	"/>
	<path class="st124" d="M45.953,33.449l-14.78-14.961c0,0-9.055-5.581-15.222,0.794S13.91,33.608,13.91,33.608l15.032,16.01
		l17.01-9.82V33.449z"/>
	<path class="st28" d="M12.746,20.564"/>
	<path class="st2" d="M22.976,38.022c-6.335,0-11.49-5.154-11.49-11.49c0-6.336,5.154-11.49,11.49-11.49
		c6.336,0,11.49,5.154,11.49,11.49C34.466,32.868,29.312,38.022,22.976,38.022z M22.976,17.506c-4.977,0-9.027,4.049-9.027,9.027
		c0,4.977,4.049,9.027,9.027,9.027c4.978,0,9.027-4.049,9.027-9.027C32.003,21.555,27.954,17.506,22.976,17.506z"/>
	<polygon class="st2" points="26.237,22.851 19.34,22.851 17.633,24.983 22.788,31.426 27.943,24.983 	"/>
</g>
<g id="hex-sinatra_x60_46x54">
	<polygon class="st125" points="45.998,39.766 22.999,53.065 0,39.766 0,13.298 22.999,0 45.998,13.298 	"/>
	<polygon class="st21" points="7.645,32.571 25.312,51.651 45.934,39.831 45.934,32.122 37.968,22.035 36.426,22.806 32.057,16.832 
		22.871,25.183 	"/>
	<path class="st126" d="M7.131,30.387c0-2.57,5.975-6.36,15.483-9.251c4.882-1.478,9.572-1.67,12.849-0.578
		c3.276,1.092,4.176,3.726,4.176,6.232c0,3.919-7.131,8.801-14.647,9.444C17.474,36.876,7.131,36.233,7.131,30.387z"/>
	<path class="st126" d="M13.62,23.963c0,0,0.514-3.405,0.578-4.112c0.321-2.891,2.056-3.598,4.369-4.047
		c1.537-0.334,3.135-0.245,4.626,0.257c0.642,0.257-6.039,2.056-5.589,2.505c1.221,1.092,9.123-3.919,12.913-2.762
		c1.349,0.45,1.67,0.899,2.505,3.983c0.257,0.899,1.092,4.69,1.092,4.69c-0.866,1.339-2.326,2.176-3.919,2.249
		c-2.634,0.064-7.902,0.257-10.472,0.064S13.877,25.826,13.62,23.963z"/>
	<path class="st22" d="M34.434,25.826c0,0,0.642,2.12-3.405,3.855c-2.377,1.028-7.067,1.992-11.5,1.992
		c-2.57,0-5.975-1.67-6.232-3.533l0.321-4.176c0.257,1.863,3.598,2.57,6.167,2.827s7.709-0.128,10.536-1.092
		c1.382-0.441,2.623-1.239,3.598-2.313L34.434,25.826z"/>
</g>
<g id="hex-rails_x60_46x54">
	<polygon class="st127" points="45.953,39.799 22.973,53.065 0,39.799 0,13.266 22.973,0 45.953,13.266 	"/>
	<polygon class="st128" points="30.066,11.153 28.029,14.056 23.314,9.283 22.678,12.842 26.674,16.755 23.757,21.791 
		18.508,16.607 14.423,17.012 22.125,24.612 19.453,29.211 14.121,23.95 10.388,25.691 17.448,32.655 15.675,35.7 12.213,32.218 
		8.827,35.16 24.701,52.067 45.953,39.799 45.953,28.299 	"/>
	<path class="st28" d="M12.746,20.564"/>
	<path class="st28" d="M13.735,39.387c-0.373-12.849,3.617-23.931,16.331-28.235l0.989,1.927c-7.433,5.101-8.544,15.38-5.274,26.23
		L13.735,39.387z"/>
	
		<rect x="8.981" y="32.174" transform="matrix(0.0698 -0.9976 0.9976 0.0698 -23.8496 41.9529)" class="st28" width="3.181" height="3.181"/>
	<polygon class="st28" points="13.26,26.59 10.388,25.646 11.326,22.774 14.121,23.956 	"/>
	<polygon class="st28" points="16.812,18.624 14.423,17.012 16.472,14.59 18.515,16.607 	"/>
	<polygon class="st28" points="22.729,12.842 21.104,10.812 23.436,9.283 24.689,11.557 	"/>
	<polygon class="st28" points="29.982,36.374 27.066,36.169 26.359,33.188 29.121,33.381 	"/>
	<polygon class="st28" points="28.62,30.214 25.935,29.745 25.877,27.117 28.273,27.837 	"/>
	<polygon class="st28" points="28.248,25.382 26.115,24.515 26.783,22.19 28.62,23.5 	"/>
	<polygon class="st28" points="29.141,20.982 27.702,19.395 29.031,17.532 30.014,19.421 	"/>
</g>
<g id="hex-buffalo_x60_47x54">
	<polygon class="st129" points="46.697,40.441 23.348,53.922 0,40.441 0,13.481 23.348,0 46.697,13.481 	"/>
	<polygon class="st130" points="11.34,46.989 23.348,53.922 35.356,47.01 35.356,28.819 11.34,28.819 	"/>
	<g>
		<path class="st131" d="M23.348,16.81c-6.604,0-12.008,5.404-12.008,12.008s5.404,12.008,12.008,12.008s12.008-5.404,12.008-12.008
			S29.952,16.81,23.348,16.81z"/>
	</g>
	<circle class="st2" cx="18.094" cy="25.955" r="3.811"/>
	<circle class="st2" cx="28.893" cy="25.955" r="3.811"/>
	<path class="st2" d="M21.974,34.794c0,0.383,0.312,0.695,0.695,0.695c0.382,0,0.694-0.311,0.694-0.695v-2.201h-1.389V34.794z"/>
	<path class="st2" d="M23.7,32.593v2.201c0,0.383,0.311,0.695,0.695,0.695c0.383,0,0.694-0.311,0.694-0.695v-2.201H23.7z"/>
	<circle class="st132" cx="28.893" cy="25.955" r="1.151"/>
	<circle class="st132" cx="18.095" cy="25.955" r="1.151"/>
	<circle class="st133" cx="37.928" cy="35.952" r="1.238"/>
	<rect x="35.14" y="34.714" class="st130" width="2.788" height="2.476"/>
	<circle class="st133" cx="8.768" cy="35.952" r="1.238"/>
	<rect x="8.768" y="34.714" class="st130" width="2.789" height="2.476"/>
	<ellipse class="st134" cx="25.697" cy="32.058" rx="1.142" ry="1.133"/>
	<ellipse class="st134" cx="21.417" cy="32.058" rx="1.142" ry="1.133"/>
	<path class="st134" d="M21.905,33.081c0.79-0.488,2.037-0.811,3.094-0.129c1.055,0.683,1.424-1.765,1.424-1.765
		c-1.238-0.775-3.624-1.132-5.636-0.075L21.905,33.081z"/>
	<ellipse class="st132" cx="23.58" cy="30.454" rx="1.696" ry="1.008"/>
	<path class="st130" d="M12.931,15.249l-2.77,1.001c-0.672,0.223-0.702,0.945-0.049,1.199l2.88,1.124l2.059-1.764L12.931,15.249z"/>
	<path class="st130" d="M33.917,15.249l2.77,1.001c0.672,0.223,0.702,0.945,0.049,1.199l-2.88,1.124l-2.059-1.764L33.917,15.249z"/>
	<path class="st135" d="M17.619,13.991c-1.218,0-3.074-1.158-4.135-1.897c-0.398-0.277-0.953-0.022-0.985,0.462
		c-0.073,1.109,0.087,2.873,1.506,4.254C16.245,18.991,17.619,13.991,17.619,13.991z"/>
	<path class="st135" d="M29.368,13.991c1.218,0,3.074-1.158,4.135-1.897c0.398-0.277,0.953-0.022,0.985,0.462
		c0.073,1.109-0.087,2.873-1.506,4.254C30.742,18.991,29.368,13.991,29.368,13.991z"/>
	<path class="st136" d="M35.467,31.11c0,0-0.623,2.957-3.087,4.211c0,0-1.627-0.504-2.504,0c-0.876,0.504-2.209,1.869-2.209,1.869
		s-0.214,0.201-1.408,0c-0.746-0.126-1.993-0.107-2.855,0.331c-0.862-0.438-2.109-0.457-2.855-0.331c-1.194,0.201-1.408,0-1.408,0
		s-1.333-1.365-2.21-1.869c-0.876-0.504-2.504,0-2.504,0c-2.463-1.254-3.087-4.211-3.087-4.211s-1.117,1.548-1.055,3.456
		s2.272,3.842,2.272,3.842h0.71c0,0,1.04,2,2.412,2.833c1.372,0.833,2.795,0.167,2.795,0.167s0.206,0.781,1.519,1.583
		c1.452,0.887,2.644,0.645,3.412,0.261c0.768,0.384,1.96,0.626,3.412-0.261c1.313-0.803,1.519-1.583,1.519-1.583
		s1.423,0.667,2.795-0.167c1.372-0.833,2.412-2.833,2.412-2.833h0.71c0,0,2.21-1.934,2.272-3.842S35.467,31.11,35.467,31.11z"/>
	<path class="st130" d="M37.812,27.704c0-6.296-6.07-12.962-7.86-13.212c-1.485-0.207-5.113-0.414-6.311-0.479v-0.021
		c0,0-0.074,0.004-0.199,0.01c-0.125-0.007-0.199-0.01-0.199-0.01v0.021c-1.198,0.065-4.826,0.272-6.311,0.479
		c-1.79,0.25-7.86,6.917-7.86,13.212c0,4.152,4.487,7.01,4.487,7.01s-1.073-5.111-1.073-7.55c0-4.089,1.281-7.973,10.957-6.286
		c9.449-1.686,11.062,2.156,11.062,6.286c0,2.44-1.178,7.55-1.178,7.55S37.812,31.856,37.812,27.704z"/>
	<path class="st137" d="M25.181,22.41l-1.145,0.256c-0.453,0.101-0.923,0.101-1.376,0l-1.145-0.256
		c-1.063-0.238-1.733-1.29-1.5-2.354l0.077-0.348c0.199-0.905,1-1.549,1.926-1.549h2.659c0.926,0,1.728,0.645,1.926,1.549
		l0.077,0.348C26.914,21.119,26.244,22.172,25.181,22.41z"/>
	<path class="st136" d="M27.969,12.741c-0.083-1.083-1.25-1.583-2.428-1.417c-0.234-0.97-1.777-1.005-2.1-1.001
		c-0.323-0.003-1.866,0.031-2.1,1.001c-1.178-0.167-2.344,0.333-2.428,1.417c-1.5,0.333-1.876,0.833-1.876,1.75
		c0,1.75,1.876,2.417,1.876,2.417v-0.75l2.428,1.833V16.81l2.031,1.652v0.113l0.069-0.056l0.069,0.056v-0.113l2.031-1.652v1.181
		l2.428-1.833v0.75c0,0,1.876-0.667,1.876-2.417C29.845,13.575,29.469,13.075,27.969,12.741z"/>
	<path class="st136" d="M20.195,20.346c-0.077,0-0.146,0.028-0.218,0.044c-0.033,0.715,0.326,1.38,0.918,1.755
		c0.206-0.19,0.34-0.457,0.34-0.759C21.235,20.812,20.769,20.346,20.195,20.346z"/>
	<path class="st136" d="M25.462,21.386c0,0.302,0.134,0.569,0.34,0.759c0.592-0.374,0.951-1.039,0.917-1.755
		c-0.072-0.016-0.141-0.044-0.218-0.044C25.928,20.346,25.462,20.812,25.462,21.386z"/>
	<circle class="st2" cx="16.111" cy="17.953" r="1.751"/>
	<circle class="st138" cx="15.111" cy="17.953" r="0.529"/>
	<circle class="st2" cx="30.62" cy="17.953" r="1.751"/>
	<circle class="st138" cx="31.62" cy="17.953" r="0.529"/>
</g>
<g id="hex-grav_x60_46x54">
	<polygon class="st139" points="45.936,39.784 22.965,53.045 0,39.784 0,13.261 22.965,0 45.936,13.261 	"/>
	<polygon class="st140" points="33.494,13.59 27.155,13.65 24.181,9.465 21.725,12.473 23.704,17.422 18.275,23.318 10.745,32.985 
		15.237,39.069 12.954,42.255 19.751,51.159 23.005,53.045 45.936,39.784 45.936,28.826 	"/>
	<path class="st141" d="M35.686,28.109c-0.29-0.523-0.776-1.231-1.505-2.014c-1.121-0.999-3.051-0.539-3.051-0.539
		s0.972-0.674,1.972-0.506c0.027-0.53-0.008-1.1-0.795-2.089c0,0,0.334-1.025,0.021-1.87c1.3-0.713,2.246-2.023,2.427-3.608
		c0.297-2.593-1.568-4.935-4.164-5.231c-1.85-0.211-3.571,0.675-4.516,2.139c-0.411,0.736-1.128,1.833-0.641,3.713
		c0.09,0.297,0.236,0.673,0.475,1.119c0.459,0.834,1.165,1.521,2.031,1.953c0,0-1.84-0.177-2.844-1.686
		c-0.014-0.018-0.028-0.035-0.043-0.055c-0.007-0.014-0.013-0.027-0.021-0.04c-0.189-0.307-0.341-0.667-0.442-1.086
		c-0.607-2.128,0.231-4.155,0.741-5.111c-0.378-0.494-0.681-0.757-0.681-0.757c-1.136,0.008-2.05,0.439-2.05,0.439
		s1.001-1.259,2.105-1.202c0.009-0.533-0.041-1.244-0.308-1.793c-0.501-1.03-1.895-0.775-2.306-0.289
		c-0.152,0.179-0.25,0.288-0.396,0.628c0.024-0.057,0.054-0.112,0.086-0.166c-0.395,0.993-0.09,4.678,1.416,7.292
		c-0.205,0.103-0.763,0.509-1.082,0.835c0,0-1.056,0.794-3.94,5.029c0,0,0.001,0.001,0.001,0.001
		c-2.461,0.947-4.025,2.001-5.016,3.015c-0.068,0.064-0.131,0.13-0.19,0.197c-0.006,0.007-0.012,0.014-0.018,0.02
		c-0.01,0.012-0.022,0.024-0.032,0.036c-0.008,0.009-0.014,0.017-0.022,0.027c-0.236,0.268-0.434,0.531-0.598,0.788
		c-0.834,1.214-0.908,1.978-0.774,2.567c0,0.001,0.001,0.003,0.002,0.004c0.024,0.259,0.117,0.463,0.265,0.616
		c-0.229,0.195-0.471,0.432-0.711,0.714c-0.977,1.154-0.424,2.927,1.5,2.036c1.323-0.612,2.508-1.689,3.042-2.557
		c-0.479-0.413-1.366-0.373-1.366-0.373l1.664-0.397c0.752-0.235,1.595-0.381,2.277-0.351l-0.002-0.009
		c0.664,0,0.974-1.415,1.008-2.439c0.001-0.137,0.001-0.274-0.003-0.414c0-0.003,0-0.005,0-0.007
		c-0.033-1.189-0.259-2.479-0.927-3.372c0.988,1.029,1.972,2.697,1.898,4.976c0,0-0.086,1.523-1.274,1.902
		c-0.756,1.401-3.609,5.518-2.533,8.854c-0.814-1.249-0.868-1.842-0.868-1.842s-2.546,2.826-2.706,4.055
		c-0.149,0.49-0.024,0.966,0.636,1.327c2.228,1.22,9.112-7.387,10.559-11.884c2.899-1.733,4.617-3.936,5.353-5.418
		c1.076,2.163,2.312,3.369,4.474,4.796c2.305,1.519,3.775,1.506,3.994,0.167C38.029,28.908,36.101,28.855,35.686,28.109z
		 M22.549,22.678c-0.243,0.242-0.636,0.242-0.878,0c-0.243-0.242-0.243-0.635,0-0.877c0.242-0.242,0.636-0.242,0.878,0
		C22.792,22.042,22.792,22.435,22.549,22.678z M22.984,20.489c0.243-0.242,0.636-0.242,0.878,0c0.243,0.242,0.243,0.635,0,0.877
		c-0.243,0.242-0.636,0.242-0.878,0C22.741,21.124,22.741,20.731,22.984,20.489z M26.369,24.383l-0.808,0.807
		c-0.379,0.379-0.995,0.379-1.374,0l-0.887-0.887c-0.38-0.379-0.38-0.994,0-1.373l0.808-0.807c0.379-0.379,0.995-0.379,1.374,0
		l0.887,0.887C26.749,23.389,26.749,24.003,26.369,24.383z M27.731,20.693c-1.664-1.189-2.819-3.598-1-5.675
		c1.82-2.077,3.413-1.429,5.011,0.072c0.997,0.935,2.448,2.075,1.423,4.026C32.136,21.066,29.395,21.882,27.731,20.693z"/>
	<path class="st141" d="M30.408,18.315c0.642,0.767,2.693,0.204,1.309-1.329C30.965,16.155,29.767,17.548,30.408,18.315z"/>
</g>
<g id="hex-discourse_x60_46x54">
	<linearGradient id="SVGID_8_" gradientUnits="userSpaceOnUse" x1="2.1269" y1="13.1467" x2="44.3769" y2="40.2717">
		<stop  offset="0" style="stop-color:#FAF09B"/>
		<stop  offset="1" style="stop-color:#82DDFF"/>
	</linearGradient>
	<polygon class="st142" points="45.953,39.799 22.973,53.065 0,39.799 0,13.266 22.973,0 45.953,13.266 	"/>
	<linearGradient id="SVGID_9_" gradientUnits="userSpaceOnUse" x1="3.1263" y1="14.6557" x2="38.7513" y2="43.2807">
		<stop  offset="0" style="stop-color:#F2E88F"/>
		<stop  offset="1" style="stop-color:#00AEEF"/>
	</linearGradient>
	<path class="st143" d="M45.953,30.003l-14.78-14.961c0,0-9.055-2.136-15.222,4.239s-5.705,19.857-5.705,19.857L23.2,52.934
		l22.753-13.136V30.003z"/>
	<path class="st28" d="M12.746,20.564"/>
	<path class="st2" d="M22.976,38.022c-6.335,0-11.49-5.154-11.49-11.49c0-6.336,5.154-11.49,11.49-11.49
		c6.336,0,11.49,5.154,11.49,11.49C34.466,32.868,29.312,38.022,22.976,38.022z M22.976,17.506c-4.977,0-9.027,4.049-9.027,9.027
		c0,4.977,4.049,9.027,9.027,9.027c4.978,0,9.027-4.049,9.027-9.027C32.003,21.555,27.954,17.506,22.976,17.506z"/>
	<polygon class="st2" points="26.237,22.851 19.34,22.851 17.633,24.983 22.788,31.426 27.943,24.983 	"/>
	<path class="st144" d="M23.514,12.389c-7.274,0-13.398,5.897-13.398,13.171c0,0.235,0.005,13.639,0.005,13.639l13.393-0.014
		c7.274,0,13.172-6.124,13.172-13.398C36.685,18.513,30.788,12.389,23.514,12.389z"/>
	<path class="st145" d="M23.641,17.487c-4.509,0-8.164,3.655-8.164,8.164c0,1.409,0.357,2.734,0.985,3.891l-1.476,4.753l5.305-1.2
		c1.022,0.46,2.155,0.719,3.349,0.719c4.508,0,8.164-3.655,8.164-8.164C31.805,21.142,28.15,17.487,23.641,17.487z"/>
	<path class="st146" d="M30.12,20.686c1.056,1.376,1.685,3.096,1.685,4.965c0,4.509-3.655,8.164-8.164,8.164
		c-1.194,0-2.327-0.259-3.349-0.719l-5.305,1.2l5.402-0.639c0.968,0.564,2.068,0.94,3.256,1.065
		c4.484,0.472,8.501-2.782,8.972-7.265C32.892,24.834,31.893,22.373,30.12,20.686z"/>
	<path class="st147" d="M28.615,19.179c1.194,1.258,1.999,2.903,2.194,4.761c0.471,4.484-2.782,8.501-7.265,8.972
		c-1.188,0.125-2.342-0.014-3.406-0.365l-5.151,1.748l5.305-1.2c1.022,0.46,2.155,0.719,3.349,0.719
		c4.508,0,8.164-3.655,8.164-8.164C31.805,23.014,30.554,20.671,28.615,19.179z"/>
	<path class="st148" d="M16.952,29.722c-0.504-1.216-0.72-2.571-0.573-3.973c0.471-4.484,4.488-7.737,8.972-7.266
		c1.862,0.196,3.51,1.004,4.769,2.203c-1.492-1.944-3.839-3.199-6.479-3.199c-4.509,0-8.164,3.655-8.164,8.164
		c0,1.409,0.357,2.734,0.985,3.891l-1.476,4.753L16.952,29.722z"/>
	<path class="st149" d="M16.463,29.542c-0.628-1.157-0.985-2.482-0.985-3.891c0-4.509,3.655-8.164,8.164-8.164
		c1.872,0,3.596,0.632,4.974,1.692c-1.688-1.778-4.152-2.781-6.778-2.504c-4.484,0.471-7.737,4.488-7.265,8.972
		c0.147,1.401,0.641,2.682,1.387,3.767l-0.971,4.882L16.463,29.542z"/>
</g>
<g id="hex-echo_x60_46x53">
	<polygon class="st150" points="45.854,39.713 22.924,52.951 0,39.713 0,13.238 22.924,0 45.854,13.238 	"/>
	<polygon class="st151" points="38.137,16.577 32.775,13.481 22.934,19.152 12.835,13.321 7.717,16.258 7.717,34.424 24.41,51.958 
		45.854,39.713 45.875,24.364 	"/>
	<polygon class="st2" points="12.622,19.921 8.467,17.508 8.467,22.306 12.622,24.705 	"/>
	<polygon class="st2" points="17.538,22.753 13.383,20.34 13.383,25.138 17.538,27.537 	"/>
	<polygon class="st2" points="22.453,25.585 18.299,23.171 18.299,27.969 22.453,30.369 	"/>
	<polygon class="st2" points="12.622,25.763 8.467,23.35 8.467,28.148 12.622,30.547 	"/>
	<polygon class="st2" points="17.538,28.595 13.383,26.181 13.383,30.979 17.538,33.378 	"/>
	<polygon class="st2" points="22.453,31.426 18.299,29.013 18.299,33.811 22.453,36.21 	"/>
	<polygon class="st2" points="12.622,31.606 8.467,29.193 8.467,33.991 12.622,36.39 	"/>
	<polygon class="st2" points="17.538,34.438 13.383,32.025 13.383,36.823 17.538,39.222 	"/>
	<polygon class="st2" points="22.453,37.27 18.299,34.856 18.299,39.654 22.453,42.053 	"/>
	<polygon class="st152" points="12.834,14.187 8.667,16.578 12.822,18.977 16.977,16.578 	"/>
	<polygon class="st152" points="17.893,17.107 13.726,19.499 17.881,21.898 22.036,19.499 	"/>
	<polygon class="st153" points="22.954,20.029 18.787,22.42 22.942,24.819 27.097,22.421 	"/>
	<polygon class="st152" points="22.954,20.029 18.787,22.42 22.942,24.819 	"/>
	<polygon class="st153" points="27.864,17.188 23.697,19.579 27.852,21.978 32.007,19.58 	"/>
	<polygon class="st153" points="32.774,14.346 28.607,16.738 32.762,19.137 36.917,16.738 	"/>
	<polygon class="st154" points="33.233,19.921 37.387,17.508 37.387,22.306 33.233,24.705 	"/>
	<polygon class="st154" points="28.317,22.753 32.471,20.34 32.471,25.138 28.317,27.537 	"/>
	<polygon class="st154" points="23.401,25.585 27.556,23.171 27.556,27.969 23.401,30.369 	"/>
	<polygon class="st154" points="33.233,25.763 37.387,23.35 37.387,28.148 33.233,30.547 	"/>
	<polygon class="st154" points="28.317,28.595 32.471,26.181 32.471,30.979 28.317,33.378 	"/>
	<polygon class="st154" points="23.401,31.426 27.556,29.013 27.556,33.811 23.401,36.21 	"/>
	<polygon class="st154" points="33.233,31.606 37.387,29.193 37.387,33.991 33.233,36.39 	"/>
	<polygon class="st154" points="28.317,34.438 32.471,32.025 32.471,36.823 28.317,39.222 	"/>
	<polygon class="st154" points="23.401,37.27 27.556,34.856 27.556,39.654 23.401,42.053 	"/>
</g>
<g id="hex-firestorm_x60_47x54">
	<polygon class="st2" points="46.374,40.163 23.184,53.55 0,40.163 0,13.388 23.184,0 46.374,13.388 	"/>
	<polygon class="st71" points="45.676,39.76 23.184,52.745 0.698,39.76 0.698,13.79 23.184,0.806 45.676,13.79 	"/>
	<polygon id="lighning" class="st155" points="14.85,25.273 27.223,37.163 20.075,37.539 21.626,39.213 13.395,42.762 
		16.219,38.959 12.424,35.07 16.484,32.115 13.093,28.639 	"/>
	<path id="fire" class="st156" d="M22.963,15.549c0.338,1.671,2.025,3.142,2.018,4.326c-0.007,1.184-1.28,2.077-2.466,2.018
		c-2.636-0.13-2.825-5.174-2.825-5.174s-1.884,1.965-2.557,2.785c-0.673,0.82-1.345,2.841-1.345,3.062l14.409,13.919
		c0,0,3.936-1.951,3.746-8.737c-0.191-6.832-3.306-10.189-6.078-12.198c-2.638-1.911-2.533-4.177-2.533-4.177
		S22.625,13.878,22.963,15.549z"/>
</g>
</svg>
