<?xml version="1.0" encoding="iso-8859-1"?>
<!-- Generator: Adobe Illustrator 20.1.0, SVG Export Plug-In . SVG Version: 6.00 Build 0)  -->
<svg version="1.1" id="Layer_1" xmlns="http://www.w3.org/2000/svg" xmlns:xlink="http://www.w3.org/1999/xlink" x="0px" y="0px"
	 viewBox="0 0 200 200" style="enable-background:new 0 0 200 200;" xml:space="preserve">
<style type="text/css">
	.st0{fill:#EF3942;}
	.st1{clip-path:url(#SVGID_2_);fill:#B52B32;}
	.st2{fill:#FFD6D9;}
	.st3{fill:#FFA7AD;}
	.st4{fill:#FFC0C4;}
	.st5{fill:#FF9399;}
	.st6{fill:#D3D3D3;}
	.st7{fill:#FFD9DB;}
	.st8{fill:#FFBDC0;}
	.st9{fill:#FFFFFF;}
	.st10{fill:#FF616B;}
	.st11{fill:#FF868D;}
	.st12{fill:#FFDEE0;}
	.st13{fill:#FF747C;}
	.st14{fill:#98CF70;}
	.st15{clip-path:url(#SVGID_4_);fill:#81B05F;}
	.st16{fill:#A1CCCC;}
	.st17{fill:#FFA3A9;}
	.st18{fill:none;stroke:#C4C9C9;stroke-width:2;stroke-miterlimit:10;}
	.st19{fill:#ABB0B0;}
	.st20{fill:#6FDBC2;}
	.st21{fill:#CCEBE4;}
	.st22{fill:#8AC2B5;}
	.st23{fill:#7FC4B4;}
	.st24{fill:#5FC9B1;}
	.st25{fill:#86E6D0;}
	.st26{fill:#A5C7D1;}
	.st27{fill:#68A1B2;}
	.st28{fill:#DFDFDF;}
	.st29{fill:#4A81AB;}
	.st30{fill:#5EA5DB;}
	.st31{fill:#AAC1D6;}
	.st32{fill:none;stroke:#5EA5DB;stroke-width:2;stroke-miterlimit:10;}
	.st33{fill:none;stroke:#5EA5DB;stroke-width:2;stroke-miterlimit:10;stroke-dasharray:3.5807,2.3871;}
	.st34{fill:none;stroke:#5EA5DB;stroke-width:2;stroke-miterlimit:10;stroke-dasharray:3.1191,2.0794;}
	.st35{fill:none;stroke:#5EA5DB;stroke-width:2;stroke-miterlimit:10;stroke-dasharray:3.1194,2.0796;}
	.st36{fill:none;stroke:#5EA5DB;stroke-width:2;stroke-miterlimit:10;stroke-dasharray:3.1197,2.0798;}
	.st37{fill:#B07C5C;}
	.st38{clip-path:url(#SVGID_6_);fill:#D69F72;}
	.st39{clip-path:url(#SVGID_8_);fill:#B37E5D;}
	.st40{fill:none;stroke:#FFFFFF;stroke-width:3;stroke-miterlimit:10;}
	.st41{fill:none;stroke:#DFDFDF;stroke-linecap:round;stroke-miterlimit:10;}
	.st42{fill:none;stroke:#FFFFFF;stroke-width:2;stroke-miterlimit:10;}
	.st43{fill:#9CB3F0;}
	.st44{fill:#52638F;}
	.st45{fill:#374E78;}
	.st46{fill:#2D3652;}
	.st47{fill:#FF3030;}
	.st48{fill:#B32222;}
	.st49{fill:#FF0000;}
	.st50{fill:#5ECC81;}
	.st51{fill:#1F8B35;}
	.st52{fill:#2BA240;}
	.st53{fill:none;stroke:#D6CBA6;stroke-miterlimit:10;}
	.st54{fill:#FFB03B;}
	.st55{fill:none;stroke:#FFE7A6;stroke-linejoin:bevel;stroke-miterlimit:10;}
	.st56{fill:none;stroke:#FFE7A6;stroke-width:2.1;stroke-linejoin:bevel;stroke-miterlimit:10;}
	.st57{fill:#FFE7A6;}
	.st58{fill:#1A93DB;}
	.st59{fill:#95C3ED;}
	.st60{fill:none;stroke:#107CBF;stroke-width:1.7761;stroke-linecap:round;stroke-miterlimit:10;}
	.st61{fill:#78B0E3;}
	.st62{fill:#7197EE;}
	.st63{fill:#4A67A8;}
	.st64{fill:#FFC88D;}
	.st65{fill:url(#path3352_1_);}
	.st66{fill:url(#path4028_1_);}
	.st67{fill:#002B64;}
	.st68{fill:#678AD9;}
	.st69{fill:#394E80;}
	.st70{fill:#C7FFFA;}
	.st71{fill:#D1DEE8;}
	.st72{fill:#3D8EC9;}
	.st73{fill:#2C668F;}
	.st74{fill:#DB2317;}
	.st75{fill:#AB1B12;}
	.st76{fill:#FF3226;}
	.st77{fill:#F25C5C;}
	.st78{fill:#FCFCFC;}
	.st79{fill:#FF8754;}
	.st80{fill:#35C7F0;}
	.st81{fill:#C2DFF2;}
	.st82{fill:#FFFCE6;}
	.st83{fill:#91BBD4;}
	.st84{fill:#6897B3;}
	.st85{fill:#A4C8DD;}
	.st86{fill:#90BAD3;}
	.st87{fill:#83A9BF;}
	.st88{fill:#75CEDE;}
	.st89{clip-path:url(#SVGID_10_);fill:#61AAB8;}
	.st90{clip-path:url(#SVGID_12_);fill:#437680;}
	.st91{clip-path:url(#SVGID_14_);fill:#61AAB8;}
	.st92{clip-path:url(#SVGID_16_);fill:#437680;}
	.st93{clip-path:url(#SVGID_18_);}
	.st94{fill:#61AAB8;}
	.st95{clip-path:url(#SVGID_20_);fill:#61AAB8;}
	.st96{fill:#437680;}
	.st97{fill:#ACE8F2;}
	.st98{fill:#1CC0FF;}
	.st99{fill:none;}
	.st100{fill:#FFE570;}
	.st101{fill:#FF6759;}
	.st102{fill:#543729;}
	.st103{fill:#CECECE;}
	.st104{fill:#3672A4;}
	.st105{clip-path:url(#SVGID_22_);fill:#29577D;}
	.st106{fill:#29577D;}
	.st107{fill:#F3B711;}
	.st108{fill:#9F6229;enable-background:new    ;}
	.st109{fill:none;stroke:#B9DFF0;stroke-miterlimit:10;}
</style>
<g id="hex-ruby_x60_49x56">
	<g>
		<polygon class="st0" points="48.5,42 24.3,56 0,42 0,14 24.3,0 48.5,14 		"/>
		<g>
			<g>
				<g>
					<g>
						<g>
							<defs>
								<polygon id="SVGID_1_" points="48.5,42 24.3,56 0,42 0,14 24.3,0 48.5,14 								"/>
							</defs>
							<clipPath id="SVGID_2_">
								<use xlink:href="#SVGID_1_"  style="overflow:visible;"/>
							</clipPath>
							<polyline class="st1" points="11.9,33.4 28.511,53.564 48.5,42 48.5,35.308 42,25.3 							"/>
						</g>
					</g>
				</g>
			</g>
		</g>
		<polygon class="st2" points="35.1,18.1 30.1,15.4 24.2,15.4 18.2,15.4 13.4,18.1 6.5,25.3 12.3,33.3 24.2,42.1 24.2,42.1 
			24.2,42.1 24.2,42.1 24.3,42 36.1,33.3 42,25.3 		"/>
		<polygon class="st3" points="36.1,33.3 29.4,25.3 24.2,34 		"/>
		<polygon class="st2" points="29.4,25.3 35,21.7 36.1,33.3 		"/>
		<polygon class="st4" points="36.1,33.3 42,25.3 35.1,18.1 35,21.7 		"/>
		<polygon class="st5" points="12.3,33.3 19,25.3 24.2,34 		"/>
		<polygon class="st6" points="19,25.3 13.5,21.7 12.3,33.3 		"/>
		<polygon class="st7" points="19,25.3 13.5,21.7 12.3,33.3 		"/>
		<polygon class="st8" points="12.3,33.3 6.5,25.3 13.4,18.1 13.5,21.7 		"/>
		<polygon class="st4" points="24.2,25.3 19,25.3 19,25.3 24.2,34 29.4,25.3 29.4,25.3 		"/>
		<polygon class="st9" points="30.1,15.4 24.2,15.4 18.2,15.4 13.4,18.1 13.5,21.7 19,25.3 24.2,25.3 29.4,25.3 35,21.7 35.1,18.1 
					"/>
		<polygon class="st10" points="24.2,34 24.3,42 36.1,33.3 		"/>
		<polygon class="st11" points="24.2,34 24.2,34 12.3,33.3 24.2,42.1 24.3,42 		"/>
		<polygon class="st12" points="35,21.7 42,25.3 35.1,18.1 		"/>
		<polyline class="st12" points="13.4,22 13.4,22 6.5,25.3 13.4,18.1 		"/>
		<polygon class="st13" points="18.2,33.6 24.2,42.1 24.2,34 		"/>
		<polygon class="st11" points="30.2,33.6 24.2,42.1 24.2,34 		"/>
	</g>
</g>
<g id="hex-node_x60_47x54">
	<g>
		<polygon class="st14" points="46.5,40.27 23.249,53.694 0,40.27 0,13.423 23.249,0 46.5,13.423 		"/>
		<g>
			<g>
				<g>
					<defs>
						<polygon id="SVGID_3_" points="46.5,40.27 23.249,53.694 0,40.27 0,13.423 23.249,0 46.5,13.423 						"/>
					</defs>
					<clipPath id="SVGID_4_">
						<use xlink:href="#SVGID_3_"  style="overflow:visible;"/>
					</clipPath>
					<polyline class="st15" points="12.163,36.337 12.313,36.485 27.225,51.398 46.5,40.27 46.473,32.771 34.129,20.426 
						23.25,19.509 15.685,21.492 					"/>
				</g>
			</g>
		</g>
		<path class="st9" d="M34.129,20.426c0-0.432-0.229-0.83-0.6-1.044l-9.943-5.959c-0.168-0.101-0.357-0.397-0.547-0.397
			c-0.017,0-0.089,0-0.104,0c-0.19,0-0.378,0.296-0.549,0.397l-9.943,5.841c-0.37,0.211-0.6,0.67-0.6,1.104l0.022,15.437
			c0,0.211,0.112,0.427,0.299,0.532c0.186,0.112,0.413,0.118,0.597,0.009l5.955-3.38c0.373-0.222,0.649-0.61,0.649-1.039v-7.196
			c0-0.429,0.182-0.826,0.555-1.039l2.492-1.451c0.187-0.107,0.381-0.16,0.589-0.16c0.206,0,0.41,0.053,0.592,0.16l2.69,1.451
			c0.372,0.213,0.776,0.61,0.776,1.039v7.196c0,0.429,0.052,0.823,0.424,1.043l5.818,3.384c0.185,0.109,0.371,0.109,0.556,0
			c0.182-0.106,0.277-0.305,0.277-0.517L34.129,20.426z"/>
	</g>
</g>
<g id="hex-memcached_x60_47x54">
	<polygon id="_x3E_bg_3_" class="st16" points="46.5,40.3 23.2,53.7 0,40.3 0,13.4 23.2,0 46.5,13.4 	"/>
	<path class="st9" d="M23.167,42.894c10.21,0,13.757-7.354,13.757-12.2c0-4.932-1.211-12.113-7.874-18.689
		c0,4.586-0.087,10.469-5.451,10.469"/>
	<path class="st9" d="M24.033,42.894c-10.21,0-13.757-7.354-13.757-12.2c0-4.932,1.211-12.113,7.874-18.689
		c0,4.586,0.087,10.469,5.451,10.469"/>
	<g>
		<circle class="st9" cx="31.214" cy="30.262" r="3.028"/>
	</g>
	<g>
		<path class="st17" d="M31.214,27.493c1.471,0,2.682,1.211,2.682,2.682s-1.211,2.682-2.682,2.682s-2.682-1.211-2.682-2.682
			C28.532,28.705,29.657,27.493,31.214,27.493 M31.214,26.628c-1.99,0-3.547,1.557-3.547,3.547s1.557,3.547,3.547,3.547
			s3.547-1.557,3.547-3.547C34.761,28.272,33.117,26.628,31.214,26.628L31.214,26.628z"/>
	</g>
	<g>
		<polyline class="st18" points="23.687,32.771 23.687,37.963 20.658,40.904 		"/>
		<line class="st18" x1="27.147" y1="40.818" x2="24.033" y2="37.616"/>
	</g>
	<g>
		<circle class="st9" cx="16.938" cy="30.262" r="3.028"/>
	</g>
	<polygon class="st19" points="25.763,32.079 24.033,33.723 22.389,32.079 	"/>
	<g>
		<path class="st17" d="M16.938,27.493c1.471,0,2.682,1.211,2.682,2.682s-1.211,2.682-2.682,2.682s-2.682-1.211-2.682-2.682
			C14.256,28.705,15.467,27.493,16.938,27.493 M16.938,26.628c-1.99,0-3.547,1.557-3.547,3.547s1.557,3.547,3.547,3.547
			s3.547-1.557,3.547-3.547C20.485,28.272,18.928,26.628,16.938,26.628L16.938,26.628z"/>
	</g>
</g>
<g id="hex-platform_x60_47x54">
	<polygon id="_x3E_bg_15_" class="st20" points="46.5,40.3 23.2,53.7 0,40.3 0,13.4 23.2,0 46.5,13.4 	"/>
	<g id="logo-horizontal_1_">
		<g>
			<polygon class="st9" points="34.6,39 23.1,44.9 11.3,38.9 22.8,32.9 			"/>
			<polygon class="st21" points="29.7,36.5 22.9,40 16,36.4 22.8,32.9 			"/>
			<polygon class="st22" points="23.1,44.9 34.6,39 34.6,40.7 23.1,46.6 			"/>
			<polygon class="st23" points="23.1,44.9 11.3,38.9 11.3,40.6 23.1,46.6 			"/>
		</g>
		<g>
			<polygon class="st24" points="23.2,35.3 32.6,30.5 32.6,31.9 23.2,36.7 			"/>
			<polygon class="st25" points="23.2,35.3 13.8,30.5 13.8,31.9 23.2,36.7 			"/>
			<polygon class="st9" points="32.6,30.5 23.2,35.3 13.8,30.5 23.2,25.7 			"/>
			<polygon class="st21" points="30.1,29.2 23.2,32.8 16.3,29.2 23.2,25.7 			"/>
		</g>
		<g>
			<polygon class="st22" points="23.2,27.8 34.6,21.9 34.6,23.7 23.2,29.5 			"/>
			<polygon class="st23" points="23.2,27.8 11.8,21.9 11.8,23.7 23.2,29.5 			"/>
			<polygon class="st9" points="34.6,21.9 23.2,27.8 11.8,21.9 23.2,16.1 			"/>
			<polygon class="st21" points="31.6,20.4 23.2,24.7 14.8,20.4 23.2,16.1 			"/>
		</g>
		<g>
			<polygon class="st9" points="34.6,12.9 23.1,18.8 11.6,12.9 23.1,7 			"/>
			<polygon class="st24" points="23.1,18.8 34.6,12.9 34.6,14.7 23.1,20.6 			"/>
			<polygon class="st25" points="23.1,18.8 11.6,12.9 11.6,14.7 23.1,20.6 			"/>
		</g>
	</g>
</g>
<g id="hex-system_x60_47x54">
	<polygon id="_x3E_bg_16_" class="st26" points="46.5,40.3 23.2,53.7 0,40.3 0,13.4 23.2,0 46.5,13.4 	"/>
	<polygon class="st27" points="29.4,16.2 35.6,26.9 29.4,37.5 17.1,37.5 10.9,26.9 17.1,16.2 	"/>
</g>
<g id="hex-storage_x60_47x54">
	<polygon id="_x3E_bg_5_" class="st28" points="46.5,40.3 23.2,53.7 0,40.3 0,13.4 23.2,0 46.5,13.4 	"/>
	<polygon class="st29" points="34.1,36.1 34.1,32.3 23.1,40.4 23.1,44.5 	"/>
	<polyline class="st30" points="23.1,40.4 8.1,29.4 8.1,33.7 23,44.7 	"/>
	<polygon class="st9" points="19.6,22.1 8.5,29.4 23.4,40.5 34.1,32.3 	"/>
	<polygon class="st31" points="14,25.8 28.4,36.7 34.1,32.3 19.6,21.2 	"/>
	<polygon class="st29" points="37.1,25 37.1,21.2 27.1,29 27.1,33.1 	"/>
	<polyline class="st30" points="27,29 12.1,18 12.1,22.3 27,33.3 	"/>
	<polygon class="st9" points="22.8,11 12.2,18 27.1,29.1 37.3,21.2 	"/>
	<g>
		<g>
			<line class="st32" x1="33.9" y1="5.4" x2="32.6" y2="6.2"/>
			<line class="st33" x1="30.6" y1="7.5" x2="26.7" y2="10.2"/>
			<line class="st32" x1="25.7" y1="10.9" x2="24.5" y2="11.7"/>
		</g>
	</g>
	<g>
		<g>
			<line class="st32" x1="38.7" y1="8.5" x2="37.5" y2="9.3"/>
			<line class="st33" x1="35.5" y1="10.7" x2="31.5" y2="13.3"/>
			<line class="st32" x1="30.5" y1="14" x2="29.3" y2="14.8"/>
		</g>
	</g>
	<g>
		<g>
			<line class="st32" x1="43.5" y1="11.6" x2="42.3" y2="12.4"/>
			<line class="st33" x1="40.3" y1="13.8" x2="36.4" y2="16.5"/>
			<line class="st32" x1="35.4" y1="17.1" x2="34.1" y2="18"/>
		</g>
	</g>
	<g>
		<g>
			<line class="st32" x1="11.6" y1="36.1" x2="10.4" y2="37"/>
			<line class="st34" x1="8.7" y1="38.2" x2="5.3" y2="40.6"/>
			<line class="st32" x1="4.5" y1="41.3" x2="3.3" y2="42.1"/>
		</g>
	</g>
	<g>
		<g>
			<line class="st32" x1="16.4" y1="39.2" x2="15.2" y2="40.1"/>
			<line class="st35" x1="13.5" y1="41.3" x2="10.2" y2="43.8"/>
			<line class="st32" x1="9.3" y1="44.4" x2="8.1" y2="45.3"/>
		</g>
	</g>
	<g>
		<g>
			<line class="st32" x1="21.3" y1="42.3" x2="20.1" y2="43.2"/>
			<line class="st36" x1="18.4" y1="44.4" x2="15" y2="46.9"/>
			<line class="st32" x1="14.2" y1="47.5" x2="13.411" y2="48.046"/>
		</g>
	</g>
</g>
<g id="hex-java_x60_47x54">
	<polygon id="_x3E_bg_6_" class="st37" points="46.5,40.3 23.2,53.7 0,40.3 0,13.4 23.2,0 46.5,13.4 	"/>
	<ellipse class="st9" cx="22" cy="40" rx="7.2" ry="4.8"/>
	<ellipse class="st28" cx="22" cy="25.6" rx="12.5" ry="6.7"/>
	<g>
		<g>
			<g>
				<g>
					<g>
						<g>
							<g>
								<g>
									<g>
										<g>
											<g>
												<g>
													<g>
														<g>
															<g>
																<g>
																	<g>
																		<defs>
																			<ellipse id="SVGID_5_" cx="22" cy="28.1" rx="10.4" ry="5.6"/>
																		</defs>
																		<clipPath id="SVGID_6_">
																			<use xlink:href="#SVGID_5_"  style="overflow:visible;"/>
																		</clipPath>
																		<ellipse class="st38" cx="22" cy="28.1" rx="10.4" ry="5.6"/>
																	</g>
																</g>
															</g>
														</g>
													</g>
												</g>
											</g>
										</g>
									</g>
								</g>
							</g>
						</g>
					</g>
				</g>
			</g>
		</g>
		<g>
			<g>
				<g>
					<g>
						<g>
							<g>
								<g>
									<g>
										<g>
											<g>
												<g>
													<g>
														<g>
															<g>
																<g>
																	<g>
																		<defs>
																			<ellipse id="SVGID_7_" cx="22" cy="28.1" rx="10.4" ry="5.6"/>
																		</defs>
																		<clipPath id="SVGID_8_">
																			<use xlink:href="#SVGID_7_"  style="overflow:visible;"/>
																		</clipPath>
																		<path class="st39" d="M38,20.6H12v6.7c1.9-1.3,4.7-2.1,8-2.1c4.5,0,8.2,1.6,9.7,3.8C29.7,28.9,37.4,28.2,38,20.6z
																			"/>
																	</g>
																</g>
															</g>
														</g>
													</g>
												</g>
											</g>
										</g>
									</g>
								</g>
							</g>
						</g>
					</g>
				</g>
			</g>
		</g>
	</g>
	<path class="st9" d="M29,40.6c-0.9,1.9-3.6,2.4-6.9,2.4s-6.1-0.9-6.9-2.2H15c-6.4-8-5.8-15-5.8-15l0.2-0.5c0,3.7,5.5,6.9,12.4,6.9
		s12.6-3,12.6-6.7v0.1C34.5,25.7,35.4,33,29,40.6L29,40.6L29,40.6z"/>
	<g>
		<path class="st9" d="M22,20.9c6,0,10.5,2.5,10.5,4.7S28,30.3,22,30.3s-10.5-2.5-10.5-4.7S16,20.9,22,20.9 M22,18.9
			c-6.9,0-12.5,3-12.5,6.7c0,3.7,5.6,6.7,12.5,6.7s12.5-3,12.5-6.7C34.5,21.9,28.9,18.9,22,18.9L22,18.9z"/>
	</g>
	<path class="st40" d="M34.3,26.3c3.3,0,6,2.7,6,6s-2.7,6-6,6s-5.1,0-5.1,0"/>
	<path class="st40" d="M34.3,26.3c3.3,0,6,2.7,6,6s-2.7,6-6,6s-5.1,0-5.1,0"/>
	<path class="st41" d="M34.4,26.9c2.1,0,4,1.3,4.8,3.1"/>
	<line class="st41" x1="30.2" y1="39.2" x2="35.9" y2="39.2"/>
	<path class="st41" d="M15.7,39.1c-2.7-3.6-3.7-6.9-4.2-8.9"/>
	<path class="st42" d="M31.3,9.6c-1.1,3.8-4.1,6.3-5.5,7.4"/>
	<path class="st42" d="M15.7,18.1c-0.6-4.5,2-6.7,4.1-8.4c0.6-0.5,1.1-1,1.5-1.4"/>
	<path class="st42" d="M26.7,4.5c1.2,4.5-2.1,7.3-3.9,8.8c-2.1,1.8-2.6,2.4-2.4,4.1"/>
</g>
<g id="hex-php_x60_47x54">
	<polygon id="_x3E_bg_7_" class="st43" points="46.5,40.3 23.2,53.7 0,40.3 0,13.4 23.2,0 46.5,13.4 	"/>
	<polyline class="st44" points="30.3,32.4 23.663,53.434 46.5,40.3 46.5,14.553 36.6,13.1 	"/>
	<polygon class="st45" points="39.5,16.1 46.3,25.9 35.6,44.2 31.7,35.7 	"/>
	<polygon class="st44" points="17.5,14.3 23.2,9.2 28.9,10.1 36,9.2 44.4,25.8 35.8,37.8 27,33.7 28.3,26 27,32.3 23.9,32.1 
		21.3,34.9 19.5,34.6 19.3,32.6 17.5,33.6 15.4,42.3 11.1,43.3 2.6,37.8 5.4,36.5 10.6,39.2 12.6,37.8 10.9,26.7 	"/>
	<polygon class="st9" points="19.9,26.2 21.1,28.5 17,29.4 7.6,22.3 9,21.6 16.9,26.7 	"/>
	<polygon class="st9" points="9.7,27.9 6.9,27.9 2.3,24 1.3,24.7 6.2,29.5 10.3,29.9 	"/>
	<circle class="st46" cx="23.2" cy="20" r="1.8"/>
	<polygon class="st45" points="30.3,17.4 27.2,32.4 24.4,32.2 	"/>
</g>
<g id="hex-couch_x60_47x54">
	<polygon id="_x3E_bg_8_" class="st47" points="46.5,40.3 23.2,53.7 0,40.3 0,13.4 23.2,0 46.5,13.4 	"/>
	<g>
		<polygon class="st48" points="3.4,37.9 43.1,37.9 43.1,22.6 40.7,22.6 40.7,15.2 6.2,15.2 6.2,22.6 3.4,22.6 		"/>
		<polygon class="st49" points="38.1,23.9 38.1,17.3 8.7,17.3 8.7,22.8 6.3,22.8 6.3,35.6 8.7,35.6 10.3,35.6 34.7,35.6 38.1,35.6 
			40.5,35.6 40.5,23.9 		"/>
		<polygon class="st48" points="10.3,31.3 10.3,37.1 36.2,37.1 36.2,30.9 18,33 		"/>
		<polygon class="st48" points="10.3,23.7 10.3,27.6 16.8,29.8 36.2,27.9 36.2,24 32.2,26.5 25.5,23.7 17.7,25.2 		"/>
		<polygon class="st9" points="7.4,21.3 10.6,20 9.4,18.7 9.4,14.1 13.9,14.1 13.9,18.9 19.6,14.2 27,15.7 27.2,17.3 24.9,17.3 
			23.7,17.3 20.9,17.3 17.8,20.6 19.7,23.2 26.4,20.9 32.4,25.8 35.8,26.6 36.2,27.9 30.3,28.5 30,27.7 29.7,27.5 26,25.2 
			19.3,29.4 20.4,39.8 17.1,39.9 14.6,29.1 13.5,28.7 10.2,24.2 8.7,24.2 8.7,25.3 7.9,24.9 7.9,26.6 6.3,26 6.3,22.6 		"/>
	</g>
</g>
<g id="hex-mongo_x60_47x54">
	<polygon id="_x3E_bg_1_" class="st50" points="46.5,40.3 23.2,53.7 0,40.3 0,13.4 23.2,0 46.5,13.4 	"/>
	<path class="st51" d="M23.2,9.3v32c0,0,8.6-3.6,8.6-15.8S23.2,9.3,23.2,9.3z"/>
	<path class="st52" d="M23.2,9.3v32c0,0-8.6-3.6-8.6-15.8S23.2,9.3,23.2,9.3z"/>
	<line class="st53" x1="23.2" y1="41.3" x2="23.2" y2="45.5"/>
</g>
<g id="hex-arbiter_x60_47x54">
	<polygon id="_x3E_bg_17_" class="st54" points="46.5,40.3 23.2,53.7 0,40.3 0,13.4 23.2,0 46.5,13.4 	"/>
	<line class="st55" x1="27.1" y1="49.4" x2="39.5" y2="42.3"/>
	<line class="st55" x1="19.3" y1="49.4" x2="7" y2="42.3"/>
	<line class="st55" x1="27.1" y1="5.3" x2="39.5" y2="12.4"/>
	<line class="st55" x1="43.4" y1="19" x2="43.4" y2="35.2"/>
	<line class="st55" x1="3" y1="19" x2="3" y2="35.2"/>
	<line class="st55" x1="19.3" y1="5.3" x2="7" y2="12.4"/>
	<polyline class="st56" points="32.4,24.6 32.4,30.7 25.8,36.4 25.8,12.8 27.6,10.9 31.4,10.9 33.3,12.7 	"/>
	<circle class="st57" cx="43.4" cy="16" r="1.7"/>
	<circle class="st57" cx="23.2" cy="4.7" r="1.7"/>
	<circle class="st57" cx="23.2" cy="49.5" r="1.7"/>
	<circle class="st57" cx="43.4" cy="39" r="1.7"/>
	<circle class="st57" cx="3" cy="16" r="1.7"/>
	<circle class="st57" cx="3" cy="39" r="1.7"/>
	<polyline class="st56" points="29,27.6 29,20 33.7,15.3 37.7,19.3 	"/>
	<polyline class="st56" points="33.7,20.5 37.7,24.6 37.7,29.7 	"/>
	<path class="st56" d="M32.1,36.2l3.9-3.9h3.1c0,0,0,4.1,0,4.2l-3.6,3.6h-3.8l-3.5-3.5"/>
	<polyline class="st56" points="13.1,12.7 14.9,10.9 18.7,10.9 20.5,12.8 20.5,36.4 13.9,30.7 13.9,24.6 	"/>
	<polyline class="st56" points="17.3,27.6 17.3,20 12.6,15.3 8.6,19.3 	"/>
	<polyline class="st56" points="12.6,20.5 8.6,24.6 8.6,29.7 	"/>
	<path class="st56" d="M14.2,36.2l-3.9-3.9H7.2c0,0,0,4.1,0,4.2l3.6,3.6h3.8l3.5-3.5"/>
	<polyline class="st56" points="18.6,40.1 21.2,42.6 22.8,42.6 	"/>
	<polyline class="st56" points="27.7,40.1 25.1,42.6 23.5,42.6 	"/>
</g>
<g id="hex-mysql_x60_47x54">
	<polygon id="_x3E_bg_18_" class="st58" points="46.5,40.3 23.2,53.7 0,40.3 0,13.4 23.2,0 46.5,13.4 	"/>
	<path class="st9" d="M34.5,24.7c-2.5-3.5-4.2-7-9.9-8.2C18.9,15.3,13,18,13,18s-0.8-1.5-2.8-2.1s-3.4-0.2-3.4-0.2S5.9,16.3,6.1,18
		c0.2,1.7,2,4.1,2.7,4.7c0.7,0.6,2.6,2.9,3.3,3.6c0.7,0.7,2,3.6,2.2,5.2c1.9,2.3,7.6,7.8,15.2,4.8c5.6-2.2,7.2-5.5,7.6-8
		C36.2,27,35.2,25.7,34.5,24.7z"/>
	<path class="st59" d="M37.2,28c-0.8-1.3-1.7-2.6-2.4-3.5c-2.5-3.5-4.6-6.9-10.3-8.2c-5.7-1.2-10.7,1-10.7,1s-1.4-0.9-3.4-1.7
		c-2.5-1.1-3.7,0.3-3.7,0.3S6.6,16,6.5,16.1c1.7,0.7,3.6,2.8,4.8,4.4c2.1,2.9,7.4,4.9,10.4,7.8c1.9,1.9,2.6,1.1,3.7,2.4
		c1.2,1.5,0.7,4.4,1.2,6.6c0.9-0.1,1.8-0.4,2.8-0.7C35.4,34.2,36.8,30.5,37.2,28z"/>
	<ellipse transform="matrix(0.9834 -0.1815 0.1815 0.9834 -4.72 5.8316)" class="st9" cx="29.503" cy="28.706" rx="2" ry="2"/>
	<path class="st60" d="M36.1,30.4"/>
	<g>
		<path class="st60" d="M3.7,35.2c-0.6-1.5-1-3.2-1.1-4.9c-0.1-2.4,0.3-4.8,1.3-6.9"/>
		<path class="st60" d="M13.4,12.5C16.5,11,20,10,23.8,9.8c4-0.2,7.8,0.4,11.1,1.6"/>
		<path class="st60" d="M39.5,38.3c-3.2,3.1-8,5.2-13.3,5.5C15.9,44.4,7.2,38.2,6.7,30c-0.1-2,0.3-4,1.1-5.9"/>
		<path class="st60" d="M25.2,13.4C35.5,13.2,44,19.7,44.1,28c0,2-0.4,3.9-1.3,5.6"/>
		<path class="st60" d="M37.3,21.9c1.8,1.7,2.9,3.9,3,6.2c0.4,6.3-6.1,11.7-14.4,12.2s-15.4-4.2-15.8-10.4"/>
	</g>
	<path class="st60" d="M15.2,18.7"/>
	<path class="st61" d="M13.8,17.2c0,0,5.7,2.7,7.7,4c-0.8-1.5-5.3-4.8-5.3-4.8S14.7,16.7,13.8,17.2z"/>
</g>
<g id="hex-maria_x60_47x54">
	<polygon id="_x3E_bg_9_" class="st62" points="46.5,40.3 23.2,53.7 0,40.3 0,13.4 23.2,0 46.5,13.4 	"/>
	<circle class="st9" cx="20.7" cy="9.3" r="0.8"/>
	<circle class="st9" cx="25.1" cy="5.6" r="0.8"/>
	<circle class="st9" cx="9.2" cy="11.6" r="0.8"/>
	<circle class="st9" cx="44.1" cy="25" r="0.8"/>
	<polygon class="st63" points="23.2,53.7 6.414,44.005 39.819,44.094 	"/>
	<path id="path3352_5_" class="st64" d="M20.207,51.971c0,0,3.193-16.171,4.893-18.771c1.8-2.8,4.6-4.5,7.1-6.3c2.9-2,5.5-4.1,5.9-8
		c-3-0.3-3.7-1-4.2-2.5c-1.5,0.9-2.9,1-4.5,1.1c-1.4,0-2.9,0-4.7,0.2C11.3,19.1,1.343,41.075,1.343,41.075L20.207,51.971z"/>
	
		<radialGradient id="path3352_1_" cx="3615.4849" cy="-11666.8574" r="22.2561" gradientTransform="matrix(0.3794 -0.9252 0.3629 0.1488 2887.2488 5125.001)" gradientUnits="userSpaceOnUse">
		<stop  offset="0" style="stop-color:#543824"/>
		<stop  offset="1" style="stop-color:#8B5E3C;stop-opacity:0"/>
	</radialGradient>
	<path id="path3352_2_" class="st65" d="M20.207,51.971c0,0,3.193-16.171,4.893-18.771c1.8-2.8,4.6-4.5,7.1-6.3c2.9-2,5.5-4.1,5.9-8
		c-3-0.3-3.7-1-4.2-2.5c-1.5,0.9-2.9,1-4.5,1.1c-1.4,0-2.9,0-4.7,0.2C11.3,19.1,1.343,41.075,1.343,41.075L20.207,51.971z"/>
	
		<radialGradient id="path4028_1_" cx="655.7087" cy="-2486.21" r="12.9538" gradientTransform="matrix(0.108 0.3929 1.445 -0.397 3546.0259 -1227.8672)" gradientUnits="userSpaceOnUse">
		<stop  offset="0" style="stop-color:#FFFFFF"/>
		<stop  offset="1" style="stop-color:#FFFFFF;stop-opacity:0"/>
	</radialGradient>
	<path id="path4028_3_" class="st66" d="M33.9,16.4c-1.5,0.9-2.9,1-4.5,1.1c-1.4,0-2.9,0-4.7,0.2c-5.7,0.6-11,5.4-14.1,9l12.5,12.6
		c0.7-2.8,1.3-5,2-6.1c1.8-2.8,4.6-4.5,7.1-6.3c2.9-2,5.4-4.1,5.9-8C35.1,18.7,34.4,18,33.9,16.4z"/>
	<path id="path3880_6_" class="st67" d="M19.6,24c2.2,1.9,6.7,0.4,5.9-3.4C22.1,20.4,20.2,21.5,19.6,24z"/>
	<path id="path3880_5_" class="st9" d="M22.7,22.2c0.5,0.4,1.5,0.1,1.3-0.8C23.2,21.3,22.8,21.6,22.7,22.2z"/>
	<path id="path3882_3_" class="st68" d="M34.1,22.2c0,0.9-0.3,2.1,0.4,4c0.1,0.3,0,0.6-0.2,0.2c-0.7-1.8-0.6-2.8-0.5-4.1
		C33.8,21.7,34.1,21.8,34.1,22.2z"/>
	<path id="path3884_3_" class="st68" d="M33.1,22.2c-0.2,1.1-1,3.2-0.4,5.8c0.1,0.4-0.2,0.8-0.3,0.1c-0.6-2.5,0-4.3,0.3-5.9
		C32.9,21.6,33.1,21.8,33.1,22.2z"/>
	<path id="path3888_3_" class="st68" d="M32,22.1c-0.4,1.1-1.6,4.6-1.3,7.2c0,0.4-0.3,0.8-0.3,0.1c-0.2-2.5,0.8-5.8,1.3-7.3
		C31.9,21.4,32.1,21.6,32,22.1z"/>
	<path class="st69" d="M33.9,16.4c0,0,2.3-2.5,3.6-2.4c0.7,0.1,1.1,0.3,1.4,1.2c0.3,0.9-0.8,3.7-0.8,3.7s-2,0.2-3-0.4
		S33.9,16.4,33.9,16.4z"/>
	<polygon class="st9" points="45.52,40.837 35.72,46.437 36.029,46.348 35.7,40.1 40.3,33.1 42.9,36.8 44.9,40 	"/>
	<polygon class="st70" points="38.7,37.9 39.3,42 37.429,45.448 36.029,46.348 33.729,47.648 36.9,35.4 40.4,33.1 	"/>
</g>
<g id="hex-postgres_x60_47x54">
	<polygon id="_x3E_bg_10_" class="st71" points="46.5,40.3 23.2,53.7 0,40.3 0,13.4 23.2,0 46.5,13.4 	"/>
	<path class="st72" d="M20.8,36.4v8.9c0,2.2,1.8,3.9,3.9,3.9s3.9-1.8,3.9-3.9v-8.7c0-1.9,1.4-3.4,3.2-3.6V22.5
		c0-5.2-4.3-9.5-9.5-9.5s-9.5,4.3-9.5,9.5V31c0,1.4,1,2.5,2.3,2.6c0.6-0.4,1.3-0.7,2.1-0.7C19.1,33,20.7,34.5,20.8,36.4L20.8,36.4
		L20.8,36.4z"/>
	<circle class="st73" cx="28.5" cy="23.5" r="3.3"/>
	<path class="st73" d="M25.5,24.9c0,0,4.7,5.6,4.7,8.8c0,0,0.7-0.6,1.7-0.6v-9.5"/>
	<circle class="st73" cx="16.8" cy="23.9" r="3.9"/>
	<path class="st73" d="M20.6,23.9c0,3.5-3.1,5.3-3.1,9c0,0-2.1,0.3-2.4,0.8c0,0-0.7,0.1-1.5-0.8S12.9,31,12.9,31v-6.8"/>
	<circle class="st72" cx="16.9" cy="23.5" r="1.3"/>
	<circle class="st73" cx="22.1" cy="36.3" r="1.3"/>
	<rect x="20.8" y="36.3" class="st73" width="2.6" height="9.3"/>
	<circle class="st73" cx="24.7" cy="47.9" r="1.3"/>
	<path class="st73" d="M23.4,45.6c0,0.9,0.3,1,1.3,1s0,2.6,0,2.6c-2.4,0-3.9-2.1-3.9-3.6"/>
	<path class="st72" d="M16.3,10.9C9,10.9,3.2,16.8,3.2,24c0,5.1,2.9,9.5,7.1,11.6v-4.2c0-0.1,0-0.3,0-0.4v-8.5c0-5.3,3.4-9.7,8-11.4
		l0,0C17.6,10.9,17,10.9,16.3,10.9z"/>
	<path class="st72" d="M17.2,35.1c-1-0.1-2,0.6-2.1,1.6c-0.6,4.1,0.6,8.8,0.6,8.8s2.4-3.3,3.1-8.2l0,0l0,0
		C18.9,36.2,18.2,35.3,17.2,35.1z"/>
	<path class="st72" d="M33.9,36.4L33.9,36.4c-0.1-1-1.1-1.8-2.1-1.6s-1.8,1.1-1.6,2.1c0.5,4.2,2.9,8.3,2.9,8.3S34.5,41.3,33.9,36.4z
		"/>
	<path class="st73" d="M7,14.7c-2.4,2.4-3.8,5.7-3.8,9.3s1.5,6.9,3.8,9.3V14.7z"/>
	<circle class="st72" cx="28.5" cy="23.5" r="1.3"/>
	<circle class="st73" cx="16.9" cy="37" r="1.9"/>
	<circle class="st73" cx="32.1" cy="36.6" r="1.9"/>
	<g>
		<path class="st72" d="M28.8,10.6c-1,0-1.9,0.1-2.8,0.3c4.9,1.6,8.5,6.2,8.5,11.6v11.7c4.9-4.9,6.3-7.1,6.3-11.7
			C40.8,15.9,35.4,10.6,28.8,10.6z"/>
	</g>
	<path class="st73" d="M35.8,27.5c0,1.5,0.5,2.8,1.4,3.9c2.8-3.1,3.6-5.3,3.6-8.9c0-0.4,0-0.8-0.1-1.2C37.9,22,35.8,24.5,35.8,27.5z
		"/>
</g>
<g id="hex-redis_x60_47x54">
	<polygon id="_x3E_bg_11_" class="st74" points="46.5,40.3 23.2,53.7 0,40.3 0,13.4 23.2,0 46.5,13.4 	"/>
	<polygon class="st75" points="23.1,44.5 6.3,35.3 6.3,31.3 23.1,40.5 	"/>
	<polygon class="st76" points="6.3,31.3 23.1,40.5 41.1,31.2 24.4,22 	"/>
	<polygon class="st75" points="23.1,44.5 41.1,35.1 41.1,31.2 23.1,40.5 	"/>
	<polygon class="st75" points="23.1,38.1 6.3,28.9 6.3,25 23.1,34.2 	"/>
	<polygon class="st76" points="6.3,25 23.1,34.2 41.1,24.8 24.4,15.6 	"/>
	<polygon class="st75" points="23.1,38.1 41.1,28.8 41.1,24.8 23.1,34.2 	"/>
	<polygon class="st75" points="23.1,31.8 6.3,22.6 6.3,18.6 23.1,27.8 	"/>
	<polygon class="st76" points="6.3,18.6 23.1,27.8 41.1,18.5 24.4,9.3 	"/>
	<polygon class="st75" points="23.1,31.8 41.1,22.4 41.1,18.5 23.1,27.8 	"/>
</g>
<g id="hex-percona_x60_47x54">
	<polygon id="_x3E_bg_12_" class="st77" points="46.5,40.3 23.2,53.7 0,40.3 0,13.4 23.2,0 46.5,13.4 	"/>
	<circle class="st78" cx="23.6" cy="26.1" r="16.1"/>
	<circle class="st79" cx="23.6" cy="26.1" r="9.4"/>
	<polygon class="st78" points="14.3,49.8 7.7,46 7.7,26.5 14.3,26.5 	"/>
</g>
<g id="hex-default_x60_47x54">
	<polygon id="_x3E_bg_13_" class="st80" points="46.5,40.3 23.2,53.7 0,40.3 0,13.4 23.2,0 46.5,13.4 	"/>
	<circle class="st81" cx="23.3" cy="25.9" r="11.7"/>
	<circle class="st9" cx="11.5" cy="10.4" r="1.3"/>
	<circle class="st9" cx="42.3" cy="14" r="1.3"/>
	<circle class="st9" cx="3.4" cy="16.6" r="0.9"/>
	<circle class="st9" cx="32.6" cy="39.5" r="0.9"/>
	<circle class="st9" cx="21.4" cy="40.3" r="0.9"/>
	<circle class="st9" cx="16.8" cy="45.5" r="0.9"/>
	<circle class="st9" cx="42.5" cy="40.3" r="0.9"/>
	<circle class="st9" cx="11.8" cy="40.3" r="2.5"/>
	<circle class="st9" cx="35.4" cy="11.9" r="2.5"/>
	<circle class="st9" cx="39" cy="19" r="1.8"/>
	<path class="st9" d="M35,25.9c0,6.4-23.3,6.4-23.3,0s5.2-11.7,11.7-11.7C29.8,14.2,35,19.5,35,25.9z"/>
	<path class="st82" d="M29.4,21c-2-2.3-6.6-3.8-8.9-3.6c2.3-1.3,3.9-1.3,5.7-0.7C28,17.3,29.1,18.9,29.4,21z"/>
</g>
<g id="hex-db_x60_47x54">
	<polygon id="_x3E_bg_14_" class="st83" points="46.5,40.3 23.2,53.7 0,40.3 0,13.4 23.2,0 46.5,13.4 	"/>
	<polyline class="st84" points="36.1,16.1 46.5,26.5 46.5,40.3 24.268,53.086 9.374,38.192 	"/>
	<polygon class="st9" points="16.1,37.6 9.4,33.2 16.1,28.8 29.4,28.8 36.1,33.2 29.4,37.6 	"/>
	<polygon class="st85" points="36.1,33.2 36.1,38 29.4,42.4 29.4,37.6 	"/>
	<rect x="16.1" y="37.6" class="st86" width="13.3" height="4.7"/>
	<polygon class="st87" points="16.1,37.6 9.4,33.2 9.4,38 16.1,42.4 	"/>
	<polygon class="st9" points="16.1,29.1 9.4,24.7 16.1,20.3 29.4,20.3 36.1,24.7 29.4,29.1 	"/>
	<polygon class="st85" points="36.1,24.7 36.1,29.4 29.4,33.8 29.4,29.1 	"/>
	<rect x="16.1" y="29.1" class="st86" width="13.3" height="4.7"/>
	<polygon class="st87" points="16.1,29.1 9.4,24.7 9.4,29.4 16.1,33.8 	"/>
	<polygon class="st9" points="16.1,20.5 9.4,16.1 16.1,11.7 29.4,11.7 36.1,16.1 29.4,20.5 	"/>
	<polygon class="st85" points="36.1,16.1 36.1,20.9 29.4,25.3 29.4,20.5 	"/>
	<rect x="16.1" y="20.5" class="st86" width="13.3" height="4.7"/>
	<polygon class="st87" points="16.1,20.5 9.4,16.1 9.4,20.9 16.1,25.3 	"/>
</g>
<g id="hex-go_x60_47x54">
	<polygon class="st88" points="46.604,40.36 23.301,53.814 0,40.36 0,13.455 23.301,0 46.604,13.455 	"/>
	<g>
		<g>
			<g>
				<defs>
					<polygon id="SVGID_9_" points="46.604,40.36 23.301,53.814 0,40.36 0,13.455 23.301,0 46.604,13.455 					"/>
				</defs>
				<clipPath id="SVGID_10_">
					<use xlink:href="#SVGID_9_"  style="overflow:visible;"/>
				</clipPath>
				<circle class="st89" cx="33.448" cy="19.135" r="2.977"/>
			</g>
		</g>
		<g>
			<g>
				<defs>
					<polygon id="SVGID_11_" points="46.604,40.36 23.301,53.814 0,40.36 0,13.455 23.301,0 46.604,13.455 					"/>
				</defs>
				<clipPath id="SVGID_12_">
					<use xlink:href="#SVGID_11_"  style="overflow:visible;"/>
				</clipPath>
				<circle class="st90" cx="33.448" cy="19.136" r="1.249"/>
			</g>
		</g>
		<g>
			<g>
				<defs>
					<polygon id="SVGID_13_" points="46.604,40.36 23.301,53.814 0,40.36 0,13.455 23.301,0 46.604,13.455 					"/>
				</defs>
				<clipPath id="SVGID_14_">
					<use xlink:href="#SVGID_13_"  style="overflow:visible;"/>
				</clipPath>
				<circle class="st91" cx="13.241" cy="19.135" r="2.976"/>
			</g>
		</g>
		<g>
			<g>
				<defs>
					<polygon id="SVGID_15_" points="46.604,40.36 23.301,53.814 0,40.36 0,13.455 23.301,0 46.604,13.455 					"/>
				</defs>
				<clipPath id="SVGID_16_">
					<use xlink:href="#SVGID_15_"  style="overflow:visible;"/>
				</clipPath>
				<circle class="st92" cx="13.241" cy="19.136" r="1.249"/>
			</g>
		</g>
		<g>
			<g>
				<defs>
					<polygon id="SVGID_17_" points="46.604,40.36 23.301,53.814 0,40.36 0,13.455 23.301,0 46.604,13.455 					"/>
				</defs>
				<clipPath id="SVGID_18_">
					<use xlink:href="#SVGID_17_"  style="overflow:visible;"/>
				</clipPath>
				<g class="st93">
					<path class="st94" d="M35.285,26.381c0,6.591-5.393,11.984-11.984,11.984s-11.984-5.393-11.984-11.984
						c0-6.591,5.393-11.984,11.984-11.984S35.285,19.79,35.285,26.381z"/>
				</g>
			</g>
		</g>
		<g>
			<g>
				<defs>
					<polygon id="SVGID_19_" points="46.604,40.36 23.301,53.814 0,40.36 0,13.455 23.301,0 46.604,13.455 					"/>
				</defs>
				<clipPath id="SVGID_20_">
					<use xlink:href="#SVGID_19_"  style="overflow:visible;"/>
				</clipPath>
				<polygon class="st95" points="11.318,46.899 23.301,53.814 35.285,46.899 35.285,26.383 11.318,26.383 				"/>
			</g>
		</g>
	</g>
	<circle class="st9" cx="17.583" cy="23.273" r="4.138"/>
	<circle class="st9" cx="29.31" cy="23.273" r="4.138"/>
	<circle class="st9" cx="22.551" cy="32.871" r="0.754"/>
	<rect x="21.797" y="30.481" class="st9" width="1.508" height="2.39"/>
	<circle class="st9" cx="24.425" cy="32.871" r="0.754"/>
	<rect x="23.671" y="30.481" class="st9" width="1.507" height="2.39"/>
	<circle class="st96" cx="27.698" cy="23.48" r="1.249"/>
	<circle class="st96" cx="15.648" cy="23.48" r="1.249"/>
	<circle class="st94" cx="36.854" cy="33.501" r="1.236"/>
	<rect x="34.072" y="32.265" class="st94" width="2.782" height="2.472"/>
	<circle class="st94" cx="9.749" cy="33.501" r="1.236"/>
	<rect x="9.749" y="32.265" class="st94" width="2.783" height="2.472"/>
	<ellipse class="st97" cx="25.839" cy="29.899" rx="1.24" ry="1.231"/>
	<ellipse class="st97" cx="21.192" cy="29.899" rx="1.24" ry="1.231"/>
	<path class="st97" d="M21.722,31.011c0.858-0.53,2.212-0.881,3.359-0.14c1.145,0.741,1.546-1.916,1.546-1.916
		c-1.345-0.842-3.935-1.229-6.12-0.082L21.722,31.011z"/>
	<ellipse class="st96" cx="23.541" cy="28.158" rx="1.842" ry="1.094"/>
</g>
<g id="hex-tolmar_x60_47x54">
	<polygon class="st98" points="46.604,40.36 23.301,51.814 0,40.36 0,13.455 23.301,0 46.604,13.455 	"/>
	<polyline class="st99" points="23.301,51.814 0,40.36 0,13.455 23.301,0 46.604,13.455 	"/>
	<g>
		<g id="leaf">
			<path class="st9" d="M40.309,18.015c-7.742,0-13.515,8.182-10.846,14.059C40.42,32.074,35.96,21.96,40.309,18.015z"/>
		</g>
		<path class="st100" d="M23.301,53.814L46.604,40.36c-2.715-1.24-2.715-1.24-3.726-1.5c-5.335-1.372-12.467-2.654-19.374-3.057
			c-4.394-0.257-16.198,1.589-23.442,4.593L23.301,53.814z"/>
		<path class="st101" d="M0,40.36l11.518,6.65c6.914-1.074,12.533-8.735,12.533-18.151c0-10.422-6.878-12.519-10.693-12.519
			c-4.789,0-9.583,1.813-13.358,5.005V40.36z"/>
		<path id="eye_rim" class="st100" d="M8.198,27.492c0,2.812,2.279,5.091,5.091,5.091c2.812,0,5.091-2.28,5.091-5.091
			c0-2.812-2.279-5.091-5.091-5.091C10.477,22.401,8.198,24.68,8.198,27.492z"/>
		<path id="eye" class="st102" d="M10.241,27.492c0,1.683,1.365,3.048,3.048,3.048s3.048-1.365,3.048-3.048
			c0-1.683-1.365-3.048-3.048-3.048C11.606,24.444,10.241,25.809,10.241,27.492z"/>
		<ellipse id="pupil_highlight" class="st9" cx="13.289" cy="26.14" rx="1.776" ry="1.104"/>
		<path id="beak" class="st103" d="M23.733,24.884c-2.314,1.348-2.238,5.711-1.209,7.84c1.991-0.738,4.766-2.202,5.197-2.464
			c0.431-0.262-0.238-1.254,1.434-1.254c2.319,0,4.416,0.725,5.017,0.986C33.79,29.207,29.024,24.884,23.733,24.884z"/>
		<g>
			<path class="st102" d="M0,22.142c3.574-3.348,8.256-5.341,13.358-5.341c6.316,0,9.169,4.971,9.755,6.854
				c-3.81,3.862-2.306,8.747-0.918,10.955c-1.974,3.283-5.853,5.529-10.36,6.551c5.06,0,8.036-1.302,9.767-2.578
				c1.105-0.814,1.704-1.617,2.01-2.065c7.502,0.485,19.38,2.902,20.539,3.685c0.326,0.22,0.652,0.632,0.846,1.085l1.608-0.929
				v-1.885c-4.8-2.352-17.143-3.83-21.36-4.296c0.23-0.543,0.425-1.104,0.587-1.681c0.647-0.283,1.344-0.547,2.066-0.767
				c0.088,0.259,0.502,1.253,0.738,1.725c9.537,0.263,10.027-7.087,10.415-9.101c0.379-1.969,0.36-3.872,3.631-7.35
				c-4.874-1.42-11.882,2.201-14.23,7.591c-0.882-0.331-1.766-0.575-2.641-0.726c-0.626-2.528-3.89-9.571-12.453-9.571
				C8.642,14.3,3.901,15.969,0,18.919V22.142z M29.623,31.85c-0.322-0.698-0.648-1.857-0.608-2.539
				c0.543-0.013,1.583,0.191,1.75,0.23c-0.064,0.32-0.098,1.021-0.099,1.112c0.103-0.178,0.389-0.79,0.506-1.031
				c1.042,0.199,2.411,0.532,3.214,0.906C33.444,31.139,31.841,31.803,29.623,31.85z M39.906,18.307
				c-2.92,2.648-1.824,7.934-4.284,11.066l-0.731-0.682c-0.75-0.703-1.533-1.339-2.336-1.904c1.197-2.374,2.7-4.967,4.6-6.571
				c-2.09,0.843-4.155,3.361-5.375,6.053c-0.622-0.395-1.253-0.748-1.89-1.056C31.591,21.579,35.546,18.544,39.906,18.307z
				 M33.555,29.596c-1.463-0.575-3.32-0.938-4.621-0.938c-1.845,0-2.969,1.046-4.705,1.046c-0.365,0-1.234,0.002-1.932-0.247
				c0.459,0.481,1.03,0.743,2.137,0.743c0.661,0,1.971-0.338,3.031-0.657c0.015,0.223,0.038,0.445,0.07,0.665
				c-1.986,0.475-4.071,1.739-4.674,2.067c-1.342-2.963-0.188-5.765,0.879-7.058C28.519,25.228,32.378,28.509,33.555,29.596z"/>
		</g>
	</g>
</g>
<g id="hex-python_x60_47x54">
	<polygon class="st104" points="46.572,40.332 23.286,53.778 0,40.332 0,13.444 23.286,0 46.572,13.444 	"/>
	<polygon class="st104" points="23.286,53.778 0,40.332 0,13.444 23.286,0 	"/>
	<g>
		<g>
			<g>
				<defs>
					<polygon id="SVGID_21_" points="46.572,40.332 23.286,53.778 0,40.332 0,13.444 23.286,0 46.572,13.444 					"/>
				</defs>
				<clipPath id="SVGID_22_">
					<use xlink:href="#SVGID_21_"  style="overflow:visible;"/>
				</clipPath>
				<polyline class="st105" points="17.164,38.036 30.716,49.487 46.572,40.332 46.572,33.117 29.552,16.097 28.716,23.726 
					23.286,26.46 23.286,29.211 17.164,38.036 				"/>
			</g>
		</g>
	</g>
	<polygon class="st106" points="12.98,33.502 17.667,38.189 23.286,30.055 23.286,24.213 12.98,29.462 	"/>
	<path class="st9" d="M23.388,19.127h-6.224v-2.605l2.771-2.928h7.462l2.906,3.034v7.354l-2.724,2.753h-8.673l-3.128,3.154v3.969
		l-2.799-0.357l-2.732-2.615v-7.204l3.169-3.171h9.971L23.388,19.127L23.388,19.127z"/>
	
		<rect x="20.048" y="15.269" transform="matrix(0.7071 -0.7071 0.7071 0.7071 -5.3948 19.7842)" class="st106" width="2.272" height="2.271"/>
	<path class="st9" d="M24.079,35.727h6.224v2.402l-2.642,2.439h-7.462l-3.036-2.544V30.67l2.853-2.552h8.672l2.998-3.028v-4.035
		l2.963,0.095l2.57,2.616v7.205l-3.042,3.373H24.078L24.079,35.727L24.079,35.727z M24.473,39.744l1.533-1.533l-1.532-1.533
		l-1.533,1.533L24.473,39.744z"/>
</g>
<g id="hex-middleman_x60_47x54">
	<polygon id="_x3E_bg_2_" class="st107" points="46.5,40.3 23.2,53.7 0,40.3 0,13.4 23.2,0 46.5,13.4 	"/>
	<path class="st108" d="M8.886,20.71v12.738l3.11,0.529v-8.062l3.043,5.735h0.067l3.207-5.757v8.666l3.669,0.544V18.942l-3.93,0.552
		l-3.005,5.824l-2.856-5.131L8.886,20.71z M8.819,17.041l14.542-2.871v2.133L8.819,18.711V17.041z"/>
	<path class="st108" d="M8.819,36.796l14.542,2.864v-2.125L8.819,35.118V36.796z"/>
	<path class="st9" d="M37.681,20.732v12.835l-3.11,0.403v-8.136l-3.043,5.735h-0.067l-3.207-5.757v8.875l-3.662,0.328V18.965
		l3.923,0.552l3.005,5.713l2.856-4.915L37.681,20.732z M37.606,17.041l-14.244-2.871v2.028l14.244,2.416V17.041z"/>
	<path class="st9" d="M37.606,36.796L23.362,39.66v-2.125l14.244-2.312V36.796z"/>
</g>
<g id="hex-empty_x60_48x55">
	<polygon class="st109" points="47,40.877 23.7,54.277 0.5,40.877 0.5,13.977 23.7,0.577 47,13.977 	"/>
</g>
</svg>
