<?xml version="1.0" encoding="iso-8859-1"?>
<!-- Generator: Adobe Illustrator 21.0.0, SVG Export Plug-In . SVG Version: 6.00 Build 0)  -->
<svg version="1.1" id="Layer_1" xmlns="http://www.w3.org/2000/svg" xmlns:xlink="http://www.w3.org/1999/xlink" x="0px" y="0px"
	 viewBox="0 0 200 200" style="enable-background:new 0 0 200 200;" xml:space="preserve">
<style type="text/css">
	.st0{fill:#5E5E5E;}
	.st1{fill:#444444;}
	.st2{fill:#EFEAE6;}
	.st3{fill:#333333;}
	.st4{fill:#EF3942;}
	.st5{fill:#C12E35;}
	.st6{fill:#FCF2F3;}
	.st7{fill:#0A8DA0;}
	.st8{fill:#FFFFFF;}
	.st9{fill:#21759B;}
	.st10{fill:#08597C;}
	.st11{fill:#DC332E;}
	.st12{fill:#A5241F;}
	.st13{fill:#F04C5C;}
	.st14{fill:#C4314A;}
	.st15{fill:#FD4F00;}
	.st16{fill:#EE4323;}
	.st17{fill:#C2371C;}
	.st18{fill:#FEF6F5;}
	.st19{fill:#EB5D42;}
	.st20{fill:#C23E26;}
	.st21{fill:none;stroke:#E7EBEE;stroke-miterlimit:10;}
	.st22{fill:#383838;}
	.st23{fill:#595959;}
	.st24{fill:#939393;}
	.st25{fill:#BFBFBF;}
	.st26{fill:#3EB88A;}
	.st27{fill:#28A47D;}
	.st28{fill:#FB503B;}
	.st29{fill:#FD9689;}
	.st30{fill:#4AABE0;}
	.st31{fill:#388DBA;}
	.st32{fill:#FB42B9;}
	.st33{fill:#CA127F;}
	.st34{fill:#212E4C;}
	.st35{fill:#E86161;}
	.st36{fill:#345D78;}
	.st37{fill:#B0AE92;}
	.st38{fill:#75735F;}
	.st39{fill:#F6941F;}
	.st40{fill:none;stroke:#F6941F;stroke-width:0.75;stroke-miterlimit:10;}
	.st41{fill:#D43D44;}
	.st42{fill:#B03238;}
	.st43{fill:#70A04A;}
	.st44{fill:#567A39;}
	.st45{fill:none;stroke:#DEDEDE;stroke-width:0.6668;stroke-miterlimit:10;}
	.st46{fill:none;stroke:#FFFFFF;stroke-miterlimit:10;}
	.st47{fill:url(#SVGID_1_);}
	.st48{fill:#FFCDAB;}
	.st49{fill:#E0564E;}
	.st50{fill:#E86B64;}
	.st51{fill:#4AB77E;}
	.st52{fill:#354960;}
	.st53{fill:#338C66;}
</style>
<g id="hex-sinatra_x60_46x54">
	<polygon class="st0" points="45.998,39.766 22.999,53.065 0,39.766 0,13.298 22.999,0 45.998,13.298 	"/>
	<polygon class="st1" points="7.645,32.571 25.312,51.651 45.934,39.831 45.934,32.122 37.968,22.035 36.426,22.806 32.057,16.832 
		22.871,25.183 	"/>
	<path class="st2" d="M7.131,30.387c0-2.57,5.975-6.36,15.483-9.251c4.882-1.478,9.572-1.67,12.849-0.578
		c3.276,1.092,4.176,3.726,4.176,6.232c0,3.919-7.131,8.801-14.647,9.444C17.474,36.876,7.131,36.233,7.131,30.387z"/>
	<path class="st2" d="M13.62,23.963c0,0,0.514-3.405,0.578-4.112c0.321-2.891,2.056-3.598,4.369-4.047
		c1.537-0.334,3.135-0.245,4.626,0.257c0.642,0.257-6.039,2.056-5.589,2.505c1.221,1.092,9.123-3.919,12.913-2.762
		c1.349,0.45,1.67,0.899,2.505,3.983c0.257,0.899,1.092,4.69,1.092,4.69c-0.866,1.339-2.326,2.176-3.919,2.249
		c-2.634,0.064-7.902,0.257-10.472,0.064S13.877,25.826,13.62,23.963z"/>
	<path class="st3" d="M34.434,25.826c0,0,0.642,2.12-3.405,3.855c-2.377,1.028-7.067,1.992-11.5,1.992
		c-2.57,0-5.975-1.67-6.232-3.533l0.321-4.176c0.257,1.863,3.598,2.57,6.167,2.827s7.709-0.128,10.536-1.092
		c1.382-0.441,2.623-1.239,3.598-2.313L34.434,25.826z"/>
</g>
<g id="hex-rails_x60_47x54">
	<polygon class="st4" points="45.953,39.799 22.973,53.065 0,39.799 0,13.266 22.973,0 45.953,13.266 	"/>
	<polygon class="st5" points="30.066,11.153 28.029,14.056 23.314,9.283 22.678,12.842 26.674,16.755 23.757,21.791 18.508,16.607 
		14.423,17.012 22.125,24.612 19.453,29.211 14.121,23.95 10.388,25.691 17.448,32.655 15.675,35.7 12.213,32.218 8.827,35.16 
		24.528,51.883 46.107,39.799 46.107,28.299 	"/>
	<path class="st6" d="M12.746,20.564"/>
	<path class="st6" d="M13.735,39.387c-0.373-12.849,3.617-23.931,16.331-28.235l0.989,1.927c-7.433,5.101-8.544,15.38-5.274,26.23
		L13.735,39.387z"/>
	
		<rect x="8.981" y="32.174" transform="matrix(0.0698 -0.9976 0.9976 0.0698 -23.8496 41.9529)" class="st6" width="3.181" height="3.181"/>
	<polygon class="st6" points="13.26,26.59 10.388,25.646 11.326,22.774 14.121,23.956 	"/>
	<polygon class="st6" points="16.812,18.624 14.423,17.012 16.472,14.59 18.515,16.607 	"/>
	<polygon class="st6" points="22.729,12.842 21.104,10.812 23.436,9.283 24.689,11.557 	"/>
	<polygon class="st6" points="29.982,36.374 27.066,36.169 26.359,33.188 29.121,33.381 	"/>
	<polygon class="st6" points="28.62,30.214 25.935,29.745 25.877,27.117 28.273,27.837 	"/>
	<polygon class="st6" points="28.248,25.382 26.115,24.515 26.783,22.19 28.62,23.5 	"/>
	<polygon class="st6" points="29.141,20.982 27.702,19.395 29.031,17.532 30.014,19.421 	"/>
</g>
<g id="hex-sails_x60_47x54">
	<polygon class="st7" points="46.014,39.851 23.004,53.135 0,39.851 0,13.284 23.004,0 46.014,13.284 	"/>
	<path class="st8" d="M11.948,39.553c0,0-11.126-17.708,11.769-29.108v29.108H11.948z"/>
	<path class="st8" d="M27.256,39.553V21.507c0,0,3.656,5.963,11.078,18.046H27.256z"/>
</g>
<g id="hex-wordpress_x60_46x54">
	<polygon class="st9" points="45.944,39.791 22.969,53.054 0,39.791 0,13.264 22.969,0 45.944,13.264 	"/>
	<path class="st10" d="M45.944,39.823v-8.684L33.682,16.257c-5.628-5.976-15.034-6.258-21.01-0.63
		c-5.42,5.104-6.227,13.432-1.888,19.482c0.829,1.163,14.94,16.353,14.94,16.353L45.944,39.823z"/>
	<path class="st8" d="M22.982,12.332c-7.84-0.004-14.198,6.349-14.201,14.188s6.349,14.198,14.188,14.201
		c7.84,0.004,14.198-6.349,14.201-14.188l0,0C37.167,18.697,30.818,12.343,22.982,12.332z M10.219,26.527
		c-0.001-1.788,0.376-3.557,1.105-5.19l6.089,16.7C13.004,35.899,10.209,31.427,10.219,26.527z M22.982,39.29
		c-1.224,0.001-2.442-0.174-3.616-0.52l3.854-11.125l3.905,10.765c0.025,0.06,0.055,0.118,0.09,0.173
		C25.854,39.056,24.422,39.295,22.982,39.29z M24.742,20.554c0.771-0.039,1.458-0.122,1.458-0.122
		c0.291-0.023,0.508-0.278,0.485-0.568c-0.023-0.291-0.278-0.508-0.568-0.485c0,0-2.068,0.161-3.398,0.161s-3.353-0.161-3.353-0.161
		c-0.291-0.009-0.534,0.22-0.542,0.511c-0.008,0.266,0.183,0.496,0.446,0.536c0,0,0.642,0.083,1.336,0.122l1.965,5.447l-2.794,8.35
		l-4.612-13.79c0.771-0.039,1.458-0.122,1.458-0.122c0.291-0.023,0.508-0.278,0.485-0.568c-0.023-0.291-0.278-0.508-0.568-0.485
		c0,0-2.068,0.161-3.398,0.161h-0.822c3.871-5.886,11.781-7.52,17.667-3.649c0.566,0.372,1.102,0.789,1.602,1.247h-0.167
		c-1.218,0.035-2.178,1.049-2.145,2.267c0,1.053,0.604,1.927,1.285,2.993c0.651,1.05,1,2.259,1.008,3.494
		c0,1.092-0.417,2.357-0.97,4.124l-1.285,4.252L24.742,20.554z M29.398,37.562l3.899-11.266c0.617-1.449,0.945-3.005,0.963-4.58
		c0-0.43-0.028-0.859-0.083-1.285c3.298,6.061,1.182,13.646-4.779,17.124V37.562z"/>
</g>
<g id="hex-angular_x60_46x54">
	<polyline class="st11" points="22.951,53.027 0,39.765 0,13.252 22.951,0 	"/>
	<polyline class="st12" points="22.951,0 45.913,13.252 45.913,39.765 22.951,53.027 	"/>
	<path class="st8" d="M22.962,7.593L22.962,7.593L8.824,38.992h5.191l2.982-7.125h11.929l2.982,7.125h5.191L22.962,7.593z
		 M18.789,27.643l4.173-9.903l4.173,9.903C20.539,27.664,22.331,27.664,18.789,27.643z"/>
</g>
<g id="hex-beego_x60_46x53">
	<polygon class="st13" points="45.854,39.713 22.924,52.951 0,39.713 0,13.238 22.924,0 45.854,13.238 	"/>
	<polygon class="st14" points="37.95,18.09 34.405,20.135 23.661,9.257 21.956,13.994 25.866,17.956 17.552,17.873 12.424,27.084 
		15.866,33.258 15.328,38.425 27.245,50.483 45.854,39.713 45.854,26.232 	"/>
	<path class="st8" d="M16.187,38.688c-0.641,0.002-1.174-0.495-1.218-1.135l-0.276-3.898l-3.526-6.09
		c-0.218-0.377-0.218-0.841,0-1.218l5.308-9.206c0.21-0.39,0.615-0.636,1.058-0.641h10.603c0.443,0.005,0.848,0.251,1.058,0.641
		l5.302,9.186c0.218,0.377,0.218,0.841,0,1.218l-5.302,9.186c-0.21,0.39-0.615,0.636-1.058,0.641h-7.885l-3.667,1.282
		C16.454,38.688,16.32,38.699,16.187,38.688z M13.629,26.924l3.314,5.769c0.093,0.161,0.148,0.341,0.16,0.526l0.179,2.564
		l2.359-0.821c0.128-0.045,0.262-0.069,0.397-0.071h7.391l4.622-7.968l-4.622-7.955h-9.199L13.629,26.924z"/>
	<path class="st8" d="M22.527,9.135h0.609c0.531,0,0.962,0.431,0.962,0.962v3.148c0,0.531-0.431,0.962-0.962,0.962h-0.609
		c-0.531,0-0.962-0.431-0.962-0.962v-3.148C21.565,9.566,21.996,9.135,22.527,9.135z"/>
	<path class="st8" d="M38.136,18.322l0.305,0.527c0.266,0.46,0.108,1.048-0.352,1.314l-2.726,1.574
		c-0.46,0.266-1.048,0.108-1.314-0.352l-0.305-0.527c-0.266-0.46-0.108-1.048,0.352-1.314l2.726-1.574
		C37.283,17.705,37.871,17.862,38.136,18.322z"/>
</g>
<g id="hex-phoenix_x60_46x53">
	<polygon class="st15" points="45.854,39.713 22.924,52.951 0,39.713 0,13.238 22.924,0 45.854,13.238 	"/>
	<path id="Phoenix" sketch:type="MSShapeGroup" class="st8" d="M18.446,34.88c-0.185-0.033-0.257-0.045-0.33-0.058
		c-2.341-0.427-3.821-1.815-4.522-3.997c-0.437-1.36,0.357-2.362,1.813-2.428c1.192-0.054,2.008,0.617,2.73,1.399
		c0.93,1.007,1.783,2.083,2.696,3.105c1.315,1.472,2.865,2.42,4.986,2.127c1.901-0.262,3.558-1.01,5-2.241
		c0.217-0.185,0.455-0.346,0.683-0.518c-0.048-0.055-0.096-0.111-0.144-0.166c-1.21,0.368-2.445,0.492-3.706,0.43
		c-1.908-0.094-3.727-0.485-5.354-1.511c-1.485-0.937-2.58-2.193-3.1-3.87c-0.42-1.355,0.44-2.303,1.873-2.107
		c0.566,0.077,1.043,0.327,1.471,0.682c0.348,0.288,0.683,0.594,1.038,0.874c1.672,1.317,4.009,1.39,6.131-0.04
		c-3.49-0.016-5.864-1.897-7.949-4.281c-0.816-0.933-1.613-1.883-2.446-2.801c-1.612-1.777-3.4-3.342-5.848-3.877
		c-3.127-0.682-6.147-0.236-9.045,1.064c-0.578,0.259-1.133,0.561-1.729,1.047c0.295,0,0.456,0.004,0.616,0
		c1.461-0.037,2.556,0.599,3.346,1.771c0.575,0.852,0.846,1.816,1.052,2.808c0.306,1.472,0.148,2.973,0.325,4.451
		c0.455,3.801,2.437,6.454,6.129,7.812C15.516,35.054,16.905,35.219,18.446,34.88L18.446,34.88L18.446,34.88z M10.613,18.461
		c-1.276,0.315-2.295-0.189-3.346-1.231c1.799-0.439,3.386-0.61,5.091-0.675C12.219,17.639,11.566,18.225,10.613,18.461
		L10.613,18.461z M28.231,39.737c-0.051-0.366-0.37-0.527-0.621-0.719c-1.11-0.846-2.407-1.146-3.783-1.171
		c-0.821-0.015-1.634-0.075-2.408-0.357c-0.355-0.129-0.752-0.295-0.743-0.745c0.009-0.456,0.414-0.585,0.782-0.693
		c0.302-0.088,0.613-0.145,0.956-0.223c-0.872-0.548-1.724-0.624-2.86-0.176c-1.787,0.704-3.55,0.621-5.331-0.01
		c-1.006-0.356-1.899-0.914-2.828-1.409l-0.025,0.017c0.012-0.008,0.025-0.017,0.024-0.016c-0.023-0.069-0.065-0.07-0.118-0.032
		c0.024,0.021,0.049,0.042,0.073,0.063c0.771,1.238,1.812,2.234,2.989,3.086c2.266,1.639,4.74,2.617,7.636,2.183
		c0.935-0.14,1.877-0.249,2.821-0.323C25.977,39.118,27.104,39.444,28.231,39.737L28.231,39.737z M22.772,21.976
		c-0.063-0.044-0.123-0.156-0.251-0.041c1.042,1.381,2.38,2.399,3.991,3.04c2.601,1.034,5.24,1.211,7.94,0.298
		c2.096-0.708,3.603-0.016,4.386,1.978c0.113-2.315-1.276-4.001-3.49-4.332c-1.245-0.186-2.395,0.219-3.561,0.55
		C28.541,24.392,25.525,23.937,22.772,21.976L22.772,21.976z M38.949,31.004c0.423,0.035,0.846,0.072,1.269,0.109
		c-0.956-0.823-2.12-0.888-3.298-0.822c-1.794,0.1-3.087,1.114-4.265,2.325c-1.038,1.068-1.976,2.266-3.526,2.695
		c0.026,0.046,0.033,0.068,0.04,0.068c0.208,0.003,0.417,0.013,0.625,0.003c2.25-0.1,4.37-0.565,6.057-2.166
		c0.531-0.504,1.006-1.064,1.519-1.587C37.797,31.194,38.315,30.952,38.949,31.004L38.949,31.004z M33.721,28.271
		c-1.679,0.144-3.138,0.825-4.508,1.722c-1.055,0.691-2.183,1.018-3.45,0.802c-0.223-0.038-0.448-0.066-0.671-0.099
		c-0.003,0.031-0.005,0.061-0.008,0.092c0.081,0.041,0.158,0.088,0.242,0.121c0.211,0.082,0.419,0.18,0.639,0.232
		c2.439,0.568,4.774,0.277,6.879-1.055c1.327-0.84,2.7-0.999,4.189-0.782c0.15,0.022,0.3,0.049,0.451,0.063
		c0.14,0.013,0.286,0.149,0.475,0.002C36.657,28.445,35.255,28.14,33.721,28.271L33.721,28.271z M27.719,22.684
		c0.881,0.03,1.758-0.083,2.68-0.62c-0.27,0.023-0.384,0.023-0.494,0.044c-1.269,0.248-2.409-0.023-3.424-0.81
		c-0.372-0.289-0.751-0.57-1.128-0.852c-1.495-1.121-3.21-1.496-5.085-1.464c0.03,0.09,0.032,0.152,0.065,0.184
		C22.372,21.19,24.734,22.584,27.719,22.684L27.719,22.684z M42.488,33.063c-1.263-1.228-2.958-1.386-4.526-0.314
		c1.038,0.046,1.817,0.37,2.449,1.012c0.224,0.227,0.455,0.45,0.706,0.647c0.956,0.755,2.575,0.792,3.522,0.091
		C43.527,34.073,43.527,34.073,42.488,33.063L42.488,33.063z M29.91,42.463c-1.11-2.025-2.975-2.481-5.13-2.346
		c0.637,0.173,1.232,0.439,1.778,0.813c0.502,0.343,0.924,0.768,1.34,1.203c0.824,0.862,2.111,1.391,2.963,1.212
		C30.47,43.104,30.122,42.849,29.91,42.463L29.91,42.463z M40.238,31.155c0-0.013,0.001-0.026,0.001-0.039
		c0,0-0.002,0.002-0.003,0.003l0.004-0.004c-0.007-0.001-0.015-0.001-0.022-0.002c0.004,0.004,0.009,0.007,0.013,0.011
		C40.233,31.134,40.235,31.144,40.238,31.155L40.238,31.155z M27.875,38.841c-0.013-0.007-0.027-0.015-0.04-0.022
		c0.002,0.008,0.004,0.017,0.008,0.023C27.846,38.847,27.864,38.842,27.875,38.841L27.875,38.841z M27.835,38.819
		c-0.001-0.006-0.002-0.012-0.004-0.018c0,0-0.002,0.003-0.005,0.006l0.005-0.005c-0.004-0.001-0.008-0.002-0.012-0.003
		c0.001,0.005,0.003,0.009,0.003,0.014C27.826,38.814,27.831,38.817,27.835,38.819L27.835,38.819z"/>
</g>
<g id="hex-codeigniter_x60_47x54">
	<polygon class="st16" points="46.037,39.871 23.015,53.161 0,39.871 0,13.29 23.015,0 46.037,13.29 	"/>
	<polygon class="st17" points="45.985,35.025 24.495,12.743 12.911,34.626 27.926,50.188 46.062,39.935 	"/>
	<path class="st18" d="M19.012,38.127c-1.615-0.702-3.128-2.471-3.134-4.293c0-1.982,1.249-3.662,2.813-4.769
		c-0.274,0.653-0.209,1.399,0.174,1.995c0.444,0.602,1.201,0.885,1.931,0.721c1.673-0.367,1.744-2.201,0.759-3.269
		c-0.985-1.068-1.931-2.259-1.551-3.791c0.212-0.786,0.662-1.487,1.287-2.008c-0.463,1.21,0.85,2.401,1.712,2.999
		c1.493,1.03,3.134,1.809,4.505,3.018c1.371,1.21,2.516,2.986,2.298,4.981c-0.232,2.162-1.931,3.662-3.862,4.422
		c4.068-0.901,8.27-4.055,8.367-8.566c0.071-3.714-2.478-6.571-5.632-8.206l-0.251-0.097c0.074,0.173,0.112,0.359,0.109,0.547
		c0.029-0.12,0.046-0.243,0.051-0.367c-0.001,0.148-0.02,0.295-0.058,0.438v-0.064c-0.047,0.196-0.125,0.383-0.232,0.553
		l0.045-0.051c-0.602,0.915-1.831,1.168-2.746,0.567c-0.16-0.105-0.304-0.233-0.427-0.38c-1.352-1.738,0-3.611,0.219-5.451
		c0.245-2.304-1.204-4.544-2.999-5.889c0.991,1.596-0.315,3.714-1.358,4.898c-1.043,1.184-2.208,2.105-3.321,3.115
		c-1.215,1.103-2.331,2.311-3.334,3.611c-1.969,2.626-3.173,5.934-2.291,9.21s3.72,5.361,6.925,6.095l0,0V38.127z"/>
</g>
<g id="hex-ember_x60_47x54">
	<polygon class="st19" points="46.358,40.15 23.176,53.533 0,40.15 0,13.383 23.176,0 46.358,13.383 	"/>
	<polygon class="st20" points="8.438,30.091 28.737,50.318 46.358,40.15 46.358,32.029 30.545,16.008 21.238,18.361 18.957,30.299 	
		"/>
	<path class="st8" d="M34.058,30.843c-0.57-0.81-1.147-0.084-2.003,0.454c-1.944,1.218-4.537,2.515-7.174,2.554
		c-3.798,0.052-3.415-2.411-3.415-2.411s13.928-4.77,10.13-14.18c-1.705-2.424-3.688-3.182-6.481-3.13s-6.209,1.769-8.464,6.831
		c-0.859,2.054-1.401,4.226-1.607,6.442l0,0c0,0-2.521,0.499-3.843-0.603c-1.322-1.102-2.042,0-2.042,0s-2.288,2.852,0,3.733
		c1.855,0.609,3.769,1.019,5.71,1.225l0,0c0.534,2.511,1.959,4.745,4.012,6.287c2.314,1.756,5.833,1.491,8.425,0.862
		c2.395-0.686,4.59-1.939,6.397-3.655C34.349,34.518,34.621,31.653,34.058,30.843z M20.804,27.22
		c0.162-6.585,4.472-9.443,5.943-8.01c1.471,1.432,0.933,4.537-1.873,6.442C22.068,27.557,20.804,27.22,20.804,27.22z"/>
</g>
<g id="hex-express_x60_47x54">
	<polygon class="st8" points="46.374,40.163 23.184,53.55 0,40.163 0,13.388 23.184,0 46.374,13.388 	"/>
	<polygon class="st21" points="45.676,39.76 23.184,52.745 0.698,39.76 0.698,13.79 23.184,0.806 45.676,13.79 	"/>
	<path class="st22" d="M11.248,27.313v0.169c-0.004,0.818,0.109,1.632,0.337,2.418c0.206,0.73,0.544,1.415,0.998,2.023
		c0.445,0.584,1.02,1.057,1.679,1.381c0.725,0.35,1.523,0.524,2.327,0.506c1.25,0.068,2.48-0.34,3.443-1.141
		c0.897-0.848,1.508-1.953,1.75-3.164h1.07c-0.214,1.498-0.946,2.874-2.068,3.89c-1.191,0.943-2.684,1.422-4.201,1.348
		c-0.965,0.022-1.923-0.175-2.801-0.577c-0.776-0.368-1.459-0.906-1.997-1.575c-0.551-0.699-0.957-1.502-1.193-2.36
		c-0.27-0.955-0.403-1.944-0.395-2.937c-0.004-0.985,0.134-1.965,0.408-2.911c0.251-0.885,0.667-1.714,1.225-2.444
		c0.546-0.705,1.241-1.28,2.036-1.686c0.895-0.446,1.885-0.668,2.885-0.648c0.926-0.017,1.844,0.175,2.684,0.564
		c0.754,0.359,1.418,0.882,1.945,1.53c0.535,0.668,0.94,1.431,1.193,2.25c0.277,0.888,0.415,1.813,0.408,2.742
		c0,0.091,0,0.201,0,0.324s0,0.22,0,0.298h-11.67H11.248z M21.88,26.386c-0.033-0.76-0.166-1.512-0.395-2.237
		c-0.211-0.676-0.55-1.306-0.998-1.854c-0.44-0.54-0.987-0.981-1.608-1.297c-0.671-0.329-1.411-0.493-2.159-0.48
		c-0.789-0.016-1.57,0.153-2.282,0.493c-0.638,0.313-1.206,0.755-1.666,1.297c-0.461,0.552-0.815,1.185-1.044,1.867
		c-0.244,0.708-0.397,1.444-0.454,2.191H21.88V26.386z"/>
	<path class="st22" d="M29.051,26.808l-5.29-6.866h1.524l4.538,6.049l4.538-6.049h1.381l-5.271,6.866l5.712,7.592H34.73
		l-4.947-6.775l-5.063,6.775h-1.381L29.051,26.808z"/>
</g>
<g id="hex-flask_x60_47x54">
	<polygon class="st23" points="46.441,40.221 23.217,53.629 0,40.221 0,13.407 23.217,0 46.441,13.407 	"/>
	<path class="st8" d="M17.231,14.336c0,0,5.48,0.902,7.142,1.136c1.662,0.234,1.201,1.753-0.318,1.299
		c-1.519-0.454-7.343-1.948-7.343-1.948L17.231,14.336z"/>
	<polygon class="st24" points="12.888,19.147 12.498,17.205 21.419,15.309 21.938,17.16 	"/>
	<path class="st8" d="M22.601,19.679c0,0,0.136,9.518,4.116,12.654c2.294,1.866,5.001,3.157,7.895,3.766
		c3.389,0.812,3.246,2.766-0.578,2.922c-4.402,0.175-9.531-0.208-13.453-3.097c-6.2-4.571-7.499-12.42-7.856-14.232
		c-1.506-0.117-1.448-2.305,0.688-3.019c2.887-0.93,5.868-1.537,8.888-1.811C23.685,16.861,23.919,19.218,22.601,19.679z"/>
	<path class="st25" d="M12.725,21.692c0.357,1.811,1.656,9.661,7.85,14.238c3.896,2.889,9.051,3.246,13.453,3.097
		c2.123-0.084,3.11-0.734,2.974-1.428l-0.039-0.071c0,0-9.856,0.708-14.68-3.428s-5.954-7.927-6.207-9.999
		c-0.253-2.071,1.552-4.194,1.552-4.194s-1.299,0.403-3.103,0.805c-1.805,0.403-1.578-1.208-1.104-2.013
		C11.278,19.387,11.226,21.575,12.725,21.692z"/>
	<polygon class="st24" points="14.764,17.238 14.485,15.634 18.893,14.758 19.27,16.29 	"/>
	<circle class="st24" cx="16.42" cy="14.232" r="1.143"/>
</g>
<g id="hex-django_x60_47x54">
	<polygon class="st26" points="46.441,40.221 23.217,53.629 0,40.221 0,13.407 23.217,0 46.441,13.407 	"/>
	<polygon class="st27" points="11.076,35.016 27.357,51.239 46.441,40.221 46.441,25.146 33.752,12.29 28.503,17.692 28.554,15.25 
		25.402,12.28 20.153,21.625 12.466,26.814 	"/>
	<path class="st8" d="M33.751,20.385v12.167c0,4.192-0.307,6.203-1.227,7.941c-0.852,1.67-1.977,2.726-4.294,3.885l-4.874-2.318
		c2.318-1.09,3.442-2.044,4.158-3.51c0.75-1.499,0.989-3.238,0.989-7.804v-10.36H33.751z"/>
	<rect x="28.503" y="12.308" class="st8" width="5.248" height="5.385"/>
	<path class="st8" d="M20.153,12.28h5.248v24.293c-2.692,0.511-4.669,0.716-6.816,0.716c-6.407,0-9.747-2.897-9.747-8.452
		c0-5.351,3.545-8.827,9.031-8.827c0.852,0,1.499,0.068,2.283,0.272L20.153,12.28z M20.153,24.508
		c-0.613-0.204-1.125-0.272-1.772-0.272c-2.658,0-4.192,1.636-4.192,4.499c0,2.795,1.466,4.328,4.158,4.328
		c0.579,0,1.056-0.034,1.806-0.136V24.508z"/>
</g>
<g id="hex-laravel_x60_46x54">
	<polygon class="st28" points="45.936,39.784 22.965,53.045 0,39.784 0,13.261 22.965,0 45.936,13.261 	"/>
	<path class="st8" d="M39.27,26.876L39.27,26.876c-0.109-0.122-1.047-1.284-1.875-2.318c-0.828-1.034-1.58-1.965-1.824-2.261
		c-0.255-0.455-0.773-0.693-1.284-0.591H34.21c-0.334,0.051-4.155,0.694-4.495,0.751c-0.314,0.019-0.598,0.189-0.764,0.456
		c-0.079,0.22-0.033,0.466,0.122,0.642l2.993,4.238l-9.228,2.209L15.13,17.159l-0.051-0.077c-0.231-0.483-0.76-0.747-1.284-0.642
		c-0.726,0.032-6.287,0.494-6.518,0.514C6.979,16.95,6.7,17.095,6.531,17.339c-0.161,0.372-0.137,0.798,0.064,1.15
		c0.27,0.642,3.211,7.064,5.202,11.29l1.509,3.269c0.319,0.792,1.199,1.2,2.01,0.931c0.957-0.231,4.059-1.034,6.582-1.695
		c1.445,2.614,3.211,5.741,3.564,6.255c0.224,0.412,0.649,0.676,1.117,0.694c0.327-0.021,0.649-0.088,0.957-0.199
		c0.7-0.212,10.211-3.641,10.564-3.783c0.3-0.068,0.553-0.269,0.687-0.546c0.048-0.226-0.009-0.462-0.154-0.642
		c-0.186-0.276-2.087-2.826-3.757-5.06l3.988-1.06c0.254-0.041,0.468-0.215,0.559-0.456C39.483,27.269,39.424,27.038,39.27,26.876z
		 M33.182,29.316l1.355,1.862l1.843,2.53l-3.307,1.124c-4.123,1.394-5.979,2.023-6.075,2.068h-0.051
		c-0.047-0.041-0.088-0.088-0.122-0.141c-0.167-0.238-2.029-3.449-2.948-5.041L33.182,29.316z M31.082,23.812
		c0.835-0.148,3.211-0.572,3.378-0.642c0.017,0.004,0.035,0.004,0.051,0c0.028,0.021,0.052,0.047,0.071,0.077
		c0.128,0.173,1.22,1.561,2.383,3.038l0.206,0.257l-3.468,0.854L31.082,23.812z M36.701,33.632 M20.858,30.472l-5.658,1.361l0,0
		c-0.642-1.284-5.902-12.202-6.531-13.486l2.511-0.218l2.505-0.218C13.916,18.373,20.19,29.316,20.858,30.472z"/>
	<polygon class="st29" points="20.897,30.472 19.33,30.864 20.313,32.675 21.918,32.257 	"/>
	<polygon class="st29" points="33.195,29.316 33.998,30.408 35.661,29.977 34.91,28.976 	"/>
</g>
<g id="hex-symfony_x60_46x54">
	<polygon class="st30" points="45.936,39.784 22.965,53.045 0,39.784 0,13.261 22.965,0 45.936,13.261 	"/>
	<polygon class="st31" points="45.834,24.535 34.565,13.265 32.61,12.789 29.242,12.789 27.149,15.695 24.738,23.243 18.498,18.075 
		13.635,18.962 12.547,24.399 16.468,26.522 16.104,29.895 12.948,30.866 9.041,29.182 17.831,37.972 15.451,40.352 12.547,39.303 
		25.073,51.828 45.936,39.784 	"/>
	<path class="st8" d="M31.455,12.294c-2.107,0.072-3.947,1.236-5.317,2.841c-1.517,1.763-2.524,3.851-3.252,5.985
		c-1.3-1.066-2.302-2.446-4.389-3.046c-1.612-0.464-3.306-0.273-4.863,0.887c-0.737,0.551-1.246,1.383-1.487,2.167
		c-0.626,2.034,0.658,3.846,1.241,4.495l1.275,1.365c0.262,0.268,0.896,0.967,0.586,1.968c-0.333,1.09-1.646,1.794-2.993,1.38
		c-0.602-0.185-1.466-0.633-1.272-1.263c0.08-0.259,0.264-0.453,0.364-0.674c0.09-0.193,0.134-0.336,0.162-0.422
		c0.246-0.802-0.091-1.847-0.951-2.113c-0.803-0.246-1.624-0.051-1.943,0.982c-0.361,1.174,0.201,3.305,3.211,4.232
		c3.527,1.086,6.509-0.836,6.933-3.339c0.267-1.568-0.442-2.734-1.739-4.232l-1.058-1.17c-0.64-0.64-0.86-1.73-0.197-2.568
		c0.559-0.707,1.355-1.008,2.66-0.654c1.905,0.516,2.753,1.838,4.169,2.904c-0.584,1.919-0.967,3.844-1.312,5.571l-0.212,1.288
		c-1.012,5.309-1.785,8.225-3.794,9.899c-0.405,0.288-0.983,0.719-1.855,0.75c-0.458,0.014-0.606-0.301-0.612-0.439
		c-0.01-0.32,0.26-0.468,0.439-0.611c0.269-0.146,0.675-0.39,0.647-1.167c-0.029-0.919-0.791-1.716-1.891-1.68
		c-0.825,0.028-2.081,0.803-2.033,2.224c0.048,1.467,1.416,2.566,3.478,2.497c1.102-0.038,3.563-0.485,5.988-3.368
		c2.823-3.305,3.613-7.093,4.207-9.866l0.663-3.661c0.367,0.044,0.762,0.074,1.19,0.084c3.516,0.074,5.273-1.746,5.3-3.071
		c0.018-0.802-0.525-1.591-1.287-1.573c-0.544,0.015-1.228,0.378-1.392,1.131c-0.161,0.738,1.118,1.405,0.118,2.054
		c-0.71,0.459-1.983,0.783-3.776,0.52l0.326-1.802c0.665-3.417,1.486-7.62,4.6-7.723c0.227-0.011,1.057,0.01,1.076,0.559
		c0.005,0.182-0.04,0.23-0.255,0.65c-0.219,0.327-0.301,0.607-0.29,0.926c0.03,0.872,0.693,1.446,1.654,1.412
		c1.285-0.043,1.653-1.293,1.632-1.936C35.152,13.179,33.56,12.225,31.455,12.294z"/>
</g>
<g id="hex-hugo_x60_46x54">
	<polygon class="st32" points="45.944,39.79 22.969,53.054 0,39.79 0,13.263 22.969,0 45.944,13.263 	"/>
	<path class="st33" d="M38.981,37.186l-14.773,8.536c-0.757,0.437-1.69,0.437-2.447,0L6.988,37.186
		c-0.756-0.438-1.221-1.246-1.22-2.12V17.988c-0.001-0.874,0.464-1.682,1.22-2.12l14.773-8.536c0.757-0.437,1.69-0.437,2.447,0
		l14.773,8.536c0.756,0.438,1.221,1.246,1.22,2.12v17.079C40.202,35.94,39.737,36.748,38.981,37.186z"/>
	<polygon class="st8" points="25.875,16.444 25.875,23.51 20.094,23.51 20.094,16.444 15.598,16.444 15.598,35.713 20.094,35.713 
		20.094,27.364 25.875,27.364 25.875,35.713 30.371,35.713 30.371,16.444 	"/>
</g>
<g id="hex-meteor_x60_47x54">
	<polygon class="st34" points="46.014,39.851 23.004,53.135 0,39.851 0,13.284 23.004,0 46.014,13.284 	"/>
	<g>
		<path class="st35" d="M11.185,15.32l20.14,21.333c0,0,0.686,0.484,1.211-0.081s0.121-1.129,0.121-1.129L11.185,15.32L11.185,15.32
			z"/>
		<path class="st35" d="M17.562,17.336L32.9,33.871c0,0,0.686,0.484,1.211-0.081c0.525-0.565,0.121-1.129,0.121-1.129L17.562,17.336
			L17.562,17.336z"/>
		<path class="st35" d="M13.082,21.651L28.42,38.186c0,0,0.686,0.484,1.211-0.081c0.525-0.565,0.121-1.129,0.121-1.129
			L13.082,21.651L13.082,21.651z"/>
		<path class="st35" d="M22.953,19.07l10.715,11.552c0,0,0.479,0.338,0.846-0.056c0.367-0.394,0.085-0.789,0.085-0.789L22.953,19.07
			L22.953,19.07z"/>
		<path class="st35" d="M14.558,26.652l10.715,11.552c0,0,0.479,0.338,0.846-0.056c0.367-0.394,0.085-0.789,0.085-0.789
			L14.558,26.652L14.558,26.652z"/>
		<path class="st35" d="M28.46,21.571l4.857,5.251c0,0,0.237,0.158,0.418-0.026c0.181-0.185,0.042-0.37,0.042-0.37L28.46,21.571
			L28.46,21.571z"/>
		<path class="st35" d="M17.24,31.975l4.857,5.251c0,0,0.237,0.158,0.418-0.026c0.181-0.185,0.042-0.37,0.042-0.37L17.24,31.975
			L17.24,31.975z"/>
	</g>
	<circle class="st36" cx="29.83" cy="11.865" r="1.4"/>
	<circle class="st36" cx="14.386" cy="40.649" r="1.616"/>
	<circle class="st36" cx="26.727" cy="46.325" r="0.904"/>
	<circle class="st36" cx="40.148" cy="36.75" r="0.904"/>
	<circle class="st36" cx="6.726" cy="30.418" r="1.4"/>
	<circle class="st36" cx="39.398" cy="23.534" r="0.988"/>
	<circle class="st36" cx="3.225" cy="25.984" r="0.988"/>
	<circle class="st36" cx="25.992" cy="14.78" r="0.988"/>
	<circle class="st36" cx="19.406" cy="5.597" r="0.988"/>
	<circle class="st36" cx="4.392" cy="35.381" r="0.988"/>
</g>
<g id="hex-hapijs_x60_47x54">
	<polygon class="st37" points="46.014,39.851 23.004,53.135 0,39.851 0,13.284 23.004,0 46.014,13.284 	"/>
	<path class="st38" d="M25.005,25.545h-4.002c-2.75,0-5,2.25-5,5v6.083c0-2.75,2.25-5,5-5h4.002c2.75,0,5,2.25,5,5v-6.083
		C30.005,27.795,27.755,25.545,25.005,25.545z"/>
	<path class="st8" d="M38.527,25.941c-0.239-2.034-1.949-3.619-4.047-3.619c-0.124,0-0.241,0.026-0.362,0.036
		c-1.09-3.745-4.554-6.504-8.638-6.504h-1.157l-1.319-6.376l-1.319,6.376h-1.157c-4.084,0-7.549,2.76-8.638,6.504
		c-0.121-0.011-0.238-0.036-0.362-0.036c-2.098,0-3.808,1.584-4.047,3.619l-2.162,0.627l2.193,0.636
		c0.367,1.885,2.024,3.309,4.016,3.309c0.012,0,0.024-0.003,0.036-0.004c0.236,3.005,1.966,5.601,4.439,7.056v-0.936v-6.083
		c0-2.75,2.25-5,5-5h4.002c2.75,0,5,2.25,5,5v6.083v0.936c2.473-1.455,4.203-4.05,4.439-7.056c0.012,0,0.024,0.004,0.036,0.004
		c1.992,0,3.649-1.424,4.016-3.309l2.193-0.636L38.527,25.941z"/>
	<circle class="st8" cx="42.795" cy="26.551" r="1.079"/>
	<circle class="st8" cx="3.212" cy="26.551" r="1.079"/>
	<circle class="st8" cx="23.007" cy="7.009" r="1.079"/>
	<circle class="st39" cx="13.15" cy="26.382" r="0.763"/>
	<circle class="st39" cx="12.653" cy="23.522" r="0.503"/>
	<circle class="st39" cx="32.858" cy="26.382" r="0.763"/>
	<circle class="st39" cx="33.354" cy="23.522" r="0.503"/>
	<polyline class="st40" points="30.324,22.551 28.704,21.475 27.061,22.566 26.093,20.728 25.238,22.566 23.004,19.82 20.77,22.566 
		19.914,20.728 18.947,22.566 17.304,21.475 15.684,22.551 	"/>
	<circle class="st39" cx="12.653" cy="29.242" r="0.503"/>
	<circle class="st39" cx="33.354" cy="29.242" r="0.503"/>
</g>
<g id="hex-cakephp_x60_46x54">
	<polygon class="st41" points="45.936,39.784 22.965,53.045 0,39.784 0,13.261 22.965,0 45.936,13.261 	"/>
	<polygon class="st42" points="36.631,17.984 45.936,27.29 45.908,39.784 26.147,51.182 8.802,33.838 7.98,30.05 7.98,20.55 	"/>
	<path class="st8" d="M22.42,23.323l11.299,2.806c1.966-0.768,3.148-1.746,3.148-2.806v-4.512c0-2.488-6.468-4.508-14.447-4.508
		c-7.975,0-14.44,2.02-14.44,4.508v4.512c0,2.488,6.465,4.507,14.44,4.507L22.42,23.323L22.42,23.323z"/>
	<path class="st8" d="M33.719,30.637L22.421,27.83v4.508l11.299,2.807c1.966-0.771,3.148-1.745,3.148-2.807c0-0.958,0-3.552,0-4.508
		C36.867,28.892,35.685,29.866,33.719,30.637z"/>
	<path class="st8" d="M7.98,27.83c0,0.957,0,3.55,0,4.508c0,2.489,6.465,4.506,14.44,4.506v-4.506
		C14.445,32.338,7.98,30.317,7.98,27.83z"/>
</g>
<g id="hex-slim_x60_46x54">
	<polygon class="st43" points="45.936,39.784 22.965,53.045 0,39.784 0,13.261 22.965,0 45.936,13.261 	"/>
	<polygon class="st44" points="34.131,12.974 45.985,24.87 45.936,39.784 27.631,50.338 16.145,38.852 15.787,35.668 7.453,27.334 
		8.688,26.55 11.995,25.85 13.83,18.674 22.079,19.73 	"/>
	<path class="st8" d="M35.063,15.196v7.259c0,1.72-1.407,3.127-3.127,3.127h-0.782c0,0.81,0,1.619,0,2.234v9.493
		c0,1.229-1.005,2.234-2.234,2.234h-1.452c-1.229,0-2.234-1.005-2.234-2.234v-1.564c0-1.229-0.854-2.234-1.899-2.234
		c-1.044,0-1.899,1.005-1.899,2.234v1.564c0,1.229-1.005,2.234-2.234,2.234h-1.452c-1.229,0-2.234-1.005-2.234-2.234V20.748h-0.944
		c-0.698,0-1.061,0.373-1.061,1.006v4.833H13.51c-0.028,0.603-0.511,1.086-1.114,1.114v0.003H8.152v-0.013
		c-0.55-0.079-0.976-0.538-1.002-1.104H7.147v-2.122v-1.787H7.15c0.027-0.295,0.261-0.529,0.556-0.556V22.12h1.117v0.003
		c0.018-0.002,0.037-0.003,0.056-0.003c0.32,0,0.583,0.245,0.611,0.558h0.003v1.787v0.112c0,0.432,0.35,0.782,0.782,0.782
		c0.432,0,0.782-0.35,0.782-0.782v-5.249h0.003c-0.001-0.019-0.003-0.037-0.003-0.056c0-0.833,0.675-1.508,1.508-1.508
		c0.019,0,0.037,0.002,0.056,0.003v-0.003h2.797c0.204-4.29,3.746-7.706,8.087-7.706c2.045,0,3.912,0.76,5.337,2.01h3.095
		C33.655,12.069,35.063,13.476,35.063,15.196z M20.762,15.675c-0.722,0-1.308,0.586-1.308,1.308s0.586,1.308,1.308,1.308
		s1.308-0.586,1.308-1.308S21.484,15.675,20.762,15.675z"/>
	<path class="st45" d="M25.12,17.065c0-2.297,1.621-4.216,3.782-4.675"/>
	<path class="st45" d="M25.073,21.339c0,2.639,2.14,4.779,4.779,4.779"/>
	<path class="st46" d="M33.409,30.119v-0.778c0-1.322-0.961-2.419-2.223-2.63l-0.542-0.161"/>
	<path class="st8" d="M34.187,30.612c0-0.43-0.348-0.778-0.778-0.778s-0.778,0.348-0.778,0.778c0,0.15,0.412,1.528,0.412,1.556
		c0,0.202,0.164,0.366,0.366,0.366s0.366-0.164,0.366-0.366c0-0.026,0.412-1.428,0.412-1.428S34.187,30.655,34.187,30.612z"/>
</g>
<g id="hex-lumen_x60_46x54">
	<linearGradient id="SVGID_1_" gradientUnits="userSpaceOnUse" x1="0" y1="26.5225" x2="45.9359" y2="26.5225">
		<stop  offset="0" style="stop-color:#ED5955"/>
		<stop  offset="1" style="stop-color:#F1C195"/>
	</linearGradient>
	<polygon class="st47" points="45.936,39.784 22.965,53.045 0,39.784 0,13.261 22.965,0 45.936,13.261 	"/>
	<polyline class="st48" points="25.089,12.575 45.936,33.422 45.936,39.784 32.013,47.821 18.557,34.366 	"/>
	<circle class="st8" cx="22.968" cy="30.3" r="6"/>
	<circle class="st8" cx="22.968" cy="22.3" r="3.01"/>
	<path class="st8" d="M25.978,22.3c0,1.354,2.99,5.213,2.99,8h-3.857l-1.499-8H25.978z"/>
	<path class="st8" d="M19.958,22.3c0,1.354-2.99,5.213-2.99,8h3.857l1.499-8H19.958z"/>
	<path class="st49" d="M22.968,17.581c-2.024,0-3.665,1.641-3.665,3.665h7.329C26.633,19.222,24.992,17.581,22.968,17.581z"/>
	<path class="st49" d="M22.968,15.647c-2.024,0-3.665,1.641-3.665,3.665h7.329C26.633,17.288,24.992,15.647,22.968,15.647z"/>
	<path class="st49" d="M22.968,11.895c-2.024,0-3.665,1.641-3.665,3.665h7.329C26.633,13.536,24.992,11.895,22.968,11.895z"/>
	<polygon class="st49" points="23.287,13.728 22.647,13.728 22.647,0.184 22.965,0 23.287,0.186 	"/>
	<polyline class="st49" points="26.633,15.56 26.633,18.661 19.347,18.661 19.347,15.56 	"/>
	<path class="st50" d="M18.564,34.366"/>
</g>
<g id="hex-vue_x60_47x54">
	<polygon class="st51" points="46.313,40.11 23.153,53.481 0,40.11 0,13.37 23.153,0 46.313,13.37 	"/>
	<polygon class="st8" points="8.741,17.028 14.51,17.028 23.179,31.914 31.881,17.028 37.572,17.028 23.179,41.897 	"/>
	<polygon class="st52" points="14.536,17.028 19.91,17.028 23.173,22.817 26.591,17.028 31.881,17.028 23.173,31.901 	"/>
	<polyline class="st53" points="23.179,41.891 29.168,49.725 46.313,40.11 46.164,27.55 37.572,17.028 	"/>
</g>
</svg>
