<?xml version="1.0" encoding="iso-8859-1"?>
<!-- Generator: Adobe Illustrator 20.1.0, SVG Export Plug-In . SVG Version: 6.00 Build 0)  -->
<svg version="1.1" id="Layer_1" xmlns="http://www.w3.org/2000/svg" xmlns:xlink="http://www.w3.org/1999/xlink" x="0px" y="0px"
	 viewBox="0 0 200 200" style="enable-background:new 0 0 200 200;" xml:space="preserve">
<style type="text/css">
	.st0{fill:#5E5E5E;}
	.st1{fill:#444444;}
	.st2{fill:#EFEAE6;}
	.st3{fill:#333333;}
	.st4{fill:#EF3942;}
	.st5{fill:#C12E35;}
	.st6{fill:#FCF2F3;}
	.st7{fill:#0A8DA0;}
	.st8{fill:#FFFFFF;}
</style>
<g id="hex-sinatra_x60_46x54">
	<polygon class="st0" points="45.998,39.766 22.999,53.065 0,39.766 0,13.298 22.999,0 45.998,13.298 	"/>
	<polygon class="st1" points="7.645,32.571 25.312,51.651 45.934,39.831 45.934,32.122 37.968,22.035 36.426,22.806 32.057,16.832 
		22.871,25.183 	"/>
	<path class="st2" d="M7.131,30.387c0-2.57,5.975-6.36,15.483-9.251c4.882-1.478,9.572-1.67,12.849-0.578
		c3.276,1.092,4.176,3.726,4.176,6.232c0,3.919-7.131,8.801-14.647,9.444C17.474,36.876,7.131,36.233,7.131,30.387z"/>
	<path class="st2" d="M13.62,23.963c0,0,0.514-3.405,0.578-4.112c0.321-2.891,2.056-3.598,4.369-4.047
		c1.537-0.334,3.135-0.245,4.626,0.257c0.642,0.257-6.039,2.056-5.589,2.505c1.221,1.092,9.123-3.919,12.913-2.762
		c1.349,0.45,1.67,0.899,2.505,3.983c0.257,0.899,1.092,4.69,1.092,4.69c-0.866,1.339-2.326,2.176-3.919,2.249
		c-2.634,0.064-7.902,0.257-10.472,0.064S13.877,25.826,13.62,23.963z"/>
	<path class="st3" d="M34.434,25.826c0,0,0.642,2.12-3.405,3.855c-2.377,1.028-7.067,1.992-11.5,1.992
		c-2.57,0-5.975-1.67-6.232-3.533l0.321-4.176c0.257,1.863,3.598,2.57,6.167,2.827s7.709-0.128,10.536-1.092
		c1.382-0.441,2.623-1.239,3.598-2.313L34.434,25.826z"/>
</g>
<g id="hex-rails_x60_47x54">
	<polygon class="st4" points="45.953,39.799 22.973,53.065 0,39.799 0,13.266 22.973,0 45.953,13.266 	"/>
	<polygon class="st5" points="30.066,11.153 28.029,14.056 23.314,9.283 22.678,12.842 26.674,16.755 23.757,21.791 18.508,16.607 
		14.423,17.012 22.125,24.612 19.453,29.211 14.121,23.95 10.388,25.691 17.448,32.655 15.675,35.7 12.213,32.218 8.827,35.16 
		24.528,51.883 46.107,39.799 46.107,28.299 	"/>
	<path class="st6" d="M12.746,20.564"/>
	<path class="st6" d="M13.735,39.387c-0.373-12.849,3.617-23.931,16.331-28.235l0.989,1.927c-7.433,5.101-8.544,15.38-5.274,26.23
		L13.735,39.387z"/>
	
		<rect x="8.981" y="32.174" transform="matrix(0.0698 -0.9976 0.9976 0.0698 -23.8496 41.9529)" class="st6" width="3.181" height="3.181"/>
	<polygon class="st6" points="13.26,26.59 10.388,25.646 11.326,22.774 14.121,23.956 	"/>
	<polygon class="st6" points="16.812,18.624 14.423,17.012 16.472,14.59 18.515,16.607 	"/>
	<polygon class="st6" points="22.729,12.842 21.104,10.812 23.436,9.283 24.689,11.557 	"/>
	<polygon class="st6" points="29.982,36.374 27.066,36.169 26.359,33.188 29.121,33.381 	"/>
	<polygon class="st6" points="28.62,30.214 25.935,29.745 25.877,27.117 28.273,27.837 	"/>
	<polygon class="st6" points="28.248,25.382 26.115,24.515 26.783,22.19 28.62,23.5 	"/>
	<polygon class="st6" points="29.141,20.982 27.702,19.395 29.031,17.532 30.014,19.421 	"/>
</g>
<g id="hex-sails_x60_47x54">
	<polygon class="st7" points="46.014,39.851 23.004,53.135 0,39.851 0,13.284 23.004,0 46.014,13.284 	"/>
	<path class="st8" d="M11.948,39.553c0,0-11.126-17.708,11.769-29.108v29.108C23.717,39.553,11.948,39.553,11.948,39.553z"/>
	<path class="st8" d="M27.256,39.553V21.507c0,0,3.656,5.963,11.078,18.046H27.256z"/>
</g>
</svg>
