<?xml version="1.0" encoding="iso-8859-1"?>
<!-- Generator: Adobe Illustrator 20.1.0, SVG Export Plug-In . SVG Version: 6.00 Build 0)  -->
<svg version="1.1" id="Layer_1" xmlns="http://www.w3.org/2000/svg" xmlns:xlink="http://www.w3.org/1999/xlink" x="0px" y="0px"
	 viewBox="0 0 200 200" style="enable-background:new 0 0 200 200;" xml:space="preserve">
<style type="text/css">
	.st0{fill:#5E5E5E;}
	.st1{fill:#444444;}
	.st2{fill:#EFEAE6;}
	.st3{fill:#333333;}
	.st4{fill:#EF3942;}
	.st5{fill:#C12E35;}
	.st6{fill:#FCF2F3;}
	.st7{fill:#0A8DA0;}
	.st8{fill:#FFFFFF;}
	.st9{fill:#21759B;}
	.st10{fill:#08597C;}
	.st11{fill:#DC332E;}
	.st12{fill:#A5241F;}
	.st13{fill:#F04C5C;}
	.st14{fill:#C4314A;}
	.st15{fill:#EE4323;}
	.st16{fill:#BF3E11;}
	.st17{fill:#FEF6F5;}
	.st18{fill:#EB5D42;}
	.st19{fill:#C23E26;}
	.st20{fill:none;stroke:#E7EBEE;stroke-miterlimit:10;}
	.st21{fill:#383838;}
	.st22{fill:#595959;}
	.st23{fill:#939393;}
	.st24{fill:#BFBFBF;}
	.st25{fill:#3EB88A;}
	.st26{fill:#28A47D;}
	.st27{fill:#FB503B;}
	.st28{fill:#FD9689;}
	.st29{fill:#FB42B9;}
	.st30{fill:#CA127F;}
</style>
<g id="hex-sinatra_x60_46x54">
	<polygon class="st0" points="45.998,39.766 22.999,53.065 0,39.766 0,13.298 22.999,0 45.998,13.298 	"/>
	<polygon class="st1" points="7.645,32.571 25.312,51.651 45.934,39.831 45.934,32.122 37.968,22.035 36.426,22.806 32.057,16.832 
		22.871,25.183 	"/>
	<path class="st2" d="M7.131,30.387c0-2.57,5.975-6.36,15.483-9.251c4.882-1.478,9.572-1.67,12.849-0.578
		c3.276,1.092,4.176,3.726,4.176,6.232c0,3.919-7.131,8.801-14.647,9.444C17.474,36.876,7.131,36.233,7.131,30.387z"/>
	<path class="st2" d="M13.62,23.963c0,0,0.514-3.405,0.578-4.112c0.321-2.891,2.056-3.598,4.369-4.047
		c1.537-0.334,3.135-0.245,4.626,0.257c0.642,0.257-6.039,2.056-5.589,2.505c1.221,1.092,9.123-3.919,12.913-2.762
		c1.349,0.45,1.67,0.899,2.505,3.983c0.257,0.899,1.092,4.69,1.092,4.69c-0.866,1.339-2.326,2.176-3.919,2.249
		c-2.634,0.064-7.902,0.257-10.472,0.064S13.877,25.826,13.62,23.963z"/>
	<path class="st3" d="M34.434,25.826c0,0,0.642,2.12-3.405,3.855c-2.377,1.028-7.067,1.992-11.5,1.992
		c-2.57,0-5.975-1.67-6.232-3.533l0.321-4.176c0.257,1.863,3.598,2.57,6.167,2.827s7.709-0.128,10.536-1.092
		c1.382-0.441,2.623-1.239,3.598-2.313L34.434,25.826z"/>
</g>
<g id="hex-rails_x60_47x54">
	<polygon class="st4" points="45.953,39.799 22.973,53.065 0,39.799 0,13.266 22.973,0 45.953,13.266 	"/>
	<polygon class="st5" points="30.066,11.153 28.029,14.056 23.314,9.283 22.678,12.842 26.674,16.755 23.757,21.791 18.508,16.607 
		14.423,17.012 22.125,24.612 19.453,29.211 14.121,23.95 10.388,25.691 17.448,32.655 15.675,35.7 12.213,32.218 8.827,35.16 
		24.528,51.883 46.107,39.799 46.107,28.299 	"/>
	<path class="st6" d="M12.746,20.564"/>
	<path class="st6" d="M13.735,39.387c-0.373-12.849,3.617-23.931,16.331-28.235l0.989,1.927c-7.433,5.101-8.544,15.38-5.274,26.23
		L13.735,39.387z"/>
	
		<rect x="8.981" y="32.174" transform="matrix(0.0698 -0.9976 0.9976 0.0698 -23.8496 41.9529)" class="st6" width="3.181" height="3.181"/>
	<polygon class="st6" points="13.26,26.59 10.388,25.646 11.326,22.774 14.121,23.956 	"/>
	<polygon class="st6" points="16.812,18.624 14.423,17.012 16.472,14.59 18.515,16.607 	"/>
	<polygon class="st6" points="22.729,12.842 21.104,10.812 23.436,9.283 24.689,11.557 	"/>
	<polygon class="st6" points="29.982,36.374 27.066,36.169 26.359,33.188 29.121,33.381 	"/>
	<polygon class="st6" points="28.62,30.214 25.935,29.745 25.877,27.117 28.273,27.837 	"/>
	<polygon class="st6" points="28.248,25.382 26.115,24.515 26.783,22.19 28.62,23.5 	"/>
	<polygon class="st6" points="29.141,20.982 27.702,19.395 29.031,17.532 30.014,19.421 	"/>
</g>
<g id="hex-sails_x60_47x54">
	<polygon class="st7" points="46.014,39.851 23.004,53.135 0,39.851 0,13.284 23.004,0 46.014,13.284 	"/>
	<path class="st8" d="M11.948,39.553c0,0-11.126-17.708,11.769-29.108v29.108H11.948z"/>
	<path class="st8" d="M27.256,39.553V21.507c0,0,3.656,5.963,11.078,18.046H27.256z"/>
</g>
<g id="hex-wordpress_x60_46x54">
	<polygon class="st9" points="45.944,39.791 22.969,53.054 0,39.791 0,13.264 22.969,0 45.944,13.264 	"/>
	<path class="st10" d="M45.944,39.823v-8.684L33.682,16.257c-5.628-5.976-15.034-6.258-21.01-0.63
		c-5.42,5.104-6.227,13.432-1.888,19.482c0.829,1.163,14.94,16.353,14.94,16.353L45.944,39.823z"/>
	<path class="st8" d="M22.982,12.332c-7.84-0.004-14.198,6.349-14.201,14.188s6.349,14.198,14.188,14.201
		c7.84,0.004,14.198-6.349,14.201-14.188l0,0C37.167,18.697,30.818,12.343,22.982,12.332z M10.219,26.527
		c-0.001-1.788,0.376-3.557,1.105-5.19l6.089,16.7C13.004,35.899,10.209,31.427,10.219,26.527z M22.982,39.29
		c-1.224,0.001-2.442-0.174-3.616-0.52l3.854-11.125l3.905,10.765c0.025,0.06,0.055,0.118,0.09,0.173
		C25.854,39.056,24.422,39.295,22.982,39.29z M24.742,20.554c0.771-0.039,1.458-0.122,1.458-0.122
		c0.291-0.023,0.508-0.278,0.485-0.568c-0.023-0.291-0.278-0.508-0.568-0.485c0,0-2.068,0.161-3.398,0.161s-3.353-0.161-3.353-0.161
		c-0.291-0.009-0.534,0.22-0.542,0.511c-0.008,0.266,0.183,0.496,0.446,0.536c0,0,0.642,0.083,1.336,0.122l1.965,5.447l-2.794,8.35
		l-4.612-13.79c0.771-0.039,1.458-0.122,1.458-0.122c0.291-0.023,0.508-0.278,0.485-0.568c-0.023-0.291-0.278-0.508-0.568-0.485
		c0,0-2.068,0.161-3.398,0.161h-0.822c3.871-5.886,11.781-7.52,17.667-3.649c0.566,0.372,1.102,0.789,1.602,1.247h-0.167
		c-1.218,0.035-2.178,1.049-2.145,2.267c0,1.053,0.604,1.927,1.285,2.993c0.651,1.05,1,2.259,1.008,3.494
		c0,1.092-0.417,2.357-0.97,4.124l-1.285,4.252L24.742,20.554z M29.398,37.562l3.899-11.266c0.617-1.449,0.945-3.005,0.963-4.58
		c0-0.43-0.028-0.859-0.083-1.285c3.298,6.061,1.182,13.646-4.779,17.124V37.562z"/>
</g>
<g id="hex-angular_x60_46x54">
	<polyline class="st11" points="22.951,53.027 0,39.765 0,13.252 22.951,0 	"/>
	<polyline class="st12" points="22.951,0 45.913,13.252 45.913,39.765 22.951,53.027 	"/>
	<path class="st8" d="M22.962,7.593L22.962,7.593L8.824,38.992h5.191l2.982-7.125h11.929l2.982,7.125h5.191L22.962,7.593z
		 M18.789,27.643l4.173-9.903l4.173,9.903C20.539,27.664,22.331,27.664,18.789,27.643z"/>
</g>
<g id="hex-beego_x60_46x53">
	<polygon class="st13" points="45.854,39.713 22.924,52.951 0,39.713 0,13.238 22.924,0 45.854,13.238 	"/>
	<polygon class="st14" points="37.95,18.09 34.405,20.135 23.661,9.257 21.956,13.994 25.866,17.956 17.552,17.873 12.424,27.084 
		15.866,33.258 15.328,38.425 27.245,50.483 45.854,39.713 45.854,26.232 	"/>
	<path class="st8" d="M16.187,38.688c-0.641,0.002-1.174-0.495-1.218-1.135l-0.276-3.898l-3.526-6.09
		c-0.218-0.377-0.218-0.841,0-1.218l5.308-9.206c0.21-0.39,0.615-0.636,1.058-0.641h10.603c0.443,0.005,0.848,0.251,1.058,0.641
		l5.302,9.186c0.218,0.377,0.218,0.841,0,1.218l-5.302,9.186c-0.21,0.39-0.615,0.636-1.058,0.641h-7.885l-3.667,1.282
		C16.454,38.688,16.32,38.699,16.187,38.688z M13.629,26.924l3.314,5.769c0.093,0.161,0.148,0.341,0.16,0.526l0.179,2.564
		l2.359-0.821c0.128-0.045,0.262-0.069,0.397-0.071h7.391l4.622-7.968l-4.622-7.955h-9.199L13.629,26.924z"/>
	<path class="st8" d="M22.527,9.135h0.609c0.531,0,0.962,0.431,0.962,0.962v3.148c0,0.531-0.431,0.962-0.962,0.962h-0.609
		c-0.531,0-0.962-0.431-0.962-0.962v-3.148C21.565,9.566,21.996,9.135,22.527,9.135z"/>
	<path class="st8" d="M38.136,18.322l0.305,0.527c0.266,0.46,0.108,1.048-0.352,1.314l-2.726,1.574
		c-0.46,0.266-1.048,0.108-1.314-0.352l-0.305-0.527c-0.266-0.46-0.108-1.048,0.352-1.314l2.726-1.574
		C37.283,17.705,37.871,17.862,38.136,18.322z"/>
</g>
<g id="hex-codeigniter_x60_47x54">
	<polygon class="st15" points="46.037,39.871 23.015,53.161 0,39.871 0,13.29 23.015,0 46.037,13.29 	"/>
	<polygon class="st16" points="45.985,35.025 24.495,12.743 12.911,34.626 27.926,50.188 46.062,39.935 	"/>
	<path class="st17" d="M19.012,38.127c-1.615-0.702-3.128-2.471-3.134-4.293c0-1.982,1.249-3.662,2.813-4.769
		c-0.274,0.653-0.209,1.399,0.174,1.995c0.444,0.602,1.201,0.885,1.931,0.721c1.673-0.367,1.744-2.201,0.759-3.269
		c-0.985-1.068-1.931-2.259-1.551-3.791c0.212-0.786,0.662-1.487,1.287-2.008c-0.463,1.21,0.85,2.401,1.712,2.999
		c1.493,1.03,3.134,1.809,4.505,3.018c1.371,1.21,2.516,2.986,2.298,4.981c-0.232,2.162-1.931,3.662-3.862,4.422
		c4.068-0.901,8.27-4.055,8.367-8.566c0.071-3.714-2.478-6.571-5.632-8.206l-0.251-0.097c0.074,0.173,0.112,0.359,0.109,0.547
		c0.029-0.12,0.046-0.243,0.051-0.367c-0.001,0.148-0.02,0.295-0.058,0.438v-0.064c-0.047,0.196-0.125,0.383-0.232,0.553
		l0.045-0.051c-0.602,0.915-1.831,1.168-2.746,0.567c-0.16-0.105-0.304-0.233-0.427-0.38c-1.352-1.738,0-3.611,0.219-5.451
		c0.245-2.304-1.204-4.544-2.999-5.889c0.991,1.596-0.315,3.714-1.358,4.898c-1.043,1.184-2.208,2.105-3.321,3.115
		c-1.215,1.103-2.331,2.311-3.334,3.611c-1.969,2.626-3.173,5.934-2.291,9.21s3.72,5.361,6.925,6.095l0,0V38.127z"/>
</g>
<g id="hex-ember_x60_47x54">
	<polygon class="st18" points="46.358,40.15 23.176,53.533 0,40.15 0,13.383 23.176,0 46.358,13.383 	"/>
	<polygon class="st19" points="8.438,30.091 28.737,50.318 46.358,40.15 46.358,32.029 30.545,16.008 21.238,18.361 18.957,30.299 	
		"/>
	<path class="st8" d="M34.058,30.843c-0.57-0.81-1.147-0.084-2.003,0.454c-1.944,1.218-4.537,2.515-7.174,2.554
		c-3.798,0.052-3.415-2.411-3.415-2.411s13.928-4.77,10.13-14.18c-1.705-2.424-3.688-3.182-6.481-3.13s-6.209,1.769-8.464,6.831
		c-0.859,2.054-1.401,4.226-1.607,6.442l0,0c0,0-2.521,0.499-3.843-0.603c-1.322-1.102-2.042,0-2.042,0s-2.288,2.852,0,3.733
		c1.855,0.609,3.769,1.019,5.71,1.225l0,0c0.534,2.511,1.959,4.745,4.012,6.287c2.314,1.756,5.833,1.491,8.425,0.862
		c2.395-0.686,4.59-1.939,6.397-3.655C34.349,34.518,34.621,31.653,34.058,30.843z M20.804,27.22
		c0.162-6.585,4.472-9.443,5.943-8.01c1.471,1.432,0.933,4.537-1.873,6.442C22.068,27.557,20.804,27.22,20.804,27.22z"/>
</g>
<g id="hex-express_x60_47x54">
	<polygon class="st8" points="46.374,40.163 23.184,53.55 0,40.163 0,13.388 23.184,0 46.374,13.388 	"/>
	<polygon class="st20" points="45.676,39.76 23.184,52.745 0.698,39.76 0.698,13.79 23.184,0.806 45.676,13.79 	"/>
	<path class="st21" d="M11.248,27.313v0.169c-0.004,0.818,0.109,1.632,0.337,2.418c0.206,0.73,0.544,1.415,0.998,2.023
		c0.445,0.584,1.02,1.057,1.679,1.381c0.725,0.35,1.523,0.524,2.327,0.506c1.25,0.068,2.48-0.34,3.443-1.141
		c0.897-0.848,1.508-1.953,1.75-3.164h1.07c-0.214,1.498-0.946,2.874-2.068,3.89c-1.191,0.943-2.684,1.422-4.201,1.348
		c-0.965,0.022-1.923-0.175-2.801-0.577c-0.776-0.368-1.459-0.906-1.997-1.575c-0.551-0.699-0.957-1.502-1.193-2.36
		c-0.27-0.955-0.403-1.944-0.395-2.937c-0.004-0.985,0.134-1.965,0.408-2.911c0.251-0.885,0.667-1.714,1.225-2.444
		c0.546-0.705,1.241-1.28,2.036-1.686c0.895-0.446,1.885-0.668,2.885-0.648c0.926-0.017,1.844,0.175,2.684,0.564
		c0.754,0.359,1.418,0.882,1.945,1.53c0.535,0.668,0.94,1.431,1.193,2.25c0.277,0.888,0.415,1.813,0.408,2.742
		c0,0.091,0,0.201,0,0.324s0,0.22,0,0.298h-11.67H11.248z M21.88,26.386c-0.033-0.76-0.166-1.512-0.395-2.237
		c-0.211-0.676-0.55-1.306-0.998-1.854c-0.44-0.54-0.987-0.981-1.608-1.297c-0.671-0.329-1.411-0.493-2.159-0.48
		c-0.789-0.016-1.57,0.153-2.282,0.493c-0.638,0.313-1.206,0.755-1.666,1.297c-0.461,0.552-0.815,1.185-1.044,1.867
		c-0.244,0.708-0.397,1.444-0.454,2.191H21.88V26.386z"/>
	<path class="st21" d="M29.051,26.808l-5.29-6.866h1.524l4.538,6.049l4.538-6.049h1.381l-5.271,6.866l5.712,7.592H34.73
		l-4.947-6.775l-5.063,6.775h-1.381L29.051,26.808z"/>
</g>
<g id="hex-flask_x60_47x54">
	<polygon class="st22" points="46.441,40.221 23.217,53.629 0,40.221 0,13.407 23.217,0 46.441,13.407 	"/>
	<path class="st8" d="M17.231,14.336c0,0,5.48,0.902,7.142,1.136c1.662,0.234,1.201,1.753-0.318,1.299
		c-1.519-0.454-7.343-1.948-7.343-1.948L17.231,14.336z"/>
	<polygon class="st23" points="12.888,19.147 12.498,17.205 21.419,15.309 21.938,17.16 	"/>
	<path class="st8" d="M22.601,19.679c0,0,0.136,9.518,4.116,12.654c2.294,1.866,5.001,3.157,7.895,3.766
		c3.389,0.812,3.246,2.766-0.578,2.922c-4.402,0.175-9.531-0.208-13.453-3.097c-6.2-4.571-7.499-12.42-7.856-14.232
		c-1.506-0.117-1.448-2.305,0.688-3.019c2.887-0.93,5.868-1.537,8.888-1.811C23.685,16.861,23.919,19.218,22.601,19.679z"/>
	<path class="st24" d="M12.725,21.692c0.357,1.811,1.656,9.661,7.85,14.238c3.896,2.889,9.051,3.246,13.453,3.097
		c2.123-0.084,3.11-0.734,2.974-1.428l-0.039-0.071c0,0-9.856,0.708-14.68-3.428s-5.954-7.927-6.207-9.999
		c-0.253-2.071,1.552-4.194,1.552-4.194s-1.299,0.403-3.103,0.805c-1.805,0.403-1.578-1.208-1.104-2.013
		C11.278,19.387,11.226,21.575,12.725,21.692z"/>
	<polygon class="st23" points="14.764,17.238 14.485,15.634 18.893,14.758 19.27,16.29 	"/>
	<circle class="st23" cx="16.42" cy="14.232" r="1.143"/>
</g>
<g id="hex-django_x60_47x54">
	<polygon class="st25" points="46.441,40.221 23.217,53.629 0,40.221 0,13.407 23.217,0 46.441,13.407 	"/>
	<polygon class="st26" points="11.076,35.016 27.357,51.239 46.441,40.221 46.441,25.146 33.752,12.29 28.503,17.692 28.554,15.25 
		25.402,12.28 20.153,21.625 12.466,26.814 	"/>
	<path class="st8" d="M33.751,20.385v12.167c0,4.192-0.307,6.203-1.227,7.941c-0.852,1.67-1.977,2.726-4.294,3.885l-4.874-2.318
		c2.318-1.09,3.442-2.044,4.158-3.51c0.75-1.499,0.989-3.238,0.989-7.804v-10.36H33.751z"/>
	<rect x="28.503" y="12.308" class="st8" width="5.248" height="5.385"/>
	<path class="st8" d="M20.153,12.28h5.248v24.293c-2.692,0.511-4.669,0.716-6.816,0.716c-6.407,0-9.747-2.897-9.747-8.452
		c0-5.351,3.545-8.827,9.031-8.827c0.852,0,1.499,0.068,2.283,0.272L20.153,12.28z M20.153,24.508
		c-0.613-0.204-1.125-0.272-1.772-0.272c-2.658,0-4.192,1.636-4.192,4.499c0,2.795,1.466,4.328,4.158,4.328
		c0.579,0,1.056-0.034,1.806-0.136V24.508z"/>
</g>
<g id="hex-laravel_x60_46x54">
	<polygon class="st27" points="45.936,39.784 22.965,53.045 0,39.784 0,13.261 22.965,0 45.936,13.261 	"/>
	<path class="st8" d="M39.27,26.876L39.27,26.876c-0.109-0.122-1.047-1.284-1.875-2.318c-0.828-1.034-1.58-1.965-1.824-2.261
		c-0.255-0.455-0.773-0.693-1.284-0.591H34.21c-0.334,0.051-4.155,0.694-4.495,0.751c-0.314,0.019-0.598,0.189-0.764,0.456
		c-0.079,0.22-0.033,0.466,0.122,0.642l2.993,4.238l-9.228,2.209L15.13,17.159l-0.051-0.077c-0.231-0.483-0.76-0.747-1.284-0.642
		c-0.726,0.032-6.287,0.494-6.518,0.514C6.979,16.95,6.7,17.095,6.531,17.339c-0.161,0.372-0.137,0.798,0.064,1.15
		c0.27,0.642,3.211,7.064,5.202,11.29l1.509,3.269c0.319,0.792,1.199,1.2,2.01,0.931c0.957-0.231,4.059-1.034,6.582-1.695
		c1.445,2.614,3.211,5.741,3.564,6.255c0.224,0.412,0.649,0.676,1.117,0.694c0.327-0.021,0.649-0.088,0.957-0.199
		c0.7-0.212,10.211-3.641,10.564-3.783c0.3-0.068,0.553-0.269,0.687-0.546c0.048-0.226-0.009-0.462-0.154-0.642
		c-0.186-0.276-2.087-2.826-3.757-5.06l3.988-1.06c0.254-0.041,0.468-0.215,0.559-0.456C39.483,27.269,39.424,27.038,39.27,26.876z
		 M33.182,29.316l1.355,1.862l1.843,2.53l-3.307,1.124c-4.123,1.394-5.979,2.023-6.075,2.068h-0.051
		c-0.047-0.041-0.088-0.088-0.122-0.141c-0.167-0.238-2.029-3.449-2.948-5.041L33.182,29.316z M31.082,23.812
		c0.835-0.148,3.211-0.572,3.378-0.642c0.017,0.004,0.035,0.004,0.051,0c0.028,0.021,0.052,0.047,0.071,0.077
		c0.128,0.173,1.22,1.561,2.383,3.038l0.206,0.257l-3.468,0.854L31.082,23.812z M36.701,33.632 M20.858,30.472l-5.658,1.361l0,0
		c-0.642-1.284-5.902-12.202-6.531-13.486l2.511-0.218l2.505-0.218C13.916,18.373,20.19,29.316,20.858,30.472z"/>
	<polygon class="st28" points="20.897,30.472 19.33,30.864 20.313,32.675 21.918,32.257 	"/>
	<polygon class="st28" points="33.195,29.316 33.998,30.408 35.661,29.977 34.91,28.976 	"/>
</g>
<g id="hex-hugo_x60_46x54">
	<polygon class="st29" points="45.944,39.79 22.969,53.054 0,39.79 0,13.263 22.969,0 45.944,13.263 	"/>
	<path class="st30" d="M38.981,37.183l-14.773,8.536c-0.757,0.437-1.69,0.437-2.447,0L6.988,37.183
		c-0.756-0.438-1.221-1.246-1.22-2.12V17.984c-0.001-0.874,0.464-1.682,1.22-2.12l14.773-8.536c0.757-0.437,1.69-0.437,2.447,0
		l14.773,8.536c0.756,0.438,1.221,1.246,1.22,2.12v17.079C40.202,35.937,39.737,36.745,38.981,37.183z"/>
	<polygon class="st8" points="26.334,16.443 26.334,23.508 20.554,23.508 20.554,16.443 16.057,16.443 16.057,35.712 20.554,35.712 
		20.554,27.362 26.334,27.362 26.334,35.712 30.83,35.712 30.83,16.443 	"/>
</g>
</svg>
