<?xml version="1.0" encoding="iso-8859-1"?>
<!-- Generator: Adobe Illustrator 19.2.1, SVG Export Plug-In . SVG Version: 6.00 Build 0)  -->
<svg version="1.1" id="Layer_1" xmlns="http://www.w3.org/2000/svg" xmlns:xlink="http://www.w3.org/1999/xlink" x="0px" y="0px"
	 viewBox="0 0 200 200" style="enable-background:new 0 0 200 200;" xml:space="preserve">
<style type="text/css">
	.st0{fill:#F06368;stroke:#F06368;stroke-width:2;stroke-miterlimit:10;}
	.st1{fill:#CA2128;}
	.st2{fill:url(#SVGID_1_);}
	.st3{fill:#BE2227;}
	.st4{fill:url(#SVGID_2_);}
	.st5{fill:#621310;}
	.st6{fill:url(#SVGID_3_);}
	.st7{fill:#D32034;}
	.st8{fill:url(#SVGID_4_);}
	.st9{fill:url(#SVGID_5_);}
	.st10{fill:url(#SVGID_6_);}
	.st11{fill:url(#SVGID_7_);}
	.st12{fill:#EF4C53;}
	.st13{opacity:0.61;fill:url(#SVGID_8_);enable-background:new    ;}
	.st14{fill:url(#SVGID_9_);}
	.st15{fill:url(#SVGID_10_);}
	.st16{fill:#8FC733;stroke:#8FC733;stroke-width:2;stroke-miterlimit:10;}
	.st17{fill:#FFFFFF;}
	.st18{fill:#8FC733;}
	.st19{fill:#A1CCCC;stroke:#A1CCCC;stroke-width:2;stroke-miterlimit:10;}
	.st20{fill:#FFA3A9;}
	.st21{fill:none;stroke:#C4C9C9;stroke-width:2;stroke-miterlimit:10;}
	.st22{fill:#ABB0B0;}
	.st23{fill:#FFCC66;stroke:#FFCC66;stroke-width:2;stroke-miterlimit:10;}
	.st24{fill:#3672A7;}
	.st25{fill:#F1AA1D;}
	.st26{fill:#6FDBC2;stroke:#6FDBC2;stroke-width:2;stroke-miterlimit:10;}
	.st27{fill:#CCEBE4;}
	.st28{fill:#8AC2B5;}
	.st29{fill:#7FC4B4;}
	.st30{fill:#5FC9B1;}
	.st31{fill:#86E6D0;}
	.st32{fill:#A5C7D1;}
	.st33{fill:#68A1B2;}
	.st34{fill:#DFDFDF;stroke:#DFDFDF;stroke-width:2;stroke-miterlimit:10;}
	.st35{fill:#4A81AB;}
	.st36{fill:#5EA5DB;}
	.st37{fill:#AAC1D6;}
	.st38{fill:none;stroke:#5EA5DB;stroke-width:2;stroke-miterlimit:10;}
	.st39{fill:none;stroke:#5EA5DB;stroke-width:2;stroke-miterlimit:10;stroke-dasharray:3.5807,2.3871;}
	.st40{fill:none;stroke:#5EA5DB;stroke-width:2;stroke-miterlimit:10;stroke-dasharray:3.1191,2.0794;}
	.st41{fill:none;stroke:#5EA5DB;stroke-width:2;stroke-miterlimit:10;stroke-dasharray:3.1194,2.0796;}
	.st42{fill:none;stroke:#5EA5DB;stroke-width:2;stroke-miterlimit:10;stroke-dasharray:3.1197,2.0798;}
	.st43{fill:#B07C5C;stroke:#B07C5C;stroke-width:2;stroke-miterlimit:10;}
	.st44{fill:#DFDFDF;}
	.st45{clip-path:url(#SVGID_12_);fill:#D69F72;}
	.st46{clip-path:url(#SVGID_14_);fill:#B37E5D;}
	.st47{fill:none;stroke:#FFFFFF;stroke-width:3;stroke-miterlimit:10;}
	.st48{fill:none;stroke:#DFDFDF;stroke-linecap:round;stroke-miterlimit:10;}
	.st49{fill:none;stroke:#FFFFFF;stroke-width:2;stroke-miterlimit:10;}
	.st50{fill:#9CB3F0;stroke:#9CB3F0;stroke-width:2;stroke-miterlimit:10;}
	.st51{fill:#52638F;}
	.st52{fill:#374E78;}
	.st53{fill:#2D3652;}
	.st54{fill:#FF3030;stroke:#FF3030;stroke-width:2;stroke-miterlimit:10;}
	.st55{fill:#B32222;}
	.st56{fill:#FF0000;}
	.st57{fill:#5ECC81;stroke:#5ECC81;stroke-width:2;stroke-miterlimit:10;}
	.st58{fill:#1F8B35;}
	.st59{fill:#2BA240;}
	.st60{fill:none;stroke:#D6CBA6;stroke-miterlimit:10;}
	.st61{fill:#7197EE;stroke:#7197EE;stroke-width:2;stroke-miterlimit:10;}
	.st62{fill:#4A67A8;}
	.st63{fill:#FFC88D;}
	.st64{fill:url(#path3352_1_);}
	.st65{fill:url(#path4028_1_);}
	.st66{fill:#002B64;}
	.st67{fill:#678AD9;}
	.st68{fill:#394E80;}
	.st69{fill:#C7FFFA;}
	.st70{fill:#D1DEE8;stroke:#D1DEE8;stroke-width:2;stroke-miterlimit:10;}
	.st71{fill:#3D8EC9;}
	.st72{fill:#2C668F;}
	.st73{fill:#DB2317;stroke:#DB2317;stroke-width:2;stroke-miterlimit:10;}
	.st74{fill:#AB1B12;}
	.st75{fill:#FF3226;}
	.st76{fill:#F25C5C;stroke:#F25C5C;stroke-width:2;stroke-miterlimit:10;}
	.st77{fill:#FCFCFC;}
	.st78{fill:#FF8754;}
	.st79{fill:#35C7F0;stroke:#35C7F0;stroke-width:2;stroke-miterlimit:10;}
	.st80{fill:#FFD56B;}
	.st81{fill:#FFEE9E;}
	.st82{fill:#FFFCE6;}
	.st83{fill:#0D96BD;stroke:#0D96BD;stroke-width:2;stroke-miterlimit:10;}
	.st84{fill:#0A7594;}
	.st85{fill:#FFF6FF;}
	.st86{fill:#FFD86E;}
	.st87{fill:#F5CC5B;}
	.st88{fill:#EBA83D;}
	.st89{fill:none;stroke:#B9DFF0;stroke-miterlimit:10;}
	.st90{fill:none;stroke:#218BB0;stroke-width:1.1126;stroke-linecap:round;stroke-linejoin:round;}
	.st91{fill:#218BB0;}
	.st92{fill:none;stroke:#46B4DB;stroke-width:0.8798;stroke-linecap:round;stroke-linejoin:round;}
	.st93{fill:#46B4DB;}
	.st94{fill:#005A7A;}
	.st95{fill:none;stroke:#DB4559;stroke-width:2;stroke-miterlimit:10;}
</style>
<g id="hex-ruby_x60_49x57">
	<polygon id="_x3E_bg" class="st0" points="47.5,41.454 24.2,54.854 1,41.454 1,14.554 24.2,1.154 47.5,14.554 	"/>
	<path class="st1" d="M25,34.354"/>
	
		<linearGradient id="SVGID_1_" gradientUnits="userSpaceOnUse" x1="38.7477" y1="-1053.8502" x2="29.8962" y2="-1096.8427" gradientTransform="matrix(1 0 0 1 0 1124)">
		<stop  offset="0" style="stop-color:#EF4C53"/>
		<stop  offset="0.1648" style="stop-color:#EB4A51"/>
		<stop  offset="0.336" style="stop-color:#DE454B"/>
		<stop  offset="0.5103" style="stop-color:#CA3D41"/>
		<stop  offset="0.6867" style="stop-color:#AC3133"/>
		<stop  offset="0.8629" style="stop-color:#872221"/>
		<stop  offset="1" style="stop-color:#651410"/>
	</linearGradient>
	<polygon class="st2" points="37.9,34.354 30.6,25.754 25,35.054 	"/>
	<polygon class="st3" points="30.6,25.754 36.5,21.854 37.9,34.354 	"/>
	
		<linearGradient id="SVGID_2_" gradientUnits="userSpaceOnUse" x1="55.923" y1="-1087.806" x2="34.1136" y2="-1099.5009" gradientTransform="matrix(1 0 0 1 0 1124)">
		<stop  offset="0" style="stop-color:#EF4C53"/>
		<stop  offset="0.1648" style="stop-color:#EB4A51"/>
		<stop  offset="0.336" style="stop-color:#DE454B"/>
		<stop  offset="0.5103" style="stop-color:#CA3D41"/>
		<stop  offset="0.6867" style="stop-color:#AC3133"/>
		<stop  offset="0.8629" style="stop-color:#872221"/>
		<stop  offset="1" style="stop-color:#651410"/>
	</linearGradient>
	<polygon class="st4" points="37.9,34.354 44,25.754 36.5,17.954 36.5,21.854 	"/>
	<polygon class="st5" points="12.1,34.354 19.4,25.754 25,35.054 	"/>
	<polygon class="st3" points="19.4,25.754 13.4,21.854 12.1,34.354 	"/>
	<polygon class="st3" points="19.4,25.754 13.4,21.854 12.1,34.354 	"/>
	
		<linearGradient id="SVGID_3_" gradientUnits="userSpaceOnUse" x1="10.8709" y1="-1090.8073" x2="14.5607" y2="-1097.0726" gradientTransform="matrix(1 0 0 1 0 1124)">
		<stop  offset="0" style="stop-color:#FFFFFF"/>
		<stop  offset="1" style="stop-color:#FFFFFF;stop-opacity:0"/>
	</linearGradient>
	<polygon class="st6" points="19.4,25.754 13.4,21.854 12.1,34.354 	"/>
	<polygon class="st7" points="12.1,33.654 5.9,25.754 13.4,17.954 13.4,21.854 	"/>
	
		<linearGradient id="SVGID_4_" gradientUnits="userSpaceOnUse" x1="20.1506" y1="-1102.5128" x2="9.3357" y2="-1096.2041" gradientTransform="matrix(1 0 0 1 0 1124)">
		<stop  offset="0" style="stop-color:#FFFFFF"/>
		<stop  offset="1" style="stop-color:#FFFFFF;stop-opacity:0"/>
	</linearGradient>
	<polygon class="st8" points="12.1,33.654 5.9,25.754 13.4,17.954 13.4,21.854 	"/>
	
		<linearGradient id="SVGID_5_" gradientUnits="userSpaceOnUse" x1="5.879" y1="-1094.2977" x2="23.3051" y2="-1104.1838" gradientTransform="matrix(1 0 0 1 0 1124)">
		<stop  offset="0" style="stop-color:#621310"/>
		<stop  offset="0.172" style="stop-color:#661312;stop-opacity:0.828"/>
		<stop  offset="0.3508" style="stop-color:#731418;stop-opacity:0.6492"/>
		<stop  offset="0.5327" style="stop-color:#871621;stop-opacity:0.4673"/>
		<stop  offset="0.7167" style="stop-color:#A5182E;stop-opacity:0.2833"/>
		<stop  offset="0.9007" style="stop-color:#CA1A3F;stop-opacity:0.0993"/>
		<stop  offset="1" style="stop-color:#E11C4A;stop-opacity:0"/>
	</linearGradient>
	<polygon class="st9" points="12.1,33.654 5.9,25.754 13.4,17.954 13.4,21.854 	"/>
	
		<linearGradient id="SVGID_6_" gradientUnits="userSpaceOnUse" x1="20.4396" y1="-1098.4486" x2="26.8616" y2="-1094.2145" gradientTransform="matrix(1 0 0 1 0 1124)">
		<stop  offset="0" style="stop-color:#EE3A3F"/>
		<stop  offset="1" style="stop-color:#AC2125"/>
	</linearGradient>
	<polygon class="st10" points="25,25.754 19.4,25.754 19.4,25.754 25,35.054 30.6,25.754 30.6,25.754 	"/>
	
		<linearGradient id="SVGID_7_" gradientUnits="userSpaceOnUse" x1="17.9762" y1="-1089.2959" x2="27.3178" y2="-1098.8057" gradientTransform="matrix(1 0 0 1 0 1124)">
		<stop  offset="0" style="stop-color:#FFFFFF"/>
		<stop  offset="1" style="stop-color:#FFFFFF;stop-opacity:0.42"/>
	</linearGradient>
	<polygon class="st11" points="25,25.754 19.4,25.754 19.4,25.754 25,35.054 30.6,25.754 30.6,25.754 	"/>
	<polygon class="st12" points="31.4,14.854 25,14.854 18.5,14.854 13.4,17.954 13.4,21.854 19.4,25.754 25,25.754 30.6,25.754 
		36.5,21.854 36.5,17.954 	"/>
	
		<linearGradient id="SVGID_8_" gradientUnits="userSpaceOnUse" x1="40.5061" y1="-1122.7339" x2="23.3595" y2="-1102.1902" gradientTransform="matrix(1 0 0 1 0 1124)">
		<stop  offset="0" style="stop-color:#FFFFFF"/>
		<stop  offset="1" style="stop-color:#FFFFFF;stop-opacity:0"/>
	</linearGradient>
	<polygon class="st13" points="31.4,14.854 25,14.854 18.5,14.854 13.4,17.954 13.4,21.854 19.4,25.754 25,25.754 30.6,25.754 
		36.5,21.854 36.5,17.954 	"/>
	<polygon class="st1" points="25,35.054 25,43.854 37.9,34.354 	"/>
	
		<linearGradient id="SVGID_9_" gradientUnits="userSpaceOnUse" x1="47.8018" y1="-1072.3188" x2="14.1573" y2="-1090.3599" gradientTransform="matrix(1 0 0 1 0 1124)">
		<stop  offset="0" style="stop-color:#EF4C53"/>
		<stop  offset="0.1648" style="stop-color:#EB4A51"/>
		<stop  offset="0.336" style="stop-color:#DE454B"/>
		<stop  offset="0.5103" style="stop-color:#CA3D41"/>
		<stop  offset="0.6867" style="stop-color:#AC3133"/>
		<stop  offset="0.8629" style="stop-color:#872221"/>
		<stop  offset="1" style="stop-color:#651410"/>
	</linearGradient>
	<polygon class="st14" points="25,35.054 25,35.054 12.1,34.354 25,43.854 25,43.854 	"/>
	
		<linearGradient id="SVGID_10_" gradientUnits="userSpaceOnUse" x1="13.4" y1="-1102.1458" x2="13.4" y2="-1102.1458" gradientTransform="matrix(1 0 0 1 0 1124)">
		<stop  offset="0" style="stop-color:#EF4C53"/>
		<stop  offset="0.1648" style="stop-color:#EB4A51"/>
		<stop  offset="0.336" style="stop-color:#DE454B"/>
		<stop  offset="0.5103" style="stop-color:#CA3D41"/>
		<stop  offset="0.6867" style="stop-color:#AC3133"/>
		<stop  offset="0.8629" style="stop-color:#872221"/>
		<stop  offset="1" style="stop-color:#651410"/>
	</linearGradient>
	<path class="st15" d="M13.4,21.854"/>
</g>
<g id="hex-node_x60_49x57">
	<polygon id="_x3E_bg_2_" class="st16" points="47.5,41.454 24.2,54.854 1,41.454 1,14.554 24.2,1.154 47.5,14.554 	"/>
	<polygon class="st17" points="24.3,10.954 39.8,19.854 39.8,37.654 24.3,46.454 8.8,37.654 8.8,19.854 	"/>
	<path class="st18" d="M34.4,23.154c0-0.4-0.2-0.8-0.5-0.9l-9-5.4c-0.2-0.1-0.3-0.4-0.5-0.4h-0.1c-0.2,0-0.3,0.3-0.5,0.4l-9,5.3
		c-0.3,0.2-0.5,0.6-0.5,1v14c0,0.2,0.1,0.4,0.3,0.5s0.4,0.1,0.5,0l5.4-3.1c0.3-0.2,0.6-0.6,0.6-0.9v-6.5c0-0.4,0.2-0.8,0.5-0.9
		l2.3-1.3c0.2-0.1,0.3-0.1,0.5-0.1s0.4,0,0.5,0.1l2.4,1.3c0.3,0.2,0.7,0.6,0.7,0.9v6.5c0,0.4,0,0.7,0.4,0.9l5.3,3.1
		c0.2,0.1,0.3,0.1,0.5,0s0.3-0.3,0.3-0.5L34.4,23.154z"/>
</g>
<g id="hex-memcached_x60_49x57">
	<polygon id="_x3E_bg_3_" class="st19" points="47.5,41.454 24.2,54.854 1,41.454 1,14.554 24.2,1.154 47.5,14.554 	"/>
	<path class="st17" d="M24.1,46.454c11.8,0,15.9-8.5,15.9-14.1c0-5.7-1.4-14-9.1-21.6c0,5.3-0.1,12.1-6.3,12.1"/>
	<path class="st17" d="M25.1,46.454c-11.8,0-15.9-8.5-15.9-14.1c0-5.7,1.4-14,9.1-21.6c0,5.3,0.1,12.1,6.3,12.1"/>
	<g>
		<circle class="st17" cx="33.4" cy="31.854" r="3.5"/>
	</g>
	<g>
		<path class="st20" d="M33.4,28.654c1.7,0,3.1,1.4,3.1,3.1c0,1.7-1.4,3.1-3.1,3.1s-3.1-1.4-3.1-3.1S31.6,28.654,33.4,28.654
			 M33.4,27.654c-2.3,0-4.1,1.8-4.1,4.1s1.8,4.1,4.1,4.1c2.3,0,4.1-1.8,4.1-4.1C37.5,29.554,35.6,27.654,33.4,27.654L33.4,27.654z"
			/>
	</g>
	<g>
		<polyline class="st21" points="24.7,34.754 24.7,40.754 21.2,44.154 		"/>
		<line class="st21" x1="28.7" y1="44.054" x2="25.1" y2="40.354"/>
	</g>
	<g>
		<circle class="st17" cx="16.9" cy="31.854" r="3.5"/>
	</g>
	<polygon class="st22" points="27.1,33.954 25.1,35.854 23.2,33.954 	"/>
	<g>
		<path class="st20" d="M16.9,28.654c1.7,0,3.1,1.4,3.1,3.1c0,1.7-1.4,3.1-3.1,3.1c-1.7,0-3.1-1.4-3.1-3.1
			C13.8,30.054,15.2,28.654,16.9,28.654 M16.9,27.654c-2.3,0-4.1,1.8-4.1,4.1s1.8,4.1,4.1,4.1s4.1-1.8,4.1-4.1
			C21,29.554,19.2,27.654,16.9,27.654L16.9,27.654z"/>
	</g>
</g>
<g id="hex-python_x60_49x57">
	<polygon id="_x3E_bg_4_" class="st23" points="47.5,41.454 24.2,54.854 1,41.454 1,14.554 24.2,1.154 47.5,14.554 	"/>
	<polygon class="st24" points="24.2,17.354 15.6,17.354 15.6,13.754 19.4,9.754 29.7,9.754 33.7,13.954 33.7,24.054 30,27.854 
		18,27.854 13.7,32.254 13.7,37.754 9.8,37.254 6,33.654 6,23.654 10.4,19.254 24.2,19.254 	"/>
	
		<rect x="20.003" y="12.458" transform="matrix(0.7073 -0.7069 0.7069 0.7073 -3.4281 18.9357)" class="st17" width="2.3" height="2.3"/>
	<polygon class="st17" points="25.1,40.354 33.7,40.354 33.7,43.654 30.1,47.054 19.8,47.054 15.6,43.454 15.6,33.354 19.5,29.854 
		31.5,29.854 35.7,25.654 35.7,20.054 39.8,20.154 43.3,23.754 43.3,33.754 39.1,38.454 25.1,38.454 	"/>
	
		<rect x="27.697" y="42.671" transform="matrix(0.7075 -0.7067 0.7067 0.7075 -22.5309 33.2038)" class="st25" width="2.3" height="2.3"/>
</g>
<g id="hex-platform_x60_49x57">
	<polygon id="_x3E_bg_15_" class="st26" points="47.5,41.454 24.2,54.854 1,41.454 1,14.554 24.2,1.154 47.5,14.554 	"/>
	<g id="logo-horizontal_1_">
		<g>
			<polygon class="st17" points="35.576,40.132 24.063,46.065 12.274,40.025 23.788,34.091 			"/>
			<polygon class="st27" points="30.715,37.639 23.949,41.128 17.023,37.58 23.788,34.091 			"/>
			<polygon class="st28" points="24.063,46.08 35.576,40.147 35.576,41.839 24.063,47.775 			"/>
			<polygon class="st29" points="24.063,46.08 12.274,40.025 12.274,41.72 24.063,47.775 			"/>
		</g>
		<g>
			<polygon class="st30" points="24.18,36.481 33.567,31.641 33.567,33.055 24.18,37.892 			"/>
			<polygon class="st31" points="24.18,36.481 14.793,31.641 14.793,33.055 24.18,37.892 			"/>
			<polygon class="st17" points="33.567,31.641 24.18,36.481 14.793,31.641 24.18,26.804 			"/>
			<polygon class="st27" points="31.09,30.372 24.18,33.935 17.269,30.372 24.18,26.81 			"/>
		</g>
		<g>
			<polygon class="st28" points="24.18,28.957 35.554,23.097 35.554,24.807 24.18,30.667 			"/>
			<polygon class="st29" points="24.18,28.957 12.807,23.097 12.807,24.807 24.18,30.667 			"/>
			<polygon class="st17" points="35.554,23.097 24.18,28.957 12.807,23.097 24.18,17.234 			"/>
			<polygon class="st27" points="32.555,21.556 24.18,25.872 15.805,21.556 24.18,17.241 			"/>
		</g>
		<g>
			<polygon class="st17" points="35.552,14.096 24.101,19.997 12.65,14.096 24.101,8.195 			"/>
			<polygon class="st30" points="24.101,19.997 35.552,14.096 35.552,15.816 24.101,21.72 			"/>
			<polygon class="st31" points="24.101,19.997 12.65,14.096 12.65,15.816 24.101,21.72 			"/>
		</g>
	</g>
</g>
<g id="hex-system_x60_47x54">
	<polygon id="_x3E_bg_16_" class="st32" points="46.5,40.3 23.2,53.7 0,40.3 0,13.4 23.2,0 46.5,13.4 	"/>
	<polygon class="st33" points="29.425,16.177 35.576,26.873 29.425,37.523 17.075,37.523 10.924,26.873 17.075,16.177 	"/>
</g>
<g id="hex-storage_x60_49x57">
	<polygon id="_x3E_bg_5_" class="st34" points="47.5,41.454 24.2,54.854 1,41.454 1,14.554 24.2,1.154 47.5,14.554 	"/>
	<polygon class="st35" points="35.1,37.254 35.1,33.454 24.1,41.554 24.1,45.654 	"/>
	<polyline class="st36" points="24.1,41.554 9.1,30.554 9.1,34.854 24,45.854 	"/>
	<polygon class="st17" points="20.6,23.254 9.5,30.554 24.4,41.654 35.1,33.454 	"/>
	<polygon class="st37" points="15,26.954 29.4,37.854 35.1,33.454 20.6,22.354 	"/>
	<polygon class="st35" points="38.1,26.154 38.1,22.354 28.1,30.154 28.1,34.254 	"/>
	<polyline class="st36" points="28,30.154 13.1,19.154 13.1,23.454 28,34.454 	"/>
	<polygon class="st17" points="23.8,12.154 13.2,19.154 28.1,30.254 38.3,22.354 	"/>
	<g>
		<g>
			<line class="st38" x1="34.9" y1="6.554" x2="33.6" y2="7.354"/>
			<line class="st39" x1="31.6" y1="8.654" x2="27.7" y2="11.354"/>
			<line class="st38" x1="26.7" y1="12.054" x2="25.5" y2="12.854"/>
		</g>
	</g>
	<g>
		<g>
			<line class="st38" x1="39.7" y1="9.654" x2="38.5" y2="10.454"/>
			<line class="st39" x1="36.5" y1="11.854" x2="32.5" y2="14.454"/>
			<line class="st38" x1="31.5" y1="15.154" x2="30.3" y2="15.954"/>
		</g>
	</g>
	<g>
		<g>
			<line class="st38" x1="44.5" y1="12.754" x2="43.3" y2="13.554"/>
			<line class="st39" x1="41.3" y1="14.954" x2="37.4" y2="17.654"/>
			<line class="st38" x1="36.4" y1="18.254" x2="35.1" y2="19.154"/>
		</g>
	</g>
	<g>
		<g>
			<line class="st38" x1="12.6" y1="37.254" x2="11.4" y2="38.154"/>
			<line class="st40" x1="9.7" y1="39.354" x2="6.3" y2="41.754"/>
			<line class="st38" x1="5.5" y1="42.454" x2="4.3" y2="43.254"/>
		</g>
	</g>
	<g>
		<g>
			<line class="st38" x1="17.4" y1="40.354" x2="16.2" y2="41.254"/>
			<line class="st41" x1="14.5" y1="42.454" x2="11.2" y2="44.954"/>
			<line class="st38" x1="10.3" y1="45.554" x2="9.1" y2="46.454"/>
		</g>
	</g>
	<g>
		<g>
			<line class="st38" x1="22.3" y1="43.454" x2="21.1" y2="44.354"/>
			<line class="st42" x1="19.4" y1="45.554" x2="16" y2="48.054"/>
			<line class="st38" x1="15.2" y1="48.654" x2="13.9" y2="49.554"/>
		</g>
	</g>
</g>
<g id="hex-java_x60_49x57">
	<polygon id="_x3E_bg_6_" class="st43" points="47.5,41.454 24.2,54.854 1,41.454 1,14.554 24.2,1.154 47.5,14.554 	"/>
	<ellipse class="st17" cx="23" cy="41.154" rx="7.2" ry="4.8"/>
	<ellipse class="st44" cx="23" cy="26.754" rx="12.5" ry="6.7"/>
	<g>
		<g>
			<g>
				<g>
					<g>
						<g>
							<defs>
								<ellipse id="SVGID_11_" cx="23" cy="29.254" rx="10.4" ry="5.6"/>
							</defs>
							<clipPath id="SVGID_12_">
								<use xlink:href="#SVGID_11_"  style="overflow:visible;"/>
							</clipPath>
							<ellipse class="st45" cx="23" cy="29.254" rx="10.4" ry="5.6"/>
						</g>
					</g>
				</g>
			</g>
		</g>
		<g>
			<g>
				<g>
					<g>
						<g>
							<defs>
								<ellipse id="SVGID_13_" cx="23" cy="29.254" rx="10.4" ry="5.6"/>
							</defs>
							<clipPath id="SVGID_14_">
								<use xlink:href="#SVGID_13_"  style="overflow:visible;"/>
							</clipPath>
							<path class="st46" d="M39,21.754H13v6.7c1.9-1.3,4.7-2.1,8-2.1c4.5,0,8.2,1.6,9.7,3.8C30.7,30.054,38.4,29.354,39,21.754z"/>
						</g>
					</g>
				</g>
			</g>
		</g>
	</g>
	<path class="st17" d="M30,41.754c-0.9,1.9-3.6,2.4-6.9,2.4s-6.1-0.9-6.9-2.2H16c-6.4-8-5.8-15-5.8-15l0.2-0.5
		c0,3.7,5.5,6.9,12.4,6.9s12.6-3,12.6-6.7v0.1C35.5,26.854,36.4,34.154,30,41.754L30,41.754L30,41.754z"/>
	<g>
		<path class="st17" d="M23,22.054c6,0,10.5,2.5,10.5,4.7s-4.5,4.7-10.5,4.7s-10.5-2.5-10.5-4.7S17,22.054,23,22.054 M23,20.054
			c-6.9,0-12.5,3-12.5,6.7s5.6,6.7,12.5,6.7s12.5-3,12.5-6.7S29.9,20.054,23,20.054L23,20.054z"/>
	</g>
	<path class="st47" d="M35.3,27.454c3.3,0,6,2.7,6,6s-2.7,6-6,6s-5.1,0-5.1,0"/>
	<path class="st47" d="M35.3,27.454c3.3,0,6,2.7,6,6s-2.7,6-6,6s-5.1,0-5.1,0"/>
	<path class="st48" d="M35.4,28.054c2.1,0,4,1.3,4.8,3.1"/>
	<line class="st48" x1="31.2" y1="40.354" x2="36.9" y2="40.354"/>
	<path class="st48" d="M16.7,40.254c-2.7-3.6-3.7-6.9-4.2-8.9"/>
	<path class="st49" d="M32.3,10.754c-1.1,3.8-4.1,6.3-5.5,7.4"/>
	<path class="st49" d="M16.7,19.254c-0.6-4.5,2-6.7,4.1-8.4c0.6-0.5,1.1-1,1.5-1.4"/>
	<path class="st49" d="M27.7,5.654c1.2,4.5-2.1,7.3-3.9,8.8c-2.1,1.8-2.6,2.4-2.4,4.1"/>
</g>
<g id="hex-php_x60_49x57">
	<polygon id="_x3E_bg_7_" class="st50" points="47.5,41.454 24.2,54.854 1,41.454 1,14.554 24.2,1.154 47.5,14.554 	"/>
	<polyline class="st51" points="31.3,33.554 24.2,56.054 48.4,41.954 48.5,15.854 37.6,14.254 	"/>
	<polygon class="st52" points="40.5,17.254 47.3,27.054 36.6,45.354 32.7,36.854 	"/>
	<polygon class="st51" points="18.5,15.454 24.2,10.354 29.9,11.254 37,10.354 45.4,26.954 36.8,38.954 28,34.854 29.3,27.154 
		28,33.454 24.9,33.254 22.3,36.054 20.5,35.754 20.3,33.754 18.5,34.754 16.4,43.454 12.1,44.454 3.6,38.954 6.4,37.654 
		11.6,40.354 13.6,38.954 11.9,27.854 	"/>
	<polygon class="st17" points="20.9,27.354 22.1,29.654 18,30.554 8.6,23.454 10,22.754 17.9,27.854 	"/>
	<polygon class="st17" points="10.7,29.054 7.9,29.054 3.3,25.154 2.3,25.854 7.2,30.654 11.3,31.054 	"/>
	<circle class="st53" cx="24.2" cy="21.154" r="1.8"/>
	<polygon class="st52" points="31.3,18.554 28.2,33.554 25.4,33.354 	"/>
</g>
<g id="hex-couch-db_x60_49x57">
	<polygon id="_x3E_bg_8_" class="st54" points="47.5,41.454 24.2,54.854 1,41.454 1,14.554 24.2,1.154 47.5,14.554 	"/>
	<g>
		<polygon class="st55" points="4.4,39.054 44.1,39.054 44.1,23.754 41.7,23.754 41.7,16.354 7.2,16.354 7.2,23.754 4.4,23.754 		
			"/>
		<polygon class="st56" points="39.1,25.054 39.1,18.454 9.7,18.454 9.7,23.954 7.3,23.954 7.3,36.754 9.7,36.754 11.3,36.754 
			35.7,36.754 39.1,36.754 41.5,36.754 41.5,25.054 		"/>
		<polygon class="st55" points="11.3,32.454 11.3,38.254 37.2,38.254 37.2,32.054 19,34.154 		"/>
		<polygon class="st55" points="11.3,24.854 11.3,28.754 17.8,30.954 37.2,29.054 37.2,25.154 33.2,27.654 26.5,24.854 18.7,26.354 
					"/>
		<polygon class="st17" points="8.4,22.454 11.6,21.154 10.4,19.854 10.4,15.254 14.9,15.254 14.9,20.054 20.6,15.354 28,16.854 
			28.2,18.454 25.9,18.454 24.7,18.454 21.9,18.454 18.8,21.754 20.7,24.354 27.4,22.054 33.4,26.954 36.8,27.754 37.2,29.054 
			31.3,29.654 31,28.854 30.7,28.654 27,26.354 20.3,30.554 21.4,40.954 18.1,41.054 15.6,30.254 14.5,29.854 11.2,25.354 
			9.7,25.354 9.7,26.454 8.9,26.054 8.9,27.754 7.3,27.154 7.3,23.754 		"/>
	</g>
</g>
<g id="hex-mongo-db_x60_49x57">
	<polygon id="_x3E_bg_1_" class="st57" points="47.5,41.454 24.2,54.854 1,41.454 1,14.554 24.2,1.154 47.5,14.554 	"/>
	<path class="st58" d="M24.2,10.454v32c0,0,8.6-3.6,8.6-15.8S24.2,10.454,24.2,10.454z"/>
	<path class="st59" d="M24.2,10.454v32c0,0-8.6-3.6-8.6-15.8S24.2,10.454,24.2,10.454z"/>
	<line class="st60" x1="24.2" y1="42.454" x2="24.2" y2="46.654"/>
</g>
<g id="hex-maria-db_x60_49x57">
	<polygon id="_x3E_bg_9_" class="st61" points="47.5,41.454 24.2,54.854 1,41.454 1,14.554 24.2,1.154 47.5,14.554 	"/>
	<circle class="st17" cx="21.7" cy="10.454" r="0.8"/>
	<circle class="st17" cx="26.1" cy="6.754" r="0.8"/>
	<circle class="st17" cx="10.2" cy="12.754" r="0.8"/>
	<circle class="st17" cx="45.1" cy="26.154" r="0.8"/>
	<polygon class="st62" points="24.1,55.954 5.7,45.154 43,45.254 	"/>
	<path id="path3352_5_" class="st63" d="M21,54.154c0,0,3.4-17.2,5.1-19.8c1.8-2.8,4.6-4.5,7.1-6.3c2.9-2,5.5-4.1,5.9-8
		c-3-0.3-3.7-1-4.2-2.5c-1.5,0.9-2.9,1-4.5,1.1c-1.4,0-2.9,0-4.7,0.2c-13.4,1.4-23.8,24.3-23.8,24.3L21,54.154z"/>
	
		<radialGradient id="path3352_1_" cx="1096.0859" cy="2925.8984" r="22.8235" gradientTransform="matrix(0.3794 -0.9252 -0.3629 -0.1488 671.7132 1495.2709)" gradientUnits="userSpaceOnUse">
		<stop  offset="0" style="stop-color:#543824"/>
		<stop  offset="1" style="stop-color:#8B5E3C;stop-opacity:0"/>
	</radialGradient>
	<path id="path3352_2_" class="st64" d="M21,54.154c0,0,3.4-17.2,5.1-19.8c1.8-2.8,4.6-4.5,7.1-6.3c2.9-2,5.5-4.1,5.9-8
		c-3-0.3-3.7-1-4.2-2.5c-1.5,0.9-2.9,1-4.5,1.1c-1.4,0-2.9,0-4.7,0.2c-13.4,1.4-23.8,24.3-23.8,24.3L21,54.154z"/>
	
		<radialGradient id="path4028_1_" cx="-23.8144" cy="347.9141" r="12.9538" gradientTransform="matrix(0.108 0.3929 -1.445 0.397 530.5767 -110.8249)" gradientUnits="userSpaceOnUse">
		<stop  offset="0" style="stop-color:#FFFFFF"/>
		<stop  offset="1" style="stop-color:#FFFFFF;stop-opacity:0"/>
	</radialGradient>
	<path id="path4028_3_" class="st65" d="M34.9,17.554c-1.5,0.9-2.9,1-4.5,1.1c-1.4,0-2.9,0-4.7,0.2c-5.7,0.6-11,5.4-14.1,9
		l12.5,12.6c0.7-2.8,1.3-5,2-6.1c1.8-2.8,4.6-4.5,7.1-6.3c2.9-2,5.4-4.1,5.9-8C36.1,19.854,35.4,19.154,34.9,17.554z"/>
	<path id="path3880_6_" class="st66" d="M20.6,25.154c2.2,1.9,6.7,0.4,5.9-3.4C23.1,21.554,21.2,22.654,20.6,25.154z"/>
	<path id="path3880_5_" class="st17" d="M23.7,23.354c0.5,0.4,1.5,0.1,1.3-0.8C24.2,22.454,23.8,22.754,23.7,23.354z"/>
	<path id="path3882_3_" class="st67" d="M35.1,23.354c0,0.9-0.3,2.1,0.4,4c0.1,0.3,0,0.6-0.2,0.2c-0.7-1.8-0.6-2.8-0.5-4.1
		C34.8,22.854,35.1,22.954,35.1,23.354z"/>
	<path id="path3884_3_" class="st67" d="M34.1,23.354c-0.2,1.1-1,3.2-0.4,5.8c0.1,0.4-0.2,0.8-0.3,0.1c-0.6-2.5,0-4.3,0.3-5.9
		C33.9,22.754,34.1,22.954,34.1,23.354z"/>
	<path id="path3888_3_" class="st67" d="M33,23.254c-0.4,1.1-1.6,4.6-1.3,7.2c0,0.4-0.3,0.8-0.3,0.1c-0.2-2.5,0.8-5.8,1.3-7.3
		C32.9,22.554,33.1,22.754,33,23.254z"/>
	<path class="st68" d="M34.9,17.554c0,0,2.3-2.5,3.6-2.4c0.7,0.1,1.1,0.3,1.4,1.2c0.3,0.9-0.8,3.7-0.8,3.7s-2,0.2-3-0.4
		S34.9,17.554,34.9,17.554z"/>
	<polygon class="st17" points="47.3,42.754 37.5,48.354 36.1,49.254 36.7,41.254 41.3,34.254 43.9,37.954 45.9,41.154 	"/>
	<polygon class="st69" points="39.7,39.054 40.3,43.154 37.5,48.354 36.1,49.254 33.8,50.554 37.9,36.554 41.4,34.254 	"/>
</g>
<g id="hex-postgres-db_x60_49x57">
	<polygon id="_x3E_bg_10_" class="st70" points="47.5,41.454 24.2,54.854 1,41.454 1,14.554 24.2,1.154 47.5,14.554 	"/>
	<path class="st71" d="M21.8,37.554v8.9c0,2.2,1.8,3.9,3.9,3.9s3.9-1.8,3.9-3.9v-8.7c0-1.9,1.4-3.4,3.2-3.6v-10.5
		c0-5.2-4.3-9.5-9.5-9.5s-9.5,4.3-9.5,9.5v8.5c0,1.4,1,2.5,2.3,2.6c0.6-0.4,1.3-0.7,2.1-0.7C20.1,34.154,21.7,35.654,21.8,37.554
		L21.8,37.554L21.8,37.554z"/>
	<circle class="st72" cx="29.5" cy="24.654" r="3.3"/>
	<path class="st72" d="M26.5,26.054c0,0,4.7,5.6,4.7,8.8c0,0,0.7-0.6,1.7-0.6v-9.5"/>
	<circle class="st72" cx="17.8" cy="25.054" r="3.9"/>
	<path class="st72" d="M21.6,25.054c0,3.5-3.1,5.3-3.1,9c0,0-2.1,0.3-2.4,0.8c0,0-0.7,0.1-1.5-0.8s-0.7-1.9-0.7-1.9v-6.8"/>
	<circle class="st71" cx="17.9" cy="24.654" r="1.3"/>
	<circle class="st72" cx="23.1" cy="37.454" r="1.3"/>
	<rect x="21.8" y="37.454" class="st72" width="2.6" height="9.3"/>
	<circle class="st72" cx="25.7" cy="49.054" r="1.3"/>
	<path class="st72" d="M24.4,46.754c0,0.9,0.3,1,1.3,1s0,2.6,0,2.6c-2.4,0-3.9-2.1-3.9-3.6"/>
	<path class="st71" d="M17.3,12.054c-7.3,0-13.1,5.9-13.1,13.1c0,5.1,2.9,9.5,7.1,11.6v-4.2c0-0.1,0-0.3,0-0.4v-8.5
		c0-5.3,3.4-9.7,8-11.4l0,0C18.6,12.054,18,12.054,17.3,12.054z"/>
	<path class="st71" d="M18.2,36.254c-1-0.1-2,0.6-2.1,1.6c-0.6,4.1,0.6,8.8,0.6,8.8s2.4-3.3,3.1-8.2l0,0l0,0
		C19.9,37.354,19.2,36.454,18.2,36.254z"/>
	<path class="st71" d="M34.9,37.554L34.9,37.554c-0.1-1-1.1-1.8-2.1-1.6s-1.8,1.1-1.6,2.1c0.5,4.2,2.9,8.3,2.9,8.3
		S35.5,42.454,34.9,37.554z"/>
	<path class="st72" d="M8,15.854c-2.4,2.4-3.8,5.7-3.8,9.3c0,3.6,1.5,6.9,3.8,9.3V15.854z"/>
	<circle class="st71" cx="29.5" cy="24.654" r="1.3"/>
	<circle class="st72" cx="17.9" cy="38.154" r="1.9"/>
	<circle class="st72" cx="33.1" cy="37.754" r="1.9"/>
	<g>
		<path class="st71" d="M29.8,11.754c-1,0-1.9,0.1-2.8,0.3c4.9,1.6,8.5,6.2,8.5,11.6v11.7c4.9-4.9,6.3-7.1,6.3-11.7
			C41.8,17.054,36.4,11.754,29.8,11.754z"/>
	</g>
	<path class="st72" d="M36.8,28.654c0,1.5,0.5,2.8,1.4,3.9c2.8-3.1,3.6-5.3,3.6-8.9c0-0.4,0-0.8-0.1-1.2
		C38.9,23.154,36.8,25.654,36.8,28.654z"/>
</g>
<g id="hex-redis_x60_49x57">
	<polygon id="_x3E_bg_11_" class="st73" points="47.5,41.454 24.2,54.854 1,41.454 1,14.554 24.2,1.154 47.5,14.554 	"/>
	<polygon class="st74" points="24.1,45.654 7.3,36.454 7.3,32.454 24.1,41.654 	"/>
	<polygon class="st75" points="7.3,32.454 24.1,41.654 42.1,32.354 25.4,23.154 	"/>
	<polygon class="st74" points="24.1,45.654 42.1,36.254 42.1,32.354 24.1,41.654 	"/>
	<polygon class="st74" points="24.1,39.254 7.3,30.054 7.3,26.154 24.1,35.354 	"/>
	<polygon class="st75" points="7.3,26.154 24.1,35.354 42.1,25.954 25.4,16.754 	"/>
	<polygon class="st74" points="24.1,39.254 42.1,29.954 42.1,25.954 24.1,35.354 	"/>
	<polygon class="st74" points="24.1,32.954 7.3,23.754 7.3,19.754 24.1,28.954 	"/>
	<polygon class="st75" points="7.3,19.754 24.1,28.954 42.1,19.654 25.4,10.454 	"/>
	<polygon class="st74" points="24.1,32.954 42.1,23.554 42.1,19.654 24.1,28.954 	"/>
</g>
<g id="hex-percona-db_x60_49x57">
	<polygon id="_x3E_bg_12_" class="st76" points="47.5,41.454 24.2,54.854 1,41.454 1,14.554 24.2,1.154 47.5,14.554 	"/>
	<circle class="st77" cx="24.6" cy="27.254" r="16.1"/>
	<circle class="st78" cx="24.6" cy="27.254" r="9.4"/>
	<polygon class="st77" points="15.3,50.954 8.7,47.154 8.7,27.654 15.3,27.654 	"/>
</g>
<g id="hex-default_x60_49x57">
	<polygon id="_x3E_bg_13_" class="st79" points="47.5,41.454 24.2,54.854 1,41.454 1,14.554 24.2,1.154 47.5,14.554 	"/>
	<circle class="st80" cx="24.3" cy="27.054" r="11.7"/>
	<circle class="st17" cx="12.5" cy="11.554" r="1.3"/>
	<circle class="st17" cx="43.3" cy="15.154" r="1.3"/>
	<circle class="st17" cx="4.4" cy="17.754" r="0.9"/>
	<circle class="st17" cx="33.6" cy="40.654" r="0.9"/>
	<circle class="st17" cx="22.4" cy="41.454" r="0.9"/>
	<circle class="st17" cx="17.8" cy="46.654" r="0.9"/>
	<circle class="st17" cx="43.5" cy="41.454" r="0.9"/>
	<circle class="st17" cx="12.8" cy="41.454" r="2.5"/>
	<circle class="st17" cx="36.4" cy="13.054" r="2.5"/>
	<circle class="st17" cx="40" cy="20.154" r="1.8"/>
	<path class="st81" d="M36,27.054c0,6.4-23.3,6.4-23.3,0c0-6.4,5.2-11.7,11.7-11.7C30.8,15.354,36,20.654,36,27.054z"/>
	<path class="st82" d="M30.4,22.154c-2-2.3-6.6-3.8-8.9-3.6c2.3-1.3,3.9-1.3,5.7-0.7C29,18.454,30.1,20.054,30.4,22.154z"/>
</g>
<g id="hex-default-db_x60_49x57">
	<polygon id="_x3E_bg_14_" class="st83" points="47.5,41.454 24.2,54.854 1,41.454 1,14.554 24.2,1.154 47.5,14.554 	"/>
	<polygon class="st84" points="37.1,39.154 31,43.754 12.7,49.454 0,41.954 0,32.754 13.1,29.054 17.4,31.654 	"/>
	<polygon class="st85" points="17.1,38.754 10.4,34.354 17.1,29.954 30.4,29.954 37.1,34.354 30.4,38.754 	"/>
	<polygon class="st86" points="37.1,34.354 37.1,39.154 30.4,43.554 30.4,38.754 	"/>
	<rect x="17.1" y="38.754" class="st87" width="13.3" height="4.7"/>
	<polygon class="st88" points="17.1,38.754 10.4,34.354 10.4,39.154 17.1,43.554 	"/>
	<polygon class="st85" points="17.1,30.254 10.4,25.854 17.1,21.454 30.4,21.454 37.1,25.854 30.4,30.254 	"/>
	<polygon class="st86" points="37.1,25.854 37.1,30.554 30.4,34.954 30.4,30.254 	"/>
	<rect x="17.1" y="30.254" class="st87" width="13.3" height="4.7"/>
	<polygon class="st88" points="17.1,30.254 10.4,25.854 10.4,30.554 17.1,34.954 	"/>
	<polygon class="st85" points="17.1,21.654 10.4,17.254 17.1,12.854 30.4,12.854 37.1,17.254 30.4,21.654 	"/>
	<polygon class="st86" points="37.1,17.254 37.1,22.054 30.4,26.454 30.4,21.654 	"/>
	<rect x="17.1" y="21.654" class="st87" width="13.3" height="4.7"/>
	<polygon class="st88" points="17.1,21.654 10.4,17.254 10.4,22.054 17.1,26.454 	"/>
</g>
<g id="hex-empty_x60_48x55">
	<polygon class="st89" points="47,40.877 23.7,54.277 0.5,40.877 0.5,13.977 23.7,0.577 47,13.977 	"/>
</g>
<g id="docs_x60_28x23">
	<path class="st90" d="M1.456,0.656l-0.9,14.9c7-0.9,12.1,2.6,12.1,2.6c0.6,0.6,1.4,0.6,2,0c0,0,5-3.2,12-2.4l-0.9-15.2"/>
	<path class="st90" d="M1.756,18.956c6.4-0.8,11.2,2.7,11.2,2.7c0.4,0.4,1.1,0.4,1.5,0c0,0,4.8-3.5,11.2-2.7"/>
	<path class="st91" d="M23.356,0.356c-5.2,0-7.8,1.2-8.9,2v13c1.5-0.9,5.2-2.6,9.7-2.1L23.356,0.356z"/>
	<path class="st91" d="M12.956,2.456c-1.1-0.8-3.8-2-8.9-2l-0.8,12.9c4.5-0.6,8.2,1.2,9.7,2.1V2.456z"/>
</g>
<g id="close-x_x60_18x18">
	<path class="st17" d="M17.5,16c0.2,0.2,0.3,0.4,0.3,0.7c0,0.3-0.1,0.5-0.3,0.7c-0.2,0.2-0.5,0.3-0.8,0.3s-0.5-0.1-0.7-0.3l-7.1-7.1
		l-7.2,7.1c-0.2,0.2-0.4,0.3-0.7,0.3c-0.2,0-0.3,0-0.4-0.1s-0.2-0.1-0.3-0.2C0.1,17.2,0,17,0,16.7c0-0.3,0.1-0.5,0.3-0.7l7.1-7.1
		L0.3,1.8C0.2,1.7,0.1,1.6,0.1,1.5C0,1.4,0,1.2,0,1.1s0-0.3,0.1-0.4s0.1-0.2,0.2-0.4C0.5,0.1,0.7,0,1,0c0.3,0,0.5,0.1,0.7,0.3
		l7.2,7.2L16,0.3C16.2,0.1,16.4,0,16.7,0c0.3,0,0.5,0.1,0.7,0.3c0.1,0.1,0.2,0.2,0.2,0.4c0,0.1,0.1,0.3,0.1,0.4s0,0.3-0.1,0.4
		c0,0.1-0.1,0.2-0.2,0.3l-7.1,7.1L17.5,16z"/>
</g>
<g id="external-link_x60_10x10">
	<line class="st92" x1="0.44" y1="8.74" x2="8.74" y2="0.44"/>
	<polyline class="st92" points="8.74,8.04 8.74,0.44 1.14,0.44 	"/>
</g>
<g id="new-btn_x60_28x32">
	<polygon class="st17" points="0,23.5 13.5,31.3 27.1,23.5 27.1,7.8 13.5,0 0,7.8 	"/>
	<circle class="st93" cx="13.5" cy="15.9" r="8.9"/>
	<line class="st49" x1="13.5" y1="10.7" x2="13.5" y2="21.2"/>
	<line class="st49" x1="18.8" y1="15.9" x2="8.4" y2="15.9"/>
</g>
<g id="check-mark_x60_13x10">
	<path class="st17" d="M11.8,2.3c0.3-0.3,0.4-0.6,0.4-1s-0.1-0.7-0.4-0.9c-0.3-0.3-0.6-0.4-1-0.4s-0.7,0.1-1,0.4L4.5,5.7L2.4,3.6
		c-0.3-0.3-0.6-0.4-1-0.4s-0.7,0.1-1,0.4C0.1,3.9,0,4.2,0,4.6s0.1,0.7,0.4,1l3.1,3.1c0.2,0.3,0.6,0.4,1,0.4c0.1,0,0.3,0,0.5-0.1
		s0.3-0.2,0.5-0.3L11.8,2.3z"/>
</g>
<g id="gear_x60_16x15">
	<path class="st94" d="M12.8,8.7c-0.1,0.3-0.2,0.6-0.3,0.8S12.3,10,12,10.2l1.9,1.7L12,13.6l-1.5-1.7c-0.6,0.4-1.1,0.6-1.7,0.6L9,15
		H6.4l0.2-2.5c-0.4,0-0.7,0-0.9-0.1S5.2,12.2,4.9,12l-1.7,1.7L1.5,12l1.7-1.7c0-0.1-0.1-0.2-0.2-0.3C2.9,9.9,2.9,9.8,2.8,9.6
		C2.7,9.5,2.7,9.3,2.6,9.2c0-0.1-0.1-0.3-0.1-0.4H0V6.3h2.5c0-0.1,0-0.3,0.1-0.4s0.1-0.3,0.2-0.4C2.9,5.4,2.9,5.2,3,5.1
		C3.1,5,3.1,4.9,3.2,4.8L1.5,3.1l1.7-1.7l1.7,1.7C5,3,5.2,2.9,5.3,2.8c0.1-0.1,0.3-0.1,0.4-0.2S6,2.5,6.1,2.4c0.1,0,0.3-0.1,0.5-0.1
		L6.4,0h2.7L8.9,2.3c0.3,0.1,0.6,0.2,0.8,0.3c0.3,0.1,0.6,0.2,0.8,0.5L12,1.4l1.9,1.7L12,4.8c0.2,0.2,0.4,0.4,0.5,0.7
		s0.2,0.5,0.3,0.8h2.5v2.5h-2.5V8.7z M7.7,4.5C7.3,4.5,7,4.6,6.6,4.7C6.3,4.9,6,5.1,5.7,5.3S5.2,5.9,5.1,6.2
		C4.9,6.5,4.9,6.9,4.9,7.3c0,0.4,0.1,0.8,0.2,1.2c0.1,0.4,0.4,0.7,0.6,0.9S6.3,9.8,6.6,10s0.7,0.2,1.1,0.2s0.7-0.1,1.1-0.2
		s0.6-0.3,0.9-0.6c0.3-0.2,0.5-0.5,0.6-0.9c0.2-0.3,0.2-0.7,0.2-1.2c0-0.4-0.1-0.7-0.2-1.1c-0.2-0.3-0.4-0.6-0.6-0.9
		C9.4,5,9.1,4.8,8.8,4.7C8.4,4.6,8.1,4.5,7.7,4.5z"/>
</g>
<g id="stack-trace_x60_19x11">
	<line class="st95" x1="0" y1="1" x2="16.4" y2="1"/>
	<line class="st95" x1="0" y1="5.4" x2="14.2" y2="5.4"/>
	<line class="st95" x1="0" y1="9.8" x2="18.5" y2="9.8"/>
</g>
</svg>
